<svg xmlns="http://www.w3.org/2000/svg" xmlns:xlink="http://www.w3.org/1999/xlink" width="35.445" height="35.445" viewBox="0 0 35.445 35.445">
  <defs>
    <clipPath id="clip-path">
      <rect id="Rectangle_276" data-name="Rectangle 276" width="25.059" height="25.069" fill="#57a68f"/>
    </clipPath>
  </defs>
  <g id="Group_397" data-name="Group 397" transform="translate(35.445 17.726) rotate(135)">
    <g id="Group_396" data-name="Group 396" transform="translate(0 0)" clip-path="url(#clip-path)">
      <path id="Path_1266" data-name="Path 1266" d="M18.717,0A8.575,8.575,0,0,0,15.48.773,25.711,25.711,0,0,0,1.042,14.794a11.108,11.108,0,0,0-1.006,3.33A5.928,5.928,0,0,0,1.59,22.872c.533.591,1.107,1.145,1.681,1.7a1.667,1.667,0,0,0,2.366.014q1.845-1.8,3.647-3.648a1.674,1.674,0,0,0-.031-2.368c-.5-.519-1.015-1.018-1.522-1.528a2.983,2.983,0,0,1,0-4.408q2.438-2.446,4.884-4.884a2.994,2.994,0,0,1,4.431.009c.482.48.959.964,1.443,1.442a1.734,1.734,0,0,0,2.526.01Q22.772,7.477,24.5,5.726a1.693,1.693,0,0,0-.01-2.516,27.809,27.809,0,0,0-2.21-2.066A5.671,5.671,0,0,0,18.717,0" transform="translate(0 0)" fill="#57a68f"/>
    </g>
  </g>
</svg>
