<svg xmlns="http://www.w3.org/2000/svg" width="44" height="44" viewBox="0 0 44 44">
  <g id="Group_106" data-name="Group 106" transform="translate(-1370 -2784)">
    <rect id="Rectangle_98" data-name="Rectangle 98" width="44" height="44" rx="22" transform="translate(1370 2784)" fill="#fff"/>
    <path id="Path_265" data-name="Path 265" d="M17.227,7.231a1.811,1.811,0,0,0-.581-.937Q13.709,3.362,10.781.421A1.238,1.238,0,0,0,9.368.1a1.23,1.23,0,0,0-.446,1.909c.064.078.134.151.206.222Q10.513,3.624,11.9,5.011a4,4,0,0,0,1.43,1.12l-.011.043h-.188q-5.869,0-11.739,0a1.315,1.315,0,0,0-1.026.37,1.155,1.155,0,0,0-.28,1.273,1.231,1.231,0,0,0,1.094.821,2.909,2.909,0,0,0,.3.008H13.314c-.265.181-.532.358-.792.545a2.294,2.294,0,0,0-.269.254q-1.585,1.593-3.17,3.186a1.285,1.285,0,0,0-.392,1.317,1.2,1.2,0,0,0,1.874.6,2.784,2.784,0,0,0,.25-.225q2.909-2.912,5.818-5.824a1.889,1.889,0,0,0,.594-.934Z" transform="translate(1383.475 2798.512)"/>
  </g>
</svg>
