<svg xmlns="http://www.w3.org/2000/svg" xmlns:xlink="http://www.w3.org/1999/xlink" width="11.936" height="6.83" viewBox="0 0 11.936 6.83">
  <defs>
    <clipPath id="clip-path">
      <rect id="Rectangle_584" data-name="Rectangle 584" width="11.936" height="6.83" fill="#57a68f"/>
    </clipPath>
  </defs>
  <g id="Group_991" data-name="Group 991" transform="translate(0)">
    <g id="Group_990" data-name="Group 990" transform="translate(0)" clip-path="url(#clip-path)">
      <path id="Path_1927" data-name="Path 1927" d="M5.969,0Q8.6,0,11.224,0a.659.659,0,0,1,.6.28.625.625,0,0,1-.025.755c-.08.1-.172.191-.26.285Q9.111,3.9,6.686,6.476a.906.906,0,0,1-1.434.005Q2.745,3.816.237,1.153A.715.715,0,0,1,0,.6.636.636,0,0,1,.595.005C.652,0,.71,0,.768,0h5.2" transform="translate(0 -0.001)" fill="#57a68f"/>
    </g>
  </g>
</svg>
