<svg id="Group_387" data-name="Group 387" xmlns="http://www.w3.org/2000/svg" xmlns:xlink="http://www.w3.org/1999/xlink" width="12.68" height="7.256" viewBox="0 0 12.68 7.256">
  <defs>
    <clipPath id="clip-path">
      <rect id="Rectangle_263" data-name="Rectangle 263" width="12.68" height="7.256" fill="#57a68f"/>
    </clipPath>
  </defs>
  <g id="Group_373" data-name="Group 373" clip-path="url(#clip-path)">
    <path id="Path_1262" data-name="Path 1262" d="M6.341,0q2.791,0,5.582,0a.7.7,0,0,1,.634.3.664.664,0,0,1-.027.8c-.085.106-.182.2-.276.3Q9.678,4.141,7.1,6.879a.963.963,0,0,1-1.524.005Q2.916,4.053.251,1.224A.76.76,0,0,1,0,.634.675.675,0,0,1,.631,0C.693,0,.754,0,.815,0H6.341" transform="translate(0.001 0)" fill="#57a68f"/>
  </g>
</svg>
