<svg xmlns="http://www.w3.org/2000/svg" xmlns:xlink="http://www.w3.org/1999/xlink" width="17.227" height="14.8" viewBox="0 0 17.227 14.8">
  <defs>
    <clipPath id="clip-path">
      <rect id="Rectangle_68" data-name="Rectangle 68" width="17.227" height="14.799" fill="#57a68f"/>
    </clipPath>
  </defs>
  <g id="Group_28" data-name="Group 28" opacity="0.4" clip-path="url(#clip-path)">
    <path id="Path_265" data-name="Path 265" d="M0,7.231a1.811,1.811,0,0,1,.581-.937Q3.518,3.362,6.446.421A1.238,1.238,0,0,1,7.859.1,1.23,1.23,0,0,1,8.3,2.013c-.064.078-.134.151-.206.222Q6.714,3.624,5.328,5.011A4,4,0,0,1,3.9,6.131l.011.043H4.1q5.869,0,11.739,0a1.315,1.315,0,0,1,1.026.37,1.155,1.155,0,0,1,.28,1.273,1.231,1.231,0,0,1-1.095.821,2.909,2.909,0,0,1-.3.008H3.913c.265.181.532.358.792.545a2.3,2.3,0,0,1,.269.254q1.585,1.593,3.17,3.186a1.285,1.285,0,0,1,.392,1.317,1.2,1.2,0,0,1-1.874.6,2.784,2.784,0,0,1-.25-.225Q3.5,11.413.594,8.5A1.889,1.889,0,0,1,0,7.568Z" transform="translate(0 0)" fill="#57a68f"/>
  </g>
</svg>
