<svg xmlns="http://www.w3.org/2000/svg" xmlns:xlink="http://www.w3.org/1999/xlink" width="46.876" height="46.904" viewBox="0 0 46.876 46.904">
  <defs>
    <clipPath id="clip-path">
      <rect id="Rectangle_318" data-name="Rectangle 318" width="46.876" height="46.904" fill="none"/>
    </clipPath>
  </defs>
  <g id="Group_507" data-name="Group 507" clip-path="url(#clip-path)">
    <path id="Path_1398" data-name="Path 1398" d="M46.877,24.91c-.149.976-.269,1.958-.452,2.928A23.425,23.425,0,1,1,20.352.19c.381-.051.759-.126,1.138-.19h3.761c.433.066.865.138,1.3.2A23.447,23.447,0,0,1,46.327,18.562c.241,1.111.369,2.247.55,3.371ZM1.557,23.456A21.884,21.884,0,1,0,23.4,1.538,21.943,21.943,0,0,0,1.557,23.456" transform="translate(-0.001)"/>
    <path id="Path_1399" data-name="Path 1399" d="M81.068,49.709l3.749.664c-2.372,4.551-2.8,9.048.163,13.444,2.876,4.262,7.03,6.028,12.176,5.943L95.9,76.82,76.89,73.465l4.178-23.756m8.169,20.62-.025.079c-.182.013-.405-.037-.537.051-.385.258-.9.5-1.057.88a.941.941,0,0,0,.73,1.2,10.551,10.551,0,0,0,2.424.438,1.033,1.033,0,0,0,1.151-.857,1.1,1.1,0,0,0-.826-1.256c-.6-.232-1.238-.362-1.86-.537m-6.279,1.414.12-.154a12.432,12.432,0,0,0-1.042-2.142,1.311,1.311,0,0,0-1.242-.32,14.483,14.483,0,0,0-1.9,1.732l.133.189a8.232,8.232,0,0,1,2.028-.125,8.653,8.653,0,0,1,1.9.82M86,70.354c1.139.112,1.139.112,1.438-.216a33.635,33.635,0,0,0-3.708-.6l-.058.3,1.318.329-.276,1.847.926.144.361-1.8M92.436,73.4l3.206.531.064-.355L93.494,73.1l.3-1.856-.951-.115-.41,2.269" transform="translate(-64.805 -41.896)"/>
    <path id="Path_1400" data-name="Path 1400" d="M161.378,65.154,158.63,80.64c-.3-.013-.579,0-.85-.041a9.663,9.663,0,0,1-8.207-9.5,7.854,7.854,0,0,1,2.956-5.735c.1-.088.2-.164.3-.256a3.232,3.232,0,0,1,3.392-.916c1.654.437,3.369.641,5.162.964" transform="translate(-126.063 -53.979)"/>
    <path id="Path_1401" data-name="Path 1401" d="M222.983,210.512l-3.862-3.06c.494-.625.937-1.2,1.394-1.761a2.116,2.116,0,0,1,3.14-.572,2.446,2.446,0,0,1,.823,3.415c-.422.678-.963,1.281-1.5,1.978m.3-1.169c.6-.616,1.033-1.219.7-2.059a2.931,2.931,0,0,0-2.225-1.627c-.8.041-1.2.584-1.552,1.25l3.075,2.436" transform="translate(-184.682 -172.487)"/>
    <path id="Path_1402" data-name="Path 1402" d="M60.664,222.295a2.7,2.7,0,0,1-2.6,2.612,3.116,3.116,0,0,1-2.983-2.768,2.752,2.752,0,0,1,2.6-2.623,3.156,3.156,0,0,1,2.982,2.779m-.891-.652a1.378,1.378,0,0,0-1.727-1.317,3.014,3.014,0,0,0-2.03,2.112,1.365,1.365,0,0,0,1.337,1.706,2.92,2.92,0,0,0,2.42-2.5" transform="translate(-46.427 -185.015)"/>
    <path id="Path_1403" data-name="Path 1403" d="M30.218,193.379l4.253-2.5a15.7,15.7,0,0,1,1.13,2.117,1.311,1.311,0,0,1-.278,1.168,2.343,2.343,0,0,1-1.273.3c-.172.014-.361-.176-.631-.321l-1.257,2.392a1.237,1.237,0,0,1-.208-1.937,3.165,3.165,0,0,0,.569-1.284l-1.739,1.01-.566-.936M33.03,193c.561.724.969.79,1.563.349.535-.4.443-.809.027-1.278L33.03,193" transform="translate(-25.469 -160.875)"/>
    <path id="Path_1404" data-name="Path 1404" d="M21.89,168.279l-1.972.523-.3-1.041,4.753-1.31c.186.746.391,1.439.527,2.145a1.079,1.079,0,0,1-.745,1.36,1.292,1.292,0,0,1-1.653-.472,11.764,11.764,0,0,1-.6-1.2m.527-.126-.085.216c.285.2.559.538.856.56a1.716,1.716,0,0,0,1.024-.4c.129-.1.1-.466.054-.7-.01-.055-.358-.1-.53-.066-.446.1-.881.251-1.32.382" transform="translate(-16.53 -140.29)"/>
    <path id="Path_1405" data-name="Path 1405" d="M202.771,230.035l1.043,1.479,1.242-.972.394.466-2.226,1.58-2.833-4.012c.658-.471,1.273-.94,1.923-1.353.138-.088.406.027.614.049q0,.111,0,.222l-1.323.874.8,1.141c.637.042.917-1,1.774-.444l-1.4.97" transform="translate(-168.896 -191.483)"/>
    <path id="Path_1406" data-name="Path 1406" d="M120.906,249.747l-.325,1.737,1.522.255c-.078.655-.425.663-2.671.062l.8-4.784,2.658.45c-.122.458-.122.458-1.659.311l-.23,1.286c.356.563,1.368-.053,1.535.963l-1.631-.279" transform="translate(-100.661 -208.193)"/>
    <path id="Path_1407" data-name="Path 1407" d="M150.311,248.533c-1.156-.525-1.886-.507-2.439.144a2.784,2.784,0,0,0,.033,3.148c.62.764,1.371.77,2.784.108-.149.22-.25.518-.456.645a3.072,3.072,0,0,1-3.178-.263,2.667,2.667,0,0,1-.715-2.861,2.948,2.948,0,0,1,3.685-1.61c.17.089.195.454.287.691" transform="translate(-123.22 -208.716)"/>
    <path id="Path_1408" data-name="Path 1408" d="M177.726,240.452l1.584,4.084-1,.409-1.623-4.077-1.09.479-.209-.09c.09-.189.132-.484.277-.549q1.281-.569,2.608-1.031c.169-.059.415.106.626.167l-.062.231-1.111.378" transform="translate(-147.823 -201.996)"/>
    <path id="Path_1409" data-name="Path 1409" d="M94.695,243.194l-.986-.439,1.713-4-1.108-.479-.086-.189c.2-.069.446-.249.6-.19.873.335,1.732.709,2.574,1.115.159.077.221.356.327.542l-.2.134-1.064-.512-1.767,4.018" transform="translate(-78.981 -200.496)"/>
    <path id="Path_1410" data-name="Path 1410" d="M152.04,184.471c.89.043,1.494.437,1.455.929-.052.659-.555.792-1.078.733-.59-.066-1.308-.143-1.341-.921-.027-.643.535-.743.964-.74" transform="translate(-127.33 -155.477)"/>
  </g>
</svg>
