<svg id="Group_492" data-name="Group 492" xmlns="http://www.w3.org/2000/svg" xmlns:xlink="http://www.w3.org/1999/xlink" width="50.512" height="52.681" viewBox="0 0 50.512 52.681">
  <defs>
    <clipPath id="clip-path">
      <rect id="Rectangle_306" data-name="Rectangle 306" width="50.512" height="52.681" fill="none"/>
    </clipPath>
  </defs>
  <g id="Group_491" data-name="Group 491" clip-path="url(#clip-path)">
    <path id="Path_1289" data-name="Path 1289" d="M178.4,304.721a25,25,0,0,1-8.222,2.255c-.109.012-.247-.04-.31.109h-.411a.133.133,0,0,0-.206,0h-.411a.786.786,0,0,0-.617,0H167.4c-.2-.111-.412-.026-.616-.053-.123-.012-.265.043-.35-.1,0-.441.171-.694.657-.722.515-.03.724-.315.628-.834a.377.377,0,0,1,.265-.505c.538-.229.6-.358.464-.9-.063-.246.008-.328.226-.409.607-.226.658-.311.569-.94a.3.3,0,0,1,.214-.388c.61-.263.666-.354.531-.954-.059-.26.05-.32.253-.4.612-.228.707-.438.462-1.047a.669.669,0,0,1,.043-.634,8.719,8.719,0,0,1,.732-1.173.919.919,0,0,0,1.207-.615.527.527,0,0,1,.3-.273.908.908,0,0,1,.506.016,3.819,3.819,0,0,0,3.528-1.069,11.149,11.149,0,0,0,.925-.96c.12-.136.29-.371.464-.026a2.447,2.447,0,0,1,.056.713q0,4.175,0,8.35a1.511,1.511,0,0,1-.063.556" transform="translate(-143.572 -254.405)" fill="#596064"/>
    <path id="Path_1290" data-name="Path 1290" d="M160.164,312.362q-.221.4-.443.808c-.2.369-.5.661-.152,1.178.292.435-.163.894-.909,1.015.392.718.152,1.179-.733,1.332a.9.9,0,0,1,.031.948,1.017,1.017,0,0,1-.849.379c.365.666.206,1.129-.49,1.288-.306.07-.178.166-.129.326.153.5-.145,1.044-.627,1s-.613.222-.76.549a.268.268,0,0,1-.143.148c-.156.034-.327-.05-.474.058h-.206a.242.242,0,0,0-.214-.11.839.839,0,0,0-.6,0,.224.224,0,0,1-.214-.087,2.622,2.622,0,0,1,.46-.96.714.714,0,0,0,.047-.674.815.815,0,0,1,.37-1.138.508.508,0,0,0,.322-.553c-.04-.547.574-.695.731-1.027.167-.353.039-.871.511-1.109a.455.455,0,0,0,.3-.509.8.8,0,0,1,.552-.886c.213-.071.226-.177.214-.378a.853.853,0,0,1,.851-1,.614.614,0,0,0,.508-.362,6.944,6.944,0,0,1,.663-1.093,2.258,2.258,0,0,1,1.38.855" transform="translate(-132.196 -268.71)" fill="#d7ebfd"/>
    <path id="Path_1291" data-name="Path 1291" d="M168.736,382.669c.208.025.437-.085.619.1h-.617q-.05-.031-.035-.065c.01-.022.021-.034.032-.034" transform="translate(-145.523 -330.087)" fill="#4ab4fd"/>
    <path id="Path_1292" data-name="Path 1292" d="M179.453,382.715a.464.464,0,0,1,.617,0Z" transform="translate(-154.799 -330.034)" fill="#4ab4fd"/>
    <path id="Path_1293" data-name="Path 1293" d="M166.139,382.059c0,.033,0,.066,0,.1h-.411c-.036-.023-.048-.045-.036-.068s.024-.034.036-.034l.1-.1c.072.123.195.1.306.107" transform="translate(-142.926 -329.477)" fill="#61befd"/>
    <path id="Path_1294" data-name="Path 1294" d="M162.758,382.679v.1h-.514c.144-.17.34-.079.514-.1" transform="translate(-139.954 -330.101)" fill="#bce1fe"/>
    <path id="Path_1295" data-name="Path 1295" d="M186.936,382.889c.069-.113.137-.126.206,0Z" transform="translate(-161.254 -330.208)" fill="#9bd5fe"/>
    <path id="Path_1296" data-name="Path 1296" d="M232,1.689a9.939,9.939,0,0,1,10.611-.3,10.291,10.291,0,0,1,2.427,16.1c-.069.074-.129.156-.194.235a2.2,2.2,0,0,1-.716.783,9.789,9.789,0,0,1-3.845,1.951,1.388,1.388,0,0,0-.883.71c-.214.348-.286.81-.723,1a20.7,20.7,0,0,1-1.223-2.068,1.876,1.876,0,0,0-1.224-.911,9,9,0,0,1-3.883-2.2,6.758,6.758,0,0,1-.068-1.738A6.769,6.769,0,0,0,230.8,10.86,6.484,6.484,0,0,0,229.386,9.6a1.465,1.465,0,0,1-.539-.464,7.539,7.539,0,0,1,.542-3.4A9.94,9.94,0,0,1,232,1.689" transform="translate(-197.377 0)" fill="#db9e30"/>
    <path id="Path_1297" data-name="Path 1297" d="M82.109,263.056a1.485,1.485,0,0,1,.8-.088c1.141,0,2.283,0,3.424.009.836.08,1.674.018,2.512.034.56.011.607.039.615.615.014,1.027,0,2.055,0,3.083a4.543,4.543,0,0,0,.012.513c.066.573.385.782.924.587.837-.3,1.646-.679,2.475-1a3,3,0,0,1,.631-.212c.242-.028.36.135.487.3.4.535.761.532,1.174,0,.093-.12.157-.267.325-.308a2.431,2.431,0,0,1,1.133.437c.115.549.681.729.948,1.153a.813.813,0,0,1-.169.364.821.821,0,0,0,.024,1.1,6.748,6.748,0,0,1-.746,1.441c-.047.093-.125.12-.247.126-.885.048-1.118.421-.808,1.267-.85.155-1.036.466-.793,1.323-.87.216-1.053.549-.742,1.344-.861.166-1.048.473-.8,1.317-.9.253-1.068.578-.669,1.363a.278.278,0,0,1-.015.323,8.591,8.591,0,0,1-.726,1.168,24.536,24.536,0,0,1-9.457-3.206,1.041,1.041,0,0,1-.151-.638c0-2.69-.037-5.38.014-8.069a4.518,4.518,0,0,1,2.429-3.976,2.278,2.278,0,0,1,1.017-.3,24.153,24.153,0,0,1-3.307.066.4.4,0,0,1-.319-.141" transform="translate(-70.828 -226.83)" fill="#596064"/>
    <path id="Path_1298" data-name="Path 1298" d="M36.659,20.246q0,2.561,0,5.121a.392.392,0,0,1-.313.151,18.525,18.525,0,0,1-2.963-.048,1.226,1.226,0,0,0-.64-.14c-3.234.018-6.469-.006-9.7.016a.813.813,0,0,1-.353-.048,1.977,1.977,0,0,1-.027-1.554c.442-.16.872.051,1.313.044,1.573-.024,3.146-.009,4.719-.009,1.18,0,2.36,0,3.539,0a1.859,1.859,0,0,0,.9-.168.527.527,0,0,0,.329-.534.542.542,0,0,0-.465-.481,3.487,3.487,0,0,0-.716-.037c-3.078.005-6.155-.013-9.233.009a.842.842,0,0,1-.354-.043c-.207-.249-.144-.551-.149-.835-.009-.409-.006-.818,0-1.228A.685.685,0,0,1,23,19.741l12.623-.016a1.369,1.369,0,0,0,.154,0,.759.759,0,0,1,.886.522" transform="translate(-19.417 -17.007)" fill="#57a68f"/>
    <path id="Path_1299" data-name="Path 1299" d="M56.922,263.683h3.792a5.536,5.536,0,0,0-2.282,1.425,4.2,4.2,0,0,0-1.182,2.913c-.029,2.905-.011,5.811-.011,8.716a18.929,18.929,0,0,1-4.329-3.176c.007-1.793.007-3.585.022-5.378a4.541,4.541,0,0,1,3.486-4.434,4.222,4.222,0,0,1,.5-.066" transform="translate(-45.642 -227.457)" fill="#2f3e45"/>
    <path id="Path_1300" data-name="Path 1300" d="M3.579,19.811a1.043,1.043,0,0,0-.313.872c.027.629.009,1.261.009,1.891a2.075,2.075,0,0,0,0,1.226q0,.779,0,1.558a1.677,1.677,0,0,0,.12,1.333,8.214,8.214,0,0,1,0,1.341,1.339,1.339,0,0,0,0,1.414,6.558,6.558,0,0,1,.022,1.162,6,6,0,0,0,.167,1.536L.5,32.156a.7.7,0,0,1-.5-.746q0-5.433,0-10.867c0-.53.236-.746.755-.747.939,0,1.879.009,2.818.014" transform="translate(0 -17.077)" fill="#447e6d"/>
    <path id="Path_1301" data-name="Path 1301" d="M271.351,282.822c.724.081.827.188.827.884q0,2.9-.007,5.792a24.252,24.252,0,0,1-4.732,3.566.678.678,0,0,1-.155-.525c-.008-2.542-.012-5.084,0-7.626a1.122,1.122,0,0,1,.042-.3c.052-.192.209-.251.378-.289a1.59,1.59,0,0,0,1.093-.9c.145-.28.275-.588.609-.715a3.88,3.88,0,0,1,1.944.115" transform="translate(-230.556 -243.809)" fill="#596064"/>
    <path id="Path_1302" data-name="Path 1302" d="M254.827,290.339l0,8.594a12.029,12.029,0,0,1-2.051,1.061c-.176-.17-.1-.389-.1-.585q-.01-4.6-.009-9.193c-.074-.416.173-.622.5-.773a5.136,5.136,0,0,1,1.657.9" transform="translate(-217.941 -249.677)" fill="#2f3e45"/>
    <path id="Path_1303" data-name="Path 1303" d="M218.3,19.161a10.843,10.843,0,0,1,2.3-4.9,10.787,10.787,0,0,1,2.337-1.966c-.1.455-.514.67-.769,1a10.492,10.492,0,0,0-2.228,5.248c-.046.391-.074.779-.093,1.17a2.551,2.551,0,0,1-1.544-.556" transform="translate(-188.308 -10.606)" fill="#c18620"/>
    <path id="Path_1304" data-name="Path 1304" d="M154.8,381.948a.456.456,0,0,1,.6,0l-.6,0" transform="translate(-133.537 -329.375)" fill="#bae1fd"/>
    <path id="Path_1305" data-name="Path 1305" d="M213.7,197.522a1.513,1.513,0,0,0-.5.72,10.53,10.53,0,0,1-1.748,1.7,3.751,3.751,0,0,1-3.289.593,1.49,1.49,0,0,0-.3-.03,1.032,1.032,0,0,1-.958-.5c.914-1.617,1.857-3.216,2.787-4.824.137-.237.252-.483.37-.729a4.571,4.571,0,0,0,.474-.715c.878-1.585,1.806-3.142,2.707-4.713a8.313,8.313,0,0,0,.411-.768c.966-1.57,1.847-3.19,2.794-4.771.152-.253.193-.633.6-.671a3.93,3.93,0,0,1,2.08,3.9,8.923,8.923,0,0,1-1.3,3.52c-.13.1-.244.023-.361-.033-.453-.274-.918-.53-1.377-.8a.914.914,0,0,0-1.1.021.852.852,0,0,0-.314,1.086c.124.3.038.457-.307.539a.864.864,0,0,0-.7,1.3c.1.263.1.393-.217.476-.834.219-.96.427-.835,1.326.032.228-.018.363-.245.423a1.547,1.547,0,0,0-.337.124.886.886,0,0,0-.214,1.493,8.494,8.494,0,0,0,1.43.9c.156.138.456.122.46.424" transform="translate(-178.473 -157.703)" fill="#57a68f"/>
    <path id="Path_1306" data-name="Path 1306" d="M192.894,301.746l.926.5c-.1.159-.2.316-.29.476-.368.632-.468.666-1.126.372l-1.366-.839a.546.546,0,0,1-.279-.9c.119-.2.251-.4.377-.6a3.36,3.36,0,0,1,1.759.977" transform="translate(-164.437 -259.447)" fill="#e9f5fe"/>
    <path id="Path_1307" data-name="Path 1307" d="M24.071,74.53a1.232,1.232,0,0,1-.32-.98c.028-.6.006-1.2,0-1.8,1.446.059,2.893.036,4.339.038a6.462,6.462,0,0,0,.819-.02c.456-.057.708-.275.707-.6,0-.35-.279-.6-.745-.6-1.536-.015-3.073-.021-4.609,0-.168,0-.34.058-.5-.043l-.009-1.558a5.732,5.732,0,0,1,1.316.046c2.318-.018,4.636-.01,6.954-.007a2.129,2.129,0,0,1,.808.077.467.467,0,0,1,.208.488,7.515,7.515,0,0,0,.876,4.136,1.016,1.016,0,0,1-.51.832c-.394,0-.787-.013-1.181-.006-.55.009-.686.15-.694.714-.007.462.006.925,0,1.387-.006.229.073.516-.2.64s-.431-.132-.594-.294c-.657-.65-1.325-1.291-1.956-1.966a1.416,1.416,0,0,0-1.167-.495c-1.18.032-2.361.008-3.542.006" transform="translate(-20.486 -59.463)" fill="#57a68f"/>
    <path id="Path_1308" data-name="Path 1308" d="M100.252,138.488a6.387,6.387,0,0,1-3.139-2.649,5.7,5.7,0,0,1-.768-2.25c-.029-.295-.141-.363-.412-.371a2.779,2.779,0,0,1-1.157-.076c.238-.235.545-.176.826-.168.419.012.577-.163.573-.578-.011-1.146,0-2.291,0-3.437-.008-1.676.028-3.351.02-5.026a3.625,3.625,0,0,1,2.961-3.446,1.7,1.7,0,0,1,.44-.042,11.523,11.523,0,0,1,2.029.075c.169.345-.172.307-.306.353A3.7,3.7,0,0,0,99.8,121.9a3,3,0,0,0-.85,2.089c-.016,3.045-.032,6.09,0,9.134a5.821,5.821,0,0,0,4.326,5.324,5,5,0,0,1,1.285.321.134.134,0,0,1-.031.159,2.746,2.746,0,0,1-1.293.1c-.428,0-.634.135-.594.583a.692.692,0,0,1-.108.484c-.347.043-.256-.244-.275-.4-.082-.694-.076-.676-.782-.787a2.034,2.034,0,0,1-1.231-.42" transform="translate(-81.754 -103.891)" fill="#feaf9d"/>
    <path id="Path_1309" data-name="Path 1309" d="M80.843,125.362c0,2.958,0,5.915.012,8.872,0,.38-.1.525-.491.495-.356-.028-.717,0-1.076,0a2.609,2.609,0,0,1-2.444-2.459c-.023-.667-.038-1.338,0-2a2.512,2.512,0,0,1,1.447-2.209.643.643,0,0,0,.4-.709c-.01-1.473-.007-2.946,0-4.419a1.157,1.157,0,0,1,.075-.652c.228.2.175.469.176.718.008,1.317,0,2.633,0,3.95,0,.626.016.636.628.626,1.028-.016,1.009.114,1.007-1a6.864,6.864,0,0,1,.012-.769c.02-.174-.014-.395.245-.444" transform="translate(-66.267 -105.482)" fill="#fea68e"/>
    <path id="Path_1310" data-name="Path 1310" d="M115.845,251.825a6.846,6.846,0,0,0,1.842.308c.253-.015.3.116.315.341.018.33-.1.676.092.989a.729.729,0,0,1,.3.339c.537.915,1.1,1.817,1.651,2.721.1.156.228.311.131.519-1.057.429-2.112.86-3.17,1.285-.751.3-1.168.013-1.171-.808,0-1.127,0-2.254,0-3.381,0-.673,0-.673-.651-.674l-2,0a.427.427,0,0,1-.336-.087c.816,0,1.632-.028,2.447,0,.409.013.6-.085.55-.529a9.55,9.55,0,0,1,0-1.019" transform="translate(-97.347 -217.228)" fill="#2f3e45"/>
    <path id="Path_1311" data-name="Path 1311" d="M93.083,109.839a5.675,5.675,0,0,0-.082,1.87c0,.415-.131.531-.528.512a4.018,4.018,0,0,0-1.172.047c-.373.092-.271-.214-.271-.387-.007-1.537,0-3.074,0-4.611,0-.17-.01-.341-.015-.511a5.849,5.849,0,0,1,.42-1.721l.435-.742c.188-.046.286.087.377.207a6.1,6.1,0,0,0,3.311,2.014c.113.034.238.039.317.146a3.9,3.9,0,0,0-2.4,1.826,2.762,2.762,0,0,0-.393,1.349" transform="translate(-78.507 -89.96)" fill="#635b5a"/>
    <path id="Path_1312" data-name="Path 1312" d="M124.079,69.336l-2.156-.011c.052-.267.28-.221.448-.221a17.6,17.6,0,0,1,2.237.038,2.822,2.822,0,0,1-1.213-.528,5.516,5.516,0,0,1-2.639-4.658c-.015-.461-.023-.923.007-1.383a1.56,1.56,0,0,1,1.358-1.544c3.638,0,7.276-.011,10.914,0a7.463,7.463,0,0,1,1.111.167l1.544.555a6.863,6.863,0,0,1,3.079,3.556,6.989,6.989,0,0,1,.424,2.552c-.011.6.007,1.193.013,1.789a3.922,3.922,0,0,1,0,2.369q-.01,1.488-.02,2.977a4.844,4.844,0,0,1-2.056-.065,1.114,1.114,0,0,1-.144-.739,10.171,10.171,0,0,0-.1-1.894,3.389,3.389,0,0,0-3.437-2.8c-2.86,0-5.72,0-8.581,0-.267,0-.554.057-.783-.155" transform="translate(-104.154 -52.639)" fill="#635b5a"/>
    <path id="Path_1313" data-name="Path 1313" d="M258.178,42.052c.617.777,1.375,1.418,2.062,2.127.486.5,1,.976,1.5,1.463a.917.917,0,0,1,.417.288c.775.774,1.552,1.546,2.321,2.326.136.138.335.263.248.517a2.5,2.5,0,0,1-1.744.466,3.993,3.993,0,0,1-2.766-1.19c-1.5-1.5-3.013-3-4.5-4.509A3.918,3.918,0,0,1,255,39.07c.176-.119.3.009.4.111.905.887,1.805,1.778,2.687,2.689a.516.516,0,0,1,.093.181" transform="translate(-219.609 -33.662)" fill="#fff"/>
    <path id="Path_1314" data-name="Path 1314" d="M250.006,38.454a4.136,4.136,0,0,0,.4,4,2.715,2.715,0,0,0,.295.352q2.3,2.309,4.612,4.612a3.838,3.838,0,0,0,4.35.7c.114-.046.173.013.211.111a3.8,3.8,0,0,1-5.3.277c-1.686-1.576-3.318-3.216-4.9-4.9a3.82,3.82,0,0,1,.212-5.27c.1-.028.128.023.117.113" transform="translate(-214.553 -33.067)" fill="#dbdbdb"/>
    <path id="Path_1315" data-name="Path 1315" d="M255.1,126.157l0-2.369c.253.015.358.244.53.374a9.69,9.69,0,0,0,3.484,1.739,1.516,1.516,0,0,1,1.069.843,17.839,17.839,0,0,1,1.177,2.191c-.254.462-.5.93-.765,1.384-.258.437-.481.437-.738,0-.5-.852-1-1.708-1.477-2.573a1.113,1.113,0,0,0-.78-.584,10.8,10.8,0,0,1-2.5-1.005" transform="translate(-220.049 -106.781)" fill="#c18620"/>
    <path id="Path_1316" data-name="Path 1316" d="M309.849,80.9l-.211-.111q-1.286-1.31-2.571-2.622c-.142-.145-.274-.3-.41-.451.412-.409.822-.822,1.238-1.227.375-.364.653-.382,1.017-.028.747.727,1.479,1.471,2.216,2.209a.616.616,0,0,1,.005.984c-.424.419-.856.831-1.285,1.246" transform="translate(-264.527 -65.735)" fill="#fff"/>
    <path id="Path_1317" data-name="Path 1317" d="M257.318,28.65l-.117-.113c.442-.45.88-.9,1.327-1.349a.589.589,0,0,1,.908-.012c.771.751,1.529,1.515,2.285,2.281a.6.6,0,0,1-.008.944c-.424.421-.852.836-1.279,1.253-.848-.686-1.55-1.523-2.34-2.269l-.777-.734" transform="translate(-221.865 -23.263)" fill="#fff"/>
    <path id="Path_1318" data-name="Path 1318" d="M251.823,243.067l-.495-.318a1.024,1.024,0,0,1-.035-1.251c1-1.8,2.006-3.586,3.09-5.331a1,1,0,0,1,1.262-.491l.3.111a5.679,5.679,0,0,0,.949.586c.985.613,1.135,1.146.605,2.161-.039.075-.076.151-.115.227a16.926,16.926,0,0,1-2.038,3.526c-.149.245-.312.483-.444.738a1.468,1.468,0,0,1-1.418.887,14.066,14.066,0,0,1-1.662-.844" transform="translate(-216.6 -203.248)" fill="#feaf9d"/>
    <path id="Path_1319" data-name="Path 1319" d="M244.644,172.389c-.652.868-1.1,1.858-1.676,2.774a26.306,26.306,0,0,1-1.632,2.682c-.015.008-.033.027-.044.023a8.09,8.09,0,0,1-2.328-1.34,6.175,6.175,0,0,1-.021-1.651,21.026,21.026,0,0,1,1.272-2.341c.2-.36.409-.712.618-1.066.537-.908,1.2-.982,1.942-.23l1.871,1.148" transform="translate(-206.077 -147.273)" fill="#447e6d"/>
    <path id="Path_1320" data-name="Path 1320" d="M242.72,163.663c-.136-.07-.274-.14-.409-.212a.863.863,0,0,0-1.335.367c-.663,1.117-1.316,2.241-1.973,3.362a.8.8,0,0,1-.162-.625q-.01-1.994,0-3.988a.794.794,0,0,1,.164-.624,10.038,10.038,0,0,1,2.045.1,2.726,2.726,0,0,1,1.67,1.616" transform="translate(-206.023 -139.694)" fill="#fea68e"/>
    <path id="Path_1321" data-name="Path 1321" d="M282.032,262.007l2.038-3.526.009,3.5-2.047.025" transform="translate(-243.285 -222.969)" fill="#fecdbe"/>
    <path id="Path_1322" data-name="Path 1322" d="M189.82,263.41l-1.759-.977c-.409-.281-.937-.457-.945-1.087-.129-.236,0-.433.11-.621.727-1.271,1.464-2.536,2.2-3.8a1.092,1.092,0,0,1,.893-.6,5.338,5.338,0,0,1,1.7.817c.307.273.813.271,1,.717a6.539,6.539,0,0,1-.966,1.9c-.6,1.092-1.24,2.157-1.859,3.237a.873.873,0,0,1-.364.414" transform="translate(-161.363 -221.111)" fill="#447e6d"/>
    <path id="Path_1323" data-name="Path 1323" d="M153.092,259.561q-.956-1.607-1.91-3.215c-.068-.115-.116-.243-.174-.364.007-1.237.007-1.237,1.247-1.237h.811a.356.356,0,0,1,.122.322,2.609,2.609,0,0,0,.55,1.658c.384.622.756,1.251,1.143,1.87a1.1,1.1,0,0,1,.25.656.354.354,0,0,1-.22.321c-.522.885-1.044,1.252-1.818-.012" transform="translate(-130.261 -219.747)" fill="#fea68f"/>
    <path id="Path_1324" data-name="Path 1324" d="M179.415,256.51l.113-.295a8.607,8.607,0,0,1,1.133-2.1,3.372,3.372,0,0,0,.8-2.248.358.358,0,0,1,.156-.357c.625-.11,1.259-.167,1.878-.311a.31.31,0,0,1,.282.072.6.6,0,0,1-.035.71,1.194,1.194,0,0,0-.857.65c-.7,1.248-1.426,2.48-2.145,3.717a1.593,1.593,0,0,0-.222.567l-1.1-.408" transform="translate(-154.766 -216.684)" fill="#2f3e45"/>
    <path id="Path_1325" data-name="Path 1325" d="M95.862,60.743a1.851,1.851,0,0,0-1.242,1.948,6.909,6.909,0,0,0,.735,3.6,5.673,5.673,0,0,0,2.918,2.449.861.861,0,0,1,.356.206c-.809,0-1.618,0-2.426,0-.181,0-.379-.06-.538.09l-.405.018a5.735,5.735,0,0,1-3.693-2.04,1.125,1.125,0,0,0-.312-.327,7.538,7.538,0,0,1-.93-4.651,1.363,1.363,0,0,1,1.54-1.325h3.268l.729.029" transform="translate(-77.895 -52.354)" fill="#2f3e45"/>
    <path id="Path_1326" data-name="Path 1326" d="M22.217,40.325a.858.858,0,0,1,0-1.226,1.389,1.389,0,0,1,.693-.146q4.649,0,9.3,0c.613,0,.968.271.984.733s-.346.8-.936.8c-3.134.011-6.267.006-9.4,0a1.385,1.385,0,0,1-.639-.168" transform="translate(-18.942 -33.602)" fill="#fefefd"/>
    <path id="Path_1327" data-name="Path 1327" d="M32.911,59.422a1.786,1.786,0,0,0-1.54,1.325q-4.132,0-8.264,0a1.765,1.765,0,0,1-.893-.175.858.858,0,0,1,.005-1.226,1.571,1.571,0,0,1,.8-.145q4.548,0,9.1,0c.28,0,.594-.074.8.22" transform="translate(-18.942 -51.062)" fill="#fefefd"/>
    <path id="Path_1328" data-name="Path 1328" d="M22.222,79.645a1.539,1.539,0,0,1,.695-.143c1.473.005,2.945,0,4.417,0,.6,0,.948.3.942.773s-.36.764-.962.766c-1.473.006-2.945,0-4.417.005a1.489,1.489,0,0,1-.685-.18.856.856,0,0,1,.011-1.225" transform="translate(-18.942 -68.579)" fill="#fefefe"/>
    <path id="Path_1329" data-name="Path 1329" d="M245.435,229.521a1.245,1.245,0,0,0-1.231.662c-1.008,1.741-2.029,3.474-3.027,5.221a1.47,1.47,0,0,0-.059,1.189c-.387-.216-.773-.433-1.161-.647a1.1,1.1,0,0,1-.678-1.2,1.073,1.073,0,0,1,1-.884c.066-.011.129-.032.2-.049-.4-1.093-.076-1.616,1.083-1.753-.47-1.016-.234-1.494.854-1.727.23-.049.135-.185.079-.3a.981.981,0,0,1,.262-1.291,1.052,1.052,0,0,1,1.331-.04c.452.272.9.546,1.352.82" transform="translate(-206.389 -197.094)" fill="#fea68e"/>
    <path id="Path_1330" data-name="Path 1330" d="M222.972,263.008l1.509-.014c-.18.195-.183.531-.5.618l-1.013-.6" transform="translate(-192.339 -226.862)" fill="#37abf9"/>
    <path id="Path_1331" data-name="Path 1331" d="M140.028,134.105c-.2.248-.1.559-.174.837a6.007,6.007,0,0,1-3.314,4.159c-.184.088-.366.181-.549.272a7.051,7.051,0,0,1-2.139.316.841.841,0,0,1-.531.152q-1.484.012-2.969,0a.75.75,0,0,1-.527-.157,6.03,6.03,0,0,1-5.656-4.832,7.031,7.031,0,0,1-.1-1.271q.005-4.236,0-8.473a3.513,3.513,0,0,1,2.708-3.528.759.759,0,0,0,.17-.1c3.134,0,6.269-.015,9.4,0a3.59,3.59,0,0,1,3.64,3.6c.014.651.01,1.3.014,1.952q0,2.618,0,5.236a11.625,11.625,0,0,0,.027,1.835" transform="translate(-107.022 -104.784)" fill="#fecdbe"/>
    <path id="Path_1332" data-name="Path 1332" d="M165.969,254.027l4.026.006a3.591,3.591,0,0,1-.812,2.595c-.448.658-.84,1.353-1.257,2.032,0-.352-.248-.589-.407-.862-.4-.691-.813-1.378-1.257-2.042a2.708,2.708,0,0,1-.294-1.629c0-.033,0-.066,0-.1" transform="translate(-143.165 -219.127)" fill="#feaf9d"/>
    <path id="Path_1333" data-name="Path 1333" d="M167,213.605c.817,0,1.634-.011,2.45-.008.669,0,.844.249.77.923a2.774,2.774,0,0,1-1.982,2.456,3.47,3.47,0,0,1-1.63-2.313c-.074-.419-.07-.828.391-1.058" transform="translate(-143.689 -184.251)" fill="#fc8086"/>
    <path id="Path_1334" data-name="Path 1334" d="M160.873,167.9a4.871,4.871,0,0,1-.512,1.093c-.579,1.114-.584,1.111.2,2.042.376.447.389.846.04,1.175s-.767.295-1.161-.131-.767-.874-1.147-1.314a.783.783,0,0,1-.127-.947c.419-.784.841-1.568,1.272-2.346a.708.708,0,0,1,.886-.326.781.781,0,0,1,.549.754" transform="translate(-136.344 -144.148)" fill="#c96e59"/>
    <path id="Path_1335" data-name="Path 1335" d="M197.465,159.639A1.513,1.513,0,0,1,199,161.156a1.538,1.538,0,1,1-3.076-.01,1.507,1.507,0,0,1,1.541-1.507" transform="translate(-169.007 -137.707)" fill="#c96e59"/>
    <path id="Path_1336" data-name="Path 1336" d="M130.362,161.14a1.562,1.562,0,0,1-1.5,1.565,1.63,1.63,0,0,1-1.563-1.53,1.558,1.558,0,0,1,1.527-1.535,1.488,1.488,0,0,1,1.536,1.5" transform="translate(-109.809 -137.708)" fill="#c96e59"/>
    <path id="Path_1337" data-name="Path 1337" d="M154.774,213.586a2.094,2.094,0,0,0,.384,2.472,3.288,3.288,0,0,0,.694.6c.095.059.289.1.161.3a2.793,2.793,0,0,1-3.611-2.7c.009-.469.216-.689.687-.679.562.012,1.124.009,1.686.012" transform="translate(-131.463 -184.232)" fill="#fd646f"/>
  </g>
</svg>
