<svg xmlns="http://www.w3.org/2000/svg" xmlns:xlink="http://www.w3.org/1999/xlink" width="77" height="56.054" viewBox="0 0 77 56.054">
  <defs>
    <clipPath id="clip-path">
      <rect id="Rectangle_82" data-name="Rectangle 82" width="77" height="56.054" fill="#db9e30"/>
    </clipPath>
  </defs>
  <g id="Group_47" data-name="Group 47" clip-path="url(#clip-path)">
    <path id="Path_376" data-name="Path 376" d="M38.457,184.838c-1.242-1.074-2.719-3.25-2.063-4.983a3.008,3.008,0,0,1,3.352-1.668c1.832.292,3.091,2.082,3.8,3.651a5.6,5.6,0,0,1,.044,5.015,5.389,5.389,0,0,1-4.178,2.96,7.6,7.6,0,0,1-5.012-1.462,11.487,11.487,0,0,1-4.764-10.561,12.866,12.866,0,0,1,6.6-9.251,14.377,14.377,0,0,1,10.8-.834,42.256,42.256,0,0,1,11.269,5.5c3.8,2.418,7.431,5.091,11.246,7.486a44.359,44.359,0,0,0,12.214,5.632,17.809,17.809,0,0,0,7.029.615,18.116,18.116,0,0,0,6.167-2.086c1.018-.55,1.983-1.132,3.044-1.6.363-.159,1.275,1.371.994,1.654-2.707,2.719-6.938,4.115-10.717,4.252-3.981.145-8.066-1.364-11.631-3.014-7.078-3.276-13.146-8.221-19.827-12.175-5.727-3.389-13.449-6.762-19.692-2.655a12.808,12.808,0,0,0-5.72,8.494,7.471,7.471,0,0,0,.5,4.537,6.392,6.392,0,0,0,3.347,2.376,5.435,5.435,0,0,0,4.931-.506,4.943,4.943,0,0,0,2.231-4.5c-.014-.1-.221-.612-.049-.4a2.169,2.169,0,0,0-.536-.372,3.388,3.388,0,0,0-2.38-.233,2.535,2.535,0,0,0-1.5,1.024c-.527.858-.127,1.587.416,2.3.106.14.61,1.251.086.8" transform="translate(-26.841 -139.985)" fill="#db9e30"/>
    <path id="Path_377" data-name="Path 377" d="M20.741,167.8a20.31,20.31,0,0,0,10.153,5.155c3.664.7,8.091.7,11.213-1.621a12.626,12.626,0,0,0,3.687-4.345,6.983,6.983,0,0,0,.734-5.319c-.437-1.18-1.91-1.891-3.044-2.2a5.573,5.573,0,0,0-4.883.829,4.152,4.152,0,0,0-1.5,2.048,2.076,2.076,0,0,0,.195,1.962,2.348,2.348,0,0,0,2.265.6c.744-.162,2.058-.647,2.3-1.415.12-.379.709.37.768.446a3.6,3.6,0,0,1,.737,1.515l.131.75a.3.3,0,0,1-.073.3c-1.667,1.173-3.649,1.615-5.281.154-1.562-1.4-3.1-3.888-2.817-6.068a4.789,4.789,0,0,1,3.805-3.776,6.854,6.854,0,0,1,5.4,1.269,9.875,9.875,0,0,1,3.613,5.474,8.323,8.323,0,0,1-1.268,6.352,11.565,11.565,0,0,1-4.886,4.521,14.7,14.7,0,0,1-6.795.879,21.579,21.579,0,0,1-14.272-6.866c-.106-.114-.49-.933-.183-.641" transform="translate(25.324 -131.309)" fill="#db9e30"/>
    <path id="Path_378" data-name="Path 378" d="M237.754,34.847c-5.544-3.96-11.88-7.523-13.859-14.256a15.255,15.255,0,0,1,.4-11.088A21.812,21.812,0,0,1,231.815,0c-.172.134.859,0-.485,2.5-2.67,4.967-5.007,9.792-4.267,15.714a19.21,19.21,0,0,0,3.168,8.316s1.9,3.032,7.937,7.982c0,0,.312.42-.414.334" transform="translate(-197.365)" fill="#db9e30"/>
    <path id="Path_379" data-name="Path 379" d="M325.524,104.882a19.827,19.827,0,0,0,2,.469,9.925,9.925,0,0,0,1.645.122,5.1,5.1,0,0,0,4.47-2.491c.061-.092.121-.187.181-.281a6.608,6.608,0,0,1-4.224.3,10.622,10.622,0,0,1,4.246-.55c-.339-.252-1.607-.952-1.646-.97a7.029,7.029,0,0,0-5.542-.463,7.487,7.487,0,0,0-2.278,1.428c-.627.536-1.133,1.155-1.7,1.733.941.287,1.963.457,2.844.7" transform="translate(-309.115 -84.332)" fill="#db9e30"/>
    <path id="Path_380" data-name="Path 380" d="M323.577,46.45a20.139,20.139,0,0,0,.654,1.952,9.955,9.955,0,0,0,.76,1.464,5.1,5.1,0,0,0,4.468,2.494c.111,0,.223,0,.334.006a6.615,6.615,0,0,1-2.473-3.437,10.62,10.62,0,0,1,2.7,3.323c.036-.421-.034-1.868-.041-1.91a7.025,7.025,0,0,0-2.517-4.959,7.493,7.493,0,0,0-2.412-1.188c-.786-.251-1.578-.357-2.367-.536.25.952.643,1.911.9,2.79" transform="translate(-305.299 -36.588)" fill="#db9e30"/>
    <path id="Path_381" data-name="Path 381" d="M309,283.609a19.9,19.9,0,0,0,2.058-.019,9.883,9.883,0,0,0,1.627-.271,5.1,5.1,0,0,0,3.752-3.48c.038-.1.073-.21.109-.316a6.613,6.613,0,0,1-4.033,1.291,10.627,10.627,0,0,1,3.994-1.541c-.39-.164-1.788-.544-1.829-.551a7.028,7.028,0,0,0-5.494.864,7.51,7.51,0,0,0-1.874,1.928c-.482.67-.827,1.391-1.24,2.086.983.056,2.016-.022,2.931.009" transform="translate(-289.131 -233.414)" fill="#db9e30"/>
    <path id="Path_382" data-name="Path 382" d="M302.261,218.038a20.1,20.1,0,0,0,.524,1.99,10.02,10.02,0,0,0,.663,1.51,5.1,5.1,0,0,0,4.3,2.78c.111.011.222.019.334.028a6.611,6.611,0,0,1-2.244-3.592,10.627,10.627,0,0,1,2.476,3.492c.063-.418.088-1.866.084-1.908a7.027,7.027,0,0,0-2.189-5.113,7.5,7.5,0,0,0-2.33-1.342c-.767-.3-1.552-.459-2.327-.688.188.966.518,1.948.712,2.843" transform="translate(-280.242 -180.336)" fill="#db9e30"/>
    <path id="Path_383" data-name="Path 383" d="M5.506,116.653a19.965,19.965,0,0,0-1.9.783,9.951,9.951,0,0,0-1.409.856A5.1,5.1,0,0,0,0,122.918c0,.111.01.222.016.334a6.609,6.609,0,0,1,3.265-2.7A10.637,10.637,0,0,1,.15,123.469c.423.008,1.862-.16,1.9-.168a7.031,7.031,0,0,0,4.78-2.845,7.5,7.5,0,0,0,1.023-2.486c.2-.8.25-1.6.375-2.4-.933.314-1.863.77-2.723,1.081" transform="translate(68.77 -96.851)" fill="#db9e30"/>
    <path id="Path_384" data-name="Path 384" d="M69.357,105.108a20.327,20.327,0,0,0,.525,1.99,9.956,9.956,0,0,0,.663,1.51,5.1,5.1,0,0,0,4.3,2.781c.11.011.222.019.333.028a6.607,6.607,0,0,1-2.244-3.592,10.637,10.637,0,0,1,2.476,3.492c.063-.418.088-1.866.084-1.908A7.026,7.026,0,0,0,73.3,104.3a7.49,7.49,0,0,0-2.33-1.342c-.768-.3-1.552-.459-2.327-.688.188.966.518,1.948.712,2.842" transform="translate(-9.611 -85.7)" fill="#db9e30"/>
    <path id="Path_385" data-name="Path 385" d="M303.5,148.326c5.972-7.161,14.106-10.822,21.914-8.408,3.324,1.027,4.289,1.659,5.923,2.041-8.4-10.3-25-6.8-27.837,6.367" transform="translate(-303.5 -113.937)" fill="#db9e30"/>
    <path id="Path_386" data-name="Path 386" d="M189.757,103.063a1.344,1.344,0,0,1-.426-.2q-.289-.223-.575-.45-.538-.427-1.064-.869c-.722-.607-1.426-1.237-2.087-1.91a17.178,17.178,0,0,1-3.47-4.7,9.485,9.485,0,0,1-.8-5.192,8.135,8.135,0,0,1,.731-2.483,5.341,5.341,0,0,1,.635-1.071,5.942,5.942,0,0,1,.771-.773,7.981,7.981,0,0,1,4.167-1.782,6.123,6.123,0,0,1,2.275.141,4.614,4.614,0,0,1,1.948,1.089,8.421,8.421,0,0,1,1.682,2.265,8.658,8.658,0,0,1,.867,2.446,5.683,5.683,0,0,1,.027,2.09,4.125,4.125,0,0,1-.856,1.811,3.855,3.855,0,0,1-1.976,1.307,4.973,4.973,0,0,1-2.245.135c-1.74-.34-2.85-2.023-3.5-3.541a3.416,3.416,0,0,1-.32-1.386c0-.081-.013-.175.087-.191s.221.1.275.156a2.846,2.846,0,0,1,.662,1.019c.12.329.254.653.384.978.029.073.055.148.086.221s.141.253-.035-.07a.714.714,0,0,1,.1.2c0-.052-.186-.322-.059-.111.156.259-.167-.235-.045-.068.029.04.058.079.086.119-.233-.334-.1-.131-.034-.054.107.13-.177-.179-.051-.053.073.073.155.139.226.213-.162-.169-.062-.052-.007-.011q.059.044.12.085c.079.054.161.1.244.15.061.035.091.047.01.008.047.023.1.045.143.065a3.359,3.359,0,0,0,.507.169,4.535,4.535,0,0,0,1.445.087l-.094.008a4.425,4.425,0,0,0,1.8-.533,4.018,4.018,0,0,0,1.349-1.3,3.468,3.468,0,0,0,.492-1.32q.032-.185.047-.372c0-.055.008-.11.011-.165.007-.1,0-.034,0-.012,0-.048,0-.1,0-.144a5.512,5.512,0,0,0-.063-.779q-.015-.1-.033-.2c-.006-.033-.012-.065-.019-.1,0,.02.034.147,0,.027-.034-.139-.069-.277-.11-.414-.017-.057-.035-.112-.054-.169-.043-.135.014.052.022.063a.552.552,0,0,1-.035-.1q-.036-.1-.075-.189l-.04-.093c-.063-.151.084.173.031.067-.03-.061-.059-.123-.09-.183-.015-.03-.032-.06-.047-.09-.057-.115.125.218.06.108-.03-.051-.059-.1-.09-.154l-.053-.087c-.1-.171.153.223.038.059-.039-.055-.077-.111-.117-.166-.02-.027-.042-.053-.06-.081-.007-.011.139.171.072.095-.044-.051-.085-.1-.129-.156l-.066-.076c-.1-.109-.023.01.023.024-.043-.013-.108-.11-.141-.142s-.1-.092-.146-.136l-.075-.065c.016.014.106.084.013.011-.052-.04-.1-.081-.157-.12a3.175,3.175,0,0,0-.674-.387,5.632,5.632,0,0,0-1.76-.4,8,8,0,0,0-3.65.637,5.947,5.947,0,0,0-2.783,2.149,7.393,7.393,0,0,0-1.144,3.752,8.073,8.073,0,0,0,.2,1.966,7.553,7.553,0,0,0,.273.924,6.313,6.313,0,0,0,.372.835l.059.11c-.013-.024-.049-.084.014.023.043.072.085.144.128.215.11.178.139.222.246.381.2.291.417.6.622.857a20.67,20.67,0,0,0,1.458,1.661,38.958,38.958,0,0,0,3.364,3.043c.141.115.283.227.424.341a5.1,5.1,0,0,1,.474.5.894.894,0,0,1,.184.283c.008.02.063.177-.007.153" transform="translate(-146.883 -70.049)" fill="#db9e30"/>
    <path id="Path_387" data-name="Path 387" d="M200.523,250.2c-.24-1.6.421-3.206,2.212-3.35A4,4,0,0,1,206.8,249.4a4.665,4.665,0,0,1-.278,4.639,4.718,4.718,0,0,1-4.049,1.922c-3.693.014-6.641-2.8-7.785-6.146a8.493,8.493,0,0,1,3.751-10.007,10.217,10.217,0,0,1,6.433-1.146,14.561,14.561,0,0,1,3.446.967,21.623,21.623,0,0,1,4.362,2.241c.21.153,1.351,1.814.832,1.824a8.8,8.8,0,0,1-2.766-.814c-.922-.314-1.846-.646-2.781-.92a10.686,10.686,0,0,0-4.744-.423,8.578,8.578,0,0,0-7.034,5.73,5.794,5.794,0,0,0,.072,4.311,5.889,5.889,0,0,0,2.91,2.177c2.511,1.034,5.889.83,6.963-2.108a3.684,3.684,0,0,0,.109-2.306c-.284-.9-1.446-1.157-2.269-1.237a2.6,2.6,0,0,0-3.085,2.528c0,.182-.341-.312-.358-.427" transform="translate(-168.107 -199.906)" fill="#db9e30"/>
    <path id="Path_388" data-name="Path 388" d="M237.445,296.114a1.421,1.421,0,0,0,.255-.094,2.29,2.29,0,0,0,1.038-1.642,5.492,5.492,0,0,1,.449-1.367,1.234,1.234,0,0,1,1.159-.422c1.265.142,1.476,1.68,1.6,2.683.36-2.916-3.271-5.206-5.606-2.987a2.786,2.786,0,0,0-.832,2.121,1.791,1.791,0,0,0,.449,1.279,1.567,1.567,0,0,0,1.492.43" transform="translate(-203.117 -244.193)" fill="#db9e30"/>
    <path id="Path_389" data-name="Path 389" d="M53.106,173.979c1.2-.315,3.316-2.062,2.577-4-.616-1.613-2.557-1.348-3.7-1.98a1.513,1.513,0,0,1-.533-1.84,2.9,2.9,0,0,1,1.79-1.627c-6.8-.838-7.887,11.472-.132,9.443" transform="translate(13.436 -137.849)" fill="#db9e30"/>
  </g>
</svg>
