<svg id="Group_127" data-name="Group 127" xmlns="http://www.w3.org/2000/svg" xmlns:xlink="http://www.w3.org/1999/xlink" width="11.969" height="6.849" viewBox="0 0 11.969 6.849">
  <defs>
    <clipPath id="clip-path">
      <rect id="Rectangle_108" data-name="Rectangle 108" width="11.969" height="6.849" fill="#db9e30"/>
    </clipPath>
  </defs>
  <g id="Group_125" data-name="Group 125" clip-path="url(#clip-path)">
    <path id="Path_623" data-name="Path 623" d="M5.986,0q2.635,0,5.27,0a.661.661,0,0,1,.6.281.627.627,0,0,1-.025.758c-.08.1-.172.192-.261.286Q9.136,3.909,6.7,6.493A.909.909,0,0,1,5.266,6.5Q2.753,3.826.237,1.156A.717.717,0,0,1,0,.6.638.638,0,0,1,.6,0C.654,0,.712,0,.769,0H5.986" transform="translate(0.001 0)" fill="#db9e30"/>
  </g>
</svg>
