<svg xmlns="http://www.w3.org/2000/svg" xmlns:xlink="http://www.w3.org/1999/xlink" width="76.286" height="84.934" viewBox="0 0 76.286 84.934">
  <defs>
    <clipPath id="clip-path">
      <rect id="Rectangle_593" data-name="Rectangle 593" width="76.286" height="84.934" fill="#db9e30"/>
    </clipPath>
  </defs>
  <g id="Group_1192" data-name="Group 1192" clip-path="url(#clip-path)">
    <path id="Path_1944" data-name="Path 1944" d="M39.8,0c1.7.323,3.443.516,5.1.991A24.387,24.387,0,0,1,60.2,13.438a24.987,24.987,0,0,1,2.824,12.135c-.016,3.1,0,6.192,0,9.288-.006,3.37-2.062,5.437-5.413,5.449-.827,0-1.655,0-2.606,0a18.993,18.993,0,0,1-5.248,11.716c.9,1.8,1.755,3.559,2.668,5.291a1.519,1.519,0,0,0,.821.582c2.478.854,4.99,1.614,7.448,2.521,6.8,2.51,11.251,7.4,13.919,14.016a23.716,23.716,0,0,1,1.671,8.4c.032,1.449-.587,2.091-2.043,2.092q-36.115,0-72.231,0c-1.4,0-2.084-.662-2.005-2.039C.568,73.1,4.888,65.611,13.8,61.2a67.908,67.908,0,0,1,8.805-3.12,2.371,2.371,0,0,0,1.6-1.364c.607-1.359,1.3-2.683,1.994-4a.93.93,0,0,0-.141-1.216A23.1,23.1,0,0,1,23.59,47.99a1.735,1.735,0,0,0-1.833-1.067A4.632,4.632,0,0,1,17.079,44a10.032,10.032,0,0,1-.48-3.07,1.253,1.253,0,0,0-.731-1.27,4.508,4.508,0,0,1-2.581-4.149c-.022-4.283-.194-8.587.153-12.845C14.1,14.62,18.02,8.376,24.756,3.94A23.745,23.745,0,0,1,36.09.112,2.049,2.049,0,0,0,36.483,0ZM52.985,28.269c-1.835-.335-3.537-.564-5.2-.965a29.711,29.711,0,0,1-13.12-6.926,1.413,1.413,0,0,0-.922-.391A11.483,11.483,0,0,0,28,22.139a20.235,20.235,0,0,0-4.256,4.827,1.935,1.935,0,0,0-.369,1.2c.257,3.221.519,6.443.882,9.653.218,1.936.617,3.851.941,5.813,1.529,0,2.907-.023,4.285.012a.88.88,0,0,0,.922-.594,4.784,4.784,0,0,1,4.251-2.717c1.186-.057,2.378-.05,3.565,0a4.966,4.966,0,0,1-.068,9.931c-1.022.031-2.046.009-3.068.007A4.977,4.977,0,0,1,30.329,47.4c-.089-.173-.27-.419-.416-.424-1-.037-2-.02-3.063-.02a12.983,12.983,0,0,0,5.936,5.5c7.933,3.458,16.129-1.131,18.25-9.223a67.923,67.923,0,0,0,1.357-8.413c.283-2.158.4-4.337.592-6.545M35.245,81.586c-4.521-6.564-8.9-12.968-11.358-20.459-2.131.713-4.109,1.4-6.1,2.039-7.017,2.24-11.319,7.121-13.54,13.979a44.215,44.215,0,0,0-.962,4.44Zm5.822-.028H72.926a21.685,21.685,0,0,0-8.68-15.571c-3.489-2.624-7.774-3.3-11.85-4.893-2.441,7.556-6.876,13.928-11.329,20.464M53,24.825a13.658,13.658,0,0,0-8.352-13.9c-2.735-1.1-5.569-1.028-8.411-.955a13.387,13.387,0,0,0-12.1,8.6c-.381,1.009-.6,2.08-.89,3.123l.352.216a2.878,2.878,0,0,1,.331-.564,15.028,15.028,0,0,1,10.011-4.74,3.049,3.049,0,0,1,2.54.9A26.955,26.955,0,0,0,53,24.825m6.586-1.634C58.975,12.15,49.06,3.118,37.9,3.321a21.473,21.473,0,0,0-21.189,19.86h3.08c.047-.056.076-.075.078-.1.025-.247.043-.495.068-.742.755-7.223,4.5-12.176,11.29-14.773,3.074-1.176,6.305-1.057,9.5-.871A16.615,16.615,0,0,1,55.74,18.973c.363,1.371.526,2.8.785,4.218Zm-21.6,41.384c-1.865,1.971-3.636,3.866-5.438,5.732a.744.744,0,0,0-.108,1.118c1.865,2.8,3.7,5.625,5.544,8.438.037.057.128.079.231.139.806-1.272,1.585-2.538,2.4-3.779,1.076-1.637,2.193-3.246,3.255-4.892a.887.887,0,0,0,.016-.823c-1.922-1.975-3.882-3.915-5.9-5.932m2.394-2.53,5.711,5.709q1.719-4.168,3.419-8.318a.747.747,0,0,0-.047-.54c-.675-1.385-1.37-2.761-2.1-4.229l-6.98,7.379M30.261,67.91l5.29-5.59-6.986-6.932c-.571,1.141-1.179,2.338-1.763,3.546a.744.744,0,0,0-.016.542c1.122,2.75,2.259,5.494,3.474,8.434M16.589,26.569c0,2.985-.024,5.9.014,8.817a1.553,1.553,0,0,0,1.517,1.575c.843.063,1.7.014,2.579.014l-.826-10.405Zm39,10.423c.751,0,1.462.011,2.173,0a1.733,1.733,0,0,0,1.945-1.94c.015-2.674.006-5.348,0-8.021a2.514,2.514,0,0,0-.072-.434H56.407l-.823,10.4M36.475,46.94c.552,0,1.107.031,1.657-.007A1.678,1.678,0,0,0,39.788,45.3a1.653,1.653,0,0,0-1.639-1.649c-1.1-.049-2.211-.047-3.314,0a1.657,1.657,0,0,0-1.656,1.633,1.675,1.675,0,0,0,1.639,1.653c.55.04,1.1.007,1.657.009m4.314,9.833h-5.6l2.862,2.891,2.733-2.891M21.822,43.579l-.577-3.205h-1.31c-.164,2.45.249,3.17,1.887,3.205" transform="translate(0)" fill="#db9e30"/>
    <path id="Path_1945" data-name="Path 1945" d="M299.065,338.106a1.651,1.651,0,0,1-1.115,1.69,1.527,1.527,0,0,1-1.88-.629c-.81-1.111-1.572-2.258-2.416-3.341a12.974,12.974,0,0,0-1.381-1.3,1.664,1.664,0,1,1,2.162-2.508,16.716,16.716,0,0,1,4.329,5.27,5.747,5.747,0,0,1,.3.824" transform="translate(-230.981 -262.62)" fill="#db9e30"/>
    <path id="Path_1946" data-name="Path 1946" d="M265.176,316.245a1.646,1.646,0,1,1-1.685,1.606,1.7,1.7,0,0,1,1.685-1.606" transform="translate(-208.747 -250.54)" fill="#db9e30"/>
  </g>
</svg>