<svg id="Group_138" data-name="Group 138" xmlns="http://www.w3.org/2000/svg" xmlns:xlink="http://www.w3.org/1999/xlink" width="125.367" height="43.272" viewBox="0 0 125.367 43.272">
  <defs>
    <clipPath id="clip-path">
      <rect id="Rectangle_69" data-name="Rectangle 69" width="125.367" height="43.272" fill="#fff"/>
    </clipPath>
  </defs>
  <g id="Group_32" data-name="Group 32" clip-path="url(#clip-path)">
    <path id="Path_266" data-name="Path 266" d="M0,373.441c2.971.261,5.993.155,8.974.164,2.533.007,5.067.017,7.6,0q6.84-.05,13.676-.284c6.429-.225,12.868-.217,19.3-.279,2.988-.029,5.975-.058,8.962-.113.165,0,.415-.6.3-.6-6.33.115-12.664.116-18.995.192-7.065.085-14.124.382-21.19.46q-4.109.045-8.218.065c-3.416.016-6.873-.11-10.28.158-.061,0-.155.233-.13.236" transform="translate(0 -330.354)" fill="#fff"/>
    <path id="Path_267" data-name="Path 267" d="M648.871,373.206c-2.972-.255-5.993-.141-8.974-.154q-3.8-.016-7.6-.054-6.84-.058-13.676-.293c-6.429-.23-12.868-.226-19.3-.292-2.987-.031-5.976-.029-8.962-.083-.161,0-.421.6-.3.6,6.33.115,12.663.143,18.995.215,7.065.08,14.125.373,21.19.445,2.739.028,5.479.026,8.218.02,3.416-.008,6.873.109,10.28-.166.061,0,.155-.234.13-.236" transform="translate(-523.508 -330.354)" fill="#fff"/>
    <path id="Path_268" data-name="Path 268" d="M538.331,336.967c-.929,1.305-1.259,1.639-2.246,3.013.9.921,1.611,1.488,2.246,2.186.635-.7,1.348-1.264,2.245-2.186-.986-1.374-1.316-1.707-2.245-3.013" transform="translate(-475.647 -298.978)" fill="#fff"/>
    <path id="Path_269" data-name="Path 269" d="M545.9,198.743c-.531.746-.72.937-1.284,1.723.514.527.921.851,1.284,1.25.363-.4.771-.723,1.284-1.25-.564-.786-.753-.976-1.284-1.723" transform="translate(-483.213 -176.337)" fill="#fff"/>
    <path id="Path_270" data-name="Path 270" d="M211.1,79.462a22.243,22.243,0,0,1,7.391,15.261c.281,5.831-2.234,12.094-7.814,14.61a10.759,10.759,0,0,1-8.079.339,11.222,11.222,0,0,1-6.391-5.647c-1.226-2.648-1.169-6.062.867-8.3a7.494,7.494,0,0,1,7.009-2.279c2.288.481,4.2,2.156,4.043,4.646-.074,1.176-.47,2.586-1.73,2.964a2.817,2.817,0,0,1-3.212-1.625,2.487,2.487,0,0,1-.152-1.86c.066-.175.123-.32-.078-.295s-.4.524-.466.665a3.062,3.062,0,0,0,.866,3.769,2.726,2.726,0,0,0,3.639-.236c1.84-1.8,2.629-5.262.858-7.349-1.655-1.95-4.765-2.275-7.07-1.5A9.26,9.26,0,0,0,194.93,99.3c-1.529,6.789,5.268,12.6,11.739,11.959,6.424-.632,10.887-6.72,11.977-12.683a20.278,20.278,0,0,0-5.662-17.643,16.163,16.163,0,0,0-1.841-1.551c-.012-.009-.06.063-.046.076" transform="translate(-172.761 -70.436)" fill="#fff"/>
    <path id="Path_271" data-name="Path 271" d="M199.517,206.174c.149-2.656.81-4.377,2.981-5.95,3.422-2.48,10.764-2.186,10.232,3.494-.24,2.56-3.045,5.8-5.394,3.172a3.032,3.032,0,0,1-.876-2.022,5.382,5.382,0,0,1,1.382-2.877,1.328,1.328,0,0,0-.148-1.821,3.281,3.281,0,0,0-2.548-.368c-2.667.636-5.465,3.476-5.628,6.372" transform="translate(-177.024 -176.336)" fill="#fff"/>
    <path id="Path_272" data-name="Path 272" d="M143.371,195.564a19.557,19.557,0,0,1-3.38-3.074c-3.3-3.66-3.4-8.781-1.134-13.036A11.214,11.214,0,0,1,140.623,177a8.747,8.747,0,0,1,2.4-2.1s-9.315,1.569-7.923,11.954c-.492-.7-1.4-2.988-2.355-2.4a1.7,1.7,0,0,0-.555,1.636s.98,4.491,11.176,9.474" transform="translate(-117.269 -155.185)" fill="#fff"/>
    <path id="Path_273" data-name="Path 273" d="M119.652,337.1c1.411,1.16,6.816-2.618,10.412-1.138,0,0-6.529-4.089-10.412,1.138" transform="translate(-106.163 -296.731)" fill="#fff"/>
    <path id="Path_274" data-name="Path 274" d="M349.39,164.9c-.278,1.806,5.727,4.529,6.287,8.378,0,0,.19-7.7-6.287-8.378" transform="translate(-309.992 -146.308)" fill="#fff"/>
    <path id="Path_275" data-name="Path 275" d="M403.324,93.017c-1.145-5.612.362-8.176,3.813-10.636a10.274,10.274,0,0,1,2.677-1.49c-1.792,2.7-4.878,5.73-6.033,8.779a10.216,10.216,0,0,0-.457,3.347" transform="translate(-357.518 -71.771)" fill="#fff"/>
    <path id="Path_276" data-name="Path 276" d="M383.015,21.135a59.227,59.227,0,0,0-1.206-7.905,34.916,34.916,0,0,1-1.152-7.138C380.625,4,381.08,1.616,383.406,1c2.3-.61,5.638,1.236,5.234,3.917a2.015,2.015,0,0,1-3.172,1.094,2.072,2.072,0,0,1-.716-1.045c-.028-.1-.033-.2-.056-.3-.008-.034.014-.1,0-.13l.01-.083-.16.272c-.046-.077,1.042-.48,1.119-.509.181-.068.715-.945.477-.946a2.339,2.339,0,0,0-2.149,2.543,2.151,2.151,0,0,0,2.4,1.646c1.467-.154,2.549-1.685,2.846-3.027A3.584,3.584,0,0,0,387.448.716a4.479,4.479,0,0,0-4.242-.324,5.244,5.244,0,0,0-2.4,2.6c-1.127,2.485-.6,5.479-.043,8.039.326,1.486.73,2.952,1.087,4.43.161.668.271,1.337.387,2.014.216,1.26.515,2.5.7,3.768,0,.011.08-.072.076-.108" transform="translate(-337.285 0.001)" fill="#fff"/>
    <path id="Path_277" data-name="Path 277" d="M387.616,3.776c-2.176.344-2.432,3.9.167,3.818,1.989-.062,3.24-2.647,2.682-4.3A4.5,4.5,0,0,0,386.129.423c-2.049.088-3.475,1.9-3.95,3.757a9.777,9.777,0,0,0-.026,5.311c.063.216.364,1,.431,1.215-.445-2.046-.734-5.692.719-7.439,1.358-1.634,5.052-2.2,5.837.354.5,1.614-1.571,2.093-1.524.155" transform="translate(-338.754 -0.372)" fill="#fff"/>
    <path id="Path_278" data-name="Path 278" d="M67.474,301.721a6.13,6.13,0,0,0-1.8-.973q-1.031-.474-2.053-.965c-1.3-.623-2.608-1.219-3.959-1.72a22.941,22.941,0,0,0-4.011-1.106,4.307,4.307,0,0,0-3.144.417,4.136,4.136,0,0,0-1.822,4.016,2.674,2.674,0,0,0,3.956,1.4,2.27,2.27,0,0,0,.982-2.4,1.353,1.353,0,0,0-1.1-.916,2,2,0,0,0-1.582.7c-.006.006-.048.068-.028.069l.236,0c.013,0,.032-.048.027-.049-.309-.042,0-.172.149-.267a1.234,1.234,0,0,1,.741-.21,1.263,1.263,0,0,1,1.143.731,1.275,1.275,0,0,1-.508,1.8,1.808,1.808,0,0,1-1.2.045,2.668,2.668,0,0,1-2.111-2.5c-.03-1.465,1.522-1.957,2.767-1.972a12.542,12.542,0,0,1,3.23.535c1.068.275,2.122.606,3.16.98,1.139.411,2.263.863,3.383,1.323.574.236,1.138.5,1.709.739a5.216,5.216,0,0,0,1.7.55c.048,0,.165-.191.126-.229" transform="translate(-44.912 -263.379)" fill="#fff"/>
    <path id="Path_279" data-name="Path 279" d="M224.468,212.418a8.6,8.6,0,0,0,3.474,7.175,8.021,8.021,0,0,0,6.61,1.415c3.946-.876,6.875-4.7,7.5-8.577a8.356,8.356,0,0,0-.087-3.191,5.254,5.254,0,0,0-.595-1.445,4.293,4.293,0,0,0-1-1.1c-.084-.073-.416.446-.359.551,1.68,3.051,1.923,6.965-.366,9.783a8.244,8.244,0,0,1-10.661,1.784,9.5,9.5,0,0,1-4.33-6.637c0-.04-.185.184-.189.247" transform="translate(-199.148 -183.382)" fill="#fff"/>
    <path id="Path_280" data-name="Path 280" d="M278.257,141.845a11.88,11.88,0,0,1-.311,1.178,5.883,5.883,0,0,1-.392.894,3.022,3.022,0,0,1-2.544,1.646l-.2.017a3.911,3.911,0,0,0,1.328-2.127,6.293,6.293,0,0,0-1.466,2.068c-.038-.247-.052-1.1-.05-1.13a4.165,4.165,0,0,1,1.3-3.027,4.442,4.442,0,0,1,1.379-.795c.455-.179.919-.272,1.378-.408-.111.572-.306,1.154-.421,1.683" transform="translate(-243.664 -124.36)" fill="#fff"/>
    <path id="Path_281" data-name="Path 281" d="M233.062,141.579a11.878,11.878,0,0,1,1.025.66,5.881,5.881,0,0,1,.728.65,3.019,3.019,0,0,1,.778,2.928c-.014.064-.03.128-.045.193a3.91,3.91,0,0,0-1.611-1.921,6.292,6.292,0,0,0,1.512,2.034c-.247-.041-1.067-.293-1.09-.3a4.165,4.165,0,0,1-2.477-2.17,4.453,4.453,0,0,1-.329-1.557c-.029-.488.025-.958.039-1.437.509.283,1,.648,1.469.922" transform="translate(-205.441 -124.799)" fill="#fff"/>
    <path id="Path_282" data-name="Path 282" d="M378.8,135.22a22.069,22.069,0,0,0,3.252-4.078,17.587,17.587,0,0,0,2.052-5.513,22.9,22.9,0,0,0,.216-5.825c-.117-1.976-.254-4.2.827-5.957a6.683,6.683,0,0,1,8.862-2.467,4.364,4.364,0,0,1,2.248,3.85,3.717,3.717,0,0,1-6.071,3.371,2.967,2.967,0,0,1-1.143-2.149,2.493,2.493,0,0,1,.018-.574,1.435,1.435,0,0,0,.033-.163c.011-.34-.044.171-.1.109-.107-.115,1.031-.283,1.089-.281.343.014.932-1.294.659-1.308-1.635-.083-2.621,1.811-2.575,3.258a3.414,3.414,0,0,0,3.386,3.191c3.415.218,5.64-3.491,5.5-6.566a4.577,4.577,0,0,0-2.785-4.1,6.514,6.514,0,0,0-5.581.1,9.192,9.192,0,0,0-3.957,3.775,11.087,11.087,0,0,0-1.132,6.309,35.387,35.387,0,0,1,.1,4.011,17.223,17.223,0,0,1-.736,4.086A13.268,13.268,0,0,1,381.2,132c-.735,1.044-1.6,1.98-2.367,3-.029.039-.157.361-.024.223" transform="translate(-336.046 -97.099)" fill="#fff"/>
    <path id="Path_283" data-name="Path 283" d="M424.628,122.979c-.619-3.037-1.18-7.025.656-9.769,3.18-4.752,11.536-5.127,11.511,2.019-.009,2.56-2.491,5.721-5.343,5.267a3.258,3.258,0,0,1-2.211-4.845,1.947,1.947,0,0,1,1.27-1.125,1.246,1.246,0,0,1,.945.189,6.009,6.009,0,0,1,1.132,1.395,1.425,1.425,0,0,0,1.763.6,2.541,2.541,0,0,0,.937-.99c1-1.742-.771-3.568-2.177-4.211a5.679,5.679,0,0,0-3.154-.295c-3.018.667-4.69,4.191-5.117,6.95a26.815,26.815,0,0,0-.213,4.815" transform="translate(-376.23 -97.365)" fill="#fff"/>
    <path id="Path_284" data-name="Path 284" d="M420.07,293.5c4.424-.946,5-.572,6.77,3.7-2.886-1.485-5.387-.588-6.77-3.7" transform="translate(-372.712 -260.034)" fill="#fff"/>
    <path id="Path_285" data-name="Path 285" d="M420.825,232.842c5.019-8.559,6.461-4.33,10.243-7.288-2.05,4.109-1.534,5.786-8.5,7.073Z" transform="translate(-373.382 -200.125)" fill="#fff"/>
    <path id="Path_286" data-name="Path 286" d="M710.212,79.4a21.285,21.285,0,0,0-7.836,16.509c.034,6.341,3.45,13.2,9.932,15.024,6.284,1.771,13.444-2.952,14.238-9.471a8.3,8.3,0,0,0-3.941-8.148,7.4,7.4,0,0,0-7.619-.02,5.621,5.621,0,0,0-1.971,7.031,2.868,2.868,0,0,0,3.175,1.936,4.244,4.244,0,0,0,2.843-3.017,2.551,2.551,0,0,0-.142-1.945c-.1-.185-.742.684-.661.935a2.548,2.548,0,0,1-.019,1.943,2.323,2.323,0,0,1-1.5.933,2.769,2.769,0,0,1-3-1.872,5.011,5.011,0,0,1-.338-3.562,3.66,3.66,0,0,1,2.312-1.936,7.492,7.492,0,0,1,6.951,1.035,8.09,8.09,0,0,1,3.24,7.491,9.117,9.117,0,0,1-5.07,6.743,10.9,10.9,0,0,1-8.349.825c-5.48-1.7-8.9-7.148-9.527-12.644a20.349,20.349,0,0,1,5.684-16.236c.505-.518,1.028-1.016,1.578-1.486.013-.011.04-.08.023-.067" transform="translate(-623.19 -70.445)" fill="#fff"/>
    <path id="Path_287" data-name="Path 287" d="M808.289,206.174c-.15-2.656-.811-4.377-2.981-5.95-3.422-2.48-10.764-2.186-10.232,3.494.24,2.56,3.045,5.8,5.394,3.172a3.033,3.033,0,0,0,.876-2.022,5.38,5.38,0,0,0-1.382-2.877,1.328,1.328,0,0,1,.149-1.821,3.28,3.28,0,0,1,2.548-.368c2.667.636,5.465,3.476,5.628,6.372" transform="translate(-705.415 -176.336)" fill="#fff"/>
    <path id="Path_288" data-name="Path 288" d="M880.482,195.564a19.551,19.551,0,0,0,3.38-3.074c3.3-3.66,3.4-8.781,1.134-13.036A11.226,11.226,0,0,0,883.231,177a8.76,8.76,0,0,0-2.4-2.1s9.315,1.569,7.922,11.954c.492-.7,1.4-2.988,2.355-2.4a1.7,1.7,0,0,1,.555,1.636s-.98,4.491-11.176,9.474" transform="translate(-781.217 -155.185)" fill="#fff"/>
    <path id="Path_289" data-name="Path 289" d="M910.408,337.1c-1.411,1.16-6.816-2.618-10.412-1.138,0,0,6.528-4.089,10.412,1.138" transform="translate(-798.531 -296.731)" fill="#fff"/>
    <path id="Path_290" data-name="Path 290" d="M713.058,164.9c.278,1.806-5.727,4.529-6.287,8.378,0,0-.19-7.7,6.287-8.378" transform="translate(-627.089 -146.308)" fill="#fff"/>
    <path id="Path_291" data-name="Path 291" d="M654.63,93.017c1.145-5.612-.362-8.176-3.813-10.636a10.283,10.283,0,0,0-2.677-1.49c1.793,2.7,4.878,5.73,6.033,8.779a10.243,10.243,0,0,1,.457,3.347" transform="translate(-575.069 -71.771)" fill="#fff"/>
    <path id="Path_292" data-name="Path 292" d="M656.916,21.18c.439-3.206,1.165-6.335,1.9-9.479.614-2.615,1.3-5.564.606-8.231A4.674,4.674,0,0,0,657.479.644,4.259,4.259,0,0,0,653.4.484a5.242,5.242,0,0,0-2.722,3.18A3.063,3.063,0,0,0,652.1,7.271a2.549,2.549,0,0,0,3.374-1.347,2.27,2.27,0,0,0,.369-1.634,1.613,1.613,0,0,0-1.657-.982c-.188,0-.7.858-.52.942.54.254,1.959.767,1.415,1.661a1.667,1.667,0,0,1-1.274.521,2.361,2.361,0,0,1-1.73-.659,2.526,2.526,0,0,1-.215-3.616A4.485,4.485,0,0,1,655.518.942c2.307.312,3.435,2.458,3.635,4.573a23.254,23.254,0,0,1-.882,7.266,65.257,65.257,0,0,0-1.432,8.491c0,.033.073-.063.077-.092" transform="translate(-577.202 -0.037)" fill="#fff"/>
    <path id="Path_293" data-name="Path 293" d="M655.135,3.776c2.177.344,2.432,3.9-.167,3.818-1.989-.062-3.24-2.647-2.681-4.3A4.5,4.5,0,0,1,656.621.423c2.049.088,3.475,1.9,3.95,3.757a9.773,9.773,0,0,1,.027,5.311c-.063.216-.364,1-.431,1.215.445-2.046.734-5.692-.718-7.439-1.359-1.634-5.052-2.2-5.837.354-.5,1.614,1.571,2.093,1.524.155" transform="translate(-578.63 -0.372)" fill="#fff"/>
    <path id="Path_294" data-name="Path 294" d="M911.868,301.918a4.851,4.851,0,0,0,1.435-.508c.5-.215,1-.444,1.5-.661q1.484-.641,2.992-1.225a23.8,23.8,0,0,1,6.21-1.7,3.4,3.4,0,0,1,3.736,1.9,2.369,2.369,0,0,1,.107,1.581c-.168.463-.771.719-1.206.862a2.008,2.008,0,0,1-2.491-.683,1.139,1.139,0,0,1,.734-1.78,1.555,1.555,0,0,1,.9.117c.1.05.2.12.3.18.136.081.392.129.1.167-.013,0-.034.049-.025.049l.222,0c.016,0,.055-.062.041-.075a1.828,1.828,0,0,0-1.32-.7,1.3,1.3,0,0,0-1.029.566,2,2,0,0,0-.133,2.331,2.1,2.1,0,0,0,2.531.677,3.193,3.193,0,0,0,1.694-1.467,3.054,3.054,0,0,0-.377-3.9,3.659,3.659,0,0,0-2.812-.824,17.084,17.084,0,0,0-4.069.93,43.151,43.151,0,0,0-4.479,1.818c-.764.352-1.523.71-2.289,1.057a14.949,14.949,0,0,0-2.166,1.067c-.029.019-.158.227-.1.222" transform="translate(-809.052 -263.347)" fill="#fff"/>
    <path id="Path_295" data-name="Path 295" d="M748.167,212.506a8.5,8.5,0,0,1-3.87,6.463,7.96,7.96,0,0,1-6.092.922,9.188,9.188,0,0,1-6.607-7.344,7.143,7.143,0,0,1,1.055-5.361c.083-.117.263-.61-.009-.306-2.756,3.081-2.445,7.708-.047,10.894a8.44,8.44,0,0,0,11.763,1.877c2.169-1.638,4.227-4.553,4-7.393,0-.037-.184.183-.189.247" transform="translate(-648.309 -183.471)" fill="#fff"/>
    <path id="Path_296" data-name="Path 296" d="M801.848,141.845a11.88,11.88,0,0,0,.311,1.178,5.875,5.875,0,0,0,.393.894,3.021,3.021,0,0,0,2.543,1.646l.2.017a3.91,3.91,0,0,1-1.328-2.127,6.3,6.3,0,0,1,1.466,2.068c.037-.247.052-1.1.05-1.13a4.163,4.163,0,0,0-1.3-3.027,4.445,4.445,0,0,0-1.38-.795c-.454-.179-.918-.272-1.377-.408.111.572.306,1.154.421,1.683" transform="translate(-711.075 -124.36)" fill="#fff"/>
    <path id="Path_297" data-name="Path 297" d="M846.34,141.579a11.84,11.84,0,0,0-1.025.66,5.908,5.908,0,0,0-.729.65,3.02,3.02,0,0,0-.778,2.928c.015.064.03.128.045.193a3.91,3.91,0,0,1,1.611-1.921,6.3,6.3,0,0,1-1.512,2.034c.247-.041,1.067-.293,1.09-.3a4.164,4.164,0,0,0,2.477-2.17,4.44,4.44,0,0,0,.328-1.557c.03-.488-.026-.958-.039-1.437-.509.283-1,.648-1.469.922" transform="translate(-748.594 -124.799)" fill="#fff"/>
    <path id="Path_298" data-name="Path 298" d="M589.065,134.662c-.543-.937-1.279-1.736-1.9-2.619a15.825,15.825,0,0,1-1.732-3.077,18.235,18.235,0,0,1-1.376-7.238c.036-2.165.422-4.374-.052-6.518a7.938,7.938,0,0,0-3.463-4.861,6.716,6.716,0,0,0-5.358-.974,6.148,6.148,0,0,0-4.015,3.477c-1.161,2.774-.033,6.965,3.282,7.531a4.418,4.418,0,0,0,4.888-2.916c.564-1.44.332-3.576-1.631-3.477-.363.018-.9,1.317-.659,1.308a1.5,1.5,0,0,1,1.553.952,2.378,2.378,0,0,1,0,1.765,2.881,2.881,0,0,1-2.074,1.078,4.181,4.181,0,0,1-2.206-.27,4.6,4.6,0,0,1-2.515-2.979c-.384-1.249-.544-3.083.485-4.064,2.614-2.494,6.758-1.569,9.065.824a7.833,7.833,0,0,1,2.163,5.067c.123,1.953-.207,3.9-.141,5.857a16.355,16.355,0,0,0,1.631,6.65,14.484,14.484,0,0,0,3.833,4.829c.057.045.262-.281.225-.345" transform="translate(-506.382 -96.853)" fill="#fff"/>
    <path id="Path_299" data-name="Path 299" d="M586.951,122.979c.619-3.037,1.18-7.025-.656-9.769-3.18-4.752-11.537-5.127-11.512,2.019.009,2.56,2.491,5.721,5.344,5.267a3.258,3.258,0,0,0,2.21-4.845,1.946,1.946,0,0,0-1.27-1.125,1.247,1.247,0,0,0-.945.189,6.037,6.037,0,0,0-1.132,1.395,1.425,1.425,0,0,1-1.763.6,2.538,2.538,0,0,1-.937-.99c-1-1.742.771-3.568,2.176-4.211a5.68,5.68,0,0,1,3.154-.295c3.018.667,4.69,4.191,5.117,6.95a26.864,26.864,0,0,1,.213,4.815" transform="translate(-509.983 -97.365)" fill="#fff"/>
    <path id="Path_300" data-name="Path 300" d="M638.663,293.5c-4.424-.946-5-.572-6.769,3.7,2.886-1.485,5.387-.588,6.769-3.7" transform="translate(-560.655 -260.034)" fill="#fff"/>
    <path id="Path_301" data-name="Path 301" d="M610.57,232.842c-5.018-8.559-6.46-4.33-10.243-7.288,2.05,4.109,1.534,5.786,8.5,7.073Z" transform="translate(-532.647 -200.125)" fill="#fff"/>
    <path id="Path_302" data-name="Path 302" d="M478.8,239.907a4.026,4.026,0,0,0,3.812,2.358,4.994,4.994,0,0,0,4.072-2.473,5.691,5.691,0,0,0,.746-5.194,2.136,2.136,0,0,0-3.593-.655,2.683,2.683,0,0,0-.556,2.207,1.446,1.446,0,0,0,1.716,1.212c.186-.048.507-.548.443-.737l-.01-.029-.419.7a.709.709,0,0,0,.206-.158c.045-.045.38-.6.232-.573l-.038.006c-.171-.068-.408.461-.44.575l-.016.061.465-.608c-.807-.078-1.366-.211-1.616-1.1a1.2,1.2,0,0,1,.281-1.323,1.58,1.58,0,0,1,1.153-.128c1.939.409,2.287,2.726,1.817,4.362a4.388,4.388,0,0,1-4.078,3.134,5.161,5.161,0,0,1-4-1.906c-.034-.037-.2.217-.177.272" transform="translate(-424.816 -206.914)" fill="#fff"/>
    <path id="Path_303" data-name="Path 303" d="M562.486,239.814a4.308,4.308,0,0,1-4.1,1.79,4.907,4.907,0,0,1-3.732-2.9,5.149,5.149,0,0,1-.475-2.6,2.489,2.489,0,0,1,.434-1.423,2.242,2.242,0,0,1,1.244-.565,1.492,1.492,0,0,1,1.73,1.117,1.382,1.382,0,0,1-.117,1.209.9.9,0,0,1-.515.222,2.977,2.977,0,0,1-.519.028.038.038,0,0,0-.052-.031h-.092c-.147-.018-.466.472-.392.6.023.041.057.09.054.11a.084.084,0,0,0,.021.083c1.442.449,2.377-1.688,2.158-2.814-.367-1.888-2.612-1.535-3.588-.352a5.043,5.043,0,0,0-.41,5.147,4.849,4.849,0,0,0,4.064,2.917,4.708,4.708,0,0,0,4.363-2.5c.069-.126.006-.16-.074-.044" transform="translate(-491.206 -207.011)" fill="#fff"/>
  </g>
</svg>
