<svg id="Group_987" data-name="Group 987" xmlns="http://www.w3.org/2000/svg" xmlns:xlink="http://www.w3.org/1999/xlink" width="17.719" height="15.206" viewBox="0 0 17.719 15.206">
  <defs>
    <clipPath id="clip-path">
      <rect id="Rectangle_583" data-name="Rectangle 583" width="17.719" height="15.206" fill="#57a68f"/>
    </clipPath>
  </defs>
  <g id="Group_986" data-name="Group 986" clip-path="url(#clip-path)">
    <path id="Path_1926" data-name="Path 1926" d="M7.312,6.69,3.7.436,4,.355c.417-.113.835-.221,1.25-.341A.234.234,0,0,1,5.5.081q2.883,2.695,5.767,5.388a.32.32,0,0,0,.35.085c1.439-.392,2.881-.775,4.32-1.166a1.323,1.323,0,0,1,1.365.293A1.3,1.3,0,0,1,16.68,6.9q-3.086.834-6.175,1.657Q6.466,9.644,2.428,10.728a.2.2,0,0,1-.27-.109c-.685-1.2-1.379-2.4-2.07-3.6C.06,6.975.035,6.924,0,6.857c.409-.111.8-.222,1.195-.319a.265.265,0,0,1,.179.072c.5.386.987.778,1.486,1.162a.307.307,0,0,0,.227.062C4.473,7.469,5.858,7.1,7.243,6.726a.485.485,0,0,0,.069-.036" transform="translate(0 0)" fill="#57a68f"/>
    <rect id="Rectangle_582" data-name="Rectangle 582" width="16.589" height="1.721" transform="translate(0.572 13.485)" fill="#57a68f"/>
  </g>
</svg>
