<svg id="Group_375" data-name="Group 375" xmlns="http://www.w3.org/2000/svg" xmlns:xlink="http://www.w3.org/1999/xlink" width="17.24" height="18.101" viewBox="0 0 17.24 18.101">
  <defs>
    <clipPath id="clip-path">
      <rect id="Rectangle_178" data-name="Rectangle 178" width="17.24" height="18.101" fill="#57a68f"/>
    </clipPath>
  </defs>
  <g id="Group_261" data-name="Group 261" clip-path="url(#clip-path)">
    <path id="Path_876" data-name="Path 876" d="M.118,119.933H17.333c0,.079.009.151.009.223,0,3.183-.015,6.366.009,9.548a1.8,1.8,0,0,1-1.86,1.86c-4.522-.018-9.044-.007-13.566-.008a1.721,1.721,0,0,1-1.776-1.393,2.034,2.034,0,0,1-.03-.4q0-4.825,0-9.649v-.178M2.7,128.1h0c0,.141,0,.283,0,.424a.853.853,0,0,0,.859.88c.289.011.579.012.867,0a.854.854,0,0,0,.853-.848c.014-.3.013-.592,0-.887a.847.847,0,0,0-.872-.844c-.3-.005-.592-.008-.888,0a.835.835,0,0,0-.817.811c-.007.154,0,.309,0,.464m6.024-1.276v0c-.141,0-.283,0-.424,0a.851.851,0,0,0-.866.871q-.006.413,0,.827a.856.856,0,0,0,.839.881,8.962,8.962,0,0,0,.908,0,.848.848,0,0,0,.834-.823c.011-.316.012-.633,0-.948a.842.842,0,0,0-.806-.8c-.161-.008-.323,0-.484,0m6.026-3.446h0c0-.141,0-.283,0-.424a.85.85,0,0,0-.842-.875c-.3-.013-.592-.013-.887,0a.854.854,0,0,0-.851.851c-.012.3-.013.592,0,.887a.847.847,0,0,0,.875.842c.3.005.606.009.908,0a.832.832,0,0,0,.793-.792c.009-.161,0-.323,0-.484m-6.027,1.279v0c.148,0,.3,0,.444,0a.85.85,0,0,0,.85-.866c0-.276,0-.552,0-.827a.854.854,0,0,0-.835-.884c-.3-.015-.606-.015-.908,0a.849.849,0,0,0-.838.819c-.011.316-.011.633,0,.948a.843.843,0,0,0,.8.808c.161.008.323,0,.484,0m-4.749,0c.141,0,.283,0,.424,0a.852.852,0,0,0,.882-.857c.011-.289.012-.579,0-.867a.857.857,0,0,0-.865-.857c-.289-.01-.579-.011-.867,0a.849.849,0,0,0-.847.87q-.008.424,0,.847a.843.843,0,0,0,.871.863c.134,0,.269,0,.4,0m9.509,2.164v0c-.141,0-.283,0-.424,0a.854.854,0,0,0-.888.871c-.009.282-.01.565,0,.847a.859.859,0,0,0,.86.863c.289.011.579.012.867,0a.85.85,0,0,0,.853-.885c0-.3.008-.592,0-.888a.833.833,0,0,0-.8-.8c-.154-.008-.309,0-.464,0" transform="translate(-0.111 -113.462)" fill="#57a68f"/>
    <path id="Path_877" data-name="Path 877" d="M11.643,23.775a1.889,1.889,0,0,0,.6,1.725,1.726,1.726,0,0,0,2.1.109,1.469,1.469,0,0,0,.626-.817,10.176,10.176,0,0,0,.167-1.013,1.75,1.75,0,0,1,2.1,1.789c0,.767,0,1.534,0,2.3,0,.059-.005.119-.009.191H.006v-.412c0-.68.021-1.36,0-2.039a1.748,1.748,0,0,1,1.86-1.848c.087,0,.175,0,.3,0,0,.15,0,.294,0,.439a1.72,1.72,0,0,0,3.411.307,5.83,5.83,0,0,0,.045-.733Z" transform="translate(0 -22.469)" fill="#57a68f"/>
    <path id="Path_878" data-name="Path 878" d="M57.593,1.305c0,.155.006.309,0,.464a.86.86,0,0,1-.793.823.824.824,0,0,1-.9-.712,5.748,5.748,0,0,1,0-1.165.821.821,0,0,1,.89-.7.859.859,0,0,1,.8.811c.008.161,0,.323,0,.484" transform="translate(-52.853 -0.009)" fill="#57a68f"/>
    <path id="Path_879" data-name="Path 879" d="M231.588,1.295c0-.155,0-.309,0-.464A.861.861,0,0,1,232.376,0a.823.823,0,0,1,.908.706,5.732,5.732,0,0,1,0,1.165.824.824,0,0,1-.905.709.861.861,0,0,1-.791-.825c-.006-.154,0-.309,0-.464" transform="translate(-219.091 -0.001)" fill="#57a68f"/>
  </g>
</svg>
