<svg xmlns="http://www.w3.org/2000/svg" xmlns:xlink="http://www.w3.org/1999/xlink" width="72.135" height="72.135" viewBox="0 0 72.135 72.135">
  <defs>
    <clipPath id="clip-path">
      <rect id="Rectangle_290" data-name="Rectangle 290" width="40.991" height="40.984" fill="#57a68f"/>
    </clipPath>
    <clipPath id="clip-path-2">
      <rect id="Rectangle_304" data-name="Rectangle 304" width="41.273" height="41.257" fill="#fff"/>
    </clipPath>
  </defs>
  <g id="Group_487" data-name="Group 487">
    <rect id="Rectangle_289" data-name="Rectangle 289" width="72.135" height="72.135" fill="#57a68f"/>
  </g>
  <g id="Group_490" data-name="Group 490" transform="translate(16 14.344)">
    <g id="Group_489" data-name="Group 489" transform="translate(0)" clip-path="url(#clip-path-2)">
      <path id="Path_1284" data-name="Path 1284" d="M0,306.3l4.875-.371.947,12.4c-.52.045-1.008.091-1.5.128-.842.064-1.685.12-2.528.185a1.564,1.564,0,0,0-.266.067H.967c-.005-.107-.008-.214-.016-.321q-.361-4.747-.726-9.494c-.061-.785-.149-1.569-.225-2.353V306.3" transform="translate(0 -277.453)" fill="#fff"/>
      <path id="Path_1285" data-name="Path 1285" d="M74.265,70.687a13.051,13.051,0,0,1,1.416-5.45,15.1,15.1,0,0,1,9.818-7.92A16.442,16.442,0,0,1,100.236,60a13.994,13.994,0,0,1,5.388,7.932c.229.888.325,1.811.49,2.759Z" transform="translate(-67.352 -51.362)" fill="#fff"/>
      <path id="Path_1286" data-name="Path 1286" d="M71,308.834c-.084-1.067-.164-2.079-.242-3.091-.125-1.619-.242-3.239-.378-4.857a.521.521,0,0,1,.228-.541,8.652,8.652,0,0,1,8.6-1.235,11.356,11.356,0,0,0,5.365.662c1.481-.155,2.969-.256,4.455-.351a3.5,3.5,0,0,1,3.65,2.542c-.6.051-1.2.107-1.794.153q-3.332.253-6.665.5c-.559.042-.868.355-.828.826.038.443.393.689.936.648l9.074-.683c.737-.056,1.059-.379.868-1.1-.181-.686.112-.946.635-1.251,1.784-1.041,3.542-2.127,5.306-3.2a2.531,2.531,0,0,1,2.566-.153,4.9,4.9,0,0,1,.417.26c-.521.421-1.007.815-1.493,1.207-3.586,2.888-7.16,5.792-10.765,8.655a7.8,7.8,0,0,1-4.472,1.493,16.34,16.34,0,0,1-3.787-.445c-2.553-.422-5.1-.889-7.654-1.307a4.271,4.271,0,0,0-2.977.59c-.34.207-.668.435-1.048.683" transform="translate(-63.827 -269.736)" fill="#fff"/>
      <path id="Path_1287" data-name="Path 1287" d="M83.578,224.267c-.532,1.1-1.029,2.182-1.578,3.235a4.161,4.161,0,0,1-3.423,2.074c-.523.019-1.047.01-1.571.01q-12.41,0-24.819.008a4.339,4.339,0,0,1-4.324-2.741c-.385-.853-.8-1.7-1.216-2.587Z" transform="translate(-42.305 -203.392)" fill="#fff"/>
      <path id="Path_1288" data-name="Path 1288" d="M217.565,3.877a13.724,13.724,0,0,1,.15-2.149A2.261,2.261,0,0,1,220.2.016a2.339,2.339,0,0,1,2.1,2.268c.019.533,0,1.068,0,1.593Z" transform="translate(-197.314 0)" fill="#fff"/>
    </g>
  </g>
</svg>
