<svg xmlns="http://www.w3.org/2000/svg" xmlns:xlink="http://www.w3.org/1999/xlink" width="19.856" height="13.965" viewBox="0 0 19.856 13.965">
  <defs>
    <clipPath id="clip-path">
      <rect id="Rectangle_260" data-name="Rectangle 260" width="19.856" height="13.965" fill="#57a68f"/>
    </clipPath>
  </defs>
  <g id="Group_371" data-name="Group 371" clip-path="url(#clip-path)">
    <path id="Path_1258" data-name="Path 1258" d="M270.551,31.692l-.161.493-6-5.945,6.008-5.948.151.463Z" transform="translate(-250.695 -19.242)" fill="#57a68f"/>
    <path id="Path_1259" data-name="Path 1259" d="M37.255.181c-.3.294-.584.566-.861.844q-3.758,3.767-7.515,7.536a.689.689,0,0,1-1.083,0L19.57.313c-.04-.041-.079-.083-.158-.167.232-.052.427-.1.625-.136A1.264,1.264,0,0,1,20.269,0H36.4a1.8,1.8,0,0,1,.857.178" transform="translate(-18.406 -0.001)" fill="#57a68f"/>
    <path id="Path_1260" data-name="Path 1260" d="M31.73,151.486l6.027,5.969c-.239.054-.433.1-.63.139a1.388,1.388,0,0,1-.252.006H20.77a1.846,1.846,0,0,1-.84-.166l6-5.938c.5.5,1.038,1.036,1.575,1.566a1.819,1.819,0,0,0,2.121.376,2.313,2.313,0,0,0,.556-.411c.483-.466.952-.949,1.426-1.424.049-.049.1-.1.124-.118" transform="translate(-18.897 -143.638)" fill="#57a68f"/>
    <path id="Path_1261" data-name="Path 1261" d="M.169,19.805l5.992,5.938-6,5.946A1.625,1.625,0,0,1,0,30.937q0-2.743,0-5.485,0-2.442,0-4.884a1.715,1.715,0,0,1,.169-.762" transform="translate(0 -18.779)" fill="#57a68f"/>
  </g>
</svg>
