<svg id="Group_1196" data-name="Group 1196" xmlns="http://www.w3.org/2000/svg" xmlns:xlink="http://www.w3.org/1999/xlink" width="79.085" height="45.689" viewBox="0 0 79.085 45.689">
  <defs>
    <clipPath id="clip-path">
      <rect id="Rectangle_598" data-name="Rectangle 598" width="79.085" height="45.689" fill="#db9e30"/>
    </clipPath>
  </defs>
  <g id="Group_1195" data-name="Group 1195" clip-path="url(#clip-path)">
    <path id="Path_1947" data-name="Path 1947" d="M49.637,39.615,69.205,22.847,49.627,6.067l-.288.084c0,1.1.018,2.2-.005,3.294a1.757,1.757,0,0,1-1.458,1.927,1.675,1.675,0,0,1-2.018-1.5A19.418,19.418,0,0,1,45.912,6.1a6.93,6.93,0,0,1,7.131-6.1Q69.264-.012,85.486,0q10.685,0,21.371,0c4.578,0,7.513,2.922,7.517,7.5q.012,15.36,0,30.72c0,4.524-2.951,7.463-7.467,7.464q-26.778.006-53.556,0c-4.565,0-7.523-2.956-7.53-7.5,0-.629-.007-1.258,0-1.888.016-1.234.687-2,1.75-2s1.739.739,1.764,1.988c.022,1.076,0,2.154,0,3.231l.3.1M52.171,3.567c.35.323.53.5.721.665q12.843,10.989,25.69,21.974c1.16.991,1.913.977,3.093-.032Q94.519,15.185,107.359,4.192c.188-.161.362-.337.672-.625Zm-.015,38.527h55.908L88.285,25.135c-1.663,1.443-3.24,2.853-4.863,4.207a5.047,5.047,0,0,1-6.206.336,8.5,8.5,0,0,1-.732-.594c-1.508-1.3-3.014-2.61-4.558-3.949L52.156,42.094M110.772,5.909,91.009,22.847l19.764,16.935Z" transform="translate(-35.294 0)" fill="#db9e30"/>
    <path id="Path_1948" data-name="Path 1948" d="M9.6,114.6c-2.544,0-5.088.014-7.632-.006A1.769,1.769,0,0,1,.04,112.453a1.814,1.814,0,0,1,1.989-1.4c2.2-.017,4.4-.006,6.6-.006,2.859,0,5.717-.008,8.576,0,1.189.005,1.946.576,2.074,1.506a1.78,1.78,0,0,1-1.967,2.033c-2.573.017-5.145.005-7.718.005" transform="translate(0 -85.587)" fill="#db9e30"/>
    <path id="Path_1949" data-name="Path 1949" d="M29.9,72.741c1.658,0,3.317-.008,4.975,0,1.293.008,2.079.689,2.077,1.77s-.78,1.766-2.081,1.771q-4.932.021-9.865,0c-1.283-.006-2.1-.72-2.1-1.775s.827-1.758,2.1-1.766c1.63-.01,3.26,0,4.889,0" transform="translate(-17.66 -56.062)" fill="#db9e30"/>
  </g>
</svg>