<svg xmlns="http://www.w3.org/2000/svg" xmlns:xlink="http://www.w3.org/1999/xlink" width="16.063" height="15.436" viewBox="0 0 16.063 15.436">
  <defs>
    <clipPath id="clip-path">
      <rect id="Rectangle_80" data-name="Rectangle 80" width="16.063" height="15.436" fill="none"/>
    </clipPath>
  </defs>
  <g id="Group_39" data-name="Group 39" clip-path="url(#clip-path)">
    <path id="Path_369" data-name="Path 369" d="M344.729,7.725l-3.815,3.233c-.183.155-.364.314-.552.464a.2.2,0,0,0-.076.241q.714,2.773,1.418,5.548a.3.3,0,0,1,0,.051.14.14,0,0,1-.044-.008L336.69,14.1c-.07-.08-.049-.179-.049-.271q0-1.821,0-3.641,0-3.987,0-7.973c0-.113-.037-.24.074-.331q.567,1.413,1.133,2.827c.328.822.657,1.644.979,2.468a.233.233,0,0,0,.24.169c.949.056,1.9.121,2.846.181.563.036,1.126.068,1.689.1.375.022.749.071,1.125.061Z" transform="translate(-328.666 -1.842)" fill="#57A68F"/>
    <path id="Path_370" data-name="Path 370" d="M8.051.044c-.046.061-.024.132-.024.2q0,5.9,0,11.8c0,.073,0,.146,0,.22L4.325,14.6,3,15.436c.043-.177.078-.324.115-.471q.657-2.58,1.317-5.16a.188.188,0,0,0-.076-.224Q2.216,7.77.084,5.953C.065,5.936.047,5.918,0,5.874c.241-.018.45-.035.66-.049Q3.18,5.664,5.7,5.507c.122-.007.142-.08.174-.162L7.959.122A.371.371,0,0,1,8.006.008c.021-.022.044.006.045.037" transform="translate(0 0)" fill="#57A68F"/>
  </g>
</svg>
