<svg id="Group_1202" data-name="Group 1202" xmlns="http://www.w3.org/2000/svg" xmlns:xlink="http://www.w3.org/1999/xlink" width="25.008" height="47.069" viewBox="0 0 25.008 47.069">
  <defs>
    <clipPath id="clip-path">
      <rect id="Rectangle_605" data-name="Rectangle 605" width="25.008" height="47.069" fill="#4267b1"/>
    </clipPath>
  </defs>
  <g id="Group_1201" data-name="Group 1201" clip-path="url(#clip-path)">
    <path id="Path_1960" data-name="Path 1960" d="M20.019,0c.745.061,1.49.118,2.235.184.5.045,1.009.074,1.506.159A1.377,1.377,0,0,1,25,1.766q.022,3.561,0,7.122a1.2,1.2,0,0,1-1.168,1.3c-.816.094-1.647.06-2.471.077-.856.017-1.714,0-2.568.049-1.051.065-1.5.5-1.534,1.563-.044,1.541-.011,3.084-.011,4.672h.846c1.547,0,3.094,0,4.641,0a1.481,1.481,0,0,1,1.591,1.775q-.455,3.737-.931,7.472a1.509,1.509,0,0,1-1.739,1.529c-1.3,0-2.6.019-3.905-.009-.426-.009-.537.115-.536.536q.02,8.638.008,17.277a5.645,5.645,0,0,1-.017.6,1.435,1.435,0,0,1-1.439,1.337q-3.928.018-7.857,0a1.457,1.457,0,0,1-1.487-1.532c-.009-1.455,0-2.91,0-4.365V27.325H5.892c-1.394,0-2.788,0-4.181,0A1.5,1.5,0,0,1,0,25.64q-.005-3.7,0-7.4a1.5,1.5,0,0,1,1.7-1.7q2.114,0,4.227,0h.508c0-.281-.006-.521,0-.761.052-1.942.036-3.889.181-5.824a12.353,12.353,0,0,1,1.41-4.815A9.249,9.249,0,0,1,15.215.184c.406-.065.813-.123,1.219-.184ZM14.273,44.11v-.63q0-8.685,0-17.371A1.509,1.509,0,0,1,16,24.391c1.409,0,2.819-.008,4.228.006.3,0,.407-.1.43-.385.036-.442.1-.881.158-1.322.129-1.055.258-2.11.391-3.2h-.551c-1.608,0-3.217,0-4.825,0a1.42,1.42,0,0,1-1.538-1.422c-.014-2.144-.051-4.292.055-6.431a4.162,4.162,0,0,1,3.921-4.188,26.555,26.555,0,0,1,2.978-.08c.256,0,.511,0,.793,0V3.105a26.775,26.775,0,0,0-6.561.055,6.882,6.882,0,0,0-5.6,5.091,13.69,13.69,0,0,0-.5,3.3c-.077,2.127-.02,4.258-.027,6.387A1.459,1.459,0,0,1,7.8,19.487c-1.44.006-2.88,0-4.32,0h-.5v4.895H3.5q2.045,0,4.09,0c1.217,0,1.765.552,1.765,1.77q0,8.708,0,17.417v.539Z" transform="translate(0)" fill="#4267b1"/>
  </g>
</svg>
