<svg id="Group_390" data-name="Group 390" xmlns="http://www.w3.org/2000/svg" xmlns:xlink="http://www.w3.org/1999/xlink" width="55.565" height="55.537" viewBox="0 0 55.565 55.537">
  <defs>
    <clipPath id="clip-path">
      <rect id="Rectangle_274" data-name="Rectangle 274" width="55.565" height="55.537" fill="#db9e30"/>
    </clipPath>
  </defs>
  <g id="Group_389" data-name="Group 389" clip-path="url(#clip-path)">
    <path id="Path_1263" data-name="Path 1263" d="M0,41.22v-26.9c.166-.864.282-1.742.505-2.591A15.619,15.619,0,0,1,15.672.01q12.091-.027,24.182,0c.523,0,1.048.032,1.568.082A15.59,15.59,0,0,1,55.529,15.464q.075,12.333,0,24.665A15.556,15.556,0,0,1,44.341,54.877c-1.05.306-2.15.444-3.226.66H14.428a2.935,2.935,0,0,0-.365-.087A15.645,15.645,0,0,1,.372,43.283C.216,42.6.122,41.908,0,41.22M26.036,26.036c0-1.751-.014-3.414.007-5.076a11.562,11.562,0,0,1,.154-1.941,10.28,10.28,0,0,1,10.315-8.6c2.205-.008,4.411,0,6.617,0a1.77,1.77,0,0,1,2,2q0,4.067,0,8.134a1.78,1.78,0,0,1-2.042,2.013c-1.446,0-2.893-.01-4.339.013-.186,0-.525.171-.529.272-.039,1.056-.024,2.113-.024,3.187,2.283,0,4.488,0,6.693,0a1.751,1.751,0,0,1,1.765,2.587q-1.637,4.125-3.292,8.244a1.794,1.794,0,0,1-1.945,1.316c-1.061,0-2.122,0-3.2,0V52.058c.773,0,1.512.015,2.25-.006a9.632,9.632,0,0,0,1.294-.126A12.184,12.184,0,0,0,52.069,39.8q.015-12.037,0-24.076a11.723,11.723,0,0,0-.15-2A12.157,12.157,0,0,0,39.7,3.477q-11.931-.006-23.863.006a12.49,12.49,0,0,0-2.106.149A12.161,12.161,0,0,0,3.472,15.844Q3.467,27.774,3.478,39.7a12.482,12.482,0,0,0,.148,2.105A12.168,12.168,0,0,0,15.786,52.066c3.236.006,6.472,0,9.708,0h.514V38.183h-.555c-1.518,0-3.037.008-4.556,0a1.7,1.7,0,0,1-1.8-1.705q-.026-4.365,0-8.73a1.706,1.706,0,0,1,1.688-1.706c.217-.01.434,0,.651,0h4.6m15.6-12.148h-.552q-2.223,0-4.447,0a6.854,6.854,0,0,0-7.125,7.147c0,2.205,0,4.41,0,6.615a1.733,1.733,0,0,1-1.871,1.855c-1.5.006-3,0-4.5,0-.175,0-.35.015-.532.023v5.182h4.856a1.789,1.789,0,0,1,2.05,2.059q0,7.32,0,14.639v.611h5.207v-.694q0-7.347,0-14.693a1.748,1.748,0,0,1,1.915-1.921c1.1,0,2.206-.022,3.308.01a.655.655,0,0,0,.749-.495c.539-1.416,1.116-2.818,1.677-4.226.058-.146.1-.3.17-.5H41.9c-1.79,0-3.579.007-5.369,0a1.707,1.707,0,0,1-1.806-1.7c-.021-1.717-.036-3.435.008-5.151a3.6,3.6,0,0,1,2.66-3.385,6.08,6.08,0,0,1,1.444-.17c.932-.025,1.864-.007,2.8-.007Z" transform="translate(0 0)" fill="#db9e30"/>
  </g>
</svg>
