<svg xmlns="http://www.w3.org/2000/svg" xmlns:xlink="http://www.w3.org/1999/xlink" width="37" height="37" viewBox="0 0 37 37">
  <defs>
    <clipPath id="clip-path">
      <rect id="Rectangle_628" data-name="Rectangle 628" width="21.625" height="21.632" fill="#57a68f"/>
    </clipPath>
  </defs>
  <g id="Group_1292" data-name="Group 1292" transform="translate(0 -0.318)">
    <g id="Rectangle_627" data-name="Rectangle 627" transform="translate(0 0.318)" fill="#fff" stroke="rgba(0,0,0,0.46)" stroke-width="1">
      <rect width="37" height="37" rx="2" stroke="none"/>
      <rect x="0.5" y="0.5" width="36" height="36" rx="1.5" fill="none"/>
    </g>
    <g id="Group_1272" data-name="Group 1272" transform="translate(7 7.684)">
      <g id="Group_1271" data-name="Group 1271" clip-path="url(#clip-path)">
        <path id="Path_2319" data-name="Path 2319" d="M9.164,12.528c-.108.067-.193.12-.278.174Q4.847,15.288.808,17.874a1.093,1.093,0,0,1-.313.153.4.4,0,0,1-.489-.33,14.238,14.238,0,0,1,.039-1.667,2.007,2.007,0,0,1,.675-1.181q4.035-4.03,8.069-8.06A.629.629,0,0,0,9,6.293c-.011-1.108,0-2.216-.007-3.324A4.363,4.363,0,0,1,9.655.631a1.352,1.352,0,0,1,2.286,0A4.255,4.255,0,0,1,12.6,2.923c-.007,1.123,0,2.246-.007,3.368a.628.628,0,0,0,.211.494q4.015,4,8.025,8.011a2.457,2.457,0,0,1,.791,1.907c-.009.264,0,.528,0,.792a.466.466,0,0,1-.773.42q-3.518-2.257-7.039-4.51l-1.377-.881c-.032.4-.057.768-.091,1.136-.122,1.322-.242,2.644-.376,3.965a.3.3,0,0,0,.165.333c.959.625,1.909,1.262,2.869,1.884a.6.6,0,0,1,.311.583c-.011.2,0,.4,0,.594,0,.526-.2.694-.714.581-1-.221-2-.447-3-.671-.207-.046-.413-.1-.623-.137a.871.871,0,0,0-.325,0c-1.2.263-2.4.532-3.606.8a1.926,1.926,0,0,1-.238.04.426.426,0,0,1-.5-.425c-.011-.308,0-.616,0-.924a.493.493,0,0,1,.276-.419c.974-.641,1.946-1.286,2.921-1.925a.262.262,0,0,0,.147-.28c-.151-1.577-.293-3.155-.437-4.732-.011-.122-.024-.245-.038-.4" transform="translate(0 0)" fill="#57a68f"/>
      </g>
    </g>
  </g>
</svg>
