<svg id="Group_969" data-name="Group 969" xmlns="http://www.w3.org/2000/svg" xmlns:xlink="http://www.w3.org/1999/xlink" width="687.848" height="357.497" viewBox="0 0 687.848 357.497">
  <defs>
    <clipPath id="clip-path">
      <rect id="Rectangle_563" data-name="Rectangle 563" width="687.848" height="357.497" fill="none"/>
    </clipPath>
  </defs>
  <g id="Group_968" data-name="Group 968" clip-path="url(#clip-path)">
    <path id="Path_1925" data-name="Path 1925" d="M687.848,193.345c-3.729,1.28-7.443,2.606-11.19,3.834-24.478,8.021-49.349,9.012-74.567,4.231-15.217-2.885-29.884-7.7-44.6-12.381-8.979-2.859-17.962-5.733-27.377-6.877a55.2,55.2,0,0,0-20.6,1.661,10.583,10.583,0,0,0-1.21.478c2.969,4.129,8.845,6.811,6.245,13.429,1.2,1.092,2.382,2.214,3.614,3.283a2.012,2.012,0,0,1,.478,2.818q-3.077,6.5-5.819,13.162a28.075,28.075,0,0,0-1.452,5.261c-.606,3.048.326,4.277,3.808,4.982.614-2.037,1.355-4.081,1.839-6.185,1.1-4.8,2.152-9.607,3.077-14.44a4.571,4.571,0,0,1,3.777-4.053,117.105,117.105,0,0,1,23.237-3.375,4.741,4.741,0,0,1,3.345,1.178c1.054,1.178.338,2.8-.6,3.825-1.605,1.754-3.472,3.267-5.354,5,2.6.43,5.342.815,8.05,1.348,2.979.587,5.976,1.154,8.88,2.016,3.558,1.056,4.9,3.939,3.667,7.445a16.138,16.138,0,0,1-5.615,7.269,71.561,71.561,0,0,1-7.547,5.075,15.508,15.508,0,0,1-9.816,2,140.423,140.423,0,0,1-24.9-4.554,2.14,2.14,0,0,0-1.907.482c-2.355,4.419-4.816,4.474-9.006,3.528-.464-.1-.926-.216-1.712-.4.15,2.329.249,4.484.434,6.631a187.88,187.88,0,0,1-.548,37.85c-1.544,13.34-2.473,26.75-3.916,40.1a77.193,77.193,0,0,1-2.665,12.824c-1.384,4.845-3.56,5.765-8.226,3.742-3.788-1.642-7.408-3.664-11.155-5.4-9.247-4.291-19.113-5.92-29.18-6.652-3.085-.225-6.167-.49-9.251-.737q-.035.237-.07.473c4.45.729,8.881,1.642,13.359,2.115a6.63,6.63,0,0,1,5.5,3.309,38.084,38.084,0,0,1,5.249,22.72,4.263,4.263,0,0,1-3.469,3.808c-3.86,1.021-7.786,1.824-11.717,2.532-2.441.44-4.942.543-7.417.8H420.356c-3.018-.236-6.043-.4-9.05-.724-8.517-.928-17.025-1.925-25.536-2.9-.121-.013-.24-.039-.359-.064-4.155-.89-6.39-.558-10.621.066-7.568,1.116-15.192,1.872-22.808,2.628a2.861,2.861,0,0,1-2.13-1.527,7.671,7.671,0,0,1-.63-3.718c.694-6.883,1.529-13.751,2.325-20.624.077-.663.212-1.319.325-1.978,1.352-7.832,5.7-12.024,13.677-12.279,6.488-.208,13,.2,19.5.495,8.984.413,17.961.981,27,1.175-2.775-.538-5.539-1.137-8.326-1.6-7.724-1.294-15.382-3.3-23.306-2.713-5.515.405-11.006,1.139-16.519,1.585a30.5,30.5,0,0,1-6.357-.143c-3.166-.413-4.654-1.733-4.965-4.9-.64-6.526-1.238-13.077-1.357-19.626-.128-7.039.267-14.09.558-21.131a10.308,10.308,0,0,1,1.183-3.056,20.317,20.317,0,0,1,2.021,2.382c3.771,6.09,7.24,12.385,11.325,18.253a34.082,34.082,0,0,0,8.023,7.834c4.674,3.378,9.107,2.6,12.225-2.239a62.656,62.656,0,0,0,6.023-12.21c3.634-9.861,6.8-19.892,10.309-29.8,3.111-8.783,6.648-17.424,12.234-24.963a53.81,53.81,0,0,1,8.691-9.248c5.038-4.2,9.088-2.929,10.643,3.382a82.17,82.17,0,0,1,1.876,14.048c.647,9.519.817,19.072,1.57,28.58a67.372,67.372,0,0,0,2.513,13.4c3.111,10.69,11.149,16.035,22.231,14.8a31.679,31.679,0,0,0,23.434-13.819,22,22,0,0,0,3.623-10.213c1.364-11.588,2.671-23.183,4-34.776.007-.06,0-.122.015-.182a18.628,18.628,0,0,0-1.5-11.133,35.351,35.351,0,0,1-1.514-21.853c1.575-6.778,6.107-11.161,12.258-14.04.7-.326,1.406-.627,2.274-1.013-1.179-1.409-2.232-2.641-3.254-3.9-2.713-3.333-3.091-6.932-1.572-10.948a6.86,6.86,0,0,0,.257-4.533c-2.442-6.075-4.874-12.193-7.9-17.989-8.55-16.392-18.206-32.148-28.27-47.652a27.145,27.145,0,0,0-2.194-2.549c-.524,1.777-.894,3.1-1.3,4.416-4.093,13.118-10.02,25.43-16.645,37.414-10.3,18.64-22.275,36.119-37.171,51.422-5.8,5.956-12.068,11.46-18.251,17.027a21.838,21.838,0,0,1-5.551,3.423c-2.137.976-3.744-.356-2.944-2.559A67.621,67.621,0,0,1,385.082,197c4.547-8.025,10.734-14.85,16.518-21.973a236.651,236.651,0,0,0,22.649-32.391,61.691,61.691,0,0,0,2.848-6.1,13.193,13.193,0,0,0,.42-2.646,26.875,26.875,0,0,0-4.358,2.49c-5.6,4.936-11.111,9.979-16.646,14.993-2.611,2.365-5.193,4.763-7.821,7.109a8.364,8.364,0,0,1-1.842,1.17c-2.244,1.121-3.712.287-3.812-2.224a13.4,13.4,0,0,1,4.464-10.968,72.53,72.53,0,0,1,10.913-8.137c6.852-4.043,14.007-7.572,20.986-11.4,5.125-2.814,10.124-5.877,14.211-10.116a54.877,54.877,0,0,0,5.24-6.732c2.853-4.075,5.531-8.273,8.4-12.336a8.518,8.518,0,0,1,2.763-2.309c1.711-.968,1.414-2.566,1.093-3.842-.2-.8-1.421-1.415-2.295-1.922-.287-.166-.989.175-1.39.447-2.195,1.487-4.2,3.328-6.551,4.5-15.283,7.616-31.342,13.264-47.655,18.18-5.979,1.8-12.128,3.052-18.23,4.419-1.465.328-3.481.77-4.227-1.008-.689-1.647,1.019-2.688,2.1-3.685,2.386-2.2,5.433-2.865,8.5-3.451,6.623-1.266,13.421-1.971,19.821-3.957,7.866-2.44,15.39-5.976,23.079-8.993q9.5-3.727,19.045-7.328a25.46,25.46,0,0,0,3.727-1.276,8.043,8.043,0,0,0-1.987-1.4c-1.966-.623-3.99-1.066-6-1.553-3.035-.736-5.574-1.808-7.053-5.063-1.5-3.3-4.986-3.655-8.146-4.052-.175.254-.31.359-.3.449.321,2.944-1.536,4.351-3.809,5.534Q409.6,91.906,389.484,102.437c-6.507,3.427-12.916,7.041-19.392,10.528-1.12.6-1.577,1.228-1.176,2.574.532,1.788-.272,16.227-.547,18.124a27.206,27.206,0,0,0-.414,7.05c2.772,22.944-.375,45.348-5.876,67.565-1.737,7.016-3.322,14.07-5,21.1a24.242,24.242,0,0,1-.814,2.609A3.846,3.846,0,0,0,357.76,237c2.112,1.5,4.316,2.879,6.473,4.32a2.145,2.145,0,0,1,.656.606c.695,1.145-.532,3.752-2.216,4.764a2.372,2.372,0,0,1-3.581-.885c-.449-.71-.8-1.483-1.193-2.228l-.422.145c.842,2.819,1.79,5.612,2.494,8.465a47.285,47.285,0,0,1,1.216,7.132,5.278,5.278,0,0,1-.849,3.277,4.536,4.536,0,0,1-2.819,1.794c-.5.058-1.318-1.434-1.759-2.337a13.5,13.5,0,0,1-.612-2.923c-.55.846-.863,1.379-1.225,1.876a60.079,60.079,0,0,1-4.987,6.7c-4.269,4.405-11.058,3.837-14.927-.9a27.238,27.238,0,0,0-3.38-3.007c-3.5-3.054-4.585-6.744-2.942-11.155.1-.271.166-.554.32-1.073-.458.164-.721.233-.963.348-3.2,1.525-4.163,1.325-5.768-1.919-1.56-3.152-2.795-6.464-4.178-9.7a2.672,2.672,0,0,0-1.132-1.411c.151,3.239.331,6.477.447,9.717.615,17.192,1.34,34.381,1.778,51.577.366,14.34.436,28.689.544,43.034.04,5.442-.084,5.835-5.545,6.373-9.311.916-18.661,1.651-28.01,1.927-24.506.724-49.014.593-73.494-.951-4.424-.279-8.829-.883-13.233-1.42a11.26,11.26,0,0,1-3.132-.923c-.9-.4-1.337-1.222-.432-2.014,2.335-2.041,3.325-4.838,3.977-7.647,2.28-9.819,4.684-19.629,6.423-29.55,3.2-18.257,5.939-36.594,8.928-54.889.558-3.413,1.383-6.783,2.1-10.169a6.562,6.562,0,0,1,.567-1.914,23.925,23.925,0,0,1,1.735-2.349c.578.835,1.531,1.609,1.677,2.515,1.448,8.936,2.842,17.883,4.1,26.849,2.378,16.974,4.479,34,8.774,50.631a147.2,147.2,0,0,0,5.152,14.956,14.4,14.4,0,0,0,2.683,4.089c2.107,2.452,4.452,2.493,6.773.245,2.643-2.561,4.119-5.846,5.455-9.179,3.589-8.955,5.733-18.321,7.591-27.744,2.751-13.953,5.292-27.947,8.021-41.9a47.282,47.282,0,0,1,2.367-8.026c.422-1.085,1.675-1.848,2.551-2.757.8.92,2,1.714,2.344,2.782q2.762,8.585,5.158,17.288c4.7,16.921,9.233,33.888,14.055,50.774,1.227,4.3,3.272,8.36,4.972,12.519a5.012,5.012,0,0,0,1.031,1.706c.83.8,1.794,1.469,2.7,2.192a12.472,12.472,0,0,0,2.071-2.839,58.008,58.008,0,0,0,2.961-17.741c.628-18.161,1.023-36.33,1.436-54.5.146-6.442.087-12.888.114-19.331,0-.53-.049-1.06-.075-1.6-2.662.42-5.164.931-7.691,1.192-9.3.964-18.315-.578-27.095-3.549-13.531-4.577-26.6-10.2-38.09-18.835-4.743-3.563-8.993-7.783-13.457-11.717-1.049-.924-2.047-1.9-3.084-2.842-1.075-.972-2.064-.821-2.591.5a62.617,62.617,0,0,0-3.306,9.04c-2.564,11.256-4.872,22.57-7.283,33.861-.52,2.437-1,4.885-1.618,7.3-1.03,4.047-1.458,4.292-5.748,3.6-.421,2.171-.874,4.35-1.263,6.54-5.125,28.9-1.259,7.806-6.317,36.721-.3,1.73-.862,2.217-2.633,2.215-59.664-.053-178.993-.066-178.993-.066s-1.576-.385-2.364-.59c.4-1.52,1.626-.728,2.406-.729h1.282S130,303.2,188.757,303.19c2.771,0,2.542.581,3.114-2.653,5.34-30.161,1.7-10.319,7.109-40.467a2.121,2.121,0,0,0-1.2-2.582c-4.186-2.7-8.279-5.547-12.421-8.316-1.161-.776-2.356-1.505-3.565-2.206-2.422-1.4-3.262-3.106-2.354-5.8a51.875,51.875,0,0,1,2.731-5.94c.822-1.693,1.815-3.312,2.535-5.045,1.481-3.57.623-5.076-3.132-5.8-1.134-.219-2.272-.421-3.408-.63-1.931-.356-3.119-1.47-3.046-3.473.256-6.973.591-13.943.908-20.913a7.59,7.59,0,0,1,.218-1.624,10.267,10.267,0,0,0-1.382-8.8c-1.54-2.481-1.751-6.029-1.837-9.124-.245-8.88,1.594-17.527,3.742-26.087,1.034-4.12,2.292-8.193,3.648-12.22,1.287-3.822,1.466-3.825,5.487-3.372a8.632,8.632,0,0,0-.586-.761c-2.453-2.511-2.684-3.615-1.136-6.769,1.16-2.362,2.514-4.574,5.1-5.731.523-.233.855-.966,1.2-1.516,7.529-12.071,11.593-25.471,15.279-39.066a198.97,198.97,0,0,1,12.758-35.27A49.247,49.247,0,0,1,226.7,36.357c4.175-4.4,9.618-6.572,15.236-8.186a130.274,130.274,0,0,1,12.854-2.6,28.988,28.988,0,0,0,12.083-4.826c2.065-1.488,3.658-1.444,4.928.8a67.533,67.533,0,0,1,5.5,11.63c2.7,8.028,4.677,16.251,3.9,24.864-.7,7.788-2.528,15.218-6.907,21.842-3.616,5.469-8.476,8-15.2,7.077-12.345-1.7-22.253-12.006-22.911-24.455-.493-9.318,1.659-18.22,4.936-26.881a2.924,2.924,0,0,1,.5-.966,5.187,5.187,0,0,1,.992-.677c.238.374.7.76.678,1.119-.1,1.818-.329,3.628-.514,5.442-.782,7.675-1.61,15.345-2.315,23.027a7.437,7.437,0,0,0,1.03,5.2c.222-.113.39-.151.4-.209.988-8.29,5.419-15.119,9.357-22.167,2.544-4.553,4.974-9.17,7.532-13.9a5.148,5.148,0,0,0-1.267-.489c-3.444-.225-6.914-.761-10.331-.531-6.091.409-10.332,3.8-12.472,9.471a44.335,44.335,0,0,0-2.08,22.108c.913,6.455,4.9,11.412,9.349,15.939,2,2.037,4.14,3.937,6.2,5.916a18.142,18.142,0,0,1,1.876,1.983c1.133,1.479.9,2.489-.869,3.025-2.263.686-4.608,1.094-6.9,1.685-5.936,1.528-12.024,2.653-17.752,4.755-6.6,2.421-11.674,7.2-15.525,13.06-3.3,5.019-2.369,9.378,2.956,12.044,9.882,4.947,19.735,10.054,30.474,13a25.183,25.183,0,0,0,6.11.877c3.478.069,5.324-1.152,6.129-4.527,1.42-5.958,2.523-11.993,3.679-18.011,1.031-5.367,1.788-10.793,3.018-16.111a11.234,11.234,0,0,1,2.967-5.071c2.908-2.915,6.115-5.537,9.265-8.2a2.885,2.885,0,0,1,3.527-.569c11.688,6.717,22.095,14.876,29.31,26.5,2.64,4.253,4.736,8.778,4.66,14a4.122,4.122,0,0,0,.72,1.826c6.152,11.13,12,22.408,15.932,34.55.988,3.051,1.55,6.241,2.268,9.376a8.955,8.955,0,0,1,.159,1.995c-.006,3.808-1.634,5.357-5.423,5.036a27.889,27.889,0,0,1-4.488-.773c-6.588-1.675-13.263-2.008-20.054-2.154-13.547-.291-27.081-1.211-40.62-1.871a12.338,12.338,0,0,0-2-.075,1.779,1.779,0,0,0-1.721,1.971c.012,1.1.713,1.44,1.679,1.473,5.344.182,10.688.483,16.034.524,9.6.073,19.221-.374,28.8.1,6.213.309,12.364,1.87,18.544,2.866,1.08.174,2.166.314,3.247.486a3.025,3.025,0,0,0,3.2-.955c.6-.67,2.2-.618,3.337-.576a8.745,8.745,0,0,1,2.546,1.022c.472-3.143.908-6.182,1.388-9.215,3.4-21.447,7.471-42.751,13.929-63.52,1.475-4.745,3.4-9.365,5.32-13.954,3.746-8.932,10.773-13.792,20.151-15.113,5.34-.752,10.782-.805,16.18-1.125,11.137-.66,15.239-8.291,14.665-17.216-.121-1.877-.437-3.742-.684-5.609-.159-1.2,0-2.112,2.061-1.743-.553-5.409-1-10.6-1.657-15.757a4.337,4.337,0,0,0-3.245-4.007,14.974,14.974,0,0,0-2.935-.029c1.394,1.56,2.376,2.682,3.384,3.782a11.626,11.626,0,0,1,3.247,9.862,4.826,4.826,0,0,1-.449,1.932c-.5.761-1.177,1.72-1.938,1.894a2.806,2.806,0,0,1-2.191-1.2c-2.955-4.349-4.542-9.1-3.843-14.452a5.241,5.241,0,0,0-.127-1.712c-.339-1.619-1.153-3.257-1.036-4.832.839-11.3,7.2-18.606,17.244-23.076A33.319,33.319,0,0,1,432.853.585c1.026.193,2.165-.233,3.2-.064a5.813,5.813,0,0,1,3.023,1.167,8.537,8.537,0,0,1,2.31,6.686,3.414,3.414,0,0,0,.8,2.323,21.127,21.127,0,0,1,6.572,14.007c.486,5.99,1.305,11.958,2.149,17.912a13.991,13.991,0,0,1-1.527,8.463c-1.446,2.876-3.115,5.64-4.561,8.516a32.158,32.158,0,0,0-2.2,5.374c-1.255,4.294-2.624,5.419-7.127,5.443-.354,0-.707.041-1.056.061.056,1.158.107,2.225.169,3.512.812.2,1.734.431,2.657.654,3.073.743,5.46,2.347,6.659,5.388.666,1.688,2.155,2.259,3.68,2.688,2.28.643,4.61,1.1,6.9,1.728,1.714.468,3.41,1.01,3.868,3.132.067.309.7.57,1.12.717,2.59.911,3.407,2.046,3.105,4.8a2.431,2.431,0,0,0,1.051,2.556,15.484,15.484,0,0,1,3.065,3.8c10.281,16.157,20.355,32.443,29.005,49.546,2.458,4.86,4.321,10.024,6.359,15.089a6.4,6.4,0,0,1-.313,5.3c-1.742,3.664-.8,6.87,1.593,9.994,2,2.615,3.825,3.835,7.516,2.789,11.164-3.163,22.324-1.805,33.272,1.45,12.06,3.585,24.04,7.448,36.1,11.038a188.847,188.847,0,0,0,44.2,8.1,145.055,145.055,0,0,0,59.71-9.61c1.136-.433,2.3-1.584,3.7-.527ZM266.248,22.861c-4.6,2.8-9.305,3.631-14.035,4.561A122.552,122.552,0,0,0,237.765,31.1a24.888,24.888,0,0,0-14.381,11.958c-1.383,2.5-2.841,4.961-4.07,7.533-5.15,10.786-8.719,22.149-12.16,33.561-2.489,8.255-4.8,16.585-7.811,24.653-1.96,5.257-5.051,10.09-7.557,15.152a2.208,2.208,0,0,0,.051,1.98c6.8,5.979,13.618,11.937,20.555,17.755a13.836,13.836,0,0,0,7.993,3.675,3.452,3.452,0,0,1,2.085.989,2.855,2.855,0,0,1,.894,2.141,2.4,2.4,0,0,1-1.824,1.378,12.651,12.651,0,0,1-4.62-.711A60.263,60.263,0,0,1,187.991,126.9c-1.064,1.953-2.146,3.813-3.1,5.737a2.5,2.5,0,0,0,.847,3.242c1.5,1.235,2.946,2.55,4.517,3.689a414.5,414.5,0,0,0,47.76,29.486,48.552,48.552,0,0,0,16.234,5.119c.73-4.034,1.4-4.542,5.5-4.19,15.094,1.3,30.194,2.3,45.365,1.9a55.32,55.32,0,0,1,9.6.92c3.362.506,6.66,1.436,10.024,1.91,3.042.429,4.333-.741,3.987-3.8a53.98,53.98,0,0,0-1.932-9.619c-3.238-10.63-8.179-20.533-13.377-30.311-.818-1.537-1.694-3.044-2.389-4.288-2.064,3.225-3.868,6.609-6.2,9.577-5.087,6.468-11.607,11.386-18.392,15.939a95.612,95.612,0,0,1-19.5,10.6c-.983.369-2.224.052-3.346.052.561-.93.909-2.152,1.719-2.741,5.059-3.679,10.231-7.2,15.345-10.806q6.257-4.41,12.461-8.893a21.209,21.209,0,0,0,8.009-11.857c.984-3.511,1.912-7.038,2.978-10.524a7.47,7.47,0,0,1,1.426-1.953,11.025,11.025,0,0,1,1.695,1.458c.716.913,1.283,1.942,1.914,2.921a24.044,24.044,0,0,0-3.929-10.52c-7.029-11.135-17.017-19.032-28.194-25.625a2.205,2.205,0,0,0-2.819.346c-2.866,2.437-5.669,4.95-8.521,7.406a10.112,10.112,0,0,0-3.382,6.094c-1,5.683-1.833,11.4-2.92,17.065-1.074,5.6-2.3,11.17-3.617,16.717a5.585,5.585,0,0,1-4.97,4.493,22.954,22.954,0,0,1-6.683-.212c-6.929-1.308-13.272-4.319-19.627-7.233-4.53-2.077-9.119-4.07-13.466-6.487-5.462-3.036-6.78-7.813-3.576-13.113a33.539,33.539,0,0,1,18.542-15.132c6.049-1.956,12.379-3.041,18.579-4.531,1.557-.374,3.1-.816,5.217-1.378-2.322-2.182-4.206-3.957-6.095-5.727-4.6-4.311-9.089-8.849-11.111-14.924-3.236-9.723-2.332-19.466,1.605-28.816,2.286-5.427,6.883-8.384,12.693-8.763,3.776-.247,7.607.4,11.417.578a2.617,2.617,0,0,0,1.861-.474c2-2.266,3.873-4.642,6.109-7.37M495.61,227.231c-.072.539-.146,1.015-.2,1.494-1.186,10.936-2.233,21.89-3.619,32.8-.555,4.364-1.171,8.94-2.949,12.884-4.3,9.537-12.432,14.7-22.372,17.041-11.663,2.751-24.059-1.15-27.781-16.566a109.612,109.612,0,0,1-2.6-17.267c-.75-9.752-.894-19.551-1.549-29.312a41.308,41.308,0,0,0-1.94-9.6c-1.068-3.372-3.35-3.978-6.454-2.2-.369.211-.729.438-1.077.682-5.1,3.575-8.639,8.5-11.747,13.757-5.6,9.483-9.11,19.854-12.675,30.2-2.868,8.326-5.66,16.687-8.865,24.884a36.816,36.816,0,0,1-5.489,9.159,8.087,8.087,0,0,1-10.237,2.224,24.452,24.452,0,0,1-6.018-4.009c-5.975-5.444-9.91-12.4-13.818-19.349-.909-1.617-1.78-3.256-2.668-4.885a4.778,4.778,0,0,0-.652,2.372c-.094,7.837-.307,15.677-.185,23.512.074,4.79.556,9.585,1.082,14.352.356,3.232,1.434,4.2,4.674,4.537a30.439,30.439,0,0,0,5.822-.019c4.965-.442,9.914-1.069,14.877-1.526,7.679-.707,15.16.853,22.608,2.312,14.382,2.817,28.758,5.519,43.463,6.062,15.221.561,29.754,3.829,43.047,11.631a14.288,14.288,0,0,0,3.374,1.351c2.607.73,3.572.306,4.5-2.22A31.415,31.415,0,0,0,498,325.067c1.224-8.907,2.412-17.823,3.343-26.764,1.094-10.518,1.947-21.061,2.83-31.6.928-11.078-.3-22.1-.974-33.14a1.645,1.645,0,0,0-.464-1.111c-2.3-1.738-4.645-3.419-7.12-5.221M314.557,239.377c-2.515.514-2.536.514-2.562,2.67-.256,20.483-.331,40.971-.84,61.449-.2,8.12-1.235,16.23-2.152,24.314a29.766,29.766,0,0,1-2.233,7.85c-1.231,2.98-3.524,3.2-5.652.806A6.583,6.583,0,0,1,300.045,335c-1.466-3.064-3.125-6.063-4.28-9.243-6.009-16.537-9.878-33.69-14.43-50.647-1.922-7.158-4-14.273-6.065-21.391a19.21,19.21,0,0,0-1.4-2.923l-.739.047a46.019,46.019,0,0,0-2.037,5.935c-2.368,11.733-4.635,23.486-6.894,35.241-2.271,11.82-4.479,23.656-8.463,35.057-1.565,4.478-3.261,8.928-6.61,12.467-3.168,3.348-6.511,3.267-9.483-.251s-4.453-7.786-5.8-12.076c-3.922-12.449-6.047-25.288-7.961-38.154-2.049-13.766-3.894-27.563-5.861-41.341-.276-1.933-.739-3.84-1.115-5.759l-.52-.014a16.375,16.375,0,0,0-.586,1.805c-.987,4.82-2.091,9.622-2.892,14.474-3.107,18.828-5.926,37.7-9.233,56.5-1.947,11.066-3.464,22.332-9.143,32.566a27.581,27.581,0,0,0,3.3.713c5.566.54,11.13,1.176,16.71,1.48q31.441,1.713,62.922.785c10.75-.307,21.512-.87,32.215-1.881,6.824-.645,5.79-.35,5.67-6.271-.618-30.628-1.427-61.253-2.2-91.878-.091-3.576-.38-7.148-.585-10.861M197.3,156.882c.995-.5,2.115-.733,2.689-1.419,2.593-3.1,5.715-3.717,8.895-1.114a29.012,29.012,0,0,1,5.367,5.88c3.271,4.72,5.709,9.865,4.961,15.817a51.072,51.072,0,0,0-.612,8.435c.207,5.534-1.666,10.724-4.2,15.675a32.884,32.884,0,0,0-3.092,7.723c-3.5,16.026-6.812,32.095-10.195,48.147-.192.911-.275,1.67.932,1.933,1.114.243,2.08.336,2.441-1.067.408-1.588.884-3.161,1.221-4.764,2.462-11.714,4.78-23.46,7.4-35.138a74.844,74.844,0,0,1,3.9-11.728c1.23-3.021,2.907-3.291,5.321-1.159,2.366,2.09,4.536,4.4,6.855,6.545,16.037,14.842,35.27,23.513,56.21,28.706a49.583,49.583,0,0,0,23.683.028c1.215-.29,1.73-.783,1.732-2.064,0-1.574.22-3.149.372-4.721.149-1.551.587-2.817,3.192-1.985-.9-4.794-1.392-9.219-2.606-13.435a53.916,53.916,0,0,0-9.489-18.157c-6.316-8.124-14.242-13.686-24.695-15.063-3.011-.4-6.056-.607-9.032-1.183-4.573-.885-8.934-2.324-12.352-5.788a5.149,5.149,0,0,0-2.553-1.435,57.261,57.261,0,0,1-17.061-5.664A466.2,466.2,0,0,1,196.635,145.8a8.029,8.029,0,0,0-.947-.5c.524,3.757,1.048,7.509,1.616,11.585M348.62,244.106c1.576-2.956,3.06-5.854,4.662-8.685a1.682,1.682,0,0,0-.629-2.583c-1.849-1.279-3.675-2.592-5.5-3.911a4.546,4.546,0,0,1-2.037-5.055c.313-1.36.46-2.757.734-4.127,2.638-13.166,5.352-26.317,7.911-39.5,1.875-9.655,3.206-19.428,5.421-29,1.9-8.212,4.68-16.222,7.145-24.3a5.533,5.533,0,0,0-.333-4.531,27.268,27.268,0,0,1-1.641-4.046,3.2,3.2,0,0,1,1.344-4.126,1.605,1.605,0,0,0,.829-2.1,3.767,3.767,0,0,1,1.763-4.561c2.381-1.46,4.715-3.027,7.211-4.262q25.735-12.734,51.529-25.353c1.527-.751,2.99-1.631,4.477-2.447-3.509-1.158-6.761-2.258-10.03-3.3C414.854,70.1,409.47,66.5,406.5,59.835c-.2.682-.163,1.348-.332,1.957-.656,2.38-1.035,4.919-2.145,7.076-2.756,5.351-7.718,7.31-13.414,7.705-4.789.333-9.608.338-14.378.829-9.863,1.014-17.361,5.576-21.3,15.042-1.353,3.252-2.748,6.5-3.881,9.827-4.824,14.183-8.082,28.771-10.937,43.451-2.716,13.959-5.415,27.942-6.336,42.152-.475,7.324-.188,14.7-.142,22.054.017,2.721.391,5.439.492,8.163a52.9,52.9,0,0,1-.118,5.57c-.065.941-.549,1.856-.595,2.795-.282,5.833-.386,11.686-3.225,17.038a10.008,10.008,0,0,0-.534,1.893c1.6,0,3.059-.285,4.334.073a4.112,4.112,0,0,0,3.894-.765c.634-.471,1.293-.907,1.944-1.355,5.137-3.536,5.4-2.718,8.788.767m31.036,77.35a13.224,13.224,0,0,1,.935,2.388,101.677,101.677,0,0,1,1.325,23.607c-.3,3.917-.259,4.124,3.67,4.99a16.689,16.689,0,0,0,1.788.351c8.517.918,17.017,2.06,25.556,2.673a199.618,199.618,0,0,0,36.428-.213,72.812,72.812,0,0,0,10.484-2.219,3.82,3.82,0,0,0,3.065-4.189c-.1-1.7.009-3.411-.192-5.092a36.1,36.1,0,0,0-4.977-15.3,4.863,4.863,0,0,0-3.493-2.648c-3.911-.535-7.818-1.127-11.7-1.823-5.981-1.07-11.9-2.793-17.921-3.269-15.692-1.242-31.42-2.042-47.144-2.831a86.925,86.925,0,0,0-14.532.311c-5.154.612-8.432,3.932-9.344,9.126q-1.607,9.15-2.816,18.368a47.542,47.542,0,0,0-.093,7.276c.038,1.557.685,2.433,2.545,2.139,2.155-.34,4.372-.264,6.537-.552q8.122-1.083,16.216-2.363a17.6,17.6,0,0,0,3.149-1.165c-3.918-4.185-4.592-8.983-3.775-13.911.8-4.835,2.2-9.572,3.37-14.344.087-.353.44-.642.922-1.312m-202.174-131c1.455-2.131,1.67-2.32,3.727-.954,5.308,3.527,10.566,7.138,15.722,10.882a27.058,27.058,0,0,1,4.3,4.421,1.927,1.927,0,0,1,.276,1.79,2.3,2.3,0,0,1-1.875.621,13.845,13.845,0,0,1-3.449-1.118,65.753,65.753,0,0,1-16.277-10.956c-.429-.386-.867-.761-1.655-1.452-.413,2.995-.929,5.552-1.09,8.132-.362,5.817-.668,11.642-.753,17.467-.038,2.608.4,2.787,2.943,3.282,1.311.255,2.642.455,3.921.826,3.019.877,4.2,2.874,3.172,5.852a69.3,69.3,0,0,1-3.059,6.593c-.9,1.919-1.9,3.8-2.653,5.779a3.069,3.069,0,0,0,1.4,3.93c4.11,2.708,8.173,5.485,12.276,8.2,1.6,1.061,3.257,2.037,5.1,3.183.3-1.5.535-2.681.786-3.861,3.282-15.455,6.5-30.923,9.912-46.35a31.081,31.081,0,0,1,2.956-7.2,33.519,33.519,0,0,0,3.982-15.127,50.056,50.056,0,0,0-1.907,4.8c-1.537,4.089-2.966,8.227-4.721,12.222-1.028,2.341-2.86,2.421-4.317.314a20.618,20.618,0,0,1-3.653-11.47,12.273,12.273,0,0,1,.329-1.59,4.651,4.651,0,0,0,.034-1.744c-.841-2.96.552-4.7,3.568-4.416,1.331.127,2.668.22,4,.263,5.249.166,6.606-.982,7.324-6.239a13.641,13.641,0,0,0,.118-3.084c-.625-6.733-3.895-12.183-8.48-16.924a10.246,10.246,0,0,0-3.2-2.048,3.452,3.452,0,0,0-4.172.9,43.422,43.422,0,0,1,4.357.259c.523.081.964.692,1.443,1.062-.493.278-.978.778-1.478.793-1.451.044-2.911-.194-4.363-.152a16.548,16.548,0,0,0-3.545.522c-.382.1-.634.708-.946,1.084a5.266,5.266,0,0,0,1.39.521,6.977,6.977,0,0,0,1.613-.241c1.857-.3,3.708-.651,5.573-.887a4.363,4.363,0,0,1,5.088,2.955,127.828,127.828,0,0,1,3.507,12.392,2.975,2.975,0,0,1-3.1,3.833c-3.592.017-6.206,1.8-8.746,3.957-1.617,1.373-2.2,1.35-3.21-.589a64.443,64.443,0,0,1-4.281-9.235c-1.494-4.492-2.122-9.139.269-13.642a1.648,1.648,0,0,0,.095-.884c-.281-2.841-.468-5.7-.927-8.511a5.921,5.921,0,0,0-1.538-3.374,44.256,44.256,0,0,0-7.2-5.189c-2.76-1.538-3.275-1.181-4.332,1.781a141.039,141.039,0,0,0-6.262,24.891c-.945,5.831-1.651,11.686-.787,17.6a9.855,9.855,0,0,0,2.785,6.121M414.618,63.889c.285-2.011.685-2.264,2.217-1.547.768.36,1.5.809,2.229,1.241a36.759,36.759,0,0,0,16.65,5.454c3.247.186,4.458-.854,5.442-3.921a49.316,49.316,0,0,1,2.56-6.405c1.164-2.4,2.6-4.671,3.844-7.038,1.456-2.776,2.444-5.619,1.987-8.9-.879-6.316-1.614-12.654-2.274-19a18.357,18.357,0,0,0-6.131-12.051,2.8,2.8,0,0,0-1.57-.709c-2.827-.184-5.664-.221-8.491-.408-3.269-.216-6.541-.841-9.8-.743-5.741.173-8.062,3.521-6.941,9.089a15.632,15.632,0,0,1,.346,6.105,112.071,112.071,0,0,1-3.284,10.955c-.139.431-.692.729-1.053,1.089a5.133,5.133,0,0,1-1.022-1.158c-.541-1.219-.873-2.535-1.456-3.729-1.071-2.189-2.32-2.775-4.182-2.461a62.078,62.078,0,0,1,2.5,5.926,19.849,19.849,0,0,1,.677,4.861c.217,4.066.308,8.138.491,12.205a6.343,6.343,0,0,0,.426,2.486,25.456,25.456,0,0,0,6.832,8.653m-97.95,172.876c6.374-2.979,11.227-6.693,14.968-11.805a1.844,1.844,0,0,0,.39-.992c0-3.64.386-7.343-.143-10.909-1.571-10.572-3.491-21.094-5.347-31.622a2.008,2.008,0,0,0-1.341-1.215c-2.021-.41-4.085-.6-6.122-.938-8.927-1.461-17.778-3.442-26.926-3.173-9.234.272-18.475.352-27.713.447-2.15.022-4.3-.235-6.456-.363l-.216.478a40.926,40.926,0,0,0,3.711,2.358,35.548,35.548,0,0,0,13.737,3.323,36.177,36.177,0,0,1,25.67,12.912c8.564,9.795,13.84,21.029,14.431,34.244a53.575,53.575,0,0,0,1.358,7.256M460.554,97.27l-.641-.381a42.114,42.114,0,0,0-3.409,3.9c-2.2,3.2-4.372,6.44-6.3,9.808A35.131,35.131,0,0,1,439.79,121.9a113.658,113.658,0,0,1-9.986,6.358c-7,3.915-14.147,7.565-21.156,11.463a37.777,37.777,0,0,0-11.02,8.579,12.711,12.711,0,0,0-3.176,7.97,10.2,10.2,0,0,0,.514,2.375,8.49,8.49,0,0,0,2.3-.879,68.941,68.941,0,0,0,5.279-4.474c4.809-4.556,9.443-9.3,14.372-13.722a67.51,67.51,0,0,1,8.57-6.12,2.85,2.85,0,0,1,2.65-.031,2.943,2.943,0,0,1,.492,2.612,38.749,38.749,0,0,1-2.679,6.359c-5.521,10.183-12.332,19.51-19.406,28.642-5.357,6.915-11.1,13.54-16.253,20.6-3.057,4.189-5.347,8.945-7.871,13.508a13.534,13.534,0,0,0-.859,3.316l.648.491a25.481,25.481,0,0,0,4.42-2.6c6.474-5.782,13.087-11.44,19.185-17.6,11.849-11.975,21.722-25.533,30.526-39.866a243.533,243.533,0,0,0,21.651-43.7c.952-2.6,1.715-5.272,2.565-7.91M277.6,46.17l-.584.051a37.134,37.134,0,0,0-2.17-4.1c-3.3-4.757-8.053-7.47-13.467-9.111a2.105,2.105,0,0,0-1.794.861c-1.547,2.749-2.887,5.613-4.394,8.386-2.814,5.174-5.812,10.252-8.506,15.488a25.95,25.95,0,0,0-3.341,11.449,4.975,4.975,0,0,0,1.523,3.911c1.555,1.534,3.018,3.168,4.428,4.836.329.389.286,1.092.414,1.65-.619.073-1.414.426-1.822.168a10.494,10.494,0,0,1-3.319-2.72c-1.8-2.774-3.307-5.745-4.886-8.661a3.373,3.373,0,0,1-.367-1.582c.042-3.816-.069-7.648.254-11.443.448-5.252,1.233-10.476,1.912-16.026a4.969,4.969,0,0,0-.535.835c-2.245,7.3-3.861,14.711-3.393,22.4a25.141,25.141,0,0,0,23.371,23.178,12.112,12.112,0,0,0,10.823-4.824c5.321-6.679,7.421-14.562,8.038-22.856.858-11.516-2.4-22.228-7.024-32.6a22.215,22.215,0,0,0-1.918-3.064c2.179,7.033,4.48,14.416,6.732,21.815a7.014,7.014,0,0,1,.024,1.961M516.784,228.083c.331.122.88.365,1.451.529A118.663,118.663,0,0,0,543.871,233a13.066,13.066,0,0,0,5.3-.945,29.3,29.3,0,0,0,10.969-7.342,20.751,20.751,0,0,0,3.687-5.541c1.025-2.275-.113-4.389-2.47-5.22a34.382,34.382,0,0,0-4.921-1.311c-4.532-.873-9.087-1.629-13.616-2.512-.551-.107-1-.713-1.5-1.088.455-.41.843-.995,1.378-1.2a11.537,11.537,0,0,0,5.84-4.154,9.053,9.053,0,0,0,.747-2.667,7.418,7.418,0,0,0-2.377-.483c-7.387,1.03-14.761,2.157-22.142,3.234-2.109.308-3.018,1.556-3.439,3.589-1.416,6.828-2.975,13.627-4.542,20.729M367.911,128.2c-.487.322-.644.366-.67.451-3.48,11.256-7.253,22.438-9.336,34.069-2.012,11.236-3.744,22.521-5.817,33.745-1.7,9.195-3.7,18.334-5.611,27.489a3.311,3.311,0,0,0,1.309,3.684c2.2,1.607,4.427,3.174,6.9,4.943.47-1.77.923-3.324,1.29-4.9.427-1.831.734-3.691,1.171-5.52,2.021-8.446,4.228-16.85,6.075-25.334,3.82-17.552,5.576-35.266,3.542-53.222-.474-4.185-.643-8.354.79-12.438a14.79,14.79,0,0,0,.355-2.968M331.19,261.828c-.139-.321-.3-.634-.415-.963-.923-2.6-1.675-5.244-.993-8.01a2.6,2.6,0,0,1,1.406-1.645c.4-.134,1.309.537,1.652,1.066a28.344,28.344,0,0,1,1.8,3.565c1.094,2.368,2.116,4.769,3.249,7.117a1.7,1.7,0,0,0,2.788.746c-1.385-1.913-2.869-3.689-4.036-5.654a29.827,29.827,0,0,1-2.728-5.9,2.632,2.632,0,0,1,1.634-3.443c1.457-.539,2.194.583,2.945,1.564,2.791,3.645,6.558,6.09,10.413,8.424,1.015.614,1.728.019,1.593-.835a4.667,4.667,0,0,0-1.442-2.655c-1.806-1.519-4.029-2.588-5.665-4.25a11.715,11.715,0,0,1-2.474-4.684c-.414-1.324.68-2.142,1.924-1.722,2.01.679,3.985,1.468,6.012,2.093a5.044,5.044,0,0,1,3.572,3.578c.687,2.379,1.2,4.811,1.8,7.306,1.717-1.073,2.061.245,2.371,1.59s.6,2.7.9,4.043l.882.1c.474-1.1,1.324-2.185,1.34-3.287a26.554,26.554,0,0,0-.705-6.272c-.937-4.075-2.073-8.1-3.172-12.14-.417-1.531-.958-3.029-1.543-4.855-1.62,2.88-2.99,5.378-4.424,7.84-.95,1.631-1.642,1.642-2.852.153-.077-.094-.136-.2-.211-.3-1.808-2.3-2.433-2.422-4.827-.853-1.474.966-2.866,2.071-4.405,2.913a6.124,6.124,0,0,1-2.737.58c-1.433.029-2.876-.282-4.3-.216-2.027.093-2.675-.473-2.086-2.4s1.386-3.757,2.09-5.633c1.364-3.634,1.068-7.433,1.205-11.255a47.969,47.969,0,0,1-14.234,10.484c1.783,4.035,3.41,7.953,5.245,11.771.943,1.963,1.539,2.022,3.461.947.735-.411,1.343-1.048,2.076-1.463a20.924,20.924,0,0,1,2.278-.974,20.505,20.505,0,0,1-.526,2.487c-.464,1.374-1.211,2.67-1.537,4.07a6.251,6.251,0,0,0,2.676,6.97M438,9.964c-.077-.427-.057-.595-.123-.642a11.154,11.154,0,0,0-1.213-.792,33.663,33.663,0,0,0-17.223-3.825,17.489,17.489,0,0,0-12.206,5.336c-3.849,3.858-6,8.635-7.358,13.812-.391,1.484-.605,3.015-.942,4.738,2.664,0,5.21-.635,7.142.183,1.838.778,3.034,3.073,4.39,4.567a25.726,25.726,0,0,1,1.394-4.314,15.145,15.145,0,0,0,.95-11.106c-1.12-4.456,1.372-8.047,5.894-9.078a15.145,15.145,0,0,1,4.511-.408c3.565.289,7.111.818,10.668,1.217,1.344.15,2.7.206,4.117.311M201.291,181.081c3.149-2.935,6.328-5.033,10.537-5a1.693,1.693,0,0,0,1.531-2.276c-1.088-4.089-2.242-8.165-3.542-12.191a2.919,2.919,0,0,0-3.409-1.876c-1.985.255-3.946.71-5.934.922-1.379.147-2.787.028-4.5.028-1.676,7.34,1.527,13.722,5.316,20.389M494.08,222.251l.667-.151c.135-1.02.219-2.05.412-3.06,1.273-6.67,2.287-13.407,3.95-19.98,1.294-5.111,3.739-6.11,8.828-4.585a32.132,32.132,0,0,1,3.523,1.476c.543.237,1.069.511,1.586.759a3.63,3.63,0,0,0-.15-4.894,86.13,86.13,0,0,0-5.844-6.475,1.652,1.652,0,0,0-1.45-.252c-7.33,2.738-13.188,7.749-14.009,16.537-.435,4.658.091,9.441.542,14.133.212,2.205,1.27,4.329,1.944,6.491m20.108,6.591a7.235,7.235,0,0,0-.7-.5c-3.76-2.1-4.171-2.96-3.34-7.152a11.412,11.412,0,0,1,.54-2.117c2.053-4.994,4.145-9.97,6.212-14.959.225-.544.685-1.417.482-1.643a18.816,18.816,0,0,0-3.6-3.273c-.323-.211-1.439.745-2.163,1.206a19.491,19.491,0,0,1-1.789,1.252c-3.376,1.642-4.642,4.588-5.18,8.056-1.082,6.965-.593,13.943-.22,20.92a1.756,1.756,0,0,0,.617,1.2,5.768,5.768,0,0,0,9.142-2.992m-2.106-30.617c-2.118-1.9-5.9-3.284-8.231-2.781a3.9,3.9,0,0,0-2.451,1.8,27.81,27.81,0,0,0-2.247,6.513c-1.117,5.968-1.857,12.007-3,17.97a5.4,5.4,0,0,0,2.138,5.706c1.4,1.143,2.841,2.231,4.469,3.5,0-2.434-.066-4.311.013-6.182.233-5.512.348-11.038.858-16.527a9.069,9.069,0,0,1,4.965-7.428,29.231,29.231,0,0,0,3.489-2.573M455.564,90.2l-.2-.462a18.857,18.857,0,0,0-2.714.625c-5.889,2.276-11.883,4.33-17.607,6.968-13.646,6.289-27.569,11.47-42.666,13.024a26.715,26.715,0,0,0-7.538,2.474c-1.105.477-1.9,1.682-2.83,2.556l.331.742c2.23-.306,4.494-.459,6.684-.942a239.336,239.336,0,0,0,35.126-10.887c9.55-3.716,18.881-8,28.284-12.087a22.553,22.553,0,0,0,3.131-2.011m-189.48,70.845.283.493a12.776,12.776,0,0,0,1.322-.439,113.729,113.729,0,0,0,32.543-21.743,35.23,35.23,0,0,0,8.049-10.939c1.722-3.886.813-7.417-2.816-10.32-.759,2.819-1.58,5.531-2.214,8.286a26.939,26.939,0,0,1-11.608,17q-9.758,6.537-19.433,13.2c-2.084,1.428-4.086,2.975-6.126,4.467M331.549,252.4c-1.3,3.386.753,10.727,3.128,12.5a3.824,3.824,0,0,0,.643.339c5.3,2.551,13.425.317,16.585-4.629a4.07,4.07,0,0,0,.64-2.384,61.927,61.927,0,0,0-.98-6.285,5.164,5.164,0,0,0-4.275-4.4c-1.637-.353-3.219-.965-4.978-1.508a5.29,5.29,0,0,0,2.267,4.228c1.669,1.311,3.492,2.426,5.186,3.708a7.144,7.144,0,0,1,1.843,1.953,3.1,3.1,0,0,1-.508,3.869c-1.084,1.2-2.25.559-3.288-.1-3.948-2.515-7.9-5.024-10.721-8.913-.239-.33-.876-.7-1.144-.6-.337.135-.6.721-.683,1.154a2.144,2.144,0,0,0,.152,1.415c1.91,3.082,3.89,6.119,5.825,9.185.414.655,1.194,1.619.988,2.006a3.619,3.619,0,0,1-2.094,1.454,2.8,2.8,0,0,1-3.456-1.681c-.945-1.9-1.8-3.849-2.673-5.785-.766-1.693-1.51-3.4-2.458-5.529M432.174,77.542l-.4-.39q-5.6,2.778-11.2,5.554-23.128,11.4-46.248,22.819a46.84,46.84,0,0,0-5.554,3.461c-1.22.837-1.308,2.023-.607,3.366.375-.157.659-.253.922-.391q21.19-11.184,42.373-22.383,9.577-5.08,19.063-10.328a8.075,8.075,0,0,0,1.648-1.708M215.646,183.861c-3.526,0-6.611.059-9.693-.03-1.146-.033-1.675.228-1.733,1.439-.07,1.46.705,1.832,1.969,2.024a35.436,35.436,0,0,1,5.279,1.188c.5.158.787,1.019,1.171,1.558-.589.172-1.227.581-1.758.472a32.333,32.333,0,0,1-4.36-1.268c-2.028-.724-2.744-.279-2.586,1.876a21.058,21.058,0,0,0,3.077,9.434,15.106,15.106,0,0,1,.809,1.838l.924-.63c3.261-5.443,4.49-11.675,6.9-17.9M269.41,23.184c-2.788,1.168-7.024,5.68-7.992,8.316a29.6,29.6,0,0,1,13.076,7.772l.428-.283L269.41,23.184m-78.729,103.66-.635.445c.605.984,1.136,2.023,1.828,2.942a60.647,60.647,0,0,0,19.566,16.886,58.528,58.528,0,0,0,7.86,3.3,8.231,8.231,0,0,0,2.685.045l.17-.676c-.748-.389-1.477-1.066-2.246-1.116a13.532,13.532,0,0,1-7.705-3.427c-5.5-4.48-10.893-9.1-16.3-13.7-1.783-1.516-3.485-3.128-5.224-4.7m9.118,79.066.355-.613c-6.012-6.177-13.15-10.839-20.528-15.176-1.03,1.176-.9,1.983.026,2.86a63.121,63.121,0,0,0,17.808,12.156,23.571,23.571,0,0,0,2.339.773M379.685,326.418l-.792-.138c-.731,3.54-1.586,7.061-2.157,10.628a16.473,16.473,0,0,0,.929,9.486,25.44,25.44,0,0,0,2.008,3.186l.62-.265c1.122-7.666.131-15.278-.607-22.9m-48-122.464.4-.032c.184-7.816.369-15.631.552-23.367H327.69l4,23.4M439.918,8.8c.251-2.73-.335-4.8-2.11-6.419a2.734,2.734,0,0,0-1.626-.426c-1.133-.043-2.275.1-3.406.039a72.1,72.1,0,0,0-8.157-.467A77.009,77.009,0,0,0,415.972,3l.091.556A36.388,36.388,0,0,1,439.918,8.8M402.49,46.971c3.136-3.722.633-10.567-4.4-13.729-.974,4.038,1.492,11.74,4.4,13.729m-5.131-17.016a35.008,35.008,0,0,1,9.268-21.441c-.228,0-.377-.047-.444.007a23.743,23.743,0,0,0-9.4,19.017,10.03,10.03,0,0,0,.58,2.417m11.079,29.989c.544,3.333,6.56,8.989,10.931,9.765l-10.931-9.765m21.854,10.11-13.381-5.685c1.755,3.136,9.357,6.24,13.381,5.685M358.424,239.495l-.325.168c.557,1.506,1.049,3.042,1.688,4.513.857,1.972,2.023,2.044,3.236.241a9.184,9.184,0,0,0,.673-1.45l-5.272-3.471M336.87,267.327c3.45,3.18,9.75,2.19,11.749-1.695-3.661,2.048-7.473,2.226-11.749,1.695M367.618,121.6v-6.587c-2.686,1.166-2.689,2.716,0,6.587m-55,110.1c-.189,2.431-.345,4.443-.548,7.043,1.083-.66,2.224-1.035,2.225-1.412,0-1.8.457-3.793-1.677-5.631M429.306,71.683,433,73.763c.086-.822.145-1.378.219-2.08Z" transform="translate(0 0)"/>
  </g>
</svg>
