<svg id="Group_147" data-name="Group 147" xmlns="http://www.w3.org/2000/svg" xmlns:xlink="http://www.w3.org/1999/xlink" width="11.246" height="9.662" viewBox="0 0 11.246 9.662">
  <defs>
    <clipPath id="clip-path">
      <rect id="Rectangle_68" data-name="Rectangle 68" width="11.246" height="9.662" fill="#57a68f"/>
    </clipPath>
  </defs>
  <g id="Group_28" data-name="Group 28" clip-path="url(#clip-path)">
    <path id="Path_265" data-name="Path 265" d="M11.246,4.72a1.182,1.182,0,0,0-.379-.612Q8.95,2.195,7.038.275A.808.808,0,0,0,6.116.067a.8.8,0,0,0-.291,1.246c.042.051.088.1.134.145q.9.907,1.809,1.812A2.612,2.612,0,0,0,8.7,4l-.007.028H8.571q-3.832,0-7.664,0a.859.859,0,0,0-.67.242A.754.754,0,0,0,.055,5.1a.8.8,0,0,0,.715.536,1.9,1.9,0,0,0,.2.005H8.692c-.173.118-.348.233-.517.356A1.5,1.5,0,0,0,8,6.164Q6.964,7.2,5.929,8.244a.839.839,0,0,0-.256.86A.78.78,0,0,0,6.9,9.5a1.818,1.818,0,0,0,.163-.147q1.9-1.9,3.8-3.8a1.233,1.233,0,0,0,.388-.61Z" transform="translate(0 0)" fill="#57a68f"/>
  </g>
</svg>
