<svg id="Group_383" data-name="Group 383" xmlns="http://www.w3.org/2000/svg" xmlns:xlink="http://www.w3.org/1999/xlink" width="21.745" height="24.928" viewBox="0 0 21.745 24.928">
  <defs>
    <clipPath id="clip-path">
      <rect id="Rectangle_179" data-name="Rectangle 179" width="21.745" height="24.928" fill="#57a68f"/>
    </clipPath>
  </defs>
  <g id="Group_264" data-name="Group 264" clip-path="url(#clip-path)">
    <path id="Path_880" data-name="Path 880" d="M2.348,110.071a1.319,1.319,0,0,1-.722-.606,1.1,1.1,0,0,1,.027-.984l-1.23-.695c-.477-.269-.531-.46-.259-.94l3.343-5.9c.27-.477.457-.528.941-.255l1.661.935A1.191,1.191,0,0,0,6.2,101.5c.394-.7.789-1.4,1.175-2.1a.291.291,0,0,0,.006-.251A1.138,1.138,0,0,1,7.29,98a16.6,16.6,0,0,1,1.6-2.916,24.01,24.01,0,0,1,2.6-3.209,2.762,2.762,0,0,1,4.128-.149,20.164,20.164,0,0,0,2.7,2.108,6.109,6.109,0,0,0,2.413.917,1.055,1.055,0,0,1,.977.85.965.965,0,0,1-.429,1.1,1.314,1.314,0,0,1-.751.2,7.631,7.631,0,0,1-4.1-1.493.432.432,0,0,0-.09-.034c.052.605.1,1.192.153,1.778.054.614.113,1.228.162,1.842a2.007,2.007,0,0,1-.429,1.413c.24.4.482.8.71,1.2,1.184,2.088,2.24,4.241,3.212,6.435a1.378,1.378,0,0,1-.616,1.886c-.122.06-.256.1-.384.147h-.487a1.871,1.871,0,0,1-1.173-1.192,61.658,61.658,0,0,0-3.207-6.346c-.042-.072-.087-.142-.146-.238-.065.115-.111.19-.152.268-1.135,2.147-2.276,4.29-3.4,6.443a1.861,1.861,0,0,1-1.175,1.065H8.922a3.678,3.678,0,0,1-.7-.408,1.358,1.358,0,0,1-.172-1.778q1.942-3.523,3.889-7.044a.362.362,0,0,0-.015-.428,2.61,2.61,0,0,1-.356-.913c-.1-.729-.143-1.468-.208-2.2L11.2,95.57c-.224.321-.43.571-.588.849-.443.781-.878,1.567-1.29,2.364a1.309,1.309,0,0,1-.811.777.337.337,0,0,0-.167.158q-2.423,4.243-4.835,8.493a.313.313,0,0,0,0,.255,1.088,1.088,0,0,1,.04.983,1.2,1.2,0,0,1-.769.621Zm.219-1.416a.379.379,0,0,0-.381.387.379.379,0,1,0,.759,0,.376.376,0,0,0-.378-.389" transform="translate(0 -85.143)" fill="#57a68f"/>
    <path id="Path_881" data-name="Path 881" d="M180.259,2.792A2.79,2.79,0,1,1,177.452,0a2.8,2.8,0,0,1,2.806,2.791" transform="translate(-163.673 0)" fill="#57a68f"/>
  </g>
</svg>
