        <svg xmlns="http://www.w3.org/2000/svg" xmlns:xlink="http://www.w3.org/1999/xlink" width="673.47" height="551.749" viewBox="0 0 673.47 551.749">
            <defs>
                <clipPath id="clip-path">
                    <rect id="Rectangle_158" data-name="Rectangle 158" width="673.47" height="551.749" fill="none" />
                </clipPath>
            </defs>
            <g id="Group_206" data-name="Group 206" clip-path="url(#clip-path)">
                <path id="Path_677" data-name="Path 677" d="M668.033,535.233c-12.986-5.426-26.73-7.04-40.615-7.473-33.3-1.029-66.056,4.116-98.84,9.076-16.17,2.437-32.243,5.892-48.705,6.054-7.592.076-9.5-1.375-11.264-8.686-2.014-8.285-2.144-16.766-2.036-25.235.4-30.607,2.372-61.226-.022-91.833a14.084,14.084,0,0,1,.368-3.737c2.578-12.856,5.437-25.658,7.733-38.568,2.35-13.278,4.072-26.513,1-40.138-9.7-42.922-21.715-85.215-34.29-127.347-2.188-7.343-3.877-15.044-9.271-21.022a143.654,143.654,0,0,0-59.417-39.8c-3.033-1.083-6.509-.433-9.314-2.329a33.075,33.075,0,0,0-18.932-5.762c2.9-5.946,5.805-11.524,7.668-17.535,1.9-6.13,3.8-12.271,5.643-18.25,3.4,4.256,4.332,4.094,6.488-1.408.336-.823.487-1.733.856-2.534,5.545-12.054,2.556-24.8,2.74-37.214.173-11.708-2.74-23.123-5.762-34.463-2.773-10.4-9.271-17.2-18.661-21.7C314.814-8.389,282.56,5.355,272.759,35.5a83.715,83.715,0,0,0-3.087,38.958c-4.04-.682-5.08-.043-6.065,3.563a14.605,14.605,0,0,0-.011,6.423c2.058,12.639,9.119,23.535,12.3,35.839,2.069,8,7.527,14.556,12.249,21.315,12.358,13.777,26.827,15.845,43.16,7.8.011,0,.011-.011.022,0-.043.043-.184.152-.238.206.043-.022.152-.087.347-.206-5.188,3.639-10.441,6-16.679,6.152-11.513.282-19.549-6.011-26.99-13.614-2.285-4.04-5.881-4.181-9.758-3.163-22.56,5.935-43.9,14.654-63.338,27.726a48.452,48.452,0,0,0-18.715,23.73c-5.578,14.665-9.249,29.817-12.423,45.12a543.307,543.307,0,0,0-9.953,67.193c-1.365,17.177,6,32.611,11.87,48.012,3.574,9.358,13.874,10.365,22.192,3.672a47.952,47.952,0,0,1,14.416-8.264c.347,5.155.6,9.823,1.007,14.481.217,2.5.011,5.437,1.246,7.354,2,3.108.931,5.513-.076,8.329a112.372,112.372,0,0,0-6.3,35.958c-.13,6.358-.412,12.888,4.321,18.152a37.216,37.216,0,0,0-8.859,16.982,92.472,92.472,0,0,0-2.253,17.091c-.693,19.853.769,39.608,2.892,59.309,1.6,14.87-2.437,20.827-17.2,23.979a33.821,33.821,0,0,1-4.8.639c-22.289,1.614-44.178-2.231-66.143-4.96-21.813-2.719-43.637-5.513-65.655-5.48-19.149.032-38.135,1.7-55.756,10.278C2.859,548.858.7,549.139,0,551.749a5.619,5.619,0,0,0,1.679-.141c22.593-11.784,46.962-12.574,71.59-11.48,27.38,1.213,54.413,5.773,81.609,8.773,14.491,1.6,29.059,3.1,43.615.412,13.614-2.513,18.986-10.538,17.621-24.228-2.166-21.683-4.267-43.409-2.664-65.244.628-8.632,2.09-17.156,7.278-24.5,1.95-2.773,3.8-4.571,7.993-3.238,3.812,1.213,8.231,1.051,12.325.747,24.022-1.755,46.366-9.26,67.562-20.416a44.475,44.475,0,0,0,7.072-4.928c1.646-1.343,3.639-3.054,2.675-5.426-1.126-2.783-3.931-1.841-6.184-1.82a12.02,12.02,0,0,0-2.123.4c-27.867,5.87-54.045,17.047-81.013,25.766-6.119,1.982-8.177,1.17-8.816-5.513a100.488,100.488,0,0,1,1.668-27.943c2.1-11.318,5.838-20.3,16.17-28.279,26.221-20.253,46.907-46.106,64.8-74.027a38.346,38.346,0,0,0,3.282-7.354c.5-1.343.563-2.9-.91-3.888-1.4-.942-2.48.162-3.358.888a36.572,36.572,0,0,0-5.448,5.22c-22.517,28.17-46.063,55.485-70.4,81.6A132.683,132.683,0,0,1,224.183,346a2.684,2.684,0,0,1,1.484-2.6c9.553-5.664,14.795-14.892,20.275-24.055,8.415-14.047,16.831-28.192,29.568-38.947a58.077,58.077,0,0,0,9.7-10.073,175.485,175.485,0,0,0,17.99-31.236c.661-1.451,1.939-3.672,1.386-4.473-3.043-4.408.433-7.614,1.538-11.264.791-2.6,1.765-5.35-1.061-7.343-4.527-3.184-3.238-5.4.444-8.545,20.177-17.188,39.77-35.059,56.828-55.4,3.628-4.343,6.347-4.928,11.058-3.249,19.484,6.964,36.142,18.347,51.229,32.243a45.965,45.965,0,0,1,12.921,20.751c8.914,28.625,16.95,57.5,24.651,86.461,4.744,17.881,9.867,35.709,12.694,53.991,2.4,15.553-2.025,30.737-4.668,45.943-1.061,6.076-2.513,12.087-3.78,18.131-1.581-6.986-2.069-13.809-4.04-20.4-.617-2.1-1.224-4.614-3.574-4.939-2.794-.379-3.78,2.339-4.82,4.376a38.935,38.935,0,0,0-2.664,6.455c-2.6,8.773-5.177,17.546-7.571,26.373-2.653,9.8-5.09,19.668-7.625,29.5A875.523,875.523,0,0,1,426.12,329.8a183.455,183.455,0,0,1,.953-25.344c.466-3.639,1.289-4.679,4.885-2.307,8.231,5.437,16.755,10.462,26.015,14.047,1.679.65,3.7,1.755,4.711-.412.812-1.733-1.213-2.827-2.415-3.726-7.993-5.957-16.658-10.982-26.275-13.365-9.109-2.253-15.369-8.123-21.932-13.917-3.065-2.686-3.466-5.448-1.841-9.52,6.953-17.34,10.008-35.568,10.711-54.186.108-2.794.455-7.116-2.448-7.549-3.4-.509-3.379,3.9-3.975,6.5-4.191,18.1-5.816,36.564-7.506,55.009-.26,2.805-.4,5.708-3.964,5.946-3.769.238-4.1-3.152-4.495-5.61-.953-6.054.607-11.9,3.271-17.242,2.729-5.48,3.433-11.253,4.191-17.145.585-4.581.379-9.39,3.076-13.527,1.462-2.253,2.394-4.8-.054-6.791-2.708-2.2-5.924-2.643-8.968-.487a12.048,12.048,0,0,0-4.1,5.6c-1.809,4.679-3.7,9.347-5.177,14.145-1.191,3.845-2.383,4.094-5.08,1.083-7.592-8.47-14-17.838-20.957-26.784-1.657-2.134-3.368-4.646-6.433-4.246-3.585.455-4.061,3.78-4.69,6.791-3.5-2.794-6.888-5.275-10.8-1.755-5.426,4.906-6.574,11.112-3.921,18.185.422,1.116,2.459,2.816.347,3.574-4.8,1.744-3.173,5.253-2.329,8.058,4.343,14.5,10.17,28.387,18.531,41.091,1.8,2.708,3.65,5.751,6.672,6.921,7,2.7,10.517,8.318,13.744,14.481,2.751,5.242,5.762,10.354,8.849,15.412,1.126,1.83,1.787,3.043.108,5.09-4.029,4.928-6.368,10.787-8.318,16.8-18.412,56.72-49.074,105.75-92.45,146.766-9.044,8.545-18.531,16.571-28.355,24.2-1.224.953-3.141,1.809-2.134,3.769.78,1.527,2.589.975,3.932.791A40.451,40.451,0,0,0,269.65,515.9c16.387-8.134,29.849-19.993,41.99-33.434,23.665-26.21,40.55-56.6,54.262-88.887,3.953-9.314,7.527-18.791,11.285-28.192.617,15-1.137,29.8-2.112,44.622-1.917,29.286-4.484,58.572-1.538,87.934.78,7.863,1.917,15.791,6.531,22.56,3.574,5.242,7.343,5.275,11.166.282a36.089,36.089,0,0,0,5.177-10.018c3.877-10.993,7.625-22.04,11.6-33,1.256-3.477,2.22-8.665,6.022-8.816,3.282-.13,3.617,5.134,5,8.188.877,1.928,1.581,4.289,4.191,4.419,2.545.13,3.682-1.982,4.766-3.845,3.076-5.275,4.657-11.166,6.964-18.011,1.289,5.491,2.2,10.008,3.444,14.426.758,2.643.964,6.509,4.321,6.7,3.163.184,4.246-3.422,5.61-5.9a42.646,42.646,0,0,0,2.014-4.408,224.214,224.214,0,0,0,8.643-26.037c1.8-6.466,3.542-12.964,5.307-19.441a2.262,2.262,0,0,1,.986,1.96c.368,23.427.368,46.842-.487,70.258-.433,12.055-.78,24.141,1.6,36.066,1.906,9.52,4.8,11.957,14.307,11.654,18.044-.6,35.709-4.332,53.493-7.007,32.427-4.885,64.875-9.628,97.822-7.993,13.354.672,26.47,2.729,38.73,8.556.65.314,1.744,1.949,2.719-.639-1.755-.867-3.553-1.874-5.437-2.664M317.2,401.442c-9.368,15.7-66.673,33.131-89.342,27.921,29.178-9.607,57.381-22.354,89.342-27.921m-76.973-48.424c16.69-14.264,29.362-32,43.138-48.8,6.466-7.874,12.434-16.213,20.578-23.253-1.495,15.293-55.9,79.042-73.778,86.656,2.578-5.729,5.61-10.8,10.062-14.6M358.851,86c-1.906-4.083-4.863-7.365-7.69-10.733-1.971-2.361-3.953-4.885-3.65-8.155.477-4.982-2.394-7.365-6.5-8.535-5.87-1.657-11.827-3.011-17.784-4.365a68.615,68.615,0,0,1-19.138-7A29.355,29.355,0,0,0,293.933,43.8c-9.13-1.419-14.351,4.148-12.184,13.008.6,2.437,1.224,4.874,1.971,7.267,1.462,4.668,1.56,8.816-3.314,11.773-1.126.682-1.69,2.274-3.368,4.646.466-12.823,1.332-24.369,4.43-35.633,3.054-11.134,7.127-14.123,18.412-12.119a155.751,155.751,0,0,0,26.329,2.036c4.614.032,8.87.412,10.517,6.108.812,2.838,4,3.4,6.726,3.639,12.943,1.159,14.481,5.838,15.78,17.6.444,4.04-.119,8.448,4.4,10.82,1.1.574.737,1.17.271,2.09-1.744,3.531-3.314,7.148-5.047,10.961m2.578,17.047c-2.773-10.365-1.181-18.109,5.556-28.463a78.953,78.953,0,0,1-5.556,28.463M286.3,16.478c15.553-16.56,43.149-19.127,61.821-6.2A28.115,28.115,0,0,1,359.631,26.03c3.563,12.3,6.2,24.726,6.249,37.593.011,2.48.4,5.1-1.69,7.527-3.758-3.336-2.632-7.679-3.249-11.394-2.069-12.564-3.964-14.784-16.213-16.939-3.5-.617-6.509-1.256-7.441-5.621-.574-2.654-3.4-3.293-6.011-3.8-8.892-1.755-18.022.108-26.892-1.874a37.8,37.8,0,0,0-8.524-1.072c-9.3.032-12.52,2.372-15.488,11.123-3.78,11.188-4.278,22.907-5.275,34.539-.26,3.141-.032,6.325-.531,9.531-2.708-4.43-2.9-9.444-3.292-14.253C269.65,51.32,271.7,32.02,286.3,16.478M267.008,75.667c3.91,7.885,3.228,16.289,4.809,24.542-5.21-5.394-7.831-18.455-4.809-24.542m51.218,74.764c-14.9.022-24.38-4.462-31.355-14.1a85.143,85.143,0,0,1-11.34-21.921c-1.224-3.487-1.939-7.094-.379-10.971,1.473-3.682.7-7.841,1.1-11.773.617-6.184,2.459-11.935,7.495-16.094a7.617,7.617,0,0,0,2.664-7.744c-.791-4.224-1.939-8.383-2.859-12.6-1.289-5.9,1.376-9.282,7.462-9.618a18.608,18.608,0,0,1,10.354,2.513c9.986,5.784,21.055,8,32.1,10.43,2.448.531,4.83,1.354,7.235,2.058,3.065.888,4.9,2.469,4.711,6.108-.206,4.2,1.95,7.69,4.863,10.473,6.812,6.531,8.415,13.972,5.849,23.048-2.935,10.365-5.437,20.849-10.181,30.575-6.238,12.758-17.307,18.2-27.726,19.614M210.179,292.876c-7.051,6.823-13.56,12.737-18.824,19.82-3.574,4.82-6.542,9.813-6.054,16.181.1,1.191.617,3.379-1.625,3.2-1.765-.141-1.635-1.982-1.733-3.444-1.126-16.192,9.39-29.979,28.235-35.752m9.109,51.89a69.012,69.012,0,0,0-13.679,8.5c-7.1,5.448-14.751,3.617-19.105-4.126a28.229,28.229,0,0,1-3.3-9.639c-.314-2.123-2.448-5.145,2.372-5.654,1.57-.173,2.036-2.827,1.82-4.7-.715-6.26,2.3-11.134,5.87-15.737,8.015-10.3,17.925-18.694,28.755-28.17,0,19.484-.043,37.788.054,56.1.011,2.188-1.4,2.794-2.783,3.422M303.3,217.278a2.531,2.531,0,0,1,1.505,3.542c-1.852,4.126-3.217,8.145-6.856,11.7-6.1,5.957-10.679,13.462-15.867,20.351-.661.877-1.083,2.058-.108,2.924,1.451,1.289,2.762.195,3.812-.7,4.982-4.289,8.318-9.878,11.86-15.3,1.332-2.036,2.545-4.148,3.942-6.433,2.079,1.885.531,3.4-.032,4.538-7.852,15.975-15.943,31.56-29.99,43.583-13.257,11.34-21.51,26.892-30.228,41.806-4.213,7.213-9.065,13.787-17.73,18.954,0-9.9-.043-18.943.011-27.986.065-9.011.347-18.022.282-27.022-.022-2.838.812-4.841,3.13-6.347a15.383,15.383,0,0,0,1.635-1.408c12.011-10.668,13.982-17.4,8.21-32.254-3.986-10.246-1.679-18.845,4.9-26.979,1.906-2.35,3.336-5.09,5.22-7.462a3.749,3.749,0,0,1,3.823-1.538c1.6.509,1.581,2.231,1.635,3.672.141,4.062-.563,7.852-3.2,11.145a16.514,16.514,0,0,0-3.737,9.368c-.087,1.386-.422,3.054,1.246,3.791,1.321.6,2.415-.3,3.4-1.1a93.2,93.2,0,0,0,11.87-10.961,117.269,117.269,0,0,0,13.138-12.9c2.686-2.036,4.939-4.776,8.567-5.285,1.841-.26,3.932-.249,4.917,1.408,1.137,1.917-.585,3.314-1.939,4.473-6.423,5.513-13.04,10.831-18.726,17.123-1.57,1.722-4.679,3.953-2.816,6.152,2.4,2.838,4.885-.4,6.747-1.96a84.846,84.846,0,0,0,15.856-18.325,24.23,24.23,0,0,1,6.9-6.715c1.917-1.3,3.693-.931,5.155.964,1.419,1.852.726,3.13-.715,4.646a320.656,320.656,0,0,0-21.52,24.943c-1.029,1.343-3.672,3.065-1.69,4.787,1.516,1.321,3.108-1.1,4.3-2.3a151.583,151.583,0,0,0,20.622-24.921c.6-.921.693-2.751,2.469-1.96M291.669,242.99c-.693,4.386-3.444,7.267-7.2,9.412q3.607-4.711,7.2-9.412m-64.356-14.979a77.028,77.028,0,0,1-2.654,44.709,281.927,281.927,0,0,1,2.654-44.709m54.435-5.946c-3.867,5.675-8.177,11.015-14.383,14.448,3.7-5.827,9.065-10.083,14.383-14.448m24.033-17.838c17.069-19.593,35.893-37.387,55.561-54.326-16.69,19.972-35.817,37.452-55.561,54.326m53.85-56.081c-7.776,7.235-15.78,14.242-23.416,21.629-12.314,11.881-24.737,23.654-35.665,36.878-1.939,2.35-8.686,3.217-11.145,1.581-4.376-2.9-9.4-1.289-15.412,4.96A114.483,114.483,0,0,0,260.91,226.04c-4.495,3.433-7.95,8.145-13.495,11.307A16.189,16.189,0,0,1,251,227.014c2.816-3.585,3.617-7.733,3.509-12.163-.054-2.285-.509-4.354-2.751-5.426-2.112-1.018-3.856.227-5.437,1.354-10.657,7.636-15.78,24.564-11.318,37.095.487,1.354.866,2.74,1.246,4.126,3.65,13.333,1.2,19.43-11.5,27.337a88.7,88.7,0,0,0,6.563-27.553,77.96,77.96,0,0,0-1.668-24.661c-.368-1.57-.672-3.726-2.491-3.693-1.95.032-1.83,2.264-2.079,3.791-2.415,15.347-2.61,30.867-2.805,46.323-.108,8.643-4.516,13.148-11.383,16.463-2.729,1.321-5.7,2.188-8.437,3.5-13.56,6.488-21.661,16.874-22.625,32.362-3.812-4.462-5.015-16.008-4.083-25.181a595.476,595.476,0,0,1,17.827-97.952c5.491-20.015,17.08-33.781,35.46-42.835,15.011-7.386,30.25-14,46.431-18.445,5.253-1.451,8.513-1.007,12.2,3.845,14.069,18.488,37.766,18.271,51.922.065,4.495-5.794,16.387-5.968,21.326-.368,1.755,1.982-.477,2.4-1.267,3.152m99.728,166.1a98.765,98.765,0,0,1-24.77-13.138,73.834,73.834,0,0,1,24.77,13.138m-41.839-98.331c3.249,8.231-2.448,45.055-8.394,55.15,2.329-18.694,3.509-36.846,8.394-55.15m-16.8,72.1a96.3,96.3,0,0,1,1.744,21.542c-.054,4.885-2,8.2-7.495,9.52,1.224-10.668,2.6-20.979,5.751-31.062M385.04,319.519c-2.957-4.917-5.654-9.986-8.4-15.022-3.076-5.621-6.628-10.646-13.008-13.051-2.578-.964-4.235-3.314-5.751-5.556a144.06,144.06,0,0,1-19.17-42.489c-.39-1.408-1.765-3.238.52-4.181,2.307-.953,3.1.975,3.953,2.578a170.477,170.477,0,0,0,12.347,20.232c.823,1.137,1.7,3.585,3.466,2.339,1.592-1.116-.022-3-.834-4.289-4.332-6.834-8.5-13.777-13.224-20.329a49.662,49.662,0,0,1-5.686-11.5c-1.04-2.686-.076-4.82,2.534-6.693a216.675,216.675,0,0,0,18.834,30.889c1.4,1.906,3.152,5.794,5.09,4.495,2.524-1.679-.412-4.733-1.635-6.8-6.1-10.3-10.8-21.553-19.788-29.936-.91-.845-1.43-1.722-.834-2.794a3.607,3.607,0,0,1,4.061-1.982c2.9.552,4.625,2.664,6.1,4.95,4.885,7.549,9.693,15.141,14.567,22.69a30.579,30.579,0,0,0,2.61,3.412c.812.931,1.733,2.155,3.119,1.061,1.072-.834.455-2.015-.087-2.913-2.491-4.159-4.993-8.307-7.571-12.412-2.968-4.711-6.033-9.358-9.011-14.058-1.256-1.96-2-4.17.325-5.708,2.274-1.495,3.7.585,4.863,2.069,6.206,7.928,12.206,16.029,18.5,23.892,2.307,2.87,4.549,7.571,8.275,6.964,4.007-.65,3.455-6.087,4.83-9.433,1.755-4.311,2.892-8.881,5.729-12.7,1.874-2.534,4.311-3.325,7.072-1.668,3.119,1.863.921,3.942-.076,5.9-2.534,4.96-2.242,10.473-2.989,15.769a50.821,50.821,0,0,1-3.228,12.986c-3.509,8.285-7.1,16.744-1.44,25.658a3.376,3.376,0,0,1,.152,2.567c-3.617,10.82-4.657,22.127-6.1,33.326a6.071,6.071,0,0,1-4.376,5.415c-2.448.812-2.848-2.188-3.737-3.672m-38.048-91.573c.39-.238.769-.477,1.148-.715a188.713,188.713,0,0,1,11.567,18.726c-.357.271-.726.552-1.094.834q-5.816-9.423-11.621-18.845M392.1,354.415c2.74,13.3.921,58.475-2.859,70.713-2.112-7.419.152-63.511,2.859-70.713m-.325-23.048c-3.5-4.365-3.487-4.755.487-7.7-.162,2.686-.325,5.123-.487,7.7m34.149,145.91c-1.289,2.989-3.282,3.141-4.722-.152-.791-1.8-1.4-3.693-2.188-5.491-1.018-2.329-2.155-4.95-5.058-4.993-2.6-.043-3.877,2.307-5.047,4.376-2.859,5.025-4.506,10.538-6.368,15.964-2.794,8.134-5.61,16.268-8.535,24.369a38.223,38.223,0,0,1-3.076,6.271c-1.256,2.134-2.383,4.8-5.415,4.625-2.935-.173-4.072-2.87-5.145-5.047-4.148-8.4-5.09-17.621-5.545-26.752-1.375-27.932.314-55.8,2.48-83.656.953-12.379,1.733-24.78,2.556-37.171a40.471,40.471,0,0,0,.011-4.863c-.1-1.733.076-4.126-2.112-4.3-1.906-.162-1.95,2.22-2.469,3.672-10.722,29.817-23.524,58.637-40.864,85.27-12.65,19.43-27.185,37.225-45.424,51.749-7.766,6.184-16.018,11.61-25.344,15.185-2.134.823-4.256,1.982-7.56,1.408a365.12,365.12,0,0,0,59.991-57.8,347.185,347.185,0,0,0,61.67-112.877,69.4,69.4,0,0,1,5.545-13.408c1.072-1.841,2.329-3.574,3.975-6.087,2.036,5.729,3.672,10.614,3.141,16.17-2.469,25.993-4.56,52.03-4.029,78.175.054,2.7-1.1,7.159,2.025,7.527,3.1.368,3.119-4.116,3.617-6.8,4.072-21.759,3.726-43.712,2.48-65.666-.574-10.224-2.4-20.351-.542-30.651.52-2.892.964-5.047,4.007-6.184,4.679-1.733,6.347-5.513,6.238-10.278-.184-7.906.314-15.845-1.386-23.676-.282-1.278-1.116-2.827,1.408-3.119,1.376-.162,2.415-2.079,4.018.141,4.17,5.784,10.1,9.683,15.78,13.82,1.256.921,2.415,1.462,1.96,3.769-3.477,17.492-1.928,35.167-1.2,52.756,1.018,24.466,3.152,48.857,5.935,73.183.758,6.617,1.072,13.332,2.5,19.8,2.545,11.578-3.076,20.968-7.311,30.748M459.338,436.1c-3.737,11.589-6.531,23.492-11.3,34.756-1.235,2.913-2.3,6.011-5.838,8.589-2.794-9.932-7.181-19.246-4.549-29.373,4.82-18.575,8.9-37.344,14.881-55.6a94.636,94.636,0,0,1,3.921-9.4c.4-.877.931-2.231,2.2-1.819.65.217,1.191,1.321,1.419,2.123.769,2.762,1.43,5.545,2.047,8.35,3.163,14.394,1.755,28.365-2.784,42.38" transform="translate(0 0)" fill="#121313" />
                <path id="Path_678" data-name="Path 678" d="M253.983,196.844c-1,1.419-2.025,2.784-3.119,4.094a43.556,43.556,0,0,1-5.675,5.719,33.9,33.9,0,0,1-4.289,3.033,114.491,114.491,0,0,1,13.083-12.845" transform="translate(20.01 16.351)" fill="#fff" />
                <path id="Path_679" data-name="Path 679" d="M255.078,197.814a117.27,117.27,0,0,1-13.138,12.9c1-1.419,2.036-2.794,3.141-4.116,0-.011,0-.011.022-.022a41.042,41.042,0,0,1,5.675-5.719v-.011a34.012,34.012,0,0,1,4.3-3.033" transform="translate(20.096 16.431)" fill="#fff" />
                <path id="Path_680" data-name="Path 680" d="M255.164,197.895a117.271,117.271,0,0,1-13.138,12.9c-.379-.368-.747-.736-1.126-1.1a114.491,114.491,0,0,1,13.083-12.845l1.181,1.051" transform="translate(20.01 16.351)" fill="#323332" />
            </g>
        </svg>