<svg xmlns="http://www.w3.org/2000/svg" xmlns:xlink="http://www.w3.org/1999/xlink" width="72" height="72" viewBox="0 0 72 72">
  <defs>
    <clipPath id="clip-path">
      <rect id="Rectangle_290" data-name="Rectangle 290" width="41" height="41" transform="translate(-0.498 0.425)" fill="#57a68f"/>
    </clipPath>
    <clipPath id="clip-path-2">
      <rect id="Rectangle_301" data-name="Rectangle 301" width="34.776" height="34.77" fill="#fff"/>
    </clipPath>
  </defs>
  <g id="Group_475" data-name="Group 475" transform="translate(-0.074)">
    <rect id="Rectangle_289" data-name="Rectangle 289" width="72" height="72" transform="translate(0.074)" fill="#57a68f"/>
  </g>
  <g id="Group_478" data-name="Group 478" transform="translate(19 19.435)">
    <g id="Group_477" data-name="Group 477" transform="translate(0)" clip-path="url(#clip-path-2)">
      <path id="Path_1274" data-name="Path 1274" d="M12.417,34.769H11.123q-4.908,0-9.815,0a1.24,1.24,0,1,1-.091-2.478c.814-.013,1.629,0,2.507,0v-.5q0-12.026,0-24.053c0-1.147.385-1.529,1.538-1.529h.945V5.782q0-2.211,0-4.423A1.2,1.2,0,0,1,7.567,0Q17.382,0,27.2,0a1.2,1.2,0,0,1,1.361,1.356c0,1.461,0,2.923,0,4.384v.468H29.58c1.047,0,1.463.412,1.463,1.45q0,12.065,0,24.13v.5c.845,0,1.656-.008,2.467,0A1.218,1.218,0,0,1,34.7,33.97a1.153,1.153,0,0,1-1.2.8c-1.228.006-2.457,0-3.686,0H22.351V34.3q0-4.636,0-9.272c0-1.016-.421-1.437-1.437-1.437q-3.55,0-7.1,0c-.963,0-1.4.434-1.4,1.4q0,4.655,0,9.311v.467M11.176,6.2c0,.426-.009.853,0,1.279a1.169,1.169,0,0,0,1.228,1.215A1.161,1.161,0,0,0,13.653,7.5c.016-.866.018-1.732,0-2.6a1.156,1.156,0,0,0-1.225-1.176,1.166,1.166,0,0,0-1.249,1.192c-.013.426,0,.853,0,1.279m7.449.016c0-.426.01-.853,0-1.279a1.238,1.238,0,0,0-2.476-.009q-.022,1.279,0,2.558a1.238,1.238,0,0,0,2.476.009c.013-.426,0-.853,0-1.279m4.967.032c0-.439.01-.879,0-1.318a1.238,1.238,0,0,0-2.476,0q-.021,1.279,0,2.558a1.238,1.238,0,0,0,2.476,0c.012-.413,0-.827,0-1.24m-14.9,6.188c0,.413-.008.827,0,1.24A1.169,1.169,0,0,0,9.91,14.9a1.169,1.169,0,0,0,1.261-1.22q.02-1.26,0-2.52A1.167,1.167,0,0,0,9.917,9.935a1.168,1.168,0,0,0-1.223,1.219c-.01.426,0,.853,0,1.279m7.448,0c0-.439.012-.879,0-1.318a1.166,1.166,0,0,0-1.256-1.185,1.156,1.156,0,0,0-1.218,1.183q-.025,1.3,0,2.6a1.238,1.238,0,0,0,2.474,0c.015-.426,0-.853,0-1.279m2.486-.058c0,.439-.01.879,0,1.318a1.238,1.238,0,0,0,2.476,0q.022-1.279,0-2.558a1.238,1.238,0,0,0-2.476,0c-.011.413,0,.827,0,1.24m7.448.042c0-.426.01-.853,0-1.279a1.238,1.238,0,0,0-2.476-.009q-.022,1.279,0,2.558a1.238,1.238,0,0,0,2.476.009c.013-.426,0-.853,0-1.279m-14.9,7.452c0-.426.01-.853,0-1.279a1.168,1.168,0,0,0-1.233-1.209,1.161,1.161,0,0,0-1.243,1.2q-.022,1.279,0,2.558a1.163,1.163,0,0,0,1.231,1.21,1.169,1.169,0,0,0,1.244-1.2c.013-.426,0-.853,0-1.279m4.967-.015c0-.426.011-.853,0-1.279a1.238,1.238,0,0,0-2.476.019c-.013.84-.012,1.68,0,2.52A1.239,1.239,0,1,0,16.14,21.1c.008-.413,0-.827,0-1.241m4.967.006c0-.426.01-.853,0-1.279a1.238,1.238,0,0,0-2.476.007q-.02,1.279,0,2.558a1.238,1.238,0,0,0,2.476-.007c.012-.426,0-.853,0-1.279m4.967.038c0-.439.011-.879,0-1.318a1.238,1.238,0,0,0-2.476.008q-.02,1.279,0,2.558a1.238,1.238,0,0,0,2.476-.008c.012-.413,0-.827,0-1.24M9.932,27.326c0-.426.009-.853,0-1.279A1.168,1.168,0,0,0,8.7,24.836,1.161,1.161,0,0,0,7.455,26.03c-.015.853-.014,1.706,0,2.558A1.163,1.163,0,0,0,8.683,29.8a1.168,1.168,0,0,0,1.247-1.2c.013-.426,0-.853,0-1.279m17.385,0h0c0-.439.013-.879,0-1.318a1.238,1.238,0,0,0-2.474.018c-.016.853-.014,1.706,0,2.558a1.239,1.239,0,0,0,2.477-.018c.009-.413,0-.827,0-1.241" transform="translate(0 0)" fill="#fff"/>
    </g>
  </g>
</svg>
