<svg xmlns="http://www.w3.org/2000/svg" xmlns:xlink="http://www.w3.org/1999/xlink" width="82.947" height="50.576" viewBox="0 0 82.947 50.576">
  <defs>
    <clipPath id="clip-path">
      <rect id="Rectangle_317" data-name="Rectangle 317" width="82.947" height="50.576" fill="none"/>
    </clipPath>
  </defs>
  <g id="Group_505" data-name="Group 505" clip-path="url(#clip-path)">
    <path id="Path_1376" data-name="Path 1376" d="M591.435,199.773c-.077.113-.157.224-.232.339a6.857,6.857,0,0,1-2.35,2.233,2.641,2.641,0,0,1-1.358.355q-8.737-.015-17.473-.006a2.667,2.667,0,0,0-.42.014.54.54,0,0,0-.457.579.526.526,0,0,0,.489.515,3.575,3.575,0,0,0,.389.009h17.091c-.072.144-.113.24-.166.328a5.811,5.811,0,0,1-1.517,1.667,3.093,3.093,0,0,1-1.946.654c-5.273-.024-10.547-.013-15.82-.013-.558,0-.82.174-.828.548s.258.568.837.568h15.458c-.109.176-.17.3-.251.4a8.238,8.238,0,0,1-2.086,1.923,2.007,2.007,0,0,1-1.132.318q-7.067-.013-14.134,0a2.8,2.8,0,0,0-.672.071.454.454,0,0,0-.386.52.559.559,0,0,0,.476.506,1.812,1.812,0,0,0,.356.012h13.476c.005.046.018.073.009.086a9.679,9.679,0,0,1-2.327,2.542,2.645,2.645,0,0,1-1.58.49c-4.873-.009-9.747.007-14.621-.011a6.037,6.037,0,0,1-5.8-4.136c.294-.093.54-.166.782-.249a15.7,15.7,0,0,0,10.394-10.154c.075-.22.2-.234.386-.234q4.636.006,9.272.005l15.885,0c.086,0,.172-.011.257-.016Z" transform="translate(-508.488 -183.09)" fill="#00628b"/>
    <path id="Path_1377" data-name="Path 1377" d="M245,430.67c.046-.108.084-.22.138-.325q4.017-7.764,8.03-15.529a.562.562,0,0,1,.59-.358c1.447.017,2.894.011,4.342,0,.2,0,.3.038.348.263q1.628,7.91,3.272,15.816a.975.975,0,0,1,.009.129h-4.863c-.088-.6-.169-1.195-.275-1.789a.329.329,0,0,0-.24-.2q-2.636-.018-5.273,0a.34.34,0,0,0-.258.13c-.329.617-.64,1.243-.957,1.866Zm7.334-5.221h3.75l-.872-5.749h-.079l-2.8,5.749" transform="translate(-224.685 -380.094)" fill="#00628b"/>
    <path id="Path_1378" data-name="Path 1378" d="M641.472,430.651q4.1-7.909,8.185-15.822a.6.6,0,0,1,.636-.391c1.4.022,2.809.009,4.214.009h.385c.151.719.3,1.423.447,2.128q1.44,6.961,2.88,13.921c.011.052.031.1.046.155H653.4l-.333-1.98a1.172,1.172,0,0,0-.134-.02c-1.778,0-3.556-.006-5.333.008a.472.472,0,0,0-.326.226c-.327.581-.63,1.176-.941,1.766Zm10.25-10.968-.077-.01-2.8,5.76h3.751l-.869-5.75" transform="translate(-588.285 -380.075)" fill="#00628b"/>
    <path id="Path_1379" data-name="Path 1379" d="M481.468,430.943c.248-1.468.493-2.936.745-4.4q.626-3.653,1.258-7.306c.018-.1.024-.208.039-.349h-4.772l.714-4.129h14.536l-.791,4.124h-4.709c-.116.664-.23,1.308-.341,1.952q-.854,4.961-1.707,9.922c-.011.064-.029.126-.044.189Z" transform="translate(-439.044 -380.367)" fill="#00628b"/>
    <path id="Path_1380" data-name="Path 1380" d="M137.866,430.661c.374-1.542.745-3.084,1.124-4.624q1.381-5.613,2.764-11.225c.063-.256.148-.367.441-.363,1.415.019,2.831.008,4.246.008h.355c-.2.814-.381,1.589-.568,2.364q-1.63,6.752-3.262,13.5c-.028.114-.071.225-.107.337Z" transform="translate(-126.435 -380.085)" fill="#00628b"/>
    <path id="Path_1381" data-name="Path 1381" d="M12.508,211.317H26.037c.1,0,.195,0,.292,0a.6.6,0,0,0,.6-.527c.022-.267-.151-.472-.494-.541a2.963,2.963,0,0,0-.58-.04q-7.115,0-14.23-.01a1.741,1.741,0,0,1-.8-.191,7.329,7.329,0,0,1-2.407-2.176,2.523,2.523,0,0,1-.138-.262H23.694a3.443,3.443,0,0,0,.356-.006.554.554,0,0,0,.027-1.1,2.435,2.435,0,0,0-.356-.01q-8.088,0-16.175,0a1.511,1.511,0,0,1-.54-.07,5.448,5.448,0,0,1-2.75-2.563H21.345c.13,0,.26.006.389-.006a.53.53,0,0,0,.513-.526.543.543,0,0,0-.5-.577,3.026,3.026,0,0,0-.356-.007q-8.736,0-17.472.006a2.661,2.661,0,0,1-1.361-.345,6.806,6.806,0,0,1-2.392-2.279,2.855,2.855,0,0,1-.152-.286.543.543,0,0,1-.016-.13H.356q12.448-.006,24.895-.019a.488.488,0,0,1,.558.405,15.519,15.519,0,0,0,8.746,9.381c.745.335,1.531.581,2.345.886a4.244,4.244,0,0,1-.235.632,6.025,6.025,0,0,1-5.42,3.466c-4.959.042-9.919.017-14.879,0a2.291,2.291,0,0,1-.966-.218,8.793,8.793,0,0,1-2.893-2.886" transform="translate(0 -183.094)" fill="#00628b"/>
    <path id="Path_1382" data-name="Path 1382" d="M345.526,48.178a11.752,11.752,0,0,1,3.9-8.614,11.617,11.617,0,0,0,3.289,2.393,16.663,16.663,0,0,0-1.358,6.221Z" transform="translate(-316.877 -36.284)" fill="#00628b"/>
    <path id="Path_1383" data-name="Path 1383" d="M574.925,48.547H569.1a16.637,16.637,0,0,0-1.352-6.183c.6-.376,1.188-.709,1.735-1.107s1.031-.847,1.576-1.3a11.725,11.725,0,0,1,3.869,8.592" transform="translate(-520.671 -36.642)" fill="#00628b"/>
    <path id="Path_1384" data-name="Path 1384" d="M568.375,160.328c.318-1.069.676-2.068.9-3.1s.318-2.085.473-3.162H575.5a11.753,11.753,0,0,1-3.9,8.621,11.478,11.478,0,0,0-3.224-2.363" transform="translate(-521.249 -141.296)" fill="#00628b"/>
    <path id="Path_1385" data-name="Path 1385" d="M345.5,153.982h5.822a16.761,16.761,0,0,0,1.377,6.226,11.591,11.591,0,0,0-3.294,2.4,11.751,11.751,0,0,1-3.906-8.626" transform="translate(-316.855 -141.215)" fill="#00628b"/>
    <path id="Path_1386" data-name="Path 1386" d="M431.273,78.267h-5.742a15.734,15.734,0,0,1,1.286-5.915,13.442,13.442,0,0,0,4.456.908Z" transform="translate(-390.249 -66.353)" fill="#00628b"/>
    <path id="Path_1387" data-name="Path 1387" d="M505.013,73.27a13.488,13.488,0,0,0,4.458-.914,15.684,15.684,0,0,1,1.291,5.918h-5.749Z" transform="translate(-463.141 -66.357)" fill="#00628b"/>
    <path id="Path_1388" data-name="Path 1388" d="M431.4,158.933c-.769.106-1.522.173-2.258.322s-1.455.382-2.189.58a14.437,14.437,0,0,1-1.279-5.85H431.4Z" transform="translate(-390.37 -141.218)" fill="#00628b"/>
    <path id="Path_1389" data-name="Path 1389" d="M504.9,158.874V153.92h5.752a15.643,15.643,0,0,1-1.263,5.869c-.763-.207-1.483-.441-2.219-.591s-1.49-.216-2.27-.324" transform="translate(-463.034 -141.158)" fill="#00628b"/>
    <path id="Path_1390" data-name="Path 1390" d="M517.611,2.8a9.728,9.728,0,0,1-2.99,2.107,12,12,0,0,0-4.4-4.872c1.55-.276,5.8,1.324,7.386,2.764" transform="translate(-467.921 0)" fill="#00628b"/>
    <path id="Path_1391" data-name="Path 1391" d="M400.13,2.833a13.6,13.6,0,0,1,7.4-2.791,12.418,12.418,0,0,0-4.38,4.915,10.866,10.866,0,0,1-3.015-2.124" transform="translate(-366.954 -0.039)" fill="#00628b"/>
    <path id="Path_1392" data-name="Path 1392" d="M515.072,238.269a10.987,10.987,0,0,1,3.02,2.122,13.527,13.527,0,0,1-7.38,2.79,12.448,12.448,0,0,0,4.36-4.912" transform="translate(-468.367 -218.513)" fill="#00628b"/>
    <path id="Path_1393" data-name="Path 1393" d="M400.147,240.4a10.856,10.856,0,0,1,3.013-2.126,12.455,12.455,0,0,0,4.359,4.9,13.5,13.5,0,0,1-7.371-2.779" transform="translate(-366.969 -218.519)" fill="#00628b"/>
    <path id="Path_1394" data-name="Path 1394" d="M449.106,7.927V13.37a12.016,12.016,0,0,1-4.144-.871,12,12,0,0,1,4.144-4.573" transform="translate(-408.069 -7.27)" fill="#00628b"/>
    <path id="Path_1395" data-name="Path 1395" d="M509.184,12.563a12.159,12.159,0,0,1-4.135.875V8a12.028,12.028,0,0,1,4.135,4.567" transform="translate(-463.174 -7.333)" fill="#00628b"/>
    <path id="Path_1396" data-name="Path 1396" d="M444.952,224.863a12.11,12.11,0,0,1,4.143-.872v5.447a12.042,12.042,0,0,1-4.143-4.575" transform="translate(-408.06 -205.419)" fill="#00628b"/>
    <path id="Path_1397" data-name="Path 1397" d="M504.864,229.478V224.03a12.037,12.037,0,0,1,4.146.865,11.984,11.984,0,0,1-4.146,4.582" transform="translate(-463.004 -205.455)" fill="#00628b"/>
  </g>
</svg>
