<svg id="Group_306" data-name="Group 306" xmlns="http://www.w3.org/2000/svg" xmlns:xlink="http://www.w3.org/1999/xlink" width="53.191" height="53.163" viewBox="0 0 53.191 53.163">
  <defs>
    <clipPath id="clip-path">
      <rect id="Rectangle_201" data-name="Rectangle 201" width="53.191" height="53.163" fill="#db9e30"/>
    </clipPath>
  </defs>
  <g id="Group_305" data-name="Group 305" clip-path="url(#clip-path)">
    <path id="Path_918" data-name="Path 918" d="M40.812,53.163H12.358a3.209,3.209,0,0,0-.346-.088A13.261,13.261,0,0,1,.69,43.874,24.17,24.17,0,0,1,0,40.808V12.359c.088-.508.161-1.018.267-1.522A13.457,13.457,0,0,1,13.587.006q13-.016,26,0c.518,0,1.037.037,1.553.087A13.407,13.407,0,0,1,53.149,13.109q.092,13.465,0,26.932a13.338,13.338,0,0,1-8.828,12.278,34.9,34.9,0,0,1-3.512.844m8.7-26.57c0-4.257.012-8.514-.011-12.771A11.444,11.444,0,0,0,49.26,11.4a9.767,9.767,0,0,0-9.8-7.737q-12.877-.015-25.754,0a10.134,10.134,0,0,0-1.757.133,9.779,9.779,0,0,0-8.284,9.869q-.015,12.9,0,25.8A10.087,10.087,0,0,0,3.8,41.228,9.78,9.78,0,0,0,13.683,49.5q12.9.022,25.806,0a9.487,9.487,0,0,0,4.23-.885,9.623,9.623,0,0,0,5.776-9.1c.055-4.308.012-8.617.012-12.926" transform="translate(0 0)" fill="#db9e30"/>
    <path id="Path_919" data-name="Path 919" d="M107.958,94.488a13.477,13.477,0,1,1-13.467,13.487,13.506,13.506,0,0,1,13.467-13.487m9.8,13.471a9.792,9.792,0,1,0-9.8,9.8,9.78,9.78,0,0,0,9.8-9.8" transform="translate(-81.385 -81.382)" fill="#db9e30"/>
    <path id="Path_920" data-name="Path 920" d="M270.251,47.936a4.856,4.856,0,1,1-4.877,4.824,4.859,4.859,0,0,1,4.877-4.824m-.018,6.031a1.183,1.183,0,0,0,1.188-1.176,1.206,1.206,0,0,0-1.188-1.187,1.18,1.18,0,0,0-1.176,1.187,1.161,1.161,0,0,0,1.176,1.176" transform="translate(-228.567 -41.287)" fill="#db9e30"/>
  </g>
</svg>
