<svg id="Group_1204" data-name="Group 1204" xmlns="http://www.w3.org/2000/svg" xmlns:xlink="http://www.w3.org/1999/xlink" width="47.067" height="47.069" viewBox="0 0 47.067 47.069">
  <defs>
    <clipPath id="clip-path">
      <rect id="Rectangle_606" data-name="Rectangle 606" width="47.067" height="47.069" fill="none"/>
    </clipPath>
  </defs>
  <g id="Group_1203" data-name="Group 1203" clip-path="url(#clip-path)">
    <path id="Path_1961" data-name="Path 1961" d="M303.95.1l-.314.023c-.28.194-.6.105-.9.118-.325.011-.651.006-.977,0a1.246,1.246,0,0,1-.552-.068.1.1,0,0,1-.051-.131,20.949,20.949,0,0,1,2.8.061" transform="translate(-273.395 -0.017)" fill="#df0093"/>
    <path id="Path_1962" data-name="Path 1962" d="M286.655.171c0,.023,0,.046,0,.07-.18.174-.408.122-.622.13a2.12,2.12,0,0,1-.8-.068.1.1,0,0,1-.051-.133l1.472,0" transform="translate(-258.895 -0.153)" fill="#e20087"/>
    <path id="Path_1963" data-name="Path 1963" d="M278.055.144c0,.024,0,.048,0,.072a.325.325,0,0,1-.46,0c-.1,0-.2.017-.272-.076l.732,0" transform="translate(-251.766 -0.128)" fill="#e30082"/>
    <path id="Path_1964" data-name="Path 1964" d="M467.769,189.007v1.1c-.069.02-.14-.007-.142-.069-.024-.485-.4-.73-.7-1.022-1.121-1.1-2.187-2.252-3.353-3.3a.446.446,0,0,1-.125-.189,3.846,3.846,0,0,1-.023-1.03.44.44,0,0,1,.047-.134c.319-.195.475.088.641.25q1.552,1.521,3.075,3.071c.179.181.423.305.527.558a2.657,2.657,0,0,0,.049.766" transform="translate(-420.703 -167.313)" fill="#e50077"/>
    <path id="Path_1965" data-name="Path 1965" d="M114.386,461.287c-.052-.142-.19-.063-.28-.109-.391.028-.579-.262-.813-.5-1.226-1.24-2.463-2.469-3.7-3.7a2.072,2.072,0,0,1-.338-.373c-.091-.151-.12-.293.116-.339a8.914,8.914,0,0,1,1.42.32,1.337,1.337,0,0,0,.377.557q1.749,1.741,3.49,3.491c.145.146.344.269.322.522-.022.07-.091.09-.139.132Z" transform="translate(-99.13 -414.217)" fill="#feac00"/>
    <path id="Path_1966" data-name="Path 1966" d="M467.732,291.344v.827c-.3.183-.449-.07-.61-.229q-1.576-1.557-3.133-3.132a2.75,2.75,0,0,1-.571-.584,3,3,0,0,1,0-1.1c.111-.235.247-.1.362-.013a6.026,6.026,0,0,1,.494.475c1.115,1.081,2.159,2.235,3.326,3.262a.318.318,0,0,1,.069.117c.049.12-.031.263.065.375" transform="translate(-420.665 -260.548)" fill="#ee014a"/>
    <path id="Path_1967" data-name="Path 1967" d="M467.567,280.095a19.869,19.869,0,0,1-2.188-2.068c-.652-.618-1.286-1.256-1.927-1.885a1.263,1.263,0,0,1-.1-.982c.08-.22.228-.153.37-.081a1.5,1.5,0,0,1,.351.292c1.167,1.147,2.3,2.332,3.486,3.457a.272.272,0,0,1,.065.119c.033.228-.055.465.05.688v.276c-.066.044-.021.151-.106.184" transform="translate(-420.606 -249.666)" fill="#ed0150"/>
    <path id="Path_1968" data-name="Path 1968" d="M461.807,117.109c.047.089-.039.229.108.279v.092c-.1.165-.016.35-.055.522-.322.157-.469-.12-.634-.283-1.12-1.1-2.227-2.216-3.336-3.329a7.023,7.023,0,0,0-.645-.582,2.936,2.936,0,0,1-.286-1.14c.056-.226.2-.19.353-.115a1.425,1.425,0,0,1,.353.291c1.315,1.3,2.608,2.628,3.937,3.917a.743.743,0,0,1,.2.347" transform="translate(-414.848 -102.13)" fill="#df0094"/>
    <path id="Path_1969" data-name="Path 1969" d="M299.8,467.617c-.423.161-.9-.06-1.311.171h-.643c-.085-.088-.213-.015-.3-.08-1.184-1.231-2.415-2.416-3.608-3.639-.145-.149-.455-.3-.152-.587a2.236,2.236,0,0,1,.944-.014c.295.13.431.425.648.638.973.955,1.943,1.913,2.889,2.894a1.279,1.279,0,0,0,1.162.494.576.576,0,0,1,.272.033.206.206,0,0,1,.1.088" transform="translate(-266.594 -420.719)" fill="#fe5300"/>
    <path id="Path_1970" data-name="Path 1970" d="M463.446,198.5a1.418,1.418,0,0,1,.416.275c1.2,1.193,2.391,2.391,3.6,3.568.212.205-.006.491.209.662v.644c-.208.057-.3-.11-.418-.221-1.28-1.252-2.515-2.55-3.816-3.78a.391.391,0,0,1-.09-.159,1.344,1.344,0,0,1,.095-.989" transform="translate(-420.609 -180.206)" fill="#e60071"/>
    <path id="Path_1971" data-name="Path 1971" d="M130.16,464.783c-.015-.21-.189-.307-.315-.433-1.209-1.214-2.425-2.422-3.627-3.643-.1-.1-.392-.161-.186-.415a2.355,2.355,0,0,1,1.25.062,1.069,1.069,0,0,0,.376.645q1.6,1.581,3.176,3.176c.174.176.419.33.342.645-.116.062-.262-.026-.371.072h-.184c-.133-.121-.332.035-.46-.109" transform="translate(-114.353 -417.822)" fill="#fea600"/>
    <path id="Path_1972" data-name="Path 1972" d="M463.474,301.258c.211.007.309.18.434.305q1.649,1.641,3.291,3.289c.139.139.265.3.5.267v.368c-.227.383-.016.827-.172,1.22a2.74,2.74,0,0,0-1-1.356c-1.01-1-1.987-2.027-3.025-3a.459.459,0,0,1-.126-.189c-.035-.31-.126-.627.1-.909" transform="translate(-420.631 -273.496)" fill="#ef0145"/>
    <path id="Path_1973" data-name="Path 1973" d="M284.087,463.509c.008.212.183.31.309.436q1.617,1.625,3.24,3.246c.126.126.3.224.314.434-.062.112-.207.012-.276.106h-.184c-.138-.1-.3-.017-.446-.057a.879.879,0,0,1-.329-.239q-1.645-1.647-3.29-3.292a1.624,1.624,0,0,1-.327-.436c-.059-.123-.076-.235.089-.292a1.077,1.077,0,0,1,.9.1" transform="translate(-256.971 -420.661)" fill="#fe5a00"/>
    <path id="Path_1974" data-name="Path 1974" d="M459.887,126.667c.212,0,.311.175.437.3q1.778,1.771,3.55,3.55a1.715,1.715,0,0,0,.507.38c.084.033.039.14.1.184v.184c-.1.164-.018.347-.053.518-.323.168-.468-.116-.632-.277-1.078-1.059-2.144-2.13-3.209-3.2a1.058,1.058,0,0,0-.645-.377,1.814,1.814,0,0,1-.06-1.257" transform="translate(-417.419 -114.994)" fill="#e0008f"/>
    <path id="Path_1975" data-name="Path 1975" d="M208.766,467.834h-.919c-1.28-1.24-2.528-2.513-3.784-3.777-.133-.133-.371-.289-.107-.524a1.491,1.491,0,0,1,.78-.011c.74.7,1.447,1.443,2.174,2.162.554.548,1.107,1.1,1.651,1.656.127.131.338.247.206.494" transform="translate(-185.052 -420.764)" fill="#fe8100"/>
    <path id="Path_1976" data-name="Path 1976" d="M461.321,139.1c.141-.366.273-.067.364.022.711.7,1.4,1.416,2.118,2.1a12.153,12.153,0,0,0,1.837,1.717c.06,0,.068.061.1.092v.184c-.1.166-.016.352-.055.525-.281.194-.413-.065-.556-.206-1.02-1-2.028-2.021-3.041-3.032a2.139,2.139,0,0,0-.477-.414c-.212.017.031.453-.319.335a1.73,1.73,0,0,1,.027-1.326" transform="translate(-418.676 -126.12)" fill="#e1008c"/>
    <path id="Path_1977" data-name="Path 1977" d="M142.911,465.722a1.746,1.746,0,0,0-.414-.542q-1.707-1.7-3.405-3.411c-.089-.089-.389-.221-.024-.365a1.594,1.594,0,0,1,1.225-.036c.153.281-.207.169-.239.326.043.159.194.251.309.367,1.042,1.047,2.091,2.088,3.129,3.139.145.147.4.274.239.563-.146.052-.312-.038-.451.063h-.184c-.044-.065-.149-.022-.184-.1" transform="translate(-126.092 -418.756)" fill="#fea100"/>
    <path id="Path_1978" data-name="Path 1978" d="M195.73,463.586c.006.213.181.311.307.438q1.669,1.677,3.343,3.349c.126.126.3.225.3.439h-.919q-.046-.048-.093-.094c-.624-.778-1.381-1.427-2.07-2.141-.51-.528-1.045-1.031-1.549-1.564-.131-.139-.363-.31-.054-.515a.791.791,0,0,1,.732.089" transform="translate(-176.888 -420.741)" fill="#fe8600"/>
    <path id="Path_1979" data-name="Path 1979" d="M218.385,467.818c0-.213-.178-.312-.3-.439q-1.668-1.676-3.341-3.347c-.126-.126-.3-.224-.309-.436.221-.2.476-.135.728-.1.26.12.393.374.586.564q1.624,1.606,3.229,3.231c.135.136.377.252.237.524Z" transform="translate(-194.671 -420.749)" fill="#fe7c00"/>
    <path id="Path_1980" data-name="Path 1980" d="M227.364,467.821c0-.213-.178-.312-.3-.439q-1.668-1.676-3.341-3.347c-.126-.126-.3-.224-.309-.436.219-.2.473-.134.724-.1.263.118.4.375.589.566q1.518,1.5,3.019,3.015a.993.993,0,0,1,.394.6c-.007.079-.079.1-.128.142Z" transform="translate(-202.823 -420.752)" fill="#fe7800"/>
    <path id="Path_1981" data-name="Path 1981" d="M463.614,210.471c.212.007.31.182.437.308q1.708,1.7,3.41,3.405c.118.118.25.222.376.332v1.471a.117.117,0,0,1-.122-.026c.034-.749-.505-1.147-.968-1.6-1.049-1.021-2.052-2.089-3.123-3.087a.42.42,0,0,1-.1-.152.67.67,0,0,1,.09-.653" transform="translate(-420.77 -191.075)" fill="#e7006e"/>
    <path id="Path_1982" data-name="Path 1982" d="M275.453,463.641a12.805,12.805,0,0,0,1.678,1.8c.749.781,1.516,1.544,2.276,2.315,0,.061-.061.069-.092.1h-.184c-.167-.1-.353-.016-.526-.054q-1.878-1.854-3.73-3.734c-.133-.135-.368-.3-.074-.52a.645.645,0,0,1,.652.088" transform="translate(-249.348 -420.793)" fill="#fe5e00"/>
    <path id="Path_1983" data-name="Path 1983" d="M508.378,270.33h.092v2.482a.1.1,0,0,1-.136-.028.581.581,0,0,1-.079-.305c-.015-.346-.016-.693-.007-1.039a3.13,3.13,0,0,1,.073-1.051l.057-.059" transform="translate(-461.404 -245.418)" fill="#ea0d6a"/>
    <path id="Path_1984" data-name="Path 1984" d="M273.294,508.462l.092-.093c.274-.22.595-.112.9-.13.273-.01.546-.007.819,0a1.31,1.31,0,0,1,.64.081.1.1,0,0,1,.033.14Z" transform="translate(-248.109 -461.393)" fill="#fe7a11"/>
    <path id="Path_1985" data-name="Path 1985" d="M212.748,508.41c0,.031,0,.061,0,.092h-2.482a.1.1,0,0,1,.024-.135.479.479,0,0,1,.22-.075c.261-.02.523-.011.785-.012.242-.014.485,0,.727,0a1.1,1.1,0,0,1,.726.131" transform="translate(-190.873 -461.433)" fill="#fe9711"/>
    <path id="Path_1986" data-name="Path 1986" d="M508.455,213.516c-.184-.259-.051-.553-.092-.827-.217-.294-.109-.634-.133-.955a.855.855,0,0,1,.086-.393.1.1,0,0,1,.139-.031Z" transform="translate(-461.389 -191.821)" fill="#e50f84"/>
    <path id="Path_1987" data-name="Path 1987" d="M509.031,314.144c-.192-.224-.042-.494-.1-.736a.293.293,0,0,1-.03-.348.09.09,0,0,1,.129-.02Z" transform="translate(-461.964 -284.176)" fill="#f14480"/>
    <path id="Path_1988" data-name="Path 1988" d="M508.553,202.237h-.091c-.193-.228-.119-.493-.108-.75a.406.406,0,0,1,.061-.144.1.1,0,0,1,.137-.024Z" transform="translate(-461.486 -182.749)" fill="#e62193"/>
    <path id="Path_1989" data-name="Path 1989" d="M186.5,509.061c.126-.161.307-.062.46-.1a.293.293,0,0,1,.348-.031.09.09,0,0,1,.02.129Z" transform="translate(-169.311 -461.992)" fill="#feb944"/>
    <path id="Path_1990" data-name="Path 1990" d="M508.569,194.1l-.089,0a.633.633,0,0,1-.052-.7.1.1,0,0,1,.141-.035Z" transform="translate(-461.502 -175.527)" fill="#e736a1"/>
    <path id="Path_1991" data-name="Path 1991" d="M509.7,167.309c-.094-.027-.082-.116-.1-.184.065-.178-.085-.4.1-.552Z" transform="translate(-462.638 -151.223)" fill="#f5b7e0"/>
    <path id="Path_1992" data-name="Path 1992" d="M508.477,297.268h.091V298a.1.1,0,0,1-.14-.035.638.638,0,0,1,.05-.7" transform="translate(-461.501 -269.873)" fill="#ed1c6c"/>
    <path id="Path_1993" data-name="Path 1993" d="M508.531,305.25l.089,0v.735l-.085,0a.625.625,0,0,1-.1-.607.282.282,0,0,1,.093-.129" transform="translate(-461.553 -277.118)" fill="#ef2e75"/>
    <path id="Path_1994" data-name="Path 1994" d="M195.453,508.692c0-.029,0-.057,0-.086.141-.152.325-.123.5-.12a.429.429,0,0,1,.215.073.1.1,0,0,1,.02.133Z" transform="translate(-177.439 -461.623)" fill="#feaf32"/>
    <path id="Path_1995" data-name="Path 1995" d="M509.444,186.264l-.086,0a.127.127,0,0,1-.013-.182c.046-.182-.077-.393.1-.552Z" transform="translate(-462.378 -168.432)" fill="#e947ab"/>
    <path id="Path_1996" data-name="Path 1996" d="M307.742,508.721h-.735a.089.089,0,0,1,.012-.127.441.441,0,0,1,.2-.073.829.829,0,0,1,.5.072.09.09,0,0,1,.016.129" transform="translate(-278.696 -461.652)" fill="#fe8232"/>
    <path id="Path_1997" data-name="Path 1997" d="M315.2,509.47c0-.028,0-.057,0-.085a.127.127,0,0,1,.182-.015c.181.047.393-.074.552.1Z" transform="translate(-286.149 -462.401)" fill="#fe8a44"/>
    <path id="Path_1998" data-name="Path 1998" d="M203.437,508.633c0-.029,0-.059,0-.088a.472.472,0,0,1,.645,0q0,.045,0,.091Z" transform="translate(-184.688 -461.564)" fill="#fea622"/>
    <path id="Path_1999" data-name="Path 1999" d="M509.731,177.193l-.1-.092c.062-.179-.087-.4.1-.552Z" transform="translate(-462.665 -160.279)" fill="#ee7ac4"/>
    <path id="Path_2000" data-name="Path 2000" d="M300.877,508.65c0,.029,0,.058,0,.087h-.644q0-.045,0-.09a.313.313,0,0,1,.2-.109.48.48,0,0,1,.44.112" transform="translate(-272.563 -461.668)" fill="#fe7c22"/>
    <path id="Path_2001" data-name="Path 2001" d="M509.593,328.379c.021-.07.019-.152.105-.184v.552c-.162-.086-.061-.248-.105-.367" transform="translate(-462.632 -297.95)" fill="#f57ba3"/>
    <path id="Path_2002" data-name="Path 2002" d="M178.883,509.648c.071.017.15.019.184.1h-.552c.089-.153.246-.066.368-.1" transform="translate(-162.064 -462.682)" fill="#fecb6e"/>
    <path id="Path_2003" data-name="Path 2003" d="M170.626,509.588c.149.056.338-.061.46.109h-.552l.092-.109" transform="translate(-154.819 -462.627)" fill="#fedfa1"/>
    <path id="Path_2004" data-name="Path 2004" d="M325.172,509.75l.092-.1c.149.054.338-.072.46.1Z" transform="translate(-295.206 -462.681)" fill="#fea26e"/>
    <path id="Path_2005" data-name="Path 2005" d="M333.154,509.719c.054-.133.185-.068.276-.106.091.036.225-.037.276.106Z" transform="translate(-302.452 -462.65)" fill="#fec1a1"/>
    <path id="Path_2006" data-name="Path 2006" d="M390.736,13.77a5.918,5.918,0,0,1,.181,1.194,1.509,1.509,0,0,1-.686-.5Q384.9,9.141,379.58,3.809a1.514,1.514,0,0,1-.5-.686,5.291,5.291,0,0,1,1.2.181.876.876,0,0,1,.384.232c3.138,3.213,6.345,6.357,9.508,9.545.21.212.508.355.573.689" transform="translate(-344.143 -2.835)" fill="#db00a5"/>
    <path id="Path_2007" data-name="Path 2007" d="M3.281,380.309a5.731,5.731,0,0,1-.181-1.194c.257.015.4.215.554.372q5.463,5.451,10.915,10.914c.157.157.356.3.373.554a5.92,5.92,0,0,1-1.195-.181,2.661,2.661,0,0,1-.591-.569Q8.5,385.558,3.85,380.9a2.652,2.652,0,0,1-.569-.591" transform="translate(-2.814 -344.178)" fill="#febf00"/>
    <path id="Path_2008" data-name="Path 2008" d="M13.965,380.994q-5.88-5.961-11.841-11.84a5.293,5.293,0,0,1-.092-1.011,1.6,1.6,0,0,1,.579.491c4.065,4.067,8.148,8.115,12.191,12.2.071.072.189.115.174.249a5.34,5.34,0,0,1-1.011-.092" transform="translate(-1.838 -334.217)" fill="#feba00"/>
    <path id="Path_2009" data-name="Path 2009" d="M14.816,374.563c-.242-.087-.365-.308-.533-.476q-5.969-5.965-11.934-11.934c-.168-.168-.39-.291-.477-.533l-.023-.649c.315-.073.466.174.64.347q2.157,2.142,4.3,4.3a1.855,1.855,0,0,0,.527.432c.488.483.778,1.122,1.3,1.59a11.5,11.5,0,0,0,1.408,1.164.771.771,0,0,1,.33.307c.025.236.207.365.355.514q2.2,2.2,4.394,4.4c.144.146.406.263.27.556l-.555-.019" transform="translate(-1.679 -327.694)" fill="#feb600"/>
    <path id="Path_2010" data-name="Path 2010" d="M377.961,15.006q.012.323.024.647c-.293.141-.412-.121-.557-.265-1.431-1.418-2.852-2.846-4.279-4.269-.16-.16-.3-.353-.548-.39a.482.482,0,0,1-.218-.226,9.5,9.5,0,0,0-2.036-2.326.707.707,0,0,1-.174-.209,2.59,2.59,0,0,0-.6-.8q-2.281-2.278-4.555-4.562c-.144-.146-.407-.26-.278-.554l.28.007a.938.938,0,0,1,.626.3q5.989,6.025,12.014,12.014a.94.94,0,0,1,.3.627" transform="translate(-331.094 -1.865)" fill="#dd009d"/>
    <path id="Path_2011" data-name="Path 2011" d="M381.057,15.007a1.2,1.2,0,0,0-.378-.536Q374.6,8.4,368.531,2.3c-.134-.135-.3-.117-.418-.237a5.308,5.308,0,0,1,1.01.091c.208.22.412.444.626.658q5.277,5.28,10.558,10.558c.214.214.438.417.658.626a5.331,5.331,0,0,1,.092,1.012" transform="translate(-334.19 -1.866)" fill="#dc00a1"/>
    <path id="Path_2012" data-name="Path 2012" d="M402.511,15.556c-.22-.208-.444-.411-.658-.624q-4.593-4.59-9.183-9.183c-.214-.214-.416-.439-.624-.659a5.54,5.54,0,0,1,1.288.281,3.823,3.823,0,0,1,.628.6c2.692,2.68,5.367,5.377,8.064,8.052a.658.658,0,0,1,.2.244,5.844,5.844,0,0,1,.282,1.288" transform="translate(-355.917 -4.621)" fill="#da00aa"/>
    <path id="Path_2013" data-name="Path 2013" d="M5.067,392.067a1.65,1.65,0,0,1,.51.381q4.785,4.789,9.574,9.574a1.637,1.637,0,0,1,.381.51,4.818,4.818,0,0,1-1.193-.268c-2.653-2.811-5.451-5.478-8.161-8.232a8.094,8.094,0,0,0-.844-.772,4.554,4.554,0,0,1-.268-1.193" transform="translate(-4.6 -355.936)" fill="#fec300"/>
    <path id="Path_2014" data-name="Path 2014" d="M7.971,404.972c.213-.031.336.11.467.241q4.11,4.112,8.221,8.221a.917.917,0,0,1,.317.543,4.411,4.411,0,0,1-1.2-.367c-.67-.623-1.3-1.284-1.949-1.932-1.831-1.836-3.681-3.654-5.493-5.51a4.246,4.246,0,0,1-.366-1.2" transform="translate(-7.236 -367.648)" fill="#fec800"/>
    <path id="Path_2015" data-name="Path 2015" d="M414.914,17.041a1.712,1.712,0,0,1-.508-.384q-4-4-8.005-8.005a1.681,1.681,0,0,1-.383-.508,5.873,5.873,0,0,1,1.376.449,7.515,7.515,0,0,0,.645.714q2.858,2.853,5.712,5.712a7.771,7.771,0,0,0,.714.646,6.117,6.117,0,0,1,.45,1.376" transform="translate(-368.603 -7.393)" fill="#d900ad"/>
    <path id="Path_2016" data-name="Path 2016" d="M11.948,417.991a1.55,1.55,0,0,1,.513.376q3.274,3.279,6.553,6.553a1.554,1.554,0,0,1,.376.513,6.642,6.642,0,0,1-1.662-.708q-2.517-2.554-5.072-5.071a6.635,6.635,0,0,1-.708-1.663" transform="translate(-10.847 -379.471)" fill="#fecd00"/>
    <path id="Path_2017" data-name="Path 2017" d="M427.976,20.091c-.214.03-.335-.113-.465-.244q-3.18-3.182-6.362-6.362c-.131-.131-.273-.252-.243-.465a6.659,6.659,0,0,1,1.655.747q2.265,2.4,4.669,4.67a6.841,6.841,0,0,1,.746,1.655" transform="translate(-382.114 -11.82)" fill="#d800b2"/>
    <path id="Path_2018" data-name="Path 2018" d="M136.325,1.553a4.551,4.551,0,0,1,1.279-.089.867.867,0,0,1,.957.33c1.028,1.092,2.116,2.128,3.165,3.2.151.155.48.328.128.613a9.279,9.279,0,0,1-2.6.063c-.155-.185.027-.2.128-.25.345-.048.695.015,1.048-.031-.029-.161-.151-.238-.244-.331-1.024-1.03-2.063-2.045-3.071-3.09-.233-.242-.555-.229-.791-.416" transform="translate(-123.762 -1.293)" fill="#f1013f"/>
    <path id="Path_2019" data-name="Path 2019" d="M450.832,95.13c.254-.21.319.088.415.184,1.5,1.484,2.993,2.981,4.488,4.472.126.126.227.3.441.3a4.717,4.717,0,0,1,.068,1.192q-2.161-2.145-4.323-4.288c-.12-.119-.224-.293-.444-.207-.032,0-.076.007-.085-.013a3.989,3.989,0,0,1-.56-1.638" transform="translate(-409.286 -86.297)" fill="#de0099"/>
    <path id="Path_2020" data-name="Path 2020" d="M.827,152.7a13.859,13.859,0,0,1,.083-2.218l.053.042c.017.026.042.056.038.082-.124.748.378,1.161.836,1.616,1.076,1.066,2.157,2.127,3.211,3.217a2.531,2.531,0,0,1,.005,1.021c-.045.129-.136.15-.255.11a.971.971,0,0,1-.373-.26c-1.2-1.2-2.413-2.392-3.6-3.609" transform="translate(-0.745 -136.618)" fill="#fe5300"/>
    <path id="Path_2021" data-name="Path 2021" d="M.806,332.867q-.012-.552-.023-1.1c.294-.146.414.116.561.261q1.553,1.531,3.086,3.083c.28.283.592.53.866.819a3.413,3.413,0,0,1,.175,1.1c-.028.171-.122.239-.29.174a.658.658,0,0,1-.22-.16c-1.385-1.392-2.8-2.757-4.153-4.176" transform="translate(-0.711 -301.151)" fill="#fea900"/>
    <path id="Path_2022" data-name="Path 2022" d="M154.557,5.092c0-.214-.18-.311-.3-.439-1.124-1.17-2.337-2.252-3.405-3.476-.186-.213-.432-.09-.647-.139a8.448,8.448,0,0,1,1.69-.077c1.241,1.19,2.443,2.419,3.649,3.643.139.141.447.329.09.581a1.519,1.519,0,0,1-1.073-.092" transform="translate(-136.359 -0.866)" fill="#ef0145"/>
    <path id="Path_2023" data-name="Path 2023" d="M172.4,4.659a1.622,1.622,0,0,0-.378-.511Q170.43,2.563,168.846.971c-.126-.126-.3-.224-.307-.436l.889-.017a.564.564,0,0,1,.27-.028c1.256,1.222,2.489,2.467,3.715,3.719.132.135.4.327.063.55a1.455,1.455,0,0,1-1.075-.1" transform="translate(-153.007 -0.441)" fill="#ee014a"/>
    <path id="Path_2024" data-name="Path 2024" d="M.459,174.555c.214,0,.314.175.44.3q1.594,1.587,3.181,3.181a1.638,1.638,0,0,0,.511.379,1.464,1.464,0,0,1,.1,1.071c-.077.219-.225.159-.368.086a1.621,1.621,0,0,1-.384-.323q-1.605-1.6-3.208-3.209a.789.789,0,0,1-.316-.487,2.993,2.993,0,0,1,.031-.661q0-.169.009-.338" transform="translate(-0.377 -158.469)" fill="#fe5a00"/>
    <path id="Path_2025" data-name="Path 2025" d="M98.149,455.276c0-.214-.176-.313-.3-.439-1.522-1.527-3.05-3.048-4.566-4.581-.095-.1-.4-.163-.171-.413a7.291,7.291,0,0,1,1.482.5.119.119,0,0,1,.062.151c-.183.255.1.317.2.417q1.917,1.945,3.857,3.868c.217.217.358.534.72.571a5.372,5.372,0,0,1-1.283-.073" transform="translate(-84.456 -408.388)" fill="#feb200"/>
    <path id="Path_2026" data-name="Path 2026" d="M4.493,307.366a1.65,1.65,0,0,1-.544-.409q-1.714-1.72-3.435-3.434c-.126-.126-.228-.3-.443-.293a25.726,25.726,0,0,1-.06-2.939c.092,0,.13.06.16.132a3.642,3.642,0,0,1,.038.8,1.415,1.415,0,0,0,.531,1.372c1.021.97,2,1.986,3,2.98.314.313.318.309.532-.09.037-.068.091-.069.152-.034.214.384.081.8.117,1.2a1.926,1.926,0,0,0,.023.515.239.239,0,0,1-.069.2" transform="translate(0 -272.617)" fill="#fea200"/>
    <path id="Path_2027" data-name="Path 2027" d="M128.241,2.732a1.068,1.068,0,0,1,.949.419c1.022,1.049,2.066,2.076,3.1,3.113.1.1.277.215.208.372-.058.132-.245.054-.374.059-.244.009-.488,0-.732,0-1.028-.983-2.015-2.007-3.026-3.008a7.978,7.978,0,0,0-.947-.859,2.007,2.007,0,0,1,.821-.1" transform="translate(-115.678 -2.472)" fill="#f20139"/>
    <path id="Path_2028" data-name="Path 2028" d="M335.767.913l1.011.019c1.446,1.378,2.84,2.809,4.242,4.231.133.135.393.349.011.533a3.631,3.631,0,0,1-1.3-.262.843.843,0,0,0-.311-.581q-1.7-1.683-3.378-3.381c-.145-.147-.408-.264-.27-.559" transform="translate(-304.789 -0.829)" fill="#df0093"/>
    <path id="Path_2029" data-name="Path 2029" d="M255.976.131h1.1c1.307,1.234,2.553,2.53,3.823,3.8.13.13.315.293.059.488a2.269,2.269,0,0,1-.936.017c-.3-.123-.433-.422-.648-.634Q257.79,2.242,256.228.654c-.135-.137-.381-.248-.252-.523" transform="translate(-232.354 -0.119)" fill="#e60071"/>
    <path id="Path_2030" data-name="Path 2030" d="M351.418,5.7c.148-.278-.119-.372-.246-.5-1.241-1.256-2.494-2.5-3.74-3.752-.125-.126-.3-.223-.312-.432l.189,0a1.7,1.7,0,0,1,1.512.722c1.282,1.338,2.614,2.628,3.917,3.946.151.153.445.284.236.595a2.676,2.676,0,0,1-1.556-.582" transform="translate(-315.131 -0.915)" fill="#de0098"/>
    <path id="Path_2031" data-name="Path 2031" d="M.1,259.846V259.2a.384.384,0,0,1,.409.143c1.3,1.289,2.611,2.575,3.889,3.892a2.152,2.152,0,0,1-.005.941c-.247.29-.408.03-.553-.109-.573-.549-1.122-1.121-1.688-1.676-.609-.6-1.176-1.242-1.833-1.789-.266-.222-.128-.512-.218-.758" transform="translate(-0.092 -235.298)" fill="#fe8400"/>
    <path id="Path_2032" data-name="Path 2032" d="M.107,266.371c.017.43.317.668.6.941,1.07,1.045,2.119,2.111,3.179,3.166.126.125.225.3.438.3a1.264,1.264,0,0,1,.083.986c-.2.286-.378.076-.525-.047-.315-.263-.589-.572-.881-.862-.887-.878-1.755-1.776-2.657-2.639a.585.585,0,0,1-.205-.479,1.435,1.435,0,0,0-.026-.542q0-.414,0-.828" transform="translate(-0.097 -241.824)" fill="#fe8b00"/>
    <path id="Path_2033" data-name="Path 2033" d="M110.527,4.886a2.3,2.3,0,0,1,.909-.185c.111-.056.168.03.228.092,1.043,1.088,2.135,2.128,3.182,3.212.154.16.465.316.215.634a2.332,2.332,0,0,1-1.134.1,37.21,37.21,0,0,0-3.049-3.212c-.168-.182-.422-.327-.351-.643" transform="translate(-100.331 -4.251)" fill="#f4012f"/>
    <path id="Path_2034" data-name="Path 2034" d="M2.476,128.234a1.935,1.935,0,0,1,.091-.817,2.544,2.544,0,0,1,.623.528c1.1,1.091,2.186,2.2,3.3,3.282a1.792,1.792,0,0,1,.051.814c-.029.352-.193.408-.483.183a3.386,3.386,0,0,1-.3-.284c-1.039-1.032-2.059-2.081-3.114-3.1a.532.532,0,0,1-.172-.61" transform="translate(-2.216 -115.675)" fill="#fe4200"/>
    <path id="Path_2035" data-name="Path 2035" d="M.166,178.219q.012.384.024.768a1.959,1.959,0,0,1,.127.99c-.015.247.013.5-.007.743,0,.218.011.435,0,.653-.014.267.013.534-.005.8,0,.253,0,.505,0,.758a1.423,1.423,0,0,0,.527,1.4c1.212,1.151,2.382,2.349,3.558,3.54a1.469,1.469,0,0,1,0,.789c-.253.282-.41.02-.556-.12-.627-.6-1.237-1.228-1.854-1.844-.465-.465-.916-.945-1.4-1.39a1.249,1.249,0,0,1-.48-.983q.008-2.939.019-5.879a1.164,1.164,0,0,1,.044-.222" transform="translate(-0.094 -161.795)" fill="#fe7a00"/>
    <path id="Path_2036" data-name="Path 2036" d="M7.676,120.255c-.2,0-.29-.156-.407-.271q-1.7-1.674-3.4-3.355c-.039-.039-.046-.11-.068-.166a3.394,3.394,0,0,1,.18-1.112c1.116,1.3,2.378,2.451,3.59,3.653.1.1.225.161.273.3a1.545,1.545,0,0,1,0,.719.367.367,0,0,1-.176.231" transform="translate(-3.454 -104.721)" fill="#fe3c00"/>
    <path id="Path_2037" data-name="Path 2037" d="M178.49.106l-.306-.029a19.667,19.667,0,0,1,2.563-.07c.933-.014,1.867,0,2.8.005,1.306,1.232,2.549,2.527,3.818,3.8.129.129.316.288.072.49a1.549,1.549,0,0,1-.786.013c-.275-.13-.406-.406-.61-.609-1.1-1.087-2.2-2.167-3.269-3.278C182.419.057,182,.256,181.6.217c-.339.013-.678,0-1.017.009s-.667,0-1,0a2.125,2.125,0,0,1-1.1-.115" transform="translate(-161.764 0)" fill="#e90064"/>
    <path id="Path_2038" data-name="Path 2038" d="M246.011.131c.014.209.188.306.313.432q1.628,1.636,3.264,3.264a1.621,1.621,0,0,1,.377.51c-.277.225-.591.131-.9.1-.268-.109-.4-.369-.589-.559q-1.624-1.605-3.229-3.23C245.115.516,244.87.4,245,.131h1.011" transform="translate(-222.389 -0.119)" fill="#e7006b"/>
    <path id="Path_2039" data-name="Path 2039" d="M272.258,4.345c0-.213-.178-.312-.3-.438q-1.666-1.673-3.336-3.343c-.125-.126-.3-.223-.314-.433h.831c.095.061.217,0,.31.07,1.174,1.228,2.4,2.4,3.585,3.62.149.153.49.321.135.611a1.131,1.131,0,0,1-.907-.088" transform="translate(-243.579 -0.119)" fill="#e50076"/>
    <path id="Path_2040" data-name="Path 2040" d="M5.849,139.255l.077-.184c.241.253.135.57.152.861a4.942,4.942,0,0,1-.125,1.3c-.063.191-.188.225-.356.132a1.691,1.691,0,0,1-.346-.3c-1.113-1.1-2.192-2.226-3.327-3.3a.749.749,0,0,1-.106-.15l-.026-.027a4.792,4.792,0,0,1,.095-1.309c.027.143-.008.285.128.417,1.147,1.122,2.282,2.257,3.424,3.385.094.093.182.273.317.224.179-.064.08-.268.09-.409.015-.213,0-.428,0-.642" transform="translate(-1.627 -123.721)" fill="#fe4700"/>
    <path id="Path_2041" data-name="Path 2041" d="M90.5,9.757a2.128,2.128,0,0,1,.814-.278.5.5,0,0,1,.573.162c.9.9,1.818,1.793,2.7,2.716.389.406.378.535.048.793a1.185,1.185,0,0,1-.676.08c-1.147-1.164-2.313-2.308-3.46-3.473" transform="translate(-82.162 -8.574)" fill="#f60126"/>
    <path id="Path_2042" data-name="Path 2042" d="M9.544,111.148a1.416,1.416,0,0,1-.483-.338q-1.519-1.527-3.046-3.045a.662.662,0,0,1-.26-.51,2.18,2.18,0,0,1,.187-.822c1.23,1.2,2.394,2.471,3.667,3.629a.419.419,0,0,1,.1.15.987.987,0,0,1-.169.936" transform="translate(-5.225 -96.625)" fill="#fe3600"/>
    <path id="Path_2043" data-name="Path 2043" d="M83.361,12.839a.509.509,0,0,1,.346.2q1.449,1.451,2.9,2.9a.431.431,0,0,1,.176.306,1.127,1.127,0,0,1-.942.27,4.9,4.9,0,0,1-.8-.8c-.716-.689-1.413-1.4-2.111-2.107-.131-.133-.332-.237-.282-.481a1.919,1.919,0,0,1,.717-.28" transform="translate(-75.021 -11.656)" fill="#f8011f"/>
    <path id="Path_2044" data-name="Path 2044" d="M12.653,83.288a1.866,1.866,0,0,1,.282-.714c.277-.08.418.132.573.284.716.7,1.424,1.414,2.13,2.127a2.338,2.338,0,0,0,.746.571,2.286,2.286,0,0,1-.271,1.04c-.229.137-.38-.028-.514-.159-.944-.919-1.871-1.856-2.8-2.792-.094-.095-.2-.2-.148-.358" transform="translate(-11.475 -74.949)" fill="#fe2500"/>
    <path id="Path_2045" data-name="Path 2045" d="M1.037,344.156c.21.01.308.184.434.309,1.252,1.247,2.5,2.5,3.755,3.74.094.093.169.4.411.153a2.222,2.222,0,0,1,.389,1.178c-.2.219-.359.041-.507-.066a4.916,4.916,0,0,1-.562-.536c-1.144-1.143-2.279-2.294-3.436-3.424a1.285,1.285,0,0,1-.478-.981q0-.186-.007-.371" transform="translate(-0.941 -312.441)" fill="#feae00"/>
    <path id="Path_2046" data-name="Path 2046" d="M124.2,7.812a1.659,1.659,0,0,0-.409-.544q-1.643-1.657-3.282-3.319a1.234,1.234,0,0,1,.637-.094.564.564,0,0,1,.441.2q1.675,1.685,3.358,3.362a.423.423,0,0,1,.173.308c-.1.007-.2-.012-.275.079a.45.45,0,0,1-.644.012" transform="translate(-109.407 -3.498)" fill="#f30135"/>
    <path id="Path_2047" data-name="Path 2047" d="M.1,244.421a1.545,1.545,0,0,0,.589.928c1.064,1.054,2.119,2.117,3.18,3.173.126.125.224.3.435.309a.756.756,0,0,1,0,.919c-.211-.007-.309-.181-.435-.306Q2.236,247.816.608,246.18A1.655,1.655,0,0,0,.1,245.8q0-.689,0-1.379" transform="translate(-0.091 -221.897)" fill="#fe7f00"/>
    <path id="Path_2048" data-name="Path 2048" d="M354.859,6.33c.01-.218-.165-.318-.291-.443q-1.912-1.918-3.829-3.831c-.446-.445-.816-1.021-1.572-.961a8.529,8.529,0,0,1,1.466.082c.009.212.184.31.31.436q2.367,2.374,4.74,4.743a1.351,1.351,0,0,1,.461.715,2.111,2.111,0,0,1-1.285-.74" transform="translate(-316.99 -0.987)" fill="#dd009c"/>
    <path id="Path_2049" data-name="Path 2049" d="M11.457,103.789a5.1,5.1,0,0,1-1.226-1.064c-.782-.715-1.489-1.513-2.24-2.263-.114-.114-.215-.207-.206-.376a1.411,1.411,0,0,1,.18-.644c.255.021.4.213.56.372.707.7,1.415,1.4,2.111,2.113.32.327.668.622,1.007.928a1.226,1.226,0,0,1-.186.935" transform="translate(-7.068 -90.278)" fill="#fe3100"/>
    <path id="Path_2050" data-name="Path 2050" d="M19.629,436.012c.2-.024.3.13.415.246q2.207,2.2,4.41,4.41c.116.116.27.214.247.415a11.429,11.429,0,0,1-5.072-5.071" transform="translate(-17.82 -395.829)" fill="#fed200"/>
    <path id="Path_2051" data-name="Path 2051" d="M19.234,77.968c-.219.165-.329-.021-.453-.145q-1.215-1.212-2.426-2.428a1.508,1.508,0,0,0-.514-.371,2.106,2.106,0,0,1,.347-.743c.267-.134.392.091.532.229.706.692,1.4,1.392,2.1,2.094a2.355,2.355,0,0,0,.746.573.886.886,0,0,1-.33.79" transform="translate(-14.38 -67.399)" fill="#fe1f00"/>
    <path id="Path_2052" data-name="Path 2052" d="M38.468,41.111a3.279,3.279,0,0,1,.662-.669,1.55,1.55,0,0,1,.522.438q1.058,1.049,2.107,2.107c.148.149.329.286.308.536a.8.8,0,0,1-.513.521.467.467,0,0,1-.406-.171q-1.292-1.272-2.565-2.563a.519.519,0,0,1-.114-.2" transform="translate(-34.923 -36.715)" fill="#fe0201"/>
    <path id="Path_2053" data-name="Path 2053" d="M33.1,47.705c.938.788,1.741,1.716,2.627,2.558.129.123.225.3.438.305-.016.362-.277.531-.545.7a.427.427,0,0,1-.4-.165q-1.283-1.268-2.551-2.551a.442.442,0,0,1-.111-.2,2.4,2.4,0,0,1,.545-.646" transform="translate(-29.551 -43.309)" fill="#fe0900"/>
    <path id="Path_2054" data-name="Path 2054" d="M13.33,94.653c-.236.033-.354-.144-.493-.281q-1.546-1.527-3.09-3.055a2.207,2.207,0,0,1,.28-.825c.988,1.116,2.087,2.123,3.135,3.18a1.137,1.137,0,0,0,.278.154.637.637,0,0,1-.11.827" transform="translate(-8.849 -82.153)" fill="#fe2b00"/>
    <path id="Path_2055" data-name="Path 2055" d="M1.038,348.183a1.545,1.545,0,0,0,.588.926q1.883,1.869,3.754,3.751a1.01,1.01,0,0,0,.606.376.116.116,0,0,1,.151.061,4.85,4.85,0,0,1,.416,1.222c-.218.01-.318-.165-.444-.291q-2.229-2.223-4.452-4.452a1.529,1.529,0,0,0-.549-.4,4.721,4.721,0,0,1-.068-1.19" transform="translate(-0.936 -316.097)" fill="#feb100"/>
    <path id="Path_2056" data-name="Path 2056" d="M.115,275.353c.01.012.029.025.028.035-.086.673.406,1.013.8,1.409q1.44,1.435,2.875,2.875a1.13,1.13,0,0,0,.52.355l.047.057a1.131,1.131,0,0,1,.007.72c-.318.239-.475-.066-.635-.222-1.025-1-2.035-2.017-3.042-3.035a3.048,3.048,0,0,1-.57-.584,3.762,3.762,0,0,0-.033-.69q0-.46,0-.92" transform="translate(-0.104 -249.978)" fill="#fe9000"/>
    <path id="Path_2057" data-name="Path 2057" d="M237.207.13c.014.21.188.307.313.433q1.663,1.672,3.332,3.338c.125.126.3.224.308.435a.635.635,0,0,1-.827,0c-.01-.211-.185-.308-.31-.434q-1.663-1.671-3.33-3.337c-.125-.126-.3-.223-.313-.432h.828" transform="translate(-214.596 -0.118)" fill="#e80068"/>
    <path id="Path_2058" data-name="Path 2058" d="M102.681,10.733c.1-.089.238-.157.082-.322-.135-.142-.236-.316-.374-.454-.834-.842-1.676-1.677-2.511-2.518a.67.67,0,0,0-.54-.286,3.1,3.1,0,0,1,1.042-.271,1.508,1.508,0,0,0,.372.516q1.4,1.391,2.791,2.79c.122.123.319.229.149.452a.878.878,0,0,1-1.011.092" transform="translate(-90.184 -6.249)" fill="#f5012a"/>
    <path id="Path_2059" data-name="Path 2059" d="M328.447.523c0,.213.174.313.3.439,1.195,1.2,2.4,2.392,3.583,3.6.083.085.457.218.045.392a.733.733,0,0,1-.783.011.336.336,0,0,0-.107-.329c-.371-.451-.806-.839-1.215-1.252-.775-.785-1.564-1.556-2.333-2.346-.136-.139-.414-.272-.18-.55a.575.575,0,0,1,.27.032.793.793,0,0,1,.422,0" transform="translate(-297.47 -0.439)" fill="#e0018f"/>
    <path id="Path_2060" data-name="Path 2060" d="M67.466,19.11a2.781,2.781,0,0,1,.845-.473c.3.129.42.434.638.645.736.714,1.458,1.442,2.176,2.173.152.155.382.309.163.578a.774.774,0,0,1-.639.186,4.137,4.137,0,0,1-.835-.764q-1.18-1.167-2.349-2.345" transform="translate(-61.249 -16.92)" fill="#f90117"/>
    <path id="Path_2061" data-name="Path 2061" d="M22.927,70.735c-.22.167-.328-.023-.452-.146q-1.214-1.209-2.424-2.422c-.127-.127-.235-.288-.445-.292a1.985,1.985,0,0,1,.361-.646c.17-.107.3-.006.4.1.922.911,1.85,1.816,2.745,2.755a.34.34,0,0,1,.063.121c.007.22-.009.429-.253.528" transform="translate(-17.799 -60.994)" fill="#fe1900"/>
    <path id="Path_2062" data-name="Path 2062" d="M443.574,25.795a1.652,1.652,0,0,1-.67-.46l-3.54-3.54a1.643,1.643,0,0,1-.459-.67,11.5,11.5,0,0,1,4.669,4.67" transform="translate(-398.458 -19.178)" fill="#d801b6"/>
    <path id="Path_2063" data-name="Path 2063" d="M28.249,54.715c.933.791,1.737,1.714,2.62,2.555.129.123.225.3.437.306.127.344-.209.452-.338.666-.171.083-.3-.013-.406-.12-.917-.892-1.808-1.81-2.721-2.706a.118.118,0,0,1-.018-.127,1.711,1.711,0,0,1,.427-.573" transform="translate(-25.249 -49.673)" fill="#fe0f00"/>
    <path id="Path_2064" data-name="Path 2064" d="M.2,293.275c.213,0,.312.178.438.3q1.593,1.586,3.179,3.179a1.616,1.616,0,0,0,.511.379.322.322,0,0,1,.114.286c0,.166.04.366-.126.461-.182.1-.316-.056-.432-.171C2.65,296.48,1.4,295.267.2,294.011l-.075-.089q0-.141,0-.283c.073-.111-.02-.257.075-.364" transform="translate(-0.109 -266.248)" fill="#fe9400"/>
    <path id="Path_2065" data-name="Path 2065" d="M50.727,31.259a1.747,1.747,0,0,1,.563-.455c.185-.05.282.088.386.191q1.206,1.2,2.4,2.4a.482.482,0,0,1,.2.437.765.765,0,0,1-.6.488q-1.363-1.368-2.73-2.733a.62.62,0,0,1-.229-.33" transform="translate(-46.052 -27.956)" fill="#fc010a"/>
    <path id="Path_2066" data-name="Path 2066" d="M46.117,35.845c1.017.911,1.95,1.908,2.909,2.879.028.028.028.085.04.128-.091.267-.224.487-.553.481,0-.2-.16-.288-.276-.4-.755-.76-1.514-1.515-2.27-2.274a1.127,1.127,0,0,1-.318-.386,1.49,1.49,0,0,1,.468-.424" transform="translate(-41.442 -32.542)" fill="#fd0104"/>
    <path id="Path_2067" data-name="Path 2067" d="M79.592,19.451c.132-.226-.092-.3-.193-.4q-1.074-1.094-2.167-2.17a3.313,3.313,0,0,1-.592-.749,1.352,1.352,0,0,1,.56-.254q1.362,1.386,2.725,2.771a1.553,1.553,0,0,1,.4.547.544.544,0,0,1-.736.253" transform="translate(-69.577 -14.417)" fill="#f8011b"/>
    <path id="Path_2068" data-name="Path 2068" d="M61.562,23.772c.071.024.163.028.21.075.989.987,2.018,1.935,2.945,2.983a.78.78,0,0,1-.647.387c-.758-.785-1.535-1.551-2.3-2.324a7.653,7.653,0,0,0-.8-.737,1.577,1.577,0,0,1,.6-.384" transform="translate(-55.345 -21.581)" fill="#fa0111"/>
    <path id="Path_2069" data-name="Path 2069" d="M23.934,60.937c.939.824,1.773,1.754,2.673,2.618.128.123.223.3.432.313a.532.532,0,0,1-.338.648c-.949-.824-1.784-1.765-2.69-2.634-.141-.135-.253-.317-.481-.324a1.889,1.889,0,0,1,.4-.621" transform="translate(-21.361 -55.321)" fill="#fe1400"/>
    <path id="Path_2070" data-name="Path 2070" d="M57.221,27.907a.416.416,0,0,1,.365.145c.838.842,1.681,1.68,2.517,2.525a2.113,2.113,0,0,1,.228.339c-.136.189-.248.422-.552.285a.609.609,0,0,0-.086-.2q-1.422-1.413-2.852-2.818a.807.807,0,0,1,.38-.273" transform="translate(-51.603 -25.332)" fill="#fb010d"/>
    <path id="Path_2071" data-name="Path 2071" d="M.2,286.066c-.013.124.038.261-.075.364q0-.548,0-1.1c.15.231.04.489.075.732" transform="translate(-0.109 -259.039)" fill="#fe9800"/>
    <path id="Path_2072" data-name="Path 2072" d="M321.693,466.609l-.115-.031c-1.242-1.166-2.427-2.389-3.618-3.605-.126-.129-.34-.324-.032-.513a5.748,5.748,0,0,1,2.109-.072c.07.042.109.094.058.175-.272.193-.6.038-.891.13-.056.156.086.211.16.286,1.069,1.085,2.163,2.145,3.218,3.243.12.124.3.158.4.295a4.81,4.81,0,0,1-1.288.093" transform="translate(-288.485 -419.711)" fill="#fe4800"/>
    <path id="Path_2073" data-name="Path 2073" d="M341.724,462.644l.092-.076c.243-.224.53-.139.808-.116.28.073.382.338.559.522,1.019,1.057,2.1,2.052,3.122,3.107.1.1.248.125.321.253a3.42,3.42,0,0,1-1.11.179c-.186.092-.279-.046-.385-.155-1.046-1.073-2.12-2.118-3.168-3.188-.135-.137-.379-.252-.239-.526" transform="translate(-310.194 -419.803)" fill="#fe3c00"/>
    <path id="Path_2074" data-name="Path 2074" d="M464.777,365.987a3.09,3.09,0,0,1-.272,1.034,2.4,2.4,0,0,1-.759-.572q-1.02-1.015-2.035-2.036a7.583,7.583,0,0,0-.874-.792,2.2,2.2,0,0,1,.083-.89c.188-.332.4-.2.591-.014.389.366.761.75,1.137,1.13.708.715,1.434,1.413,2.129,2.14" transform="translate(-418.345 -329.12)" fill="#f50129"/>
    <path id="Path_2075" data-name="Path 2075" d="M331.7,464.735c0,.2.156.29.271.407q1.674,1.7,3.355,3.4c.039.039.11.045.166.066a2,2,0,0,1-.826.1c-.143-.027-.282,0-.413-.136-1.12-1.146-2.254-2.279-3.381-3.419-.093-.094-.273-.181-.222-.317.066-.177.268-.079.41-.089.213-.015.427,0,.641,0" transform="translate(-300.172 -421.894)" fill="#fe4200"/>
    <path id="Path_2076" data-name="Path 2076" d="M465.311,354.5c-.212,0-.313-.171-.439-.3q-1.439-1.432-2.873-2.869c-.123-.122-.23-.315-.45-.147-.279-.391-.1-.788-.016-1.183.112-.227.247-.1.367-.014a3.764,3.764,0,0,1,.4.38c1.062,1.073,2.147,2.123,3.2,3.209a2.439,2.439,0,0,1-.182.92" transform="translate(-418.878 -317.634)" fill="#f4012f"/>
    <path id="Path_2077" data-name="Path 2077" d="M357,465.547c-.529,0-.685-.512-1-.785-.8-.7-1.512-1.484-2.265-2.229a3.578,3.578,0,0,1-.628-.773.993.993,0,0,1,.927-.173c.531.478,1.016,1,1.523,1.509.757.752,1.516,1.5,2.262,2.264a2,2,0,0,1-.82.187" transform="translate(-320.566 -419.016)" fill="#fe3600"/>
    <path id="Path_2078" data-name="Path 2078" d="M467.552,334.6a1.942,1.942,0,0,1-.092.818c-1.3-1.269-2.552-2.591-3.877-3.837a.353.353,0,0,1-.073-.116,1.551,1.551,0,0,1,.006-.785c.132-.2.29-.109.439-.031a1.508,1.508,0,0,1,.35.293q1.493,1.49,2.983,2.983c.186.186.38.37.264.674" transform="translate(-420.752 -300.1)" fill="#f20138"/>
    <path id="Path_2079" data-name="Path 2079" d="M462.772,341.167c.213,0,.311.18.438.3,1.1,1.085,2.191,2.177,3.295,3.258a.451.451,0,0,1,.136.32,1.212,1.212,0,0,1-.094.625,1.57,1.57,0,0,1-.547-.4q-1.656-1.642-3.318-3.278a.608.608,0,0,1-.091-.586.376.376,0,0,1,.181-.241" transform="translate(-419.932 -309.727)" fill="#f30134"/>
    <path id="Path_2080" data-name="Path 2080" d="M378.513,463.221a2.883,2.883,0,0,1-.845.283.725.725,0,0,1-.332-.234c-.927-.926-1.857-1.848-2.776-2.782-.169-.172-.428-.349-.179-.65a1.215,1.215,0,0,1,.829-.107q1.55,1.543,3.092,3.1a.581.581,0,0,1,.21.392" transform="translate(-339.787 -417.334)" fill="#fe2b00"/>
    <path id="Path_2081" data-name="Path 2081" d="M388.271,461.081q-1.474-1.491-2.948-2.984c-.124-.126-.3-.226-.3-.439a1.224,1.224,0,0,1,.956-.318,3.639,3.639,0,0,0,.771.935c.806.811,1.625,1.609,2.421,2.429a2.838,2.838,0,0,1-.9.377" transform="translate(-349.546 -415.193)" fill="#fe2500"/>
    <path id="Path_2082" data-name="Path 2082" d="M365.094,460.849c-.033.236.143.354.281.492q1.356,1.359,2.714,2.717c.117.117.216.253.323.379a1.308,1.308,0,0,1-.629.173.518.518,0,0,1-.348-.2q-1.584-1.586-3.169-3.17a.445.445,0,0,1-.183-.3.878.878,0,0,1,1.011-.091" transform="translate(-330.531 -418.267)" fill="#fe3100"/>
    <path id="Path_2083" data-name="Path 2083" d="M435.891,434.39a1.8,1.8,0,0,1-.528.537c-.162.059-.263-.048-.359-.143q-1.257-1.241-2.5-2.5a.5.5,0,0,1-.175-.314.874.874,0,0,1,.6-.608.586.586,0,0,1,.38.227q1.194,1.186,2.379,2.381c.111.112.273.213.2.419" transform="translate(-392.489 -391.611)" fill="#fe0201"/>
    <path id="Path_2084" data-name="Path 2084" d="M447.055,421.374a1.822,1.822,0,0,1-.416.585.281.281,0,0,1-.371-.068c-.918-.923-1.891-1.792-2.736-2.787a.827.827,0,0,1,.346-.63.385.385,0,0,1,.535.08q1.275,1.257,2.532,2.534a.3.3,0,0,1,.111.286" transform="translate(-402.658 -379.841)" fill="#fc010b"/>
    <path id="Path_2085" data-name="Path 2085" d="M398.5,458.091c-.173,0-.269-.126-.376-.232q-1.309-1.307-2.616-2.616c-.124-.125-.308-.235-.144-.453a.991.991,0,0,1,.792-.328,2.337,2.337,0,0,0,.576.75c.7.689,1.39,1.38,2.075,2.079.138.141.37.262.239.533a1.216,1.216,0,0,1-.546.267" transform="translate(-358.874 -412.58)" fill="#fe1e00"/>
    <path id="Path_2086" data-name="Path 2086" d="M463.515,312.231c.157,0,.245.108.342.2,1.192,1.183,2.379,2.371,3.578,3.546.217.213.069.464.137.688q0,.079-.009.159c-.272.141-.388-.1-.525-.235-.923-.908-1.844-1.817-2.743-2.747a8,8,0,0,1-.869-.794.983.983,0,0,1,.089-.821" transform="translate(-420.678 -283.458)" fill="#f00140"/>
    <path id="Path_2087" data-name="Path 2087" d="M463.626,322.208a.987.987,0,0,1,.608.371q1.5,1.505,3.008,3.006c.126.125.225.3.438.3a3.505,3.505,0,0,1-.085,1.133.631.631,0,0,0-.257-.511q-1.579-1.571-3.151-3.15a.931.931,0,0,0-.54-.322c-.176-.143-.126-.345-.138-.531a.414.414,0,0,1,.117-.3" transform="translate(-420.795 -292.515)" fill="#f1013d"/>
    <path id="Path_2088" data-name="Path 2088" d="M457.651,400.653a2.045,2.045,0,0,1-.374.721c-.847-.806-1.658-1.648-2.486-2.473-.226-.225-.469-.431-.686-.665-.085-.251.057-.441.17-.64a.314.314,0,0,1,.513,0q1.408,1.369,2.776,2.777c.071.073.144.162.087.283" transform="translate(-412.233 -360.834)" fill="#f90118"/>
    <path id="Path_2089" data-name="Path 2089" d="M450.767,415.01q-1.366-1.381-2.73-2.763a.284.284,0,0,0-.4-.069c-.088-.35.166-.542.352-.766.264-.085.442.078.6.236q1.213,1.186,2.4,2.4c.113.114.26.234.144.432a1.246,1.246,0,0,1-.371.532" transform="translate(-406.37 -373.477)" fill="#fb0110"/>
    <path id="Path_2090" data-name="Path 2090" d="M419.836,448.475a1.389,1.389,0,0,1-.6.474c-.206.067-.307-.094-.42-.205q-1.2-1.185-2.385-2.383a.559.559,0,0,1-.236-.469.644.644,0,0,1,.594-.4.4.4,0,0,1,.195.11c.957.952,1.927,1.892,2.857,2.87" transform="translate(-377.833 -404.44)" fill="#fe1000"/>
    <path id="Path_2091" data-name="Path 2091" d="M459.828,392.783c-.94-1.06-1.992-2.011-2.975-3.029a.217.217,0,0,0-.322-.018.957.957,0,0,1,.2-.918c.226-.093.339.087.462.207.938.918,1.849,1.864,2.8,2.774.105.1.194.2.118.356a1.49,1.49,0,0,1-.281.628" transform="translate(-414.41 -352.963)" fill="#f8011e"/>
    <path id="Path_2092" data-name="Path 2092" d="M439.248,425.9c.924.8,1.731,1.71,2.61,2.552.141.135.254.312.481.317a2.628,2.628,0,0,1-.578.661c-.934-1.046-1.935-2.026-2.965-2.976a.592.592,0,0,1,.453-.554" transform="translate(-398.358 -386.65)" fill="#fd0106"/>
    <path id="Path_2093" data-name="Path 2093" d="M460.234,374.688c.225-.131.3.091.4.192.847.835,1.694,1.671,2.522,2.526.211.218.524.323.661.616a2.221,2.221,0,0,1-.279.825c-1.009-1.187-2.168-2.227-3.26-3.331-.074-.075-.173-.128-.213-.234a.617.617,0,0,1,.171-.594" transform="translate(-417.655 -340.123)" fill="#f60124"/>
    <path id="Path_2094" data-name="Path 2094" d="M410.1,449.46c.024.071.027.163.075.211.964.959,1.878,1.967,2.906,2.86-.139.2-.385.228-.564.363-.225.057-.33-.123-.453-.245q-1.191-1.178-2.37-2.37c-.145-.146-.345-.279-.262-.541a.655.655,0,0,1,.668-.277" transform="translate(-371.682 -408.023)" fill="#fe1500"/>
    <path id="Path_2095" data-name="Path 2095" d="M459.045,382.07c.193.01.285.167.4.283q1.351,1.344,2.7,2.694c.153.152.32.293.3.54a.817.817,0,0,1-.183.466c-.046-.273-.308-.361-.472-.526-.941-.946-1.9-1.877-2.849-2.813a.447.447,0,0,1,.109-.643" transform="translate(-416.558 -346.861)" fill="#f70121"/>
    <path id="Path_2096" data-name="Path 2096" d="M425.929,444.753c-.057-.018-.132-.018-.17-.056-.959-.961-1.96-1.881-2.861-2.9a.521.521,0,0,1,.544-.4,21.372,21.372,0,0,1,1.893,1.833,5.374,5.374,0,0,1,1.072,1.163c-.1.194-.305.26-.478.363" transform="translate(-383.926 -400.718)" fill="#fe0a00"/>
    <path id="Path_2097" data-name="Path 2097" d="M404.8,452.693c.019.057.02.131.058.169,1,.987,1.942,2.024,2.994,2.953-.176.2-.459.211-.658.371,0-.21-.17-.313-.3-.439q-1.2-1.211-2.414-2.418c-.123-.123-.311-.232-.145-.451a.317.317,0,0,1,.46-.186" transform="translate(-367.022 -410.943)" fill="#fe1a00"/>
    <path id="Path_2098" data-name="Path 2098" d="M454.95,409.513c0-.176-.132-.268-.238-.374q-1.166-1.169-2.333-2.336a.947.947,0,0,0-.538-.323.449.449,0,0,1,.235-.561.5.5,0,0,1,.349.2q1.313,1.315,2.627,2.628a.428.428,0,0,1,.173.31,1.036,1.036,0,0,1-.276.461" transform="translate(-410.182 -368.513)" fill="#fa0114"/>
    <path id="Path_2099" data-name="Path 2099" d="M431.751,441.178c-1.029-.953-2.036-1.929-2.966-2.981.037-.213.138-.354.379-.339.955,1.027,1.93,2.034,2.98,2.964a1.111,1.111,0,0,1-.393.356" transform="translate(-389.271 -397.506)" fill="#fe0600"/>
    <path id="Path_2100" data-name="Path 2100" d="M463.937,161.93a19.421,19.421,0,0,1-.08-2.421c.249-.049.4.126.545.268,1.234,1.221,2.473,2.436,3.678,3.686q0,.413.006.826,0,.185,0,.369c-.3.074-.442-.156-.607-.319-1-.986-1.985-1.981-2.979-2.971a1.037,1.037,0,0,0-.38-.312c-.14.252.032.543-.155.76l-.027.114" transform="translate(-421.11 -144.802)" fill="#e30082"/>
    <path id="Path_2101" data-name="Path 2101" d="M464.806,174.993c-.005-.229-.015-.459-.013-.688,0-.1-.049-.238.083-.281s.185.085.257.157q1.626,1.621,3.247,3.247a1.582,1.582,0,0,0,.547.407v1.012c-.213,0-.312-.178-.438-.3q-1.59-1.583-3.174-3.173a1.487,1.487,0,0,0-.51-.378" transform="translate(-421.953 -157.98)" fill="#e4007d"/>
    <path id="Path_2102" data-name="Path 2102" d="M464.947,265.2q0-.505,0-1.011c.215-.069.35.075.475.2,1.22,1.216,2.451,2.421,3.649,3.66q0,.323.01.646-.007.182-.014.365c-.211-.008-.309-.183-.436-.308q-1.591-1.583-3.175-3.174a1.6,1.6,0,0,0-.51-.378" transform="translate(-422.1 -239.827)" fill="#ec0155"/>
    <path id="Path_2103" data-name="Path 2103" d="M306.224,464.832l1.1-.009a1.538,1.538,0,0,0,.4.548q1.544,1.539,3.083,3.083c.116.116.272.209.284.4a1.57,1.57,0,0,1-1.569-.558c-.936-1.022-1.947-1.975-2.93-2.953a1.547,1.547,0,0,1-.374-.511" transform="translate(-278.004 -421.988)" fill="#fe4e00"/>
    <path id="Path_2104" data-name="Path 2104" d="M467.956,154.185c-.212-.007-.31-.181-.436-.306q-1.51-1.5-3.012-3.013a3.827,3.827,0,0,0-.775-.634l-.013-.343v-.607a1.31,1.31,0,0,1,.631.419q1.583,1.584,3.169,3.166c.126.125.224.3.435.307q.007.091.013.182,0,.368,0,.735l-.008.094" transform="translate(-420.986 -135.525)" fill="#e20087"/>
    <path id="Path_2105" data-name="Path 2105" d="M149.718,463.7l.338.013c1.285,1.25,2.541,2.529,3.806,3.8.109.11.277.224.147.428l-.554.01-.366-.013c-.008-.211-.182-.309-.307-.435-1.086-1.091-2.179-2.177-3.262-3.271-.13-.131-.4-.24-.311-.446.07-.164.336-.035.509-.084" transform="translate(-135.444 -420.964)" fill="#fe9d00"/>
    <path id="Path_2106" data-name="Path 2106" d="M187.012,464.791l.736.008c0,.214.178.313.3.439q1.588,1.6,3.183,3.184a1.51,1.51,0,0,1,.374.515h-.735c-1.249-1.209-2.465-2.453-3.693-3.683-.119-.119-.307-.237-.168-.461" transform="translate(-169.734 -421.958)" fill="#fe8a00"/>
    <path id="Path_2107" data-name="Path 2107" d="M232.391,464.989h.919c1.267,1.206,2.482,2.465,3.719,3.7.109.109.272.225.142.426h-.919a1.527,1.527,0,0,0-.374-.514q-1.592-1.585-3.177-3.178c-.126-.126-.3-.224-.31-.435" transform="translate(-210.975 -422.138)" fill="#fe7300"/>
    <path id="Path_2108" data-name="Path 2108" d="M464.934,219.372q0-.46,0-.919c.176,0,.264.139.372.243,1.222,1.179,2.367,2.435,3.629,3.573.281.253.077.642.128.965-.2.13-.316-.032-.426-.142-1.237-1.238-2.494-2.454-3.7-3.72" transform="translate(-422.087 -198.322)" fill="#e8006a"/>
    <path id="Path_2109" data-name="Path 2109" d="M266.862,464.988h.735c.01.211.185.309.311.435q1.618,1.626,3.241,3.248c.126.126.3.224.309.436l-.182.015-.554-.012c-1.259-1.21-2.476-2.461-3.71-3.7-.109-.109-.279-.221-.152-.426" transform="translate(-242.228 -422.137)" fill="#fe6200"/>
    <path id="Path_2110" data-name="Path 2110" d="M469.079,256.857c-.212-.006-.311-.18-.437-.305q-1.592-1.584-3.176-3.176a1.6,1.6,0,0,0-.511-.379v-1.1c.153-.114.265,0,.356.087,1.264,1.251,2.531,2.5,3.77,3.774q0,.138,0,.277,0,.368,0,.736,0,.045-.006.09" transform="translate(-422.107 -228.635)" fill="#eb015a"/>
    <path id="Path_2111" data-name="Path 2111" d="M464.941,228.43c.212.009.31.184.436.31q1.629,1.621,3.253,3.247c.126.126.226.3.439.3q0,.552,0,1.1c-.2.13-.316-.032-.426-.142-1.236-1.238-2.494-2.454-3.7-3.72v-1.1" transform="translate(-422.095 -207.379)" fill="#e90064"/>
    <path id="Path_2112" data-name="Path 2112" d="M464.95,240.4c.212.01.309.185.436.311q1.629,1.62,3.253,3.246c.126.126.226.3.439.3q0,.551,0,1.1a1.52,1.52,0,0,1-.514-.374q-1.585-1.592-3.178-3.177c-.126-.125-.224-.3-.435-.31q0-.552,0-1.1" transform="translate(-422.103 -218.247)" fill="#ea0060"/>
    <path id="Path_2113" data-name="Path 2113" d="M246.229,469.115c0-.213-.179-.312-.3-.439q-1.62-1.628-3.246-3.252c-.126-.126-.3-.224-.311-.435h.829a15.926,15.926,0,0,1,1.137,1.116q1.252,1.233,2.484,2.487c.134.137.378.25.239.523Z" transform="translate(-220.033 -422.138)" fill="#fe6e00"/>
    <path id="Path_2114" data-name="Path 2114" d="M255.226,469.115c0-.213-.178-.312-.3-.438q-1.585-1.592-3.177-3.177a1.6,1.6,0,0,1-.379-.511h.735c.281.122.414.4.619.6q1.532,1.512,3.045,3.044c.131.132.337.234.288.48l-.182,0-.645,0" transform="translate(-228.202 -422.138)" fill="#fe6a00"/>
    <path id="Path_2115" data-name="Path 2115" d="M162.516,468.088c-.007-.213-.182-.311-.307-.437q-1.669-1.677-3.343-3.349c-.126-.126-.3-.226-.3-.439a20.16,20.16,0,0,1,2.419.079c-.1.135-.249.125-.392.135a2.249,2.249,0,0,0-.659.03c.028.187.184.274.294.385.992,1,1.992,1.99,2.982,2.991.164.166.395.312.322.609l-.185,0-.645,0-.182-.009" transform="translate(-143.95 -421.115)" fill="#fe9700"/>
    <path id="Path_2116" data-name="Path 2116" d="M174.849,468.869a1.526,1.526,0,0,0-.374-.514q-1.593-1.586-3.179-3.18c-.1-.1-.309-.2-.253-.349.072-.189.3-.069.453-.091a1.9,1.9,0,0,1,.32.008c1.266,1.206,2.481,2.464,3.718,3.7.109.109.272.225.142.425Z" transform="translate(-155.272 -421.892)" fill="#fe9200"/>
    <path id="Path_2117" data-name="Path 2117" d="M183.39,468.872c0-.213-.179-.312-.3-.439q-1.62-1.628-3.245-3.251c-.126-.126-.3-.223-.311-.435l.486-.026.248.006c0,.214.172.314.3.44q1.629,1.636,3.262,3.268c.125.126.3.225.3.437h-.735" transform="translate(-162.986 -421.895)" fill="#fe8e00"/>
    <path id="Path_2118" data-name="Path 2118" d="M263.3,469.113q-1.623-1.645-3.247-3.288a4.421,4.421,0,0,1-.7-.836h.734c.01.211.185.309.311.435q1.619,1.627,3.243,3.249c.126.126.3.225.307.437l-.182.01-.462-.007" transform="translate(-235.446 -422.138)" fill="#fe6600"/>
    <path id="Path_2119" data-name="Path 2119" d="M5.986,154.532q0,.552-.007,1.1c-.212-.006-.311-.18-.437-.305-1.15-1.14-2.291-2.289-3.45-3.419a.53.53,0,0,1-.154-.446c0-.229.008-.458.012-.687a1.259,1.259,0,0,1,.513.372Q4,152.692,5.547,154.231c.126.126.226.3.439.3" transform="translate(-1.76 -136.883)" fill="#fe4d00"/>
    <path id="Path_2120" data-name="Path 2120" d="M186.468,5.179l-1.1,0a1.583,1.583,0,0,0-.377-.51Q183.4,3.09,181.818,1.5c-.125-.126-.3-.223-.315-.432l1.1-.008c1.273,1.216,2.5,2.48,3.742,3.725.1.1.242.213.12.392" transform="translate(-164.777 -0.963)" fill="#ed0150"/>
    <path id="Path_2121" data-name="Path 2121" d="M5.114,190.507q0,.46,0,.921c-.155.115-.266,0-.359-.089-1.26-1.251-2.53-2.493-3.763-3.771q0-.5.005-1.01,1.788,1.769,3.575,3.539a1.682,1.682,0,0,0,.542.41" transform="translate(-0.901 -169.366)" fill="#fe6000"/>
    <path id="Path_2122" data-name="Path 2122" d="M5.089,303.545a21.728,21.728,0,0,1,.092,2.586c-.237.082-.377-.087-.511-.221-1.244-1.242-2.5-2.468-3.722-3.735l0-.919c.213,0,.312.179.439.305,1.075,1.07,2.145,2.144,3.22,3.213.115.114.225.344.379.285.2-.076.068-.324.1-.495a.929.929,0,0,0-.006-.183q.008-.419.016-.837" transform="translate(-0.858 -273.495)" fill="#fe9800"/>
    <path id="Path_2123" data-name="Path 2123" d="M.724,311.23c.212.007.311.181.437.307q1.627,1.619,3.246,3.245a1.525,1.525,0,0,0,.549.4l.007.153c-.074.207.122.533-.126.616-.211.071-.381-.208-.541-.368-1.017-1.014-2.015-2.048-3.056-3.037a1.359,1.359,0,0,1-.516-1.319" transform="translate(-0.634 -282.549)" fill="#fe9d00"/>
    <path id="Path_2124" data-name="Path 2124" d="M47.789,369.879a.83.83,0,0,1,.067.476c-.128-.144-.058-.315-.067-.476" transform="translate(-43.375 -335.793)" fill="#fea900"/>
    <path id="Path_2125" data-name="Path 2125" d="M4.945,233.807q0,.46,0,.919c-.211-.009-.309-.184-.435-.31Q2.736,232.659.966,230.9c-.286-.283-.091-.635-.149-.95.2-.131.316.032.426.142,1.236,1.238,2.494,2.453,3.7,3.72" transform="translate(-0.732 -208.712)" fill="#fe7500"/>
    <path id="Path_2126" data-name="Path 2126" d="M5.061,225.629c-.212-.01-.309-.185-.436-.311Q3,223.7,1.373,222.072c-.126-.126-.226-.3-.439-.3q0-.414,0-.827c.151-.116.266-.012.358.08,1.263,1.253,2.538,2.493,3.768,3.78v.829" transform="translate(-0.848 -200.533)" fill="#fe7000"/>
    <path id="Path_2127" data-name="Path 2127" d="M5.06,217a1.617,1.617,0,0,1-.511-.379q-1.585-1.592-3.178-3.177c-.126-.126-.225-.3-.438-.3v-.827c.166-.059.257.066.35.157,1.248,1.233,2.48,2.483,3.729,3.716a.322.322,0,0,1,.046.079q0,.368,0,.736" transform="translate(-0.848 -192.736)" fill="#fe6c00"/>
    <path id="Path_2128" data-name="Path 2128" d="M.964,197.516a1.549,1.549,0,0,1,.512.376q1.584,1.591,3.175,3.174c.126.125.223.3.435.31v.736c-.2.127-.317-.043-.426-.152-1.236-1.234-2.485-2.454-3.7-3.709q0-.367,0-.734" transform="translate(-0.872 -179.314)" fill="#fe6400"/>
    <path id="Path_2129" data-name="Path 2129" d="M.94,205.482c.213.006.312.18.438.306q1.628,1.62,3.251,3.244c.126.126.224.3.435.311q0,.367,0,.734a1.621,1.621,0,0,1-.51-.379q-1.617-1.624-3.24-3.241c-.118-.118-.25-.221-.375-.332q0-.322,0-.644" transform="translate(-0.852 -186.546)" fill="#fe6800"/>
    <path id="Path_2130" data-name="Path 2130" d="M209.291,5.1h-1.013a1.489,1.489,0,0,1-.439-.32c-1.063-1.067-2.131-2.128-3.191-3.2-.163-.165-.393-.309-.321-.605l1.1,0c1.255,1.215,2.476,2.464,3.71,3.7.109.109.279.222.152.426" transform="translate(-185.485 -0.88)" fill="#eb015a"/>
    <path id="Path_2131" data-name="Path 2131" d="M194.488.991a1.617,1.617,0,0,0,.407.545q1.774,1.787,3.544,3.579h-1.1c-.01-.211-.185-.309-.311-.435q-1.618-1.626-3.241-3.247c-.126-.126-.3-.225-.31-.435l1.012-.006" transform="translate(-175.646 -0.9)" fill="#ec0155"/>
    <path id="Path_2132" data-name="Path 2132" d="M220.287,4.811c-.01-.211-.185-.309-.311-.436q-1.62-1.629-3.246-3.252c-.126-.126-.3-.225-.3-.439a1.526,1.526,0,0,1,1.495.6c.965,1.038,1.993,2.018,3,3.019a1.6,1.6,0,0,1,.378.51h-1.01" transform="translate(-196.481 -0.596)" fill="#ea005f"/>
    <path id="Path_2133" data-name="Path 2133" d="M284.471,5.1a.506.506,0,0,1-.334,0c0-.213-.173-.313-.3-.439q-1.628-1.635-3.261-3.266c-.125-.126-.3-.225-.3-.437h1.287c1.237,1.185,2.429,2.414,3.642,3.622a.992.992,0,0,1,.146.177c.172.277.124.378-.2.379a2.213,2.213,0,0,1-.683-.032" transform="translate(-254.447 -0.866)" fill="#e4007b"/>
    <path id="Path_2134" data-name="Path 2134" d="M322.565,5.368a6.363,6.363,0,0,1-1.3-.085c.24-.14.243-.261.033-.467q-1.64-1.607-3.248-3.246c-.135-.137-.382-.248-.247-.524l.919.005c.013.209.186.307.311.432,1.084,1.089,2.173,2.173,3.256,3.263a3.111,3.111,0,0,1,.394.5c.068.106-.052.105-.117.123" transform="translate(-288.48 -0.951)" fill="#e1008b"/>
    <path id="Path_2135" data-name="Path 2135" d="M297.151,5.1h.867c.037-.28-.158-.387-.291-.521-1.058-1.064-2.121-2.123-3.18-3.186-.126-.126-.3-.226-.3-.439l.644,0,.552,0c.7.659,1.368,1.359,2.054,2.037.567.56,1.132,1.122,1.688,1.693.127.13.342.244.211.493a15.969,15.969,0,0,1-2.24-.078" transform="translate(-267.127 -0.86)" fill="#e30082"/>
    <path id="Path_2136" data-name="Path 2136" d="M311.172,5.208c-.006-.212-.18-.311-.306-.437q-1.632-1.64-3.272-3.273a1.53,1.53,0,0,1-.374-.513l1.011.006c.009.211.183.309.308.435,1.108,1.113,2.222,2.221,3.327,3.337.108.109.338.2.251.384-.066.143-.281.038-.424.081l-.521-.019" transform="translate(-278.907 -0.894)" fill="#e20087"/>
    <path id="Path_2137" data-name="Path 2137" d="M463.971,326.492a9.642,9.642,0,0,1,.067-1.689q.012.295.024.59-.006.459-.013.918l-.078.181" transform="translate(-421.209 -294.871)" fill="#f00140"/>
    <path id="Path_2138" data-name="Path 2138" d="M253.983,124.358a4.831,4.831,0,0,1,1.106.026.755.755,0,0,1,.377.24q5.181,5.215,10.4,10.4a.748.748,0,0,1,.239.377,4.848,4.848,0,0,1,.026,1.106c-.126.106-.228.027-.327-.046a2.686,2.686,0,0,1-.3-.282q-5.595-5.594-11.184-11.193c-.163-.163-.473-.284-.332-.624" transform="translate(-230.544 -112.877)" fill="#fd003e"/>
    <path id="Path_2139" data-name="Path 2139" d="M240.555,124.46c0,.2.149.293.265.41q5.733,5.736,11.469,11.469c.116.116.213.27.41.266a4.479,4.479,0,0,1-.092,1.4,2.206,2.206,0,0,0-.663-.843q-1.915-1.9-3.82-3.816a1.818,1.818,0,0,0-.527-.433,2.185,2.185,0,0,1-.49-.653,8.041,8.041,0,0,0-2.57-2.432,1.017,1.017,0,0,1-.429-.331,1.121,1.121,0,0,0-.354-.522c-1.336-1.336-2.676-2.669-4-4.012a5.7,5.7,0,0,0-.595-.408,4.5,4.5,0,0,1,1.4-.092" transform="translate(-217.117 -112.979)" fill="#fd0038"/>
    <path id="Path_2140" data-name="Path 2140" d="M277.357,135.875l-11.012-11.013a5.733,5.733,0,0,1,1.563.25q4.6,4.594,9.2,9.2a5.767,5.767,0,0,1,.25,1.563" transform="translate(-241.8 -113.355)" fill="#fc0044"/>
    <path id="Path_2141" data-name="Path 2141" d="M138.017,252.632a3.516,3.516,0,0,1-1.212.088c-1.1-1.066-2.167-2.157-3.249-3.237q-4.4-4.391-8.792-8.787c-.1-.1-.183-.205-.283-.3a3.552,3.552,0,0,1,.087-1.216,2.863,2.863,0,0,0,.632.817c1.29,1.276,2.57,2.564,3.854,3.847a1.883,1.883,0,0,0,.528.432,3.153,3.153,0,0,1,.62.836,7.782,7.782,0,0,0,2.357,2.181.855.855,0,0,1,.372.324,1.243,1.243,0,0,0,.3.4c1.425,1.444,2.892,2.846,4.283,4.323.148.157.372.135.506.289" transform="translate(-112.999 -217.139)" fill="#fe4200"/>
    <path id="Path_2142" data-name="Path 2142" d="M292.5,136.772c-.2.008-.293-.147-.409-.263q-4.265-4.262-8.527-8.527c-.116-.116-.27-.212-.262-.409a4.471,4.471,0,0,1,1.377.381,3.506,3.506,0,0,1,.653.636c2.2,2.176,4.36,4.4,6.59,6.552a1.142,1.142,0,0,1,.2.253,4.6,4.6,0,0,1,.382,1.377" transform="translate(-257.192 -115.816)" fill="#fc004a"/>
    <path id="Path_2143" data-name="Path 2143" d="M128.818,288.125a4,4,0,0,1-.366-1.2c.315-.148.439.132.595.288q2.527,2.509,5.039,5.032c.964.964,1.931,1.924,2.888,2.9.136.138.378.258.225.53a3.988,3.988,0,0,1-1.2-.366q-3.584-3.6-7.183-7.181" transform="translate(-116.615 -260.449)" fill="#fe5700"/>
    <path id="Path_2144" data-name="Path 2144" d="M124.263,252.372c.2,0,.292.152.408.268q5.826,5.822,11.648,11.648c.116.116.27.212.268.408a1.136,1.136,0,0,1-.551,0,4.5,4.5,0,0,1-.619-.609q-5.276-5.268-10.544-10.544a4.568,4.568,0,0,1-.61-.619,1.134,1.134,0,0,1,0-.551" transform="translate(-112.781 -229.115)" fill="#fe4600"/>
    <path id="Path_2145" data-name="Path 2145" d="M305.683,139.152a4.15,4.15,0,0,1-.805-.671q-2.978-2.986-5.964-5.964a4.067,4.067,0,0,1-.67-.806,6.73,6.73,0,0,1,1.839.818c1.525,1.664,3.126,3.251,4.783,4.784a6.817,6.817,0,0,1,.817,1.839" transform="translate(-270.76 -119.573)" fill="#fc004f"/>
    <path id="Path_2146" data-name="Path 2146" d="M135.255,287.389c.013-.2-.14-.3-.256-.412q-4.037-4.04-8.078-8.078c-.116-.116-.214-.27-.412-.255a3.1,3.1,0,0,1-.2-.823c.268-.173.392.071.529.2.743.726,1.474,1.466,2.208,2.2q3.372,3.371,6.739,6.747c.155.156.434.277.3.591a1.965,1.965,0,0,1-.832-.174" transform="translate(-114.671 -252.165)" fill="#fe5200"/>
    <path id="Path_2147" data-name="Path 2147" d="M132.428,300.317c.2-.018.3.136.413.252q3.26,3.257,6.517,6.517c.116.116.27.213.253.412a4.5,4.5,0,0,1-1.283-.562q-2.682-2.657-5.341-5.336a4.59,4.59,0,0,1-.559-1.284" transform="translate(-120.224 -272.64)" fill="#fe5b00"/>
    <path id="Path_2148" data-name="Path 2148" d="M124.827,266.839a1.045,1.045,0,0,1-.074-.549c.315-.056.465.192.641.367q3.074,3.062,6.138,6.133c1.3,1.3,2.6,2.593,3.89,3.9.141.144.466.272.206.579a.679.679,0,0,1-.338-.035l-.038.012-.035-.019c-.831-.792-1.63-1.616-2.442-2.427q-3.835-3.827-7.665-7.66c-.1-.1-.185-.2-.282-.3" transform="translate(-113.248 -241.744)" fill="#fe4d00"/>
    <path id="Path_2149" data-name="Path 2149" d="M220.67,335.875c-.418.1-.574-.237-.8-.468q-2.019-2.03-4.045-4.053c-.134-.135-.331-.24-.307-.48a4.68,4.68,0,0,1,1.653.58.914.914,0,0,0,.3.389q1.63,1.63,3.259,3.26a1.646,1.646,0,0,1,.506.69,1.04,1.04,0,0,1-.566.082" transform="translate(-195.652 -300.383)" fill="#fe3c00"/>
    <path id="Path_2150" data-name="Path 2150" d="M125.556,272.325c.2,0,.291.155.407.271q4.857,4.853,9.711,9.711c.116.116.271.211.272.407a.936.936,0,0,1-.552-.086c0-.2-.151-.292-.267-.409q-4.528-4.531-9.059-9.058c-.126-.126-.228-.3-.45-.275-.114-.177-.053-.373-.062-.561" transform="translate(-113.978 -247.229)" fill="#fe4f00"/>
    <path id="Path_2151" data-name="Path 2151" d="M370.451,99.552a1.24,1.24,0,0,1-.641.561.675.675,0,0,1-.34-.22q-1.667-1.664-3.331-3.331a.6.6,0,0,1-.2-.3,1.826,1.826,0,0,1,.563-.639c.205-.055.3.108.415.219q1.652,1.641,3.294,3.293c.114.115.267.216.24.416" transform="translate(-332.215 -86.802)" fill="#eb0083"/>
    <path id="Path_2152" data-name="Path 2152" d="M342.693,246.6a4.1,4.1,0,0,1-.27,1.032c-.255-.019-.4-.211-.558-.369-.844-.838-1.683-1.682-2.525-2.521-.157-.157-.3-.428-.547-.079-.051.071-.116-.048-.151-.113a5.7,5.7,0,0,1,0-1.514c.094-.232.247-.179.4-.075a2.293,2.293,0,0,1,.336.309c1.1,1.113,2.227,2.205,3.317,3.331" transform="translate(-307.387 -220.486)" fill="#fd012b"/>
    <path id="Path_2153" data-name="Path 2153" d="M130.528,238.074c-.2.023-.3-.13-.414-.245-1.482-1.472-2.958-2.949-4.449-4.412-.165-.162-.1-.335-.135-.5a1.222,1.222,0,0,1,.1-.636c1.262,1.243,2.505,2.5,3.76,3.753a1.14,1.14,0,0,0,.558.38,4.43,4.43,0,0,1,.586,1.664" transform="translate(-113.96 -210.872)" fill="#fe3c00"/>
    <path id="Path_2154" data-name="Path 2154" d="M216.114,127.84a3.182,3.182,0,0,1,1.037-.271c.3.12.424.425.639.635q1.469,1.439,2.906,2.909c.133.136.489.335.02.526a7.361,7.361,0,0,1-1.5-.013c-.1-.047-.236-.146-.074-.21.38-.152.172-.284.022-.434q-1.259-1.26-2.517-2.52a2.592,2.592,0,0,1-.53-.622" transform="translate(-196.198 -115.813)" fill="#fd012b"/>
    <path id="Path_2155" data-name="Path 2155" d="M340.059,233.313c-.212,0-.312-.173-.438-.3q-1.551-1.544-3.1-3.093c-.125-.125-.226-.3-.443-.284-.335-.349-.269-.824-.391-1.24.074-.207.21-.189.36-.092a2.225,2.225,0,0,1,.338.307c1.2,1.193,2.382,2.4,3.6,3.579a.545.545,0,0,1,.171.611.816.816,0,0,1-.1.509" transform="translate(-304.754 -207.204)" fill="#fd0030"/>
    <path id="Path_2156" data-name="Path 2156" d="M124.6,258.352a1.489,1.489,0,0,1,.516.372q5.44,5.444,10.884,10.884a1.5,1.5,0,0,1,.373.516l-.369-.009a3.186,3.186,0,0,1-.59-.574q-5.12-5.111-10.231-10.231a3.26,3.26,0,0,1-.574-.59l-.008-.369" transform="translate(-113.115 -234.544)" fill="#fe4900"/>
    <path id="Path_2157" data-name="Path 2157" d="M208.233,130.515c.249.03.319.269.466.413.885.868,1.758,1.749,2.635,2.626.463.463.463.463-.13.635a.777.777,0,0,1-.66.173,1.264,1.264,0,0,0-.48-.727c-.767-.769-1.537-1.534-2.3-2.3-.147-.149-.332-.281-.33-.526a2.116,2.116,0,0,1,.8-.288" transform="translate(-188.317 -118.487)" fill="#fd0125"/>
    <path id="Path_2158" data-name="Path 2158" d="M338.54,257.729c.133-.109.024-.3.181-.469l3.493,3.433a3.167,3.167,0,0,1-.369,1.015q-1.259-1.251-2.511-2.51a3.771,3.771,0,0,0-.965-.8.773.773,0,0,1,.17-.668" transform="translate(-307.178 -233.552)" fill="#fd0124"/>
    <path id="Path_2159" data-name="Path 2159" d="M237.118,341.655q-2.008-2.024-4.015-4.049c-.055-.055-.168-.116-.036-.21a1.692,1.692,0,0,1,1.118.107c1.228,1.271,2.5,2.5,3.734,3.763a.346.346,0,0,1,.106.2,2.389,2.389,0,0,1-.907.191" transform="translate(-211.533 -306.244)" fill="#fe3700"/>
    <path id="Path_2160" data-name="Path 2160" d="M124.688,262.355a1.56,1.56,0,0,1,.513.376q5.251,5.255,10.506,10.506a1.567,1.567,0,0,1,.376.512l-.369-.013a.136.136,0,0,1-.09-.076c0-.195-.156-.29-.272-.405q-5.087-5.091-10.176-10.18a1.647,1.647,0,0,0-.476-.35l-.013-.37" transform="translate(-113.197 -238.178)" fill="#fe4a00"/>
    <path id="Path_2161" data-name="Path 2161" d="M189.206,137.831a2.735,2.735,0,0,1,.84-.453c.112-.058.168.03.228.092.875.92,1.795,1.8,2.68,2.7.151.155.383.307.167.578a1.352,1.352,0,0,1-.825.274,2.385,2.385,0,0,1-.648-.569q-1.042-1.027-2.071-2.069c-.158-.16-.35-.3-.371-.557" transform="translate(-171.77 -124.701)" fill="#fd0119"/>
    <path id="Path_2162" data-name="Path 2162" d="M159.292,159.925a2.647,2.647,0,0,1,.632-.631c.165-.066.26.054.353.146q1.253,1.238,2.491,2.49a.5.5,0,0,1,.174.313,1.065,1.065,0,0,1-.7.685c-.188,0-.3-.14-.415-.257q-1.167-1.16-2.326-2.329c-.11-.112-.278-.21-.209-.418" transform="translate(-144.597 -144.598)" fill="#fe0201"/>
    <path id="Path_2163" data-name="Path 2163" d="M378.749,89.041a2.062,2.062,0,0,1,1.039-.259,1.965,1.965,0,0,1,.5.392q1.018,1.026,2.044,2.044a1.922,1.922,0,0,1,.392.5,2.112,2.112,0,0,1-.259,1.037.553.553,0,0,1-.3-.2q-1.611-1.606-3.217-3.216a.561.561,0,0,1-.2-.3" transform="translate(-343.846 -80.6)" fill="#e8008c"/>
    <path id="Path_2164" data-name="Path 2164" d="M250.147,343.406c-1.04-.913-1.97-1.939-2.956-2.907a3.281,3.281,0,0,1-.833-.955.233.233,0,0,1,.2-.074c.278.063.567,0,.844.073a1.323,1.323,0,0,1,.457.369q1.613,1.609,3.222,3.222a2.821,2.821,0,0,1-.931.272" transform="translate(-223.655 -308.186)" fill="#fe3100"/>
    <path id="Path_2165" data-name="Path 2165" d="M138.5,314.259a1.331,1.331,0,0,1,.519.366q2.223,2.229,4.452,4.452a1.4,1.4,0,0,1,.369.518,11.32,11.32,0,0,1-4.284-3.575,7.352,7.352,0,0,1-1.057-1.76" transform="translate(-125.737 -285.299)" fill="#fe6000"/>
    <path id="Path_2166" data-name="Path 2166" d="M201.367,137.31c.131-.224-.087-.3-.19-.4q-1.423-1.457-2.858-2.9a2.433,2.433,0,0,1,.84-.361c.975.99,1.953,1.978,2.923,2.974.129.132.392.267.113.5a.718.718,0,0,1-.828.188" transform="translate(-180.044 -121.328)" fill="#fd011f"/>
    <path id="Path_2167" data-name="Path 2167" d="M232.885,125.546a.72.72,0,0,1,.6.262c1.378,1.39,2.766,2.77,4.146,4.158.123.123.346.224.214.472a2.121,2.121,0,0,1-1.215-.4,2.368,2.368,0,0,0-.429-.531q-1.685-1.681-3.365-3.369c-.184-.185-.4-.325-.589-.5a1.213,1.213,0,0,1,.637-.1" transform="translate(-210.845 -113.974)" fill="#fd0034"/>
    <path id="Path_2168" data-name="Path 2168" d="M336.827,269.736c.135-.1.241-.069.357.048q1.45,1.46,2.909,2.913a.439.439,0,0,1,.132.283,1.557,1.557,0,0,1-.278.621c-.2.128-.318-.028-.43-.138-.984-.976-1.97-1.949-2.94-2.94a.962.962,0,0,1,.251-.786" transform="translate(-305.558 -244.823)" fill="#fd011e"/>
    <path id="Path_2169" data-name="Path 2169" d="M327.4,299.54a2.555,2.555,0,0,1-.55.736c-.193-.044-.3-.206-.425-.333q-1.056-1.048-2.1-2.1a3.665,3.665,0,0,0-.554-.467,1.222,1.222,0,0,1,.567-.862c.23-.037.366.118.505.256q1.181,1.172,2.353,2.355c.111.112.276.211.208.418" transform="translate(-293.934 -269.181)" fill="#fe010d"/>
    <path id="Path_2170" data-name="Path 2170" d="M372.665,91.6a20.778,20.778,0,0,1,1.739,1.687c.667.669,1.377,1.3,1.979,2.029A1.077,1.077,0,0,1,376,95.9c-1.3-1.327-2.591-2.661-3.949-3.928a1.366,1.366,0,0,1,.618-.381" transform="translate(-337.761 -83.154)" fill="#e90088"/>
    <path id="Path_2171" data-name="Path 2171" d="M173.264,147.946A2.5,2.5,0,0,1,174,147.4a.667.667,0,0,1,.331.234q1.167,1.164,2.33,2.332c.16.161.342.322.245.593-.215.23-.411.489-.773.485-.869-.89-1.758-1.761-2.631-2.648-.118-.12-.311-.218-.238-.447" transform="translate(-157.282 -133.815)" fill="#fe010c"/>
    <path id="Path_2172" data-name="Path 2172" d="M227.815,126.594a.54.54,0,0,1,.44.2q1.889,1.9,3.785,3.789c.1.1.207.186.2.343a1.3,1.3,0,0,1-1.22-.268c.129-.2-.086-.254-.169-.338q-1.418-1.438-2.853-2.858a3.622,3.622,0,0,1-.632-.779.67.67,0,0,1,.45-.088" transform="translate(-206.412 -114.927)" fill="#fd0030"/>
    <path id="Path_2173" data-name="Path 2173" d="M333.874,279.312c.194.006.286.162.4.278.823.818,1.641,1.641,2.464,2.46.127.126.228.3.441.3a2.705,2.705,0,0,1-.455.85.585.585,0,0,1-.393-.212q-1.352-1.336-2.687-2.689a.46.46,0,0,1-.117-.195c.027-.3.037-.612.345-.791" transform="translate(-302.793 -253.572)" fill="#fd0119"/>
    <path id="Path_2174" data-name="Path 2174" d="M315.985,314.663a2.033,2.033,0,0,1-.535.54c-.214.1-.346-.04-.474-.167q-1.181-1.169-2.35-2.35a.543.543,0,0,1-.216-.433.951.951,0,0,1,.611-.608c.205.012.321.164.45.292q1.14,1.133,2.271,2.274c.12.122.311.222.243.452" transform="translate(-283.619 -282.926)" fill="#fe0201"/>
    <path id="Path_2175" data-name="Path 2175" d="M362.536,102.668c.774.652,1.444,1.41,2.165,2.116.579.568,1.138,1.155,1.706,1.734a1.773,1.773,0,0,1-.825.373q-1.616-1.776-3.392-3.391a1.666,1.666,0,0,1,.345-.833" transform="translate(-328.814 -93.207)" fill="#ed007e"/>
    <path id="Path_2176" data-name="Path 2176" d="M184.276,146.063c.033-.235-.144-.352-.278-.492-.851-.888-1.776-1.7-2.58-2.638a2.129,2.129,0,0,1,.718-.453q1.364,1.381,2.728,2.763c.117.119.222.249.332.374a1.024,1.024,0,0,1-.92.446" transform="translate(-164.7 -129.35)" fill="#fe0113"/>
    <path id="Path_2177" data-name="Path 2177" d="M335.788,221.27a.636.636,0,0,0-.157-.45c-1.292-1.263-2.566-2.544-3.851-3.814-.1-.1-.175-.324-.4-.193a2.037,2.037,0,0,1-.5-1.279c.239-.02.344.176.479.31,1.352,1.346,2.7,2.7,4.052,4.044.231.229.568.386.468.8a1.012,1.012,0,0,1-.088.579" transform="translate(-300.386 -195.67)" fill="#fd0135"/>
    <path id="Path_2178" data-name="Path 2178" d="M322.024,309.419c-.939-1.038-1.932-2.022-2.963-2.968.034-.28.136-.5.453-.554a.239.239,0,0,1,.288.044c.914.956,1.907,1.835,2.776,2.836a2.232,2.232,0,0,1-.553.643" transform="translate(-289.658 -277.682)" fill="#fe0106"/>
    <path id="Path_2179" data-name="Path 2179" d="M153.8,166.328c.928,1.04,1.935,2,2.94,2.964a.618.618,0,0,1-.433.627.519.519,0,0,1-.494-.175q-1.224-1.2-2.424-2.423c-.092-.093-.211-.189-.142-.354.1-.285.354-.44.553-.64" transform="translate(-139.103 -151)" fill="#fe0800"/>
    <path id="Path_2180" data-name="Path 2180" d="M330.114,288.229c.766.637,1.416,1.394,2.135,2.079.342.326.68.657,1.02.985a2.3,2.3,0,0,1-.463.732c-.887-1.018-1.89-1.922-2.837-2.882-.057-.058-.164-.066-.248-.1a.906.906,0,0,1,.393-.818" transform="translate(-299.336 -261.667)" fill="#fe0113"/>
    <path id="Path_2181" data-name="Path 2181" d="M322.988,145.372a1.418,1.418,0,0,1-.676-.443q-1.883-1.881-3.766-3.764a.927.927,0,0,1-.341-.577,11.356,11.356,0,0,1,4.783,4.784" transform="translate(-288.881 -127.632)" fill="#fc0053"/>
    <path id="Path_2182" data-name="Path 2182" d="M144.2,180.112a1.755,1.755,0,0,1,.366-.556.392.392,0,0,1,.234.133q1.366,1.354,2.719,2.721a.45.45,0,0,1,.117.194.834.834,0,0,1-.386.677.669.669,0,0,1-.514-.255q-1.171-1.152-2.322-2.324c-.153-.156-.343-.321-.215-.59" transform="translate(-130.877 -163.009)" fill="#fe1500"/>
    <path id="Path_2183" data-name="Path 2183" d="M166.963,153.348c.792.928,1.711,1.732,2.551,2.613.123.129.3.224.309.434a.512.512,0,0,1-.548.48c-.946-1.03-1.93-2.023-2.967-2.962a2.369,2.369,0,0,1,.656-.565" transform="translate(-150.981 -139.216)" fill="#fe0106"/>
    <path id="Path_2184" data-name="Path 2184" d="M278.531,338.725a2.087,2.087,0,0,1-.733.369c-.221.115-.345-.052-.47-.175q-1.307-1.293-2.6-2.6c-.15-.152-.311-.314-.177-.562a.87.87,0,0,1,.634-.215,1.172,1.172,0,0,1,.424.341c.8.8,1.6,1.6,2.4,2.4.162.165.365.275.524.441" transform="translate(-249.204 -304.618)" fill="#fe2100"/>
    <path id="Path_2185" data-name="Path 2185" d="M136.187,194.9a1.2,1.2,0,0,1,.27-.548c.227-.06.326.127.448.247.946.934,1.878,1.881,2.828,2.811.072.273-.1.478-.192.708-.21.17-.378.045-.522-.1q-1.376-1.344-2.722-2.72c-.106-.108-.211-.231-.111-.4" transform="translate(-123.6 -176.434)" fill="#fe2100"/>
    <path id="Path_2186" data-name="Path 2186" d="M142.735,189.445c-.212-.008-.308-.185-.437-.308-.937-.9-1.807-1.868-2.782-2.729a2.638,2.638,0,0,1,.47-.818.838.838,0,0,0,.28.507q1.164,1.161,2.324,2.326a1.358,1.358,0,0,0,.454.3c.119.337-.075.54-.309.726" transform="translate(-126.659 -168.486)" fill="#fe1a00"/>
    <path id="Path_2187" data-name="Path 2187" d="M285.591,336a.481.481,0,0,1-.4-.167q-1.453-1.476-2.912-2.946a.8.8,0,0,1,.788-.348c.766.76,1.524,1.528,2.287,2.29a8.837,8.837,0,0,0,.872.8,1.841,1.841,0,0,1-.632.371" transform="translate(-256.264 -301.895)" fill="#fe1b00"/>
    <path id="Path_2188" data-name="Path 2188" d="M361.067,111.667a.5.5,0,0,1,.432.21q1.372,1.377,2.75,2.75a.5.5,0,0,1,.21.431,1.885,1.885,0,0,1-1.222.023c.13-.1.207-.188.043-.349q-.955-.94-1.894-1.894c-.169-.172-.244-.067-.341.053a1.876,1.876,0,0,1,.022-1.223" transform="translate(-327.689 -101.373)" fill="#ef0079"/>
    <path id="Path_2189" data-name="Path 2189" d="M130.813,231.875c-.111.177-.2.059-.288-.024q-1.928-1.925-3.85-3.857a.766.766,0,0,1-.108-.244.7.7,0,0,1,.09-.46c.258.012.4.209.557.367q1.477,1.468,2.946,2.945a1.347,1.347,0,0,0,.56.38,1.237,1.237,0,0,1,.093.893" transform="translate(-114.903 -206.344)" fill="#fe3800"/>
    <path id="Path_2190" data-name="Path 2190" d="M151.61,176.881c-1.03-.987-2.052-1.982-3.019-3.033a1.922,1.922,0,0,1,.448-.579c.848.984,1.82,1.847,2.722,2.779a.452.452,0,0,0,.34.1c.045.384-.23.552-.491.729" transform="translate(-134.898 -157.302)" fill="#fe0f00"/>
    <path id="Path_2191" data-name="Path 2191" d="M129.286,213.749a1.069,1.069,0,0,1,.175-.563.34.34,0,0,1,.2.107c1.133,1.125,2.267,2.25,3.389,3.387a1.532,1.532,0,0,1,0,.778c-.257.231-.38-.039-.506-.162-.744-.722-1.472-1.462-2.2-2.195-.28-.28-.565-.556-.839-.843-.132-.139-.307-.27-.208-.508" transform="translate(-117.345 -193.54)" fill="#fe3000"/>
    <path id="Path_2192" data-name="Path 2192" d="M392.963,91.643q-1.523-1.416-2.938-2.939a2.726,2.726,0,0,1,2.938,2.939" transform="translate(-354.083 -80.522)" fill="#e60093"/>
    <path id="Path_2193" data-name="Path 2193" d="M261.961,342.75c-.088-.021-.2-.013-.258-.068q-1.685-1.709-3.357-3.43c.092-.129.243-.133.374-.18a.687.687,0,0,1,.413.014c1.047,1.062,2.107,2.111,3.158,3.169a.543.543,0,0,1,.2.3,1.075,1.075,0,0,1-.526.2" transform="translate(-234.538 -307.802)" fill="#fe2b00"/>
    <path id="Path_2194" data-name="Path 2194" d="M134.978,211.384a.378.378,0,0,1-.275-.141q-1.564-1.567-3.128-3.133a.876.876,0,0,1-.1-.151,1,1,0,0,1,.2-.531,1.265,1.265,0,0,1,.63.435c.738.732,1.477,1.464,2.2,2.207a1.334,1.334,0,0,0,.71.432,1.367,1.367,0,0,1-.063.67.348.348,0,0,1-.173.213" transform="translate(-119.36 -188.312)" fill="#fe2a00"/>
    <path id="Path_2195" data-name="Path 2195" d="M127.745,219.3a.752.752,0,0,0,.106.244q1.781,1.774,3.571,3.539a.353.353,0,0,1,.17.216.406.406,0,0,1-.06.4c-.245.243-.318-.063-.414-.156-1.016-1-2.017-2.007-3.025-3.011-.172-.171-.356-.331-.535-.5a1.672,1.672,0,0,1,.186-.736" transform="translate(-115.804 -199.09)" fill="#fe3400"/>
    <path id="Path_2196" data-name="Path 2196" d="M294.29,332.4a.463.463,0,0,1-.4-.174q-1.263-1.27-2.531-2.533a.5.5,0,0,1-.195-.35.658.658,0,0,1,.659-.362c.757.974,1.714,1.756,2.548,2.656.134.144.369.243.3.511a.823.823,0,0,1-.383.253" transform="translate(-264.33 -298.663)" fill="#fe1500"/>
    <path id="Path_2197" data-name="Path 2197" d="M270.62,341.188c-1.128-1.021-2.165-2.134-3.242-3.207-.047-.047-.05-.138-.074-.209a.563.563,0,0,1,.736-.158.467.467,0,0,0,.182.4q1.368,1.362,2.73,2.729a.439.439,0,0,0,.313.17,1.494,1.494,0,0,1-.645.276" transform="translate(-242.671 -306.436)" fill="#fe2600"/>
    <path id="Path_2198" data-name="Path 2198" d="M301.014,329.358c-.8-.931-1.718-1.742-2.566-2.624-.148-.154-.329-.286-.3-.537.054-.255.251-.283.461-.289.874.89,1.761,1.767,2.641,2.651a.743.743,0,0,1,.278.406,1.247,1.247,0,0,1-.517.393" transform="translate(-270.672 -295.874)" fill="#fe1000"/>
    <path id="Path_2199" data-name="Path 2199" d="M137.077,204.1c-.152.254-.279.122-.419-.019q-1.131-1.138-2.269-2.269c-.258-.256-.527-.5-.791-.75a1.552,1.552,0,0,1,.275-.647.44.44,0,0,0,.17.313q1.365,1.364,2.728,2.73a.467.467,0,0,0,.4.182c.133.186.055.33-.093.46" transform="translate(-121.285 -181.942)" fill="#fe2600"/>
    <path id="Path_2200" data-name="Path 2200" d="M306.109,325.367l-2.753-2.728a.432.432,0,0,1-.167-.312c.027-.281.229-.35.462-.382.876.891,1.766,1.77,2.646,2.657.116.117.261.217.29.4-.1.194-.324.238-.479.367" transform="translate(-275.25 -292.276)" fill="#fe0c00"/>
    <path id="Path_2201" data-name="Path 2201" d="M311.175,321.5q-1.425-1.406-2.848-2.816a.6.6,0,0,1-.085-.2c.013-.29.21-.367.453-.393a.487.487,0,0,0,.2.345q1.213,1.212,2.425,2.425a.509.509,0,0,0,.349.194,1.625,1.625,0,0,1-.493.447" transform="translate(-279.837 -288.771)" fill="#fe0700"/>
    <path id="Path_2202" data-name="Path 2202" d="M361.949,121.77c.044-.1-.059-.268.09-.318.1-.035.2.061.273.137l2.008,2.008c.076.076.172.17.138.273-.05.15-.213.047-.317.09a2.653,2.653,0,0,1-2.192-2.19" transform="translate(-328.594 -110.253)" fill="#f10175"/>
    <path id="Path_2203" data-name="Path 2203" d="M239.552,385.038l.09.076a.77.77,0,0,1-.477-.068l.387-.008" transform="translate(-217.125 -349.555)" fill="#fe4f00"/>
    <path id="Path_2204" data-name="Path 2204" d="M248.378,340.34h1.282c-.1.115-.242.061-.364.086-.3-.053-.624.072-.919-.085" transform="translate(-225.489 -308.976)" fill="#fe3700"/>
    <path id="Path_2205" data-name="Path 2205" d="M169.559,248.4q0,.641,0,1.283l-.08-.182q0-.46,0-.92l.081-.181" transform="translate(-153.86 -225.513)" fill="#fe3800"/>
  </g>
</svg>
