<svg id="Group_1266" data-name="Group 1266" xmlns="http://www.w3.org/2000/svg" xmlns:xlink="http://www.w3.org/1999/xlink" width="34.129" height="39.517" viewBox="0 0 34.129 39.517">
  <defs>
    <clipPath id="clip-path">
      <rect id="Rectangle_625" data-name="Rectangle 625" width="34.129" height="39.517" fill="none"/>
    </clipPath>
  </defs>
  <g id="Group_1265" data-name="Group 1265" clip-path="url(#clip-path)">
    <path id="Path_2211" data-name="Path 2211" d="M60.289,257.1H48.327a.553.553,0,0,1-.12-.394c0-1.855-.014-3.711.005-5.566a.7.7,0,0,1,.023-.15c.053-.205.186-.17.326-.1a.531.531,0,0,0,.548-.032.47.47,0,0,0,.238-.587.5.5,0,0,0-.6-.278c-.162.032-.34.26-.5-.016a14.667,14.667,0,0,1,0-2.436c.07-.18.246-.216.4-.277q1.87-.769,3.744-1.525c2.462-1,4.919-2.011,7.386-3,.182-.073.392-.256.584,0a13.066,13.066,0,0,1,.009,2.37c-.055.165-.2.222-.342.283a6.163,6.163,0,0,0-.6.254.488.488,0,0,0-.267.64.461.461,0,0,0,.616.236c.1-.028.193-.069.292-.1a.22.22,0,0,1,.307.145,1.6,1.6,0,0,1,.041.46q0,4.74,0,9.48a.818.818,0,0,1-.124.588" transform="translate(-43.227 -217.582)" fill="#685e68"/>
    <path id="Path_2212" data-name="Path 2212" d="M165.31,256.764q0-5.319,0-10.638l.036-.04c.164-.047.3.058.439.1.337.1.575.01.67-.251a.517.517,0,0,0-.323-.651,5.06,5.06,0,0,1-.8-.364l-.025-.048-.005-2.546a.061.061,0,0,1,.035-.094,2.432,2.432,0,0,1,.83.29c2.771,1.1,5.523,2.25,8.29,3.363a1.017,1.017,0,0,1,.47.252.428.428,0,0,1,.045.125,18.728,18.728,0,0,1-.016,2.371c-.072.2-.22.131-.353.1a1.869,1.869,0,0,0-.369-.1.452.452,0,0,0-.494.287.434.434,0,0,0,.152.517,2.08,2.08,0,0,0,.656.315c.181.07.369.128.421.353a6.1,6.1,0,0,1,.031,1q0,2.521,0,5.042a.879.879,0,0,1-.123.626Z" transform="translate(-148.247 -217.247)" fill="#554e56"/>
    <path id="Path_2213" data-name="Path 2213" d="M17.083,234.04a1.036,1.036,0,0,1-.624-1.072c.012-3.965.007-7.93.008-11.895a.617.617,0,0,1,.469-.12c.192-.007.384,0,.576,0,.6,0,.606,0,.607-.59,0-.96,0-1.921,0-2.881a.926.926,0,0,1,.094-.559.09.09,0,0,1,.132,0,.641.641,0,0,1,.093.4c0,1.277.015,2.553-.006,3.83.025.963.009,1.927.01,2.891q0,4.664,0,9.328a.938.938,0,0,1-.124.665Z" transform="translate(-14.761 -194.522)" fill="#f2e9e5"/>
    <path id="Path_2214" data-name="Path 2214" d="M258.211,290.767q0-3.4,0-6.793a.261.261,0,0,1,.074-.086c.548-.416.549-.614,0-1.038a.177.177,0,0,1-.076-.126l0-2.526c.109-.1.22-.04.324,0q.942.392,1.89.77a.4.4,0,0,1,.253.222,14.784,14.784,0,0,1,.008,2.44c-.028.075-.068.137-.163.131a.668.668,0,0,1-.221-.062.5.5,0,0,0-.658.132.39.39,0,0,0-.028.47.583.583,0,0,0,.656.291c.157-.032.333-.13.418.113a1.678,1.678,0,0,1,.038.46q0,2.5,0,5.01a.82.82,0,0,1-.123.589Z" transform="translate(-231.578 -251.25)" fill="#433f43"/>
    <path id="Path_2215" data-name="Path 2215" d="M280.3,227.023q0-1.316,0-2.633a.618.618,0,0,1-.124-.433c0-1.319-.016-2.639.008-3.958-.018-.876-.007-1.753-.007-2.63a.777.777,0,0,1,.085-.443.1.1,0,0,1,.13-.025.837.837,0,0,1,.1.554c0,.987,0,1.974,0,2.96,0,.5.026.511.516.532.339.014.694-.09,1.013.114a.822.822,0,0,1,.077.486q0,5.985,0,11.971a.7.7,0,0,1-.108.514h-1.7q0-3.108,0-6.217a.7.7,0,0,1,0-.792" transform="translate(-251.275 -194.515)" fill="#f2e9e5"/>
    <path id="Path_2216" data-name="Path 2216" d="M299.857,256.917c0,3.995,0,7.989.011,11.984a1.107,1.107,0,0,1-.548.9H298.24a.717.717,0,0,1-.036-.378q0-6.057,0-12.114c0-.471.033-.525.491-.515.389.008.8-.116,1.164.119" transform="translate(-267.439 -230.288)" fill="#e0d2cd"/>
    <path id="Path_2217" data-name="Path 2217" d="M34.481,234.038q0-6.445,0-12.889c.25-.19.542-.11.817-.119.5-.015.525-.029.527-.518,0-1.01,0-2.021,0-3.032a.937.937,0,0,1,.092-.559.09.09,0,0,1,.132,0,.7.7,0,0,1,.095.44c0,.879.014,1.758-.007,2.637.025,1.323.007,2.645.009,3.968a.641.641,0,0,1-.121.436q0,1.312,0,2.624a.706.706,0,0,1,.006.79q0,3.112-.008,6.224Z" transform="translate(-30.924 -194.52)" fill="#e0d2cd"/>
    <path id="Path_2218" data-name="Path 2218" d="M299.565,220.151c-.449,0-.9,0-1.347,0-.2,0-.289.067-.271.268.007.076,0,.154,0,.231v12.393h-.077q0-6.483,0-12.966a5.206,5.206,0,0,1,.876-1.053,1.472,1.472,0,0,0,.407-1.039q-.01-.825,0-1.651c0-.173-.031-.366.154-.487a3.084,3.084,0,0,1,1.574.074c0,.766-.011,1.533,0,2.3a1.084,1.084,0,0,1-.355.852,11.61,11.61,0,0,0-.965,1.082" transform="translate(-267.146 -193.521)" fill="#eee1dc"/>
    <path id="Path_2219" data-name="Path 2219" d="M48.4,169.735q-.009-1.553-.017-3.105a.952.952,0,0,1,.158-1.1,6.692,6.692,0,0,1,1.651-.636c.859-.255,1.667-.643,2.5-.976,2.442-.981,4.875-1.984,7.312-2.975.115-.047.227-.129.365-.085a.747.747,0,0,1,.118.546c0,1.147,0,2.294.006,3.44a.222.222,0,0,1-.051.12c-.6.268-1.209.5-1.816.745q-4.841,1.961-9.677,3.934c-.172.07-.342.2-.547.092" transform="translate(-43.3 -144.256)" fill="#685e68"/>
    <path id="Path_2220" data-name="Path 2220" d="M165.489,165.035a.691.691,0,0,1-.078-.446q0-1.81,0-3.621a9.7,9.7,0,0,1,1.608.609q3.983,1.612,7.959,3.242a.677.677,0,0,1,.116.4c.008,1.131.014,2.262,0,3.393a.6.6,0,0,1-.036.188c-.154.256-.347.083-.5.023-1.127-.43-2.239-.9-3.357-1.354q-2.639-1.075-5.281-2.144c-.158-.064-.361-.082-.424-.291" transform="translate(-148.348 -144.366)" fill="#554e56"/>
    <path id="Path_2221" data-name="Path 2221" d="M266.855,98.667c0-1.859-.041-3.719.015-5.577a1.773,1.773,0,0,0-.629-1.543,1.976,1.976,0,0,1-.712-1.838c.04-.535.006-1.076.005-1.615.117-.137.279-.115.431-.115,1.286,0,2.572-.006,3.858,0,.438,0,.528.085.539.512a2.363,2.363,0,0,1-.06.916c-.087.14-.2.076-.3.028a.465.465,0,0,0-.623.118.833.833,0,0,0-.053.81c.082.232.3.252.516.237a1.491,1.491,0,0,1,.23-.016c.276.127.165.334.045.462a11.663,11.663,0,0,1-1.2,1.268.559.559,0,0,1-.129.04c-.411.042-.822.014-1.233.022-.466.009-.507.041-.508.508,0,1.709,0,3.419,0,5.128a1.338,1.338,0,0,1-.068.607.1.1,0,0,1-.123.049" transform="translate(-238.132 -78.901)" fill="#f8f2f0"/>
    <path id="Path_2222" data-name="Path 2222" d="M5.085,92.252c-.312-.4-.711-.728-1.03-1.13a1.16,1.16,0,0,1-.284-.763c0-.755,0-1.51,0-2.265a.442.442,0,0,1,.389-.116q1.919-.007,3.839,0c.425,0,.513.09.525.523a2.049,2.049,0,0,1-.062.834c-.089.141-.218.106-.342.067a.459.459,0,0,0-.6.192.758.758,0,0,0,.022.8.457.457,0,0,0,.613.15.586.586,0,0,1,.149-.037c.317.151.123.365.017.493a7.239,7.239,0,0,1-1.23,1.3.535.535,0,0,1-.126.041c-.507.043-1.014.018-1.521.018a.5.5,0,0,1-.354-.113" transform="translate(-3.38 -78.899)" fill="#f8f2f0"/>
    <path id="Path_2223" data-name="Path 2223" d="M16.529,129.458h2.007a.66.66,0,0,1,.123.51q.006,2.682,0,5.363c0,.576-.072.638-.648.641-.347,0-.694,0-1.042,0a.592.592,0,0,1-.438-.106q0-3.2,0-6.408" transform="translate(-14.824 -116.105)" fill="#f2e9e5"/>
    <path id="Path_2224" data-name="Path 2224" d="M.162,65.067A2.513,2.513,0,0,1,.089,63.5c.021-.144.183-.2.307-.269l1.317-.7a.531.531,0,0,1,.459-.141c.511,0,1.023-.014,1.534.006.4-.018.8-.007,1.193-.007a.651.651,0,0,1,.438.112l.076.083c-.345.216-.726.072-1.089.107a1.576,1.576,0,0,1-.243-.035,3.418,3.418,0,0,1,1.249.681.632.632,0,0,1,.181.454c.009.218.006.437.005.655,0,.5,0,.489.513.5.261.008.542-.084.779.111l-.091.064a2.358,2.358,0,0,1-1.538.057,2.82,2.82,0,0,0-.558-.089q-2.021,0-4.042,0a1.016,1.016,0,0,1-.418-.03" transform="translate(0 -55.954)" fill="#22b17f"/>
    <path id="Path_2225" data-name="Path 2225" d="M267.935,62.518a.141.141,0,0,1,.029.061c-.4.251-.831.084-1.2.105.307.127.631.33.967.511a.586.586,0,0,1,.309.541c.007.27.006.539,0,.809,0,.411,0,.4.425.414.312.013.643-.1.934.108l-.157.073a2.224,2.224,0,0,1-1.462.053,2.559,2.559,0,0,0-.558-.09q-2.02,0-4.041,0a1.119,1.119,0,0,1-.419-.027c-.232-.151-.158-.389-.156-.6.009-1.219-.159-.951.923-1.532l.778-.415a.536.536,0,0,1,.426-.133c.523,0,1.047-.014,1.57.006.4-.018.795-.007,1.192-.006a.6.6,0,0,1,.434.121" transform="translate(-235.514 -55.957)" fill="#22b17f"/>
    <path id="Path_2226" data-name="Path 2226" d="M6.834,215.9c0,1.253-.009,2.506.006,3.759,0,.308-.068.436-.4.417-.459-.027-.92-.007-1.38-.007-.358-.382-.723-.758-1.073-1.147a1.022,1.022,0,0,1-.246-.745c.017-.758.006-1.517.006-2.276a.5.5,0,0,1,.392-.12q1.152-.012,2.3,0a.5.5,0,0,1,.392.12" transform="translate(-3.355 -193.523)" fill="#f8f2f0"/>
    <path id="Path_2227" data-name="Path 2227" d="M3.651,194.486H.564c-.285-.035-.376-.2-.372-.48.021-1.446-.152-1.1,1-1.726.225-.122.454-.238.681-.356.66-.055,1.322,0,1.982-.028a5.855,5.855,0,0,1,1.468.732.536.536,0,0,1,.177.776c-.376.29-.182.712-.249,1.073a.176.176,0,0,0-.061.014,1.969,1.969,0,0,1-1.464-.007H3.651" transform="translate(-0.172 -172.104)" fill="#22b17f"/>
    <path id="Path_2228" data-name="Path 2228" d="M18.6,134.71l-2.083-.012a.343.343,0,0,1,0-.061c.54,0,1.081-.018,1.62,0,.308.013.392-.088.391-.392-.012-2.006-.006-4.013-.006-6.02h0a2.746,2.746,0,0,1,1.437-.093c.256.016.219.238.219.416q0,2.832,0,5.664a.928.928,0,0,0,.033.418c0,.022,0,.043,0,.065a2.236,2.236,0,0,1-1.621.009" transform="translate(-14.814 -114.877)" fill="#e0d2cd"/>
    <path id="Path_2229" data-name="Path 2229" d="M299.148,128.193l-.011,6.43a3.8,3.8,0,0,1-1.576.028.248.248,0,0,1-.1-.111,1.3,1.3,0,0,1-.055-.493q0-2.634,0-5.267a.82.82,0,0,1,.123-.587h0a2.322,2.322,0,0,1,1.617,0" transform="translate(-266.73 -114.84)" fill="#e0d2cd"/>
    <path id="Path_2230" data-name="Path 2230" d="M267.246,191.24l1.59.006c.007.017.013.034.019.051a2.38,2.38,0,0,1-1.288.075,7.606,7.606,0,0,1,1,.483.7.7,0,0,1,.4.688c-.008.256,0,.514,0,.77s.108.35.35.344c.218,0,.437-.005.655,0,.151,0,.312-.017.433.112-.051.1-.154.063-.234.089l-1.624-.013a.554.554,0,0,1-.393.12q-1.128.01-2.256,0a.524.524,0,0,1-.358-.109.2.2,0,0,0-.058-.017c-.167-.118-.122-.3-.118-.457a.584.584,0,0,0-.387-.6c-.337-.156-.687-.278-1.027-.427-.125-.055-.276-.079-.325-.24l1.529-.83a1.554,1.554,0,0,1,.831-.094,5.882,5.882,0,0,1,1.266.045" transform="translate(-236.429 -171.464)" fill="#22b17f"/>
    <path id="Path_2231" data-name="Path 2231" d="M258.751,198.509c.425.173.844.364,1.277.516a.721.721,0,0,1,.568.861,1.9,1.9,0,0,0,.011.344q-.012,1.552-.024,3.1a.212.212,0,0,1-.218.015c-.7-.29-1.43-.521-2.107-.873a.193.193,0,0,1-.059-.1l-.008-4.071.56.2" transform="translate(-231.56 -177.854)" fill="#433f43"/>
    <path id="Path_2232" data-name="Path 2232" d="M6.811,99c-.126-.13-.069-.293-.07-.441,0-1.861-.009-3.723,0-5.584,0-.309-.091-.4-.393-.387-.409.024-.821.007-1.232.007.353-.393.7-.789,1.061-1.178.138-.15.259-.3.179-.52a4.2,4.2,0,0,0-.015-1.154,2.677,2.677,0,0,0,.073-1.168c.007-.188-.181-.145-.3-.145q-2.161,0-4.322.006c-.08-.015-.173.008-.227-.081,1.343,0,2.686,0,4.028.009.843.007,1.685.036,2.528.055,0,.693-.006,1.385,0,2.078a1.315,1.315,0,0,1-.465,1.126A2.268,2.268,0,0,0,6.8,93.695c.067,1.767.018,3.539.016,5.309" transform="translate(-1.408 -79.245)" fill="#eee1dc"/>
    <path id="Path_2233" data-name="Path 2233" d="M269.4,92.618h-1.617a14.114,14.114,0,0,1,.991-1.118c.129-.128.35-.265.158-.509a3.022,3.022,0,0,0,.1-1.155,4.019,4.019,0,0,0,.051-1.215c0-.217-.188-.168-.318-.168q-2.192,0-4.383,0l-.148-.076c1.381,0,2.763,0,4.144.006.779.006,1.557.039,2.336.059,0,.694-.035,1.391.012,2.081a1.547,1.547,0,0,1-.531,1.257c-.27.274-.532.555-.8.833" transform="translate(-236.982 -79.266)" fill="#eee1dc"/>
    <path id="Path_2234" data-name="Path 2234" d="M19.226,3.548a5.292,5.292,0,0,1-.005-.539,1.1,1.1,0,0,0-.534-1.247A1.3,1.3,0,0,1,18.152.733a.613.613,0,0,1,.481-.724A.585.585,0,0,1,19.3.548c.056.294.188.527.515.521s.453-.221.494-.531a.572.572,0,0,1,.637-.531.583.583,0,0,1,.506.662,1.5,1.5,0,0,1-.775,1.3.5.5,0,0,0-.3.545c.017.346,0,.694,0,1.041a2.843,2.843,0,0,1-1.143,0" transform="translate(-16.273 -0.001)" fill="#fed05b"/>
    <path id="Path_2235" data-name="Path 2235" d="M281.749,3.55c0-.193-.016-.386,0-.578.033-.481.032-.894-.512-1.175a1.278,1.278,0,0,1-.563-1.128.588.588,0,0,1,.5-.663.571.571,0,0,1,.639.529c.041.31.17.526.492.534s.46-.225.517-.517a.587.587,0,0,1,.659-.543.62.62,0,0,1,.481.759A1.626,1.626,0,0,1,283.134,2a.4.4,0,0,0-.237.425c.011.372,0,.745,0,1.118a2.709,2.709,0,0,1-1.146.008" transform="translate(-251.72 0)" fill="#fed05b"/>
    <path id="Path_2236" data-name="Path 2236" d="M289.133,33.73a2.262,2.262,0,0,1,1.146-.008,1.975,1.975,0,0,1,1.249,2.138c-.023.292,0,.588,0,.881H289.9a.694.694,0,0,1-.1-.548,2.294,2.294,0,0,0-.851-2.206.183.183,0,0,1-.049-.1l.23-.155" transform="translate(-259.104 -30.18)" fill="#e0d2cd"/>
    <path id="Path_2237" data-name="Path 2237" d="M27.135,33.723a2.158,2.158,0,0,1,1.143,0,1.84,1.84,0,0,1,1.245,2.009c-.029.329,0,.662,0,.994l-1.625.014a1.96,1.96,0,0,1-.1-1.089,1.969,1.969,0,0,0-.363-1.227,2.048,2.048,0,0,0-.29-.305c-.094-.083-.209-.16-.171-.316l.164-.083" transform="translate(-24.183 -30.176)" fill="#e0d2cd"/>
    <path id="Path_2238" data-name="Path 2238" d="M17.5,35.19c.1.224.365.272.5.467a2.011,2.011,0,0,1,.431,1.279c-.024.4,0,.793,0,1.19l-2,.015a9.744,9.744,0,0,1,.025-1.61A1.924,1.924,0,0,1,17.5,35.19" transform="translate(-14.707 -31.56)" fill="#f2e9e5"/>
    <path id="Path_2239" data-name="Path 2239" d="M280.071,35.917a1.827,1.827,0,0,1,1,1.636c.019.406,0,.813,0,1.22-.667.05-1.334.028-2,.012,0-.473-.037-.948,0-1.418a1.543,1.543,0,0,1,1-1.451" transform="translate(-250.272 -32.212)" fill="#f2e9e5"/>
    <path id="Path_2240" data-name="Path 2240" d="M303.171,194.763c-.372,0-.746-.028-1.116.005s-.471-.118-.437-.458c.023-.229-.024-.466.011-.691a.65.65,0,0,0-.453-.741,6.128,6.128,0,0,1-1.016-.589h1.466a15.848,15.848,0,0,1,1.428.717.492.492,0,0,1,.145.124,2.39,2.39,0,0,1-.028,1.633" transform="translate(-269.201 -172.455)" fill="#09a66d"/>
    <path id="Path_2241" data-name="Path 2241" d="M303.73,66.686c-.384,0-.768-.019-1.151,0-.246.011-.364-.017-.327-.317.041-.328,0-.665.014-1a.489.489,0,0,0-.321-.508,5.929,5.929,0,0,1-1.072-.664h1.416c.454.229.91.456,1.362.69a.647.647,0,0,1,.2.171,2.953,2.953,0,0,1,.008,1.565c-.025.034-.087.041-.132.061" transform="translate(-269.839 -57.577)" fill="#0aa76d"/>
    <path id="Path_2242" data-name="Path 2242" d="M41.127,66.806c-.409,0-.818-.008-1.227-.01-.144,0-.23,0-.2-.211.043-.3,0-.614.032-.918a.712.712,0,0,0-.464-.754,6.723,6.723,0,0,1-1-.585h1.467l1.355.689a.285.285,0,0,1,.034.017c.331.229.335,1.576.006,1.771" transform="translate(-34.317 -57.693)" fill="#0aa76d"/>
    <path id="Path_2243" data-name="Path 2243" d="M36.715,192.2l1.621-.009,1.482.815a13.314,13.314,0,0,1-1.56.662.787.787,0,0,0-.532-.894,2.789,2.789,0,0,1-1.012-.574" transform="translate(-32.928 -172.369)" fill="#09a66d"/>
    <path id="Path_2244" data-name="Path 2244" d="M280.539,190.388a19.255,19.255,0,0,1-2.1.049.4.4,0,0,1,0-.06l.07-.012a.432.432,0,0,1,.316-.109,4.88,4.88,0,0,1,1.681.1l.027.029" transform="translate(-249.722 -170.611)" fill="#e0d2cd"/>
    <path id="Path_2245" data-name="Path 2245" d="M49.434,205.291q2.457-.988,4.913-1.976,3.345-1.355,6.686-2.716a.621.621,0,0,1,.364-.1.654.654,0,0,1,.125.469q.006,1.7,0,3.405a.624.624,0,0,1-.116.47.186.186,0,0,1-.011.05c-1.1.371-2.163.852-3.241,1.287q-4.252,1.718-8.5,3.452a1.89,1.89,0,0,1-.22.061q0-2.2,0-4.4" transform="translate(-44.335 -179.811)" fill="#fee077"/>
    <path id="Path_2246" data-name="Path 2246" d="M68.814,303.578c-.057.54-.5.591-.855.749-.288.13-.58.234-.85-.045a.548.548,0,0,1,.118-.884,4.461,4.461,0,0,1,.849-.357.574.574,0,0,1,.739.537" transform="translate(-60.032 -271.762)" fill="#fde076"/>
    <path id="Path_2247" data-name="Path 2247" d="M110.584,287.035a.549.549,0,0,1-.612-.379.523.523,0,0,1,.238-.666,4.4,4.4,0,0,1,.888-.353.519.519,0,0,1,.671.362.528.528,0,0,1-.306.7,3.645,3.645,0,0,1-.879.337" transform="translate(-98.598 -256.152)" fill="#fde076"/>
    <path id="Path_2248" data-name="Path 2248" d="M154.178,269.085c-.169.056-.337.115-.507.168a.559.559,0,0,1-.736-.3.549.549,0,0,1,.309-.762c.3-.138.62-.242.931-.36l-.008.026a1.33,1.33,0,0,1,0,1.2Z" transform="translate(-137.111 -240.205)" fill="#fddf76"/>
    <path id="Path_2249" data-name="Path 2249" d="M134.86,277.852a.592.592,0,0,1,.565.612.7.7,0,0,1-.729.6.586.586,0,0,1-.57-.565.736.736,0,0,1,.734-.649" transform="translate(-120.292 -249.193)" fill="#fddf76"/>
    <path id="Path_2250" data-name="Path 2250" d="M91.844,296.677a.542.542,0,0,1-.555-.595.677.677,0,0,1,.724-.591.577.577,0,0,1,.569.6.707.707,0,0,1-.738.588" transform="translate(-81.873 -265.013)" fill="#fde076"/>
    <path id="Path_2251" data-name="Path 2251" d="M49.473,313.858l-.006-.79c.089-.049.176-.1.267-.147a.574.574,0,0,1,.785.154.506.506,0,0,1,0,.671.672.672,0,0,1-.814.247,1.766,1.766,0,0,1-.229-.135" transform="translate(-44.365 -280.564)" fill="#fddf76"/>
    <path id="Path_2252" data-name="Path 2252" d="M165.425,204.754q0-2.172-.009-4.344l.079-.016,9.5,3.855-.007.027a.684.684,0,0,1,.126.508q0,1.668,0,3.337a.594.594,0,0,1-.135.5l-6.452-2.608q-1.55-.627-3.1-1.259" transform="translate(-148.354 -179.724)" fill="#fed05b"/>
    <path id="Path_2253" data-name="Path 2253" d="M258.1,242.379q0-2.172.01-4.345l2.392.929q0,2.2,0,4.395l-2.393-.926a.262.262,0,0,1-.012-.052" transform="translate(-231.479 -213.482)" fill="#fec244"/>
    <path id="Path_2254" data-name="Path 2254" d="M247.05,303.33c.081.039.163.076.242.117a.561.561,0,0,1,.338.559c-.024.35-.268.5-.582.575-.285-.109-.574-.208-.854-.329a.582.582,0,1,1,.427-1.075l.43.154" transform="translate(-220.415 -271.855)" fill="#fdd05b"/>
    <path id="Path_2255" data-name="Path 2255" d="M203.432,285.659a2.859,2.859,0,0,1,1.032.436.514.514,0,0,1,.133.663.52.52,0,0,1-.636.307,3.164,3.164,0,0,1-.919-.377.516.516,0,0,1-.223-.638.556.556,0,0,1,.612-.391" transform="translate(-181.871 -256.195)" fill="#fdd05b"/>
    <path id="Path_2256" data-name="Path 2256" d="M165.368,269.284q0-.6,0-1.2a2.885,2.885,0,0,1,1,.373.517.517,0,0,1,.237.724.531.531,0,0,1-.7.311c-.184-.055-.36-.135-.539-.2" transform="translate(-148.309 -240.429)" fill="#fdcf5b"/>
    <path id="Path_2257" data-name="Path 2257" d="M185.427,278.5a.585.585,0,0,1-.553.581.7.7,0,0,1-.745-.622.587.587,0,0,1,.547-.589.736.736,0,0,1,.751.63" transform="translate(-165.137 -249.206)" fill="#fdcf5b"/>
    <path id="Path_2258" data-name="Path 2258" d="M228.312,296.121a.546.546,0,0,1-.594.558.689.689,0,0,1-.7-.627.576.576,0,0,1,.607-.559.655.655,0,0,1,.686.629" transform="translate(-203.603 -265.014)" fill="#fdd05b"/>
    <path id="Path_2259" data-name="Path 2259" d="M34.482,216.823a11.474,11.474,0,0,1,1.464.007c0,1.285-.008,2.571.01,3.856,0,.31-.092.407-.394.388-.358-.023-.719-.005-1.079,0v-4.246" transform="translate(-30.925 -194.441)" fill="#eee1dc"/>
    <path id="Path_2260" data-name="Path 2260" d="M271.2,313.169q0,.4,0,.792a.71.71,0,0,1-.823.082.578.578,0,1,1,.48-1.052,3.657,3.657,0,0,1,.338.178" transform="translate(-242.179 -280.661)" fill="#fdcf5b"/>
    <path id="Path_2261" data-name="Path 2261" d="M282.1,216.816c1-.054,2-.034,3.007-.011,0,.731,0,1.462,0,2.194a1.2,1.2,0,0,1-.379.929,9.282,9.282,0,0,1-1.01,1.046c-.411,0-.823-.018-1.233,0-.3.016-.4-.074-.4-.386.018-1.259.008-2.517.008-3.776" transform="translate(-252.997 -194.422)" fill="#f8f2f0"/>
    <path id="Path_2262" data-name="Path 2262" d="M281.091,135.767l-2,.006c0-1.993.009-3.986-.007-5.979,0-.343.092-.447.433-.429.526.028,1.054.007,1.581.007q-.005,3.2-.01,6.4" transform="translate(-250.301 -116.02)" fill="#f2e9e5"/>
    <path id="Path_2263" data-name="Path 2263" d="M301.7,100.589a1,1,0,0,1-.1,1.155.623.623,0,0,1-.806-.106,1.138,1.138,0,0,1-.02-1.026c.235-.314.559-.322.928-.023" transform="translate(-269.651 -90.018)" fill="#fed05c"/>
    <path id="Path_2264" data-name="Path 2264" d="M281.4,101.016c.006-.436.233-.71.585-.706s.577.287.573.757-.221.728-.607.714-.557-.268-.551-.765" transform="translate(-252.371 -89.963)" fill="#fed05b"/>
    <path id="Path_2265" data-name="Path 2265" d="M39.11,100.452a1.054,1.054,0,0,1,.015,1.154c-.369.227-.639.219-.853-.026a.967.967,0,0,1-.015-1.071.585.585,0,0,1,.853-.058" transform="translate(-34.172 -89.95)" fill="#fed05b"/>
    <path id="Path_2266" data-name="Path 2266" d="M20.019,101.079c0,.481-.179.7-.568.7s-.59-.266-.59-.738c0-.431.229-.725.569-.733.373-.009.592.278.589.772" transform="translate(-16.916 -89.961)" fill="#fed05c"/>
  </g>
</svg>
