<svg xmlns="http://www.w3.org/2000/svg" xmlns:xlink="http://www.w3.org/1999/xlink" width="317.716" height="818.972" viewBox="0 0 317.716 818.972">
  <defs>
    <clipPath id="clip-path">
      <rect id="Rectangle_552" data-name="Rectangle 552" width="317.716" height="818.972" fill="none"/>
    </clipPath>
  </defs>
  <g id="Group_870" data-name="Group 870" transform="translate(0 0)" style="isolation: isolate">
    <g id="Group_869" data-name="Group 869" transform="translate(0 0)" clip-path="url(#clip-path)">
      <path id="Path_1899" data-name="Path 1899" d="M9.539,184.024S-1.62,161.366,25.767,137.045s81.867-52.586,88.9-65.814L135.022,91.87s-17.861,46.936-55.4,74.164S10.786,187.69,9.539,184.024" transform="translate(154.293 206.313)" fill="#ececec"/>
      <path id="Path_1900" data-name="Path 1900" d="M3.4,85.112c1.36-3.725,7.037-10.516,9.312-12.067s2.3,2.377.129,7.984-.378,4.847,2.026,3.663S24.2,74.226,24.2,74.226h0c4.278-5.572,9.32-15.815,9.78-10.138.409,5.03-4.609,13.166-6,15.317l1,1.375c.748-1.282,1.87-3.218,3.468-5.993,3.331-5.774,2.264-7.278,3.85-9.2.951-1.157,4.044.53,2.653,8.463a25.374,25.374,0,0,1-5.884,12.332l1.025,1.4c.721-1.243,1.691-2.922,2.961-5.12,3.331-5.771,2.264-7.278,3.85-9.2.951-1.157,4.044.53,2.653,8.463a25.393,25.393,0,0,1-5.272,11.6l.39.534c.674-.927,1.512-2.077,2.576-3.542C44.6,85.884,43.826,84.5,45.35,83c.912-.9,3.4.81,1.512,7.45a21.8,21.8,0,0,1-4.633,8.467l0,.008s-7.181,9.862-23.078,18.449L0,99.034s2.046-10.2,3.4-13.922" transform="translate(270.165 180.809)" fill="#cc8c60"/>
      <path id="Path_1901" data-name="Path 1901" d="M59.408,193.424s5.545,12.843,15.176,21.89,28.019,21.89,32.395,25.1a6.984,6.984,0,0,1,1.753,9.632c-1.169,1.461-12.55,5.256-17.514,6.713s-5.252,3.8-11.966,3.5-21.886-4.672-28.6-9.047-9.632-7.59-16.638-10.509S20.3,234.282,17.089,229.322s3.211-20.429,2.626-29.768,39.693-6.129,39.693-6.129" transform="translate(144.717 558.689)" fill="#d9d9d9"/>
      <path id="Path_1902" data-name="Path 1902" d="M107.03,215.1c1.169,2.042,4.38,13.427,9.632,22.182s13.131,11.674,14.884,17.8-5.545,9.34-8.463,8.463-8.467,1.749-16.053,1.749-15.761,3.8-22.182,0-10.212-12.546-11.966-19.26-9.5-13-14.3-23.347-1.749-14.3,3.8-20.433a63.769,63.769,0,0,0,8.463-11.674l35.313,1.753Z" transform="translate(-33.073 551.992)" fill="#d9d9d9"/>
      <path id="Path_1903" data-name="Path 1903" d="M18.363,373.878c2.217,2.443,5.412,4.586,10.859,6.725a.278.278,0,0,1,.113.039c1.243.526,2.63,1.013,4.173,1.5C48.8,387.259,78.04,393.08,137.414,404.5c67.232,12.928,103.005,16.31,117.06,17.214,5,.3,7.294.3,7.294.3v-.113c-.078-2.969-1.917-60.99-7.029-120.706-5.26-61.29-21.005-91.92-21.005-109.43s-16.649-36.79-20.144-51.67-1.73-52.539-8.868-92.824c-7.1-40.246-28.787-43.78-28.787-43.78-4.321-1.878-22.322-5.973-40.02-1.426h-.039c-10.072,2.517-20.031,7.89-27.357,18.075C88.373,48.179,82.248,136.6,82.248,136.6S66.5,153.214,66.5,166.364c0,13.115-12.25,31.53-23.639,74.409-1.991,7.477-4.021,16.419-6.047,26.079-9.511,45.584-18.453,107.026-18.453,107.026" transform="translate(-15.6 0)" fill="#fff"/>
      <path id="Path_1904" data-name="Path 1904" d="M146.826,75.7S137.7,92.344,96.363,99.861,27.109,75.165,27.109,69.8s35.43,9.125,68.717,5.365,44.559-25.767,51-23.62,4.707,18.82,0,24.158" transform="translate(61.059 148.87)" fill="#ececec"/>
      <path id="Path_1905" data-name="Path 1905" d="M21.055,471.157c6.5,7.142,42.015,14.806,84.252,20.405,14.619,1.917,30.026,3.608,45.323,4.96,6.5.565,12.889.826,19.088.865,28.187.074,52.652-5.034,69.149-10.559,13-4.36,21.044-8.907,22.057-11.311,2.63-6.125,7.029-26.27,0-69.146-6.99-42.919-2.595-58.664-3.5-156.744-.339-38.9-.413-64.711-.339-81.7,0-6.012,0-10.933.074-14.919-.035-.035-.035-.035,0-.074.078-13.076.265-16.236.265-16.236S117.522,99.383,61.379,93.522H61.34c-13.154-1.352-21.684-.978-22.774,1.991v.039c-.748,2.291-1.539,8.416-2.33,17.4,0,.152-.035.3-.035.487-4.586,53.4-9.02,204.21-9.02,243.026,0,45.51-14.88,105.035-6.125,114.694" transform="translate(-18.293 268.71)" fill="#fff"/>
      <path id="Path_1906" data-name="Path 1906" d="M21.122,456.912c6.5,7.142,42.015,14.806,84.252,20.405-9.316-9.807-42.537-23.11-46.071-35.89-4.321-15.554,5.338-44.041,3.756-84.817C61.446,315.8,56.6,274.99,56.073,227.228c-.526-47.8,9.655-90.19,21.457-97.706,11.837-7.516,26.3-2.143,54.226,4.282,27.922,6.464,53.139,13.415,84.817,21.5,19.166,4.886,32.808,1.652,40.585-1.617,0-6.012,0-10.933.074-14.919,5,.3,7.294.3,7.294.3v-.113c-2.408,0-4.812-.109-7.294-.261-54.526-3.121-121.755-32.2-153.436-31.943-28.183.265-56.856-5.638-67.493-8.042-2.365-.565-3.83-.939-4.208-1.013,1.243.526,2.63,1.013,4.173,1.5-4.586,53.4-9.02,204.21-9.02,243.026,0,45.51-14.88,105.035-6.125,114.694" transform="translate(-18.359 282.955)" fill="#ececec"/>
      <path id="Path_1907" data-name="Path 1907" d="M25.007,272.625c28.183.074,52.648-5.034,69.145-10.559-7.177-22.435-21.983-64-30.926-80.009-12.367-22.019-21.5-10.181-28.752,12.889-5.221,16.688-10.22,52.2-9.468,77.679" transform="translate(126.418 493.473)" fill="#ececec"/>
      <path id="Path_1908" data-name="Path 1908" d="M52.51,362.685v.039c1.239,5.108,3.043,8.042,5.638,7.929,6.538-.226,12.589-3.421,17.136-9.959h.035c5.938-8.455,9.472-22.587,8.568-43.18-1.613-36.49,6.99-85.343,20.144-98.232s10.072-16.271,5.634-32.208c-4.434-15.971-4.282-29.009,10.75-38.668s28.448,6.99,32.73,0-23.6-23.074-28.183-42.389c-4.547-19.353-2.4-38.668,7.251-72.415C137.366,15.6,145.782,5.8,152.507.531c-10.068,2.521-20.027,7.894-27.357,18.075C105.01,46.641,98.881,135.066,98.881,135.066s-15.745,16.61-15.745,29.765c0,13.115-12.25,31.53-23.636,74.406-1.991,7.477-4.021,16.423-6.051,26.082-2.256,36.9-5.073,79.931-.939,97.367" transform="translate(-32.237 1.538)" fill="#ececec"/>
      <path id="Path_1909" data-name="Path 1909" d="M93.5,13.957S94.3,46.145,91.086,59.42,66.948,81.953,60.912,80.745s-17.7-8.853-21.726-19.311-2.412-42.65-2.412-45.062S58.9,7.52,93.5,13.957" transform="translate(82.085 32.375)" fill="#cc8c60"/>
      <path id="Path_1910" data-name="Path 1910" d="M52.575,36.142S76.195,61.375,92.84,66.207" transform="translate(20.023 104.682)" fill="none" stroke="#c5c5c5" stroke-linecap="round" stroke-linejoin="round" stroke-width="1"/>
      <path id="Path_1911" data-name="Path 1911" d="M53.421,50.884s-4.832,13.957-25.233,20.4" transform="translate(154.463 147.38)" fill="none" stroke="#c5c5c5" stroke-linecap="round" stroke-linejoin="round" stroke-width="1"/>
      <path id="Path_1912" data-name="Path 1912" d="M46.069,38.484s-8.724,11.272-14.023,10.2" transform="translate(146.783 111.465)" fill="none" stroke="#c5c5c5" stroke-linecap="round" stroke-linejoin="round" stroke-width="1"/>
      <path id="Path_1913" data-name="Path 1913" d="M58.912,47.715S78.776,62.747,91.661,70.263" transform="translate(-3.49 138.202)" fill="none" stroke="#c5c5c5" stroke-linecap="round" stroke-linejoin="round" stroke-width="1"/>
      <path id="Path_1914" data-name="Path 1914" d="M230.423,136.933s-26.3-1.075-64.423-14.495-64.423-16.642-95.29-18.255-48.584-5.9-48.584-5.9" transform="translate(1.086 284.661)" fill="none" stroke="#c5c5c5" stroke-linecap="round" stroke-linejoin="round" stroke-width="1"/>
      <path id="Path_1915" data-name="Path 1915" d="M73.5,152.567s3.222,16.641,10.2,43.484-4.465,37.581-5.993,52.613a156.449,156.449,0,0,0,0,28.989" transform="translate(-54.582 441.894)" fill="none" stroke="#c5c5c5" stroke-linecap="round" stroke-linejoin="round" stroke-width="1"/>
      <path id="Path_1916" data-name="Path 1916" d="M33.862,262.319s-2.147-51.538,9.125-78.918S65,181.255,65,181.255" transform="translate(121.413 494.271)" fill="none" stroke="#c5c5c5" stroke-linecap="round" stroke-linejoin="round" stroke-width="1"/>
      <path id="Path_1917" data-name="Path 1917" d="M60.447,5.321S48.092,13.983,47.788,33.336" transform="translate(71.068 15.412)" fill="none" stroke="#c5c5c5" stroke-linecap="round" stroke-linejoin="round" stroke-width="1"/>
      <path id="Path_1918" data-name="Path 1918" d="M39.448,26.107s.892-11.354-2.992-19.124" transform="translate(136.136 20.226)" fill="none" stroke="#c5c5c5" stroke-linecap="round" stroke-linejoin="round" stroke-width="1"/>
      <path id="Path_1919" data-name="Path 1919" d="M33.262,118.259S19.574,180.266,25.208,231.8s8.054,67.641,8.054,67.641" transform="translate(191.533 342.525)" fill="none" stroke="#c5c5c5" stroke-linecap="round" stroke-linejoin="round" stroke-width="1"/>
      <path id="Path_1920" data-name="Path 1920" d="M34.633,171.093s-7.785-24.025,22.817-44.158,88.581-40.265,97.437-52.344l17.179,23.355s-24.426,43.877-65.495,65.424-71.23,11.529-71.939,7.723" transform="translate(14.154 216.045)" fill="#ececec"/>
      <path id="Path_1921" data-name="Path 1921" d="M30.732,85.32c1.878-3.487,8.479-9.394,10.949-10.6s1.937,2.685-1.017,7.918-1.075,4.746,1.477,3.916,10.738-9.016,10.738-9.016v0c5.038-4.9,11.5-14.311,11.136-8.627-.316,5.038-6.456,12.363-8.14,14.292l.795,1.508c.923-1.161,2.311-2.918,4.294-5.432,4.126-5.233,3.289-6.877,5.132-8.557,1.11-1.005,3.928,1.107,1.41,8.759a25.332,25.332,0,0,1-7.6,11.354l.814,1.535c.892-1.126,2.092-2.646,3.663-4.637,4.126-5.233,3.289-6.877,5.135-8.556,1.107-1.005,3.924,1.107,1.407,8.759a25.353,25.353,0,0,1-6.885,10.723l.312.584c.8-.822,1.792-1.843,3.055-3.14,3.986-4.1,3.417-5.572,5.139-6.838,1.033-.76,3.25,1.29.425,7.59a21.759,21.759,0,0,1-5.806,7.711l.008.012s-8.525,8.724-25.494,14.935L25.363,98.607s3.491-9.8,5.369-13.287" transform="translate(144.54 194.476)" fill="#cc8c60"/>
      <path id="Path_1922" data-name="Path 1922" d="M110.678,74.591l17.179,23.351s-20.242,52.894-94.11,76.291" transform="translate(58.363 216.045)" fill="none" stroke="#c5c5c5" stroke-linecap="round" stroke-linejoin="round" stroke-width="1"/>
    </g>
  </g>
</svg>
