<svg id="Group_1268" data-name="Group 1268" xmlns="http://www.w3.org/2000/svg" xmlns:xlink="http://www.w3.org/1999/xlink" width="33.354" height="39.518" viewBox="0 0 33.354 39.518">
  <defs>
    <clipPath id="clip-path">
      <rect id="Rectangle_626" data-name="Rectangle 626" width="33.354" height="39.518" fill="none"/>
    </clipPath>
  </defs>
  <g id="Group_1267" data-name="Group 1267" clip-path="url(#clip-path)">
    <path id="Path_2267" data-name="Path 2267" d="M31.187,372.8c.5,0,1,.012,1.5.01.269,0,.519.024.634.316s-.072.475-.272.644H.309c-.445-.4-.408-.741.1-.944a.906.906,0,0,1,.267-.02c2.5-.089,5-.072,7.505-.075q2.564-.009,5.127-.007c1.863,0,3.726,0,5.59,0s3.7,0,5.551,0c2.043,0,4.087.023,6.13-.009a1.117,1.117,0,0,1,.6.082" transform="translate(0 -334.253)" fill="#783935"/>
    <path id="Path_2268" data-name="Path 2268" d="M94.193,197.689a16.738,16.738,0,0,1,.358-4.671,11.244,11.244,0,0,1,3.721-5.506,23.207,23.207,0,0,1,4.058-2.654c.259-.141.506-.3.759-.457a6.839,6.839,0,0,1,1.1.062,3.409,3.409,0,0,1,.948-.059c1,.632,2.07,1.142,3.056,1.8a13.437,13.437,0,0,1,4.783,5.026,9.64,9.64,0,0,1,1.054,4.223c.016.745,0,1.491.006,2.237a.64.64,0,0,1-.476.108q-9.447,0-18.893,0a.65.65,0,0,1-.476-.107" transform="translate(-84.467 -165.351)" fill="#49bb8e"/>
    <path id="Path_2269" data-name="Path 2269" d="M101.179,346.126c-.14.01-.281.028-.421.028q-11.078,0-22.156,0c-.141,0-.282-.016-.422-.024-.022-.046-.017.022-.025-.028a6.486,6.486,0,0,1,.021-2.474l.854-.545a.616.616,0,0,1,.47-.11c.611,0,1.221,0,1.832,0,.568,0,1.137,0,1.706,0,.617,0,1.234,0,1.851,0,.567,0,1.134,0,1.7,0,.617,0,1.234,0,1.851,0,.567,0,1.134,0,1.7,0,.642,0,1.285,0,1.927,0,.545,0,1.09,0,1.635,0q1.809,0,3.617,0c.806,0,1.612,0,2.418,0a.835.835,0,0,1,.515.112,1.291,1.291,0,0,1,.922,1.584,9.2,9.2,0,0,0,0,1.459" transform="translate(-69.992 -307.579)" fill="#35a473"/>
    <path id="Path_2270" data-name="Path 2270" d="M108.4,313.741a1.4,1.4,0,0,1,.628,1.41,15.525,15.525,0,0,0-.022,1.615c-.7.087-1.4.017-2.1.037-.217.006-.434,0-.651,0a.222.222,0,0,1-.13-.03c-.147-.221-.078-.471-.092-.71-.011-.191.009-.384-.017-.575a.724.724,0,0,0-1.447-.015c-.042.292-.007.588-.023.882-.008.158.036.341-.148.445-.585,0-1.17,0-1.754,0-.189-.076-.151-.25-.16-.4-.017-.282.015-.566-.022-.847-.067-.513-.357-.787-.795-.764-.423.022-.645.3-.67.827a4.156,4.156,0,0,1-.059,1.11.147.147,0,0,1-.109.068c-.593,0-1.185,0-1.778,0a.164.164,0,0,1-.12-.041,4.441,4.441,0,0,1-.085-1.256.712.712,0,0,0-1.072-.628.863.863,0,0,0-.4.712c-.024.217-.007.436-.012.654a1.125,1.125,0,0,1-.06.492.146.146,0,0,1-.109.065c-.566,0-1.132,0-1.7,0a.163.163,0,0,1-.12-.041.965.965,0,0,1-.078-.523,5.643,5.643,0,0,0-.025-.8.724.724,0,0,0-1.439.008,5.339,5.339,0,0,0-.022.728,1.353,1.353,0,0,1-.06.567.147.147,0,0,1-.11.064c-.566,0-1.133,0-1.7,0a.16.16,0,0,1-.119-.043,1.639,1.639,0,0,1-.076-.753,2.382,2.382,0,0,0-.07-.684.692.692,0,0,0-.787-.521.677.677,0,0,0-.618.671c-.026.268,0,.537-.012.805a.853.853,0,0,1-.081.485.176.176,0,0,1-.13.041H88.162c-.144,0-.292.02-.284-.2.026-.743-.045-1.487.038-2.228l.6-.633a1.053,1.053,0,0,1,.344-.021h19.2a.993.993,0,0,1,.344.022" transform="translate(-78.806 -281.341)" fill="#3dae7e"/>
    <path id="Path_2271" data-name="Path 2271" d="M32.244,165.7q0,3.243,0,6.486a.652.652,0,0,1-.508.124q-1.769.007-3.539,0a.657.657,0,0,1-.508-.123q0-3.244,0-6.488a1.559,1.559,0,0,1,1.1-.245,16.077,16.077,0,0,1,3.041.064.561.561,0,0,1,.41.183" transform="translate(-24.833 -148.341)" fill="#e8e8e8"/>
    <path id="Path_2272" data-name="Path 2272" d="M30.656,102.093q0-2.316,0-4.631a.592.592,0,0,1,.42-.161,20.625,20.625,0,0,1,3.1,0,.583.583,0,0,1,.42.16q0,2.315,0,4.631c-.158.144-.342.078-.514.054a12.277,12.277,0,0,0-2.991.011c-.151.015-.307.062-.438-.063" transform="translate(-27.493 -87.207)" fill="#e8e8e8"/>
    <path id="Path_2273" data-name="Path 2273" d="M14.229,231.045h4.555c.42,0,.84.01,1.26,0,.214-.005.293.074.289.289-.01.522,0,1.044,0,1.565a.687.687,0,0,1-.476.108q-3.345,0-6.69,0a.676.676,0,0,1-.476-.109c0-.522.005-1.044-.006-1.566,0-.215.075-.293.289-.288.42.01.84,0,1.26,0" transform="translate(-11.372 -207.201)" fill="#e1e1e1"/>
    <path id="Path_2274" data-name="Path 2274" d="M36.035,38.886a2.021,2.021,0,0,1,.784,1.949c-.035.637-.007,1.278-.007,1.918a.52.52,0,0,1-.47.1,8.272,8.272,0,0,0-2.257.025c-.148.022-.306.069-.441-.05a.435.435,0,0,0,.161-.4c-.008-.616,0-1.233,0-1.849A1.7,1.7,0,0,1,34.494,39c.039-.026.059-.082.088-.124a1.248,1.248,0,0,1,1.453.007" transform="translate(-30.171 -34.661)" fill="#e8e8e8"/>
    <path id="Path_2275" data-name="Path 2275" d="M20.932,354.5q0-.777.005-1.553a2.162,2.162,0,0,1,.854-.568c.209-.1.407.036.567.157a.781.781,0,0,0,1.08.017.708.708,0,0,1,.979.01.757.757,0,0,0,.952.039,1.052,1.052,0,0,1,1.532.374c.034.4-.008.8.02,1.2.02.285-.069.373-.363.371-1.608-.014-3.215,0-4.823-.01a2.808,2.808,0,0,1-.8-.034" transform="translate(-18.772 -315.981)" fill="#e8e8e8"/>
    <path id="Path_2276" data-name="Path 2276" d="M14.227,250.754l-.774-1.311c.007-.177.146-.112.229-.113q3.519-.006,7.037,0c.085,0,.223-.061.229.115a10.15,10.15,0,0,1-.775,1.31.71.71,0,0,1-.511.123q-2.462,0-4.925,0a.7.7,0,0,1-.51-.125" transform="translate(-12.065 -223.591)" fill="#dbdada"/>
    <path id="Path_2277" data-name="Path 2277" d="M20.953,263.226H26.9l.008,1.691-.042.038a.505.505,0,0,1-.452-.169.665.665,0,0,0-.911-.025c-.041.03.005-.013-.033.02a.793.793,0,0,1-1.109-.025.612.612,0,0,0-.842,0,.8.8,0,0,1-1.14,0,.671.671,0,0,0-.855-.017c-.167.1-.319.278-.555.209l-.016-1.726" transform="translate(-18.791 -236.063)" fill="#e8e8e8"/>
    <path id="Path_2278" data-name="Path 2278" d="M21.843,142.911a12.777,12.777,0,0,1,3.943,0c1.006.085,1.008.085,1,1.076,0,.134.047.283-.073.4-.7-.13-1.414-.167-2.113-.31a4.8,4.8,0,0,0-1.5,0c-.723.133-1.454.208-2.182.309a3.25,3.25,0,0,1-.071-1.158c-.009-.11.081-.141.177-.158.273-.048.546-.1.818-.152" transform="translate(-18.68 -128.025)" fill="#e1e1e1"/>
    <path id="Path_2279" data-name="Path 2279" d="M26.1,315.465a.924.924,0,0,1,.045.674,4.943,4.943,0,0,0-.048,1.183l-.045.032a1.456,1.456,0,0,1-.645-.318.46.46,0,0,0-.567,0c-.041.031-.092.048-.131.081a.81.81,0,0,1-1.167,0,.575.575,0,0,0-.8,0,.846.846,0,0,1-1.206,0,.61.61,0,0,0-.809-.009,1.006,1.006,0,0,1-.551.248l-.046-.031a6.405,6.405,0,0,0-.06-1.373.626.626,0,0,1,.058-.484l.045.031c.128.489.133.5.6.221a.581.581,0,0,1,.743.023.863.863,0,0,0,1.238,0,.561.561,0,0,1,.77.014.82.82,0,0,0,1.17.011.648.648,0,0,1,.872,0c.38.255.391.238.462-.224a.164.164,0,0,1,.076-.077" transform="translate(-17.98 -282.911)" fill="#e8e8e8"/>
    <path id="Path_2280" data-name="Path 2280" d="M20.108,299.376a5.351,5.351,0,0,0-.054-1.289.53.53,0,0,1,.061-.475c.2.447.209.458.673.176a.542.542,0,0,1,.67,0c.113.082.24.146.361.219a.517.517,0,0,0,.611-.008c.126-.087.269-.151.394-.239a.457.457,0,0,1,.6.014c.03.024.067.039.1.063a.8.8,0,0,0,1.138.017.673.673,0,0,1,.881-.017c.389.255.4.24.47-.232a.17.17,0,0,1,.075-.079.9.9,0,0,1,.048.672,4.667,4.667,0,0,0-.046,1.18l-.024.021c-.232.049-.389-.108-.555-.217a.608.608,0,0,0-.782-.005.863.863,0,0,1-1.216,0,.581.581,0,0,0-.808,0,.829.829,0,0,1-1.178-.008.605.605,0,0,0-.808,0c-.169.112-.328.308-.58.224Z" transform="translate(-17.96 -266.821)" fill="#e8e8e8"/>
    <path id="Path_2281" data-name="Path 2281" d="M21.068,281.5v-1.128a1.984,1.984,0,0,1,.877-.594c.182-.085.357.037.493.147a.859.859,0,0,0,1.213,0,.6.6,0,0,1,.838.022.785.785,0,0,0,1.108,0,.652.652,0,0,1,.873-.013c.366.249.379.229.457-.191a.212.212,0,0,1,.053-.1l.03-.027a.844.844,0,0,1,.053.668,4.916,4.916,0,0,0-.047,1.179l-.026.023a.637.637,0,0,1-.49-.182.678.678,0,0,0-.886-.006c-.08.063-.182.1-.264.159a.472.472,0,0,1-.6.006c-.106-.072-.222-.129-.329-.2a.593.593,0,0,0-.78.026.776.776,0,0,1-1.131.025.689.689,0,0,0-.919,0c-.147.105-.3.263-.519.183" transform="translate(-18.894 -250.766)" fill="#e8e8e8"/>
    <path id="Path_2282" data-name="Path 2282" d="M20.135,335.326a8.33,8.33,0,0,0-.072-1.417.523.523,0,0,1,.059-.445l.021.017a.577.577,0,0,1,.036.566.244.244,0,0,0,.105-.058,1.123,1.123,0,0,1,1.614-.035.363.363,0,0,0,.435,0,2.049,2.049,0,0,0,.3-.178.7.7,0,0,1,.975,0,.722.722,0,0,0,1.036,0,.67.67,0,0,1,.939-.007,3.274,3.274,0,0,0,.453.273.583.583,0,0,1,.04-.569l.019-.015a.862.862,0,0,1,.048.664,4.842,4.842,0,0,0-.058.981c.056.088.024.145-.065.181a.918.918,0,0,1-.555-.233.565.565,0,0,0-.71.008c-.1.075-.225.124-.328.2a.5.5,0,0,1-.606,0c-.12-.074-.244-.141-.363-.216a.544.544,0,0,0-.709.025.842.842,0,0,1-1.231.015.6.6,0,0,0-.8,0c-.168.115-.33.3-.579.237" transform="translate(-17.973 -299.051)" fill="#e8e8e8"/>
    <path id="Path_2283" data-name="Path 2283" d="M25.4,154.341c.569.106,1.153.1,1.72.226a.583.583,0,0,1,.369.164,7.729,7.729,0,0,1-.622,1,15.364,15.364,0,0,0-4.552,0l-.621-1a3.03,3.03,0,0,1,1.34-.291,4.684,4.684,0,0,1,.822-.1,6.634,6.634,0,0,1,1.543,0" transform="translate(-19.458 -138.373)" fill="#dbdada"/>
    <path id="Path_2284" data-name="Path 2284" d="M25.514,77.8a10.734,10.734,0,0,1,3.168-.076,1.77,1.77,0,0,0,.3.07c.263.018.658-.02.734.176a1.472,1.472,0,0,1-.021,1.07,10.566,10.566,0,0,1-1.6-.224,5.806,5.806,0,0,0-1.822,0,9.111,9.111,0,0,1-1.6.222,2.195,2.195,0,0,1-.064-.966c-.006-.116.087-.178.2-.189a2.985,2.985,0,0,1,.712-.084" transform="translate(-22.042 -69.63)" fill="#e1e1e1"/>
    <path id="Path_2285" data-name="Path 2285" d="M28.9,87.736a6.336,6.336,0,0,0,1.053.149.988.988,0,0,1,.5.164,3.9,3.9,0,0,1-.545.845,9.291,9.291,0,0,0-1.932-.112,7.84,7.84,0,0,0-1.59.07,2.88,2.88,0,0,1-.415.042,5.543,5.543,0,0,1-.541-.848,3.025,3.025,0,0,1,1.1-.23.973.973,0,0,0,.445-.081,10.115,10.115,0,0,1,1.929,0" transform="translate(-22.8 -78.641)" fill="#dbdada"/>
    <path id="Path_2286" data-name="Path 2286" d="M20.949,347.3a.853.853,0,0,0,.168-.092,1.076,1.076,0,0,1,1.617-.02.285.285,0,0,0,.412.006c.039-.032.093-.048.13-.082a.9.9,0,0,1,1.325-.01c.146.121.329.292.536.088.585-.576,1.136-.384,1.68.063a.471.471,0,0,1-.011.684.426.426,0,0,1-.1-.051,1,1,0,0,0-1.506-.04.413.413,0,0,1-.563-.01c-.062-.045-.138-.073-.2-.122a.7.7,0,0,0-1.015,0c-.258.214-.549.352-.859.071a.85.85,0,0,0-1.277.017,1.646,1.646,0,0,1-.335.182l0-.687" transform="translate(-18.787 -311.027)" fill="#365470"/>
    <path id="Path_2287" data-name="Path 2287" d="M26.772,276.014a2.074,2.074,0,0,1,.011.671,1.443,1.443,0,0,1-.6-.321.5.5,0,0,0-.713.013c-.009.008-.024.011-.033.019a.8.8,0,0,1-1.193,0c-.314-.3-.6-.18-.875.044a.712.712,0,0,1-1.032.014.678.678,0,0,0-1.011,0,2.953,2.953,0,0,1-.462.277,2.507,2.507,0,0,1,0-.72.106.106,0,0,0,.037-.011,1.215,1.215,0,0,1,1.8-.04.212.212,0,0,0,.281.006,1.093,1.093,0,0,0,.164-.1.951.951,0,0,1,1.4,0c.146.121.311.237.508.057a1.059,1.059,0,0,1,1.589.019.548.548,0,0,0,.137.066" transform="translate(-18.686 -247.132)" fill="#365470"/>
    <path id="Path_2288" data-name="Path 2288" d="M20.9,293.542a4.775,4.775,0,0,0,.567-.322.6.6,0,0,1,.837.009.78.78,0,0,0,1.176-.012c.336-.314.649-.143.93.081a.623.623,0,0,0,.913.012.752.752,0,0,1,1.1-.01,2.543,2.543,0,0,0,.4.231v.673a2.538,2.538,0,0,1-.728-.4.327.327,0,0,0-.445,0c-.019.016-.048.022-.066.039a.937.937,0,0,1-1.418,0,.389.389,0,0,0-.576,0c-.059.048-.137.073-.195.123a.7.7,0,0,1-1.027-.007.658.658,0,0,0-.972,0,3.977,3.977,0,0,1-.513.3V293.6a.064.064,0,0,0,.019-.054" transform="translate(-18.726 -262.805)" fill="#365470"/>
    <path id="Path_2289" data-name="Path 2289" d="M44.141,4.225a2.564,2.564,0,0,0-1.453-.007c0-.495-.09-1.012.4-1.374.094-.07.046-.219.047-.333q0-1.04,0-2.08c0-.208.027-.419.273-.431s.338.193.338.421c0,.706,0,1.413,0,2.119,0,.114-.022.284.041.332.471.367.342.875.354,1.352" transform="translate(-38.277 0)" fill="#efbb73"/>
    <path id="Path_2290" data-name="Path 2290" d="M182.5,149.239a3.093,3.093,0,0,1-2.049,0c.218-.332.43-.668.655-1a.659.659,0,0,0,.087-.4c0-.745,0-1.491,0-2.236,0-.2,0-.422.264-.432.279-.01.309.211.308.433a12.854,12.854,0,0,1-.013,1.541,2.594,2.594,0,0,0,.667,1.97c.031.04.055.085.083.128" transform="translate(-161.833 -130.186)" fill="#efba73"/>
    <path id="Path_2291" data-name="Path 2291" d="M113.94,313.425c-.128,0-.256.014-.385.014H94.44c-.128,0-.256-.01-.385-.015a.109.109,0,0,1,.02-.06H113.92a.121.121,0,0,1,.02.063" transform="translate(-84.349 -281.025)" fill="#6fc6a2"/>
    <path id="Path_2292" data-name="Path 2292" d="M11.608,350.2a.656.656,0,0,0,.011-.684c.078-.033.083-.1.081-.171a.213.213,0,0,1,.073-.006l0,2.5a2.686,2.686,0,0,1-.3.035q-3.659,0-7.319,0A1.418,1.418,0,0,1,4,351.859c.58-.1,1.166.007,1.747-.059q2.844.007,5.687.012c.095,0,.25.033.248-.107a4.139,4.139,0,0,0-.076-1.509" transform="translate(-3.589 -313.285)" fill="#5d9b8e"/>
    <path id="Path_2293" data-name="Path 2293" d="M20.307,249.167c-.1-.119-.237-.079-.36-.079q-3.387,0-6.775,0c-.123,0-.26-.042-.36.077a.157.157,0,0,1-.074-.156H20.38a.167.167,0,0,1-.073.157" transform="translate(-11.423 -223.313)" fill="#e4e4e4"/>
    <path id="Path_2294" data-name="Path 2294" d="M87.651,320.092c0,.682.016,1.364,0,2.046-.005.265.068.362.345.354.63-.018,1.261-.005,1.891-.005q.028.025.018.048t-.02.023l-2.31.007c.006-.689.01-1.377.021-2.066,0-.136-.043-.282.052-.408" transform="translate(-78.541 -287.061)" fill="#68bd98"/>
    <path id="Path_2295" data-name="Path 2295" d="M264.675,343.283l2.865,0,.065.081-2.929-.008c-.019-.015-.026-.03-.02-.046s.012-.024.018-.024" transform="translate(-237.344 -307.856)" fill="#68bd98"/>
    <path id="Path_2296" data-name="Path 2296" d="M165.034,355.7h-.077c-.885,0-1-.131-.807-1.015a1.333,1.333,0,0,1,.164-.587.838.838,0,0,1,.9-.39,1.114,1.114,0,0,1,.691.857c.009.089,0,.18,0,.27,0,.866,0,.866-.867.866" transform="translate(-147.141 -317.186)" fill="#3dae7d"/>
    <path id="Path_2297" data-name="Path 2297" d="M131.006,355.7c-.841,0-.839,0-.842-.845a1.259,1.259,0,0,1,.159-.81.777.777,0,0,1,.873-.328.941.941,0,0,1,.662.849c.019.293,0,.588.006.883,0,.177-.062.26-.245.254-.2-.007-.409,0-.614,0" transform="translate(-116.731 -317.186)" fill="#3dae7d"/>
    <path id="Path_2298" data-name="Path 2298" d="M235.768,355.758c-.84,0-.84,0-.839-.856,0-.726.269-1.107.811-1.149a.845.845,0,0,1,.884.823c.016.269-.013.541.008.81s-.064.411-.363.376a4.344,4.344,0,0,0-.5,0" transform="translate(-210.686 -317.245)" fill="#3dae7d"/>
    <path id="Path_2299" data-name="Path 2299" d="M95.844,355.744c-.865,0-.857,0-.869-.867a1.066,1.066,0,0,1,.3-.915.767.767,0,0,1,.821-.172.884.884,0,0,1,.58.748,2.782,2.782,0,0,1,0,.385c0,.821,0,.821-.834.821" transform="translate(-85.174 -317.231)" fill="#3dae7e"/>
    <path id="Path_2300" data-name="Path 2300" d="M200.589,355.673c-.86,0-.852,0-.863-.874a1.109,1.109,0,0,1,.368-.925.712.712,0,0,1,.782-.163.793.793,0,0,1,.551.722c.009.321-.008.643.005.964.009.23-.1.29-.3.278-.179-.011-.36,0-.54,0" transform="translate(-179.116 -317.16)" fill="#3dae7d"/>
    <path id="Path_2301" data-name="Path 2301" d="M270.923,355.755c-.867,0-.859,0-.871-.863a1.075,1.075,0,0,1,.322-.943.837.837,0,0,1,1.376.638,2.74,2.74,0,0,1,.005.346c0,.822,0,.822-.831.822" transform="translate(-242.184 -317.242)" fill="#3dae7e"/>
    <path id="Path_2302" data-name="Path 2302" d="M233.121,342.021v.069l-3.629,0a.059.059,0,0,1-.023-.056c0-.02.008-.03.014-.031a.063.063,0,0,1,.086.012h1.851a2.57,2.57,0,0,1,1.7,0Z" transform="translate(-205.79 -306.593)" fill="#60bc96"/>
    <path id="Path_2303" data-name="Path 2303" d="M195.1,343.295h1.93c.019.016.025.032.018.048s-.013.023-.02.023H195.1c-.02-.015-.026-.031-.02-.048s.012-.024.019-.024" transform="translate(-174.945 -307.869)" fill="#67bd98"/>
    <path id="Path_2304" data-name="Path 2304" d="M160.677,343.3h1.853c.019.017.025.033.018.049s-.013.024-.02.024h-1.85q-.029-.024-.02-.048c.006-.016.012-.025.019-.025" transform="translate(-144.077 -307.87)" fill="#68bd98"/>
    <path id="Path_2305" data-name="Path 2305" d="M126.258,343.3h1.853q.028.025.018.049c-.007.016-.013.024-.02.024h-1.85c-.02-.016-.026-.032-.02-.048s.012-.025.019-.025" transform="translate(-113.21 -307.87)" fill="#68bd98"/>
    <path id="Path_2306" data-name="Path 2306" d="M178.8,342.093c0-.024,0-.048,0-.073v0a2.58,2.58,0,0,1,1.7,0v0c0,.024,0,.048,0,.072h-1.7" transform="translate(-160.353 -306.594)" fill="#57bb93"/>
    <path id="Path_2307" data-name="Path 2307" d="M111.666,342.02c0,.024,0,.049,0,.073h-1.7q0-.036,0-.072v0a2.58,2.58,0,0,1,1.7,0Z" transform="translate(-98.618 -306.594)" fill="#57bb93"/>
    <path id="Path_2308" data-name="Path 2308" d="M144.385,342.092c0-.024,0-.048,0-.072v0a2.58,2.58,0,0,1,1.7,0v0c0,.024,0,.048,0,.072h-1.7" transform="translate(-129.485 -306.594)" fill="#57bb92"/>
    <path id="Path_2309" data-name="Path 2309" d="M213.964,342.086c0-.024,0-.048,0-.072v0a2.323,2.323,0,0,1,1.623,0c0,.024,0,.048,0,.072h-1.624" transform="translate(-191.884 -306.589)" fill="#57bb92"/>
    <path id="Path_2310" data-name="Path 2310" d="M180.465,325h-1.7c0-.384-.015-.768.006-1.15a.893.893,0,0,1,.514-.872.829.829,0,0,1,.867.092.806.806,0,0,1,.312.665c0,.422,0,.844,0,1.266" transform="translate(-160.313 -289.575)" fill="#49bb8e"/>
    <path id="Path_2311" data-name="Path 2311" d="M215.59,325.162l-1.623,0c0-.384,0-.767,0-1.151,0-.575.268-.914.731-.932a.855.855,0,0,1,.962.895c.021.4.005.793.006,1.189l-.077,0" transform="translate(-191.887 -289.736)" fill="#49bb8e"/>
    <path id="Path_2312" data-name="Path 2312" d="M111.671,325.162h-1.7c0-.386,0-.771,0-1.157,0-.59.274-.906.793-.926a.843.843,0,0,1,.9.888c.023.4.006.8.007,1.2" transform="translate(-98.622 -289.739)" fill="#49bb8e"/>
    <path id="Path_2313" data-name="Path 2313" d="M146.073,325.168h-1.7c0-.4-.006-.8,0-1.193a.849.849,0,1,1,1.7,0c.009.4,0,.8,0,1.193" transform="translate(-129.472 -289.745)" fill="#49bb8e"/>
    <path id="Path_2314" data-name="Path 2314" d="M250.07,325.169h-1.7c0-.4-.006-.8,0-1.194a.848.848,0,1,1,1.695,0c.009.4,0,.8,0,1.194" transform="translate(-222.738 -289.745)" fill="#49bb8e"/>
    <path id="Path_2315" data-name="Path 2315" d="M44.193,153.9H42.65a3.17,3.17,0,0,1,1.543,0" transform="translate(-38.249 -137.936)" fill="#e6e5e5"/>
    <path id="Path_2316" data-name="Path 2316" d="M26.964,329.5v.65c-.035,0-.068.011-.082,0a1.114,1.114,0,0,0-1.67-.051.324.324,0,0,1-.428,0,.957.957,0,0,1-.1-.061.908.908,0,0,0-1.371.008.406.406,0,0,1-.591.011.96.96,0,0,0-1.439.009,1.707,1.707,0,0,1-.253.141v-.7a.5.5,0,0,0,.1-.052,1.129,1.129,0,0,1,1.69-.04.268.268,0,0,0,.382,0c.041-.031.094-.047.131-.081a.907.907,0,0,1,1.359.006.433.433,0,0,0,.646-.01.89.89,0,0,1,1.324,0,1.851,1.851,0,0,0,.3.177" transform="translate(-18.863 -295.079)" fill="#365470"/>
    <path id="Path_2317" data-name="Path 2317" d="M21.048,311.614a.654.654,0,0,0,.137-.067,1.118,1.118,0,0,1,1.656-.024.27.27,0,0,0,.382.006c.071-.054.161-.084.228-.141a.815.815,0,0,1,1.163,0c.193.152.409.339.675.095a.976.976,0,0,1,1.455,0,1.309,1.309,0,0,0,.233.132v.652c-.028,0-.063.02-.075.009a1.137,1.137,0,0,0-1.707-.046.276.276,0,0,1-.358,0,1.041,1.041,0,0,1-.132-.079.92.92,0,0,0-1.375.006.407.407,0,0,1-.591.009.937.937,0,0,0-1.409,0,1.805,1.805,0,0,1-.28.163Z" transform="translate(-18.876 -279.036)" fill="#365470"/>
    <path id="Path_2318" data-name="Path 2318" d="M42.335,87.315H40.406a4.968,4.968,0,0,1,1.929,0" transform="translate(-36.236 -78.22)" fill="#e6e6e6"/>
  </g>
</svg>
