<svg xmlns="http://www.w3.org/2000/svg" xmlns:xlink="http://www.w3.org/1999/xlink" width="326.464" height="819.553" viewBox="0 0 326.464 819.553">
  <defs>
    <clipPath id="clip-path">
      <rect id="Rectangle_551" data-name="Rectangle 551" width="326.464" height="819.553" fill="none"/>
    </clipPath>
  </defs>
  <g id="Group_868" data-name="Group 868" transform="translate(0 0)" style="isolation: isolate">
    <g id="Group_867" data-name="Group 867" transform="translate(0 0)" clip-path="url(#clip-path)">
      <path id="Path_1878" data-name="Path 1878" d="M75.133,182.377s3.041,24.744,2.171,31.256S60.373,233.785,49.52,242.378s-16.061,10.76-19.968,15.536.866,8.248,5.207,9.553,12.166,4.772,18.024,4.772,13.98-1.736,24.677-5.642,29.364-8.683,35.006-13.024-2.747-29.81-2.026-34.438,0-22.867,0-22.867Z" transform="translate(82.013 532.228)" fill="#ffb49a"/>
      <path id="Path_1879" data-name="Path 1879" d="M83.173,181.934s1.736,28.219,1.736,35.6-6.943,28.22-10.854,33.862-16.061,26.915-15.191,29.955,5.642,4.341,8.248,4.776,21.7,3.472,32.557,2.171,16.065-14.329,20.837-20.837,9.553-14.76,9.553-17.366-8.248-32.126-8.248-32.126l-.435-30.821Z" transform="translate(171.653 530.936)" fill="#ffb49a"/>
      <path id="Path_1880" data-name="Path 1880" d="M.511,117.556c1.074-.313,2.253,1.371,3.922,4.819a22.163,22.163,0,0,0,2.516,3.82l.682-.933a20.691,20.691,0,0,1-4.048-6.54c-1.846-4.776-1.951-10.419-.76-10.638s2.28,1.74,3.691,5.646A33.5,33.5,0,0,0,10.745,121l.917-1.254a19.823,19.823,0,0,1-4.823-7.327c-1.846-4.776-1.955-10.419-.76-10.634s2.28,1.736,3.691,5.642a36.7,36.7,0,0,0,4.914,8.185l.674-.921a21,21,0,0,1-2.766-4.984c-1.846-4.776-1.955-10.419-.76-10.638s2.28,1.736,3.691,5.646c1.4,3.891,5.6,9.071,5.634,9.11,2.116,2.21,4.678,4.847,5.16,5.18.85.576,4.8,2.892,2.19-2.026s-2.747-11-1.156-10.564,8.683,9.839,11,15.191a59.937,59.937,0,0,1,3.056,10.1l50.2,37.075s27.781-77.563,35.308-97.824,21.382-27.04,21.382-27.04-.545,114.445-10.963,133.457S119.529,212.238,91.6,211s-66.18-59.581-66.18-59.581c-7.574-3.762-21.363-21.272-21.363-21.272l0,0a19.352,19.352,0,0,1-1.842-2.911c-2.147-4.2-2.786-9.361-1.712-9.674" transform="translate(-0.001 128.171)" fill="#eaa28f"/>
      <path id="Path_1881" data-name="Path 1881" d="M71.98,38.613S57.588,46.536,51.472,80.688s-21.746,69.526-26.378,81.359,0,19.063,0,19.063,7.884,4.792,22.413,15.344,18.569,19.768,18.569,19.768,12.852-169.9,5.9-177.608" transform="translate(67.225 112.684)" fill="#fff"/>
      <path id="Path_1882" data-name="Path 1882" d="M136.846,109.576s-13.083-7.758-13.71-14.733,7.151-69.256-3.742-80.92S91.233-.943,69.228,7.423,51.929,68.513,54.1,81.184s17.448,23.185,28.819,20.971c0,0-1.912,17.742-8.181,23.173s-17.146,9.839-26.064,27.342S36.448,241.3,36.448,241.3s145.647,16.5,145.729-37.357c.055-35.888-45.331-94.364-45.331-94.364" transform="translate(106.366 7.953)" fill="#ffb49a"/>
      <path id="Path_1883" data-name="Path 1883" d="M232.853,635.3c-11.3,9.561-58.183,15.642-105.065,15.317-1.175,0-2.39,0-3.566-.043-45.3-.4-83.1-3.6-87.315-11.222-4.338-7.821-4.052-85.615-1.175-173.659,2.065-62.928,4.659-93.8,4.659-126.784,0-15.559,3.566-59.723,4.906-66.975-3.162-20.544,2.551-43.924-.286-49.637a105.87,105.87,0,0,1-4.173-10.858c-3.848-11.222-8.71-27.714-10.293-38.047C28.236,158.318,42.7,85.1,46.146,74.408c3.483-10.7,8.428-10.7,11.018-12.441S67.579,57.348,72.2,50.945c4.659-6.359,14.831-9.682,17.664-6.359,0,0,2.433,14.788,14.67,18.514,12.237,3.769,42.909-30.061,55.389-33.262,12.437-3.2,10.979,7.817,15.317,11.3,4.334,3.444,11.018.282,16.774,5.184,5.791,4.945.889,12.158,11.3,15.924s15.031,15.034,20.826,33.266c2.1,6.606,4.377,21.355,6.4,37.925,0,0,.2,1.458.486,4.012.039.364.078.686.121,1.054s.082.729.121,1.132c3.24,27.757,5.8,58.265,5.913,63.249.854,36.06-14.788,38.615-16.488,44.085-1.093,3.4-27.35,0-14.792,42.745,2.594,7.5,8.714,47.125,10.94,77.269,3.487,46.921,15.117,161.508,16.006,186.75.85,25.2,11.265,72,0,81.563" transform="translate(88.412 85.392)" fill="#fff"/>
      <path id="Path_1884" data-name="Path 1884" d="M225,498.84C224.112,473.6,212.483,359.012,209,312.09c-2.226-30.143-8.346-69.769-10.94-77.269-12.558-42.745,13.7-39.344,14.792-42.745,1.7-5.47,17.342-8.025,16.488-44.085-.118-4.984-2.672-35.492-5.913-63.249,1.458,15.52,3.362,56.321-14.427,77.147-15.963,18.733-41.4,21.986-56.611,25.316C150.425,153.3,146.918,70.7,157.623,48.072c0,0-17.954,13.98-31.323,51.745-13.33,37.761-75.243,54.86-88.573,53.684-1.943-.161-3.483.976-4.741,3.041A105.869,105.869,0,0,0,37.159,167.4c2.837,5.713-2.876,29.093.282,49.637,8.671,4.78,81.363,17.1,88.859,12.68,3.217-1.885,8.608-7.225,13.738-12.73.125.141.231.274.36.415,9.929,10.493,14.063,4.416,21.558,38.29,7.453,33.83,36.1,200.565,35.249,262.192-.889,61.627-17.382,61.627-26.053,56.443-8.671-5.227-28.89-108.548-44.853-112.886-12.076-3.28-16.614,83.632-9.929,134.237,1.175.043,2.39.043,3.566.043,46.882.321,93.761-5.756,105.065-15.317,11.265-9.561.85-56.361,0-81.563" transform="translate(96.263 140.288)" fill="#ececec"/>
      <path id="Path_1885" data-name="Path 1885" d="M48.728,20.459s-.082.666,7.731,0,7.786-1.563,16.7.3,12.6,1.857,16.292,1.857c0,0-3.907,9.553-2.606,15.2s4.126,4.992,5.646,11.72S91.841,60.6,97.7,61.252c0,0-.678-8.467,5.09-8.467s7.284,9.118,5.113,20.406-8.467,9.549-8.467,9.549a12.89,12.89,0,0,0,3.354,8.248,26.061,26.061,0,0,0,7.12,5.16s8.2-15.579,10.368-30.555,2.135-21.492,3.017-28.87-3.236-15.411-3.236-15.411-1.736-8.9-12.37-15.846S83.808-1.264,69.048,3.077s-22.358,4.349-24.094,7.6a7.418,7.418,0,0,0,0,6.508s-3.907,2.606-3.907,6.512A7.2,7.2,0,0,0,43.54,29.42Z" transform="translate(119.79 -0.001)" fill="#3a3a09"/>
      <path id="Path_1886" data-name="Path 1886" d="M41.659,38.071S37.921,52.6,43.779,60.409s22.358,12.17,35.167,7.821S95.657,53.462,97.828,39.137s1.736-21.272,1.736-21.272a11.737,11.737,0,0,1-3.907-1.955s-3.041,15.2-8.9,24.313S66.869,53.717,57.889,53.246c-12.374-.65-16.23-15.176-16.23-15.176" transform="translate(118.144 46.427)" fill="#3a3a09"/>
      <path id="Path_1887" data-name="Path 1887" d="M37.6,92.346c-2.825-2.77-5.431-6.837-5.764-9.247-.451-3.268,1.72-2.943,3.758.431a14.268,14.268,0,0,0,3.644,3.64l.145-.451c-3.738-3.205-7.594-9.713-7.805-13.122-.235-3.809,2.241-3.24,4.294.823,1.05,2.077,3.444,4.244,5.544,5.877l.141-.443c-3.84-3.088-7.923-9.866-8.138-13.377-.235-3.809,2.241-3.24,4.294.823,1.109,2.194,3.7,4.471,5.877,6.128l.118-.372c-3.115-3.448-5.9-8.561-6.081-11.441-.235-3.809,2.241-3.244,4.294.823,1.191,2.363,4.118,4.827,6.375,6.5a40.055,40.055,0,0,0,6.645,2.954c7.241,2.555,8.918,2.237,4.357-1.512s-7.594-9.361-5.717-9.231S70.428,68.2,73.924,73.762a58.963,58.963,0,0,1,4.753,10.266c3.938,2.085,12.762,6.363,31,13.749a300.179,300.179,0,0,0,36.475,11.649c20.685,5.333,34.575,25.61,30.684,46.612-1.81,9.784-7.088,16.708-19.348,13.824-28.137-6.614-77.664-51.655-90.9-64.056a3.647,3.647,0,0,1-.764.082c-10.5-.7-21.253-8.083-25.869-11.633a15.421,15.421,0,0,1-2.312-1.865l-.043-.035Z" transform="translate(92.11 172.326)" fill="#ffb49a"/>
      <path id="Path_1888" data-name="Path 1888" d="M58.153,75.515S62.976,69.7,82.078,69.7s36.757,20.837,36.757,20.837" transform="translate(169.707 203.405)" fill="none" stroke="#c5c5c5" stroke-linecap="round" stroke-linejoin="round" stroke-width="1"/>
      <path id="Path_1889" data-name="Path 1889" d="M60.4,81.824a21.249,21.249,0,0,1,15.113-14.65C88.105,63.7,101.13,69.78,101.13,69.78" transform="translate(176.273 192.906)" fill="none" stroke="#c5c5c5" stroke-linecap="round" stroke-linejoin="round" stroke-width="1"/>
      <path id="Path_1890" data-name="Path 1890" d="M84.349,41.89S70.455,59.691,65.682,82.7s-2.32,57.375-2.32,57.375" transform="translate(183.066 122.247)" fill="none" stroke="#c5c5c5" stroke-linecap="round" stroke-linejoin="round" stroke-width="1"/>
      <path id="Path_1891" data-name="Path 1891" d="M102.005,84.826S84.7,98.634,69.652,98.634" transform="translate(203.265 247.547)" fill="none" stroke="#c5c5c5" stroke-linecap="round" stroke-linejoin="round" stroke-width="1"/>
      <path id="Path_1892" data-name="Path 1892" d="M37.847,90.714s10.728,8.1,67.383,3.472" transform="translate(110.448 264.729)" fill="none" stroke="#c5c5c5" stroke-linecap="round" stroke-linejoin="round" stroke-width="1"/>
      <path id="Path_1893" data-name="Path 1893" d="M35.527,81.259s28.545,4.812,48.622,2.9" transform="translate(103.678 237.137)" fill="none" stroke="#c5c5c5" stroke-linecap="round" stroke-linejoin="round" stroke-width="1"/>
      <line id="Line_65" data-name="Line 65" x2="20.258" transform="translate(187.827 339.277)" fill="none" stroke="#c5c5c5" stroke-linecap="round" stroke-linejoin="round" stroke-width="1"/>
      <path id="Path_1894" data-name="Path 1894" d="M43.356,55.589S53.81,67.163,75.5,62.536s43.771-26.629,43.771-26.629" transform="translate(126.525 104.787)" fill="none" stroke="#c5c5c5" stroke-linecap="round" stroke-linejoin="round" stroke-width="1"/>
      <path id="Path_1895" data-name="Path 1895" d="M41.466,43.919S34.453,66.747,34.2,90.668" transform="translate(99.8 128.168)" fill="none" stroke="#c5c5c5" stroke-linecap="round" stroke-linejoin="round" stroke-width="1"/>
      <path id="Path_1896" data-name="Path 1896" d="M60.4,123.9s20.034,173.553,30.743,206.98" transform="translate(176.273 361.585)" fill="none" stroke="#c5c5c5" stroke-linecap="round" stroke-linejoin="round" stroke-width="1"/>
      <path id="Path_1897" data-name="Path 1897" d="M53.211,268.856s-8.1-86.245-4.631-114.03" transform="translate(139.247 451.827)" fill="none" stroke="#c5c5c5" stroke-linecap="round" stroke-linejoin="round" stroke-width="1"/>
      <path id="Path_1898" data-name="Path 1898" d="M47.634,100.168S31.7,168.4,37.352,185.218" transform="translate(105.462 292.319)" fill="none" stroke="#c5c5c5" stroke-linecap="round" stroke-linejoin="round" stroke-width="1"/>
    </g>
  </g>
</svg>
