<svg id="Group_395" data-name="Group 395" xmlns="http://www.w3.org/2000/svg" xmlns:xlink="http://www.w3.org/1999/xlink" width="15.735" height="17.729" viewBox="0 0 15.735 17.729">
  <defs>
    <clipPath id="clip-path">
      <rect id="Rectangle_275" data-name="Rectangle 275" width="15.735" height="17.729" fill="#57a68f"/>
    </clipPath>
  </defs>
  <g id="Group_394" data-name="Group 394" clip-path="url(#clip-path)">
    <path id="Path_1264" data-name="Path 1264" d="M1.806,235.491a4.49,4.49,0,0,1-.77-.283,2.075,2.075,0,0,1-1.024-2.127A5.088,5.088,0,0,1,4,228.456a5.162,5.162,0,0,1,1.1-.124c1.846-.012,3.692-.01,5.538,0a5.1,5.1,0,0,1,5.048,4.41,2.631,2.631,0,0,1-.137,1.545,2.02,2.02,0,0,1-1.542,1.179.428.428,0,0,0-.078.03Z" transform="translate(0 -217.762)" fill="#57a68f"/>
    <path id="Path_1265" data-name="Path 1265" d="M71.632,4.556a4.553,4.553,0,1,1,4.547,4.551,4.554,4.554,0,0,1-4.547-4.551" transform="translate(-68.319 0)" fill="#57a68f"/>
  </g>
</svg>
