<svg xmlns="http://www.w3.org/2000/svg" xmlns:xlink="http://www.w3.org/1999/xlink" width="60.873" height="62" viewBox="0 0 60.873 62">
  <defs>
    <clipPath id="clip-path">
      <rect id="Rectangle_189" data-name="Rectangle 189" width="31.905" height="31.929" transform="translate(0 0)" fill="#fff"/>
    </clipPath>
  </defs>
  <g id="Group_1384" data-name="Group 1384" transform="translate(-363.127 -174.87)">
    <g id="Group_1385" data-name="Group 1385">
      <rect id="Rectangle_186" data-name="Rectangle 186" width="60.873" height="62" rx="9" transform="translate(363.127 174.87)" fill="#db9e30"/>
      <g id="Group_292" data-name="Group 292" transform="translate(393.57 183.3) rotate(45)">
        <g id="Group_291" data-name="Group 291" transform="translate(0 0.001)" clip-path="url(#clip-path)">
          <path id="Path_892" data-name="Path 892" d="M0,33.221c.072-.4.126-.8.218-1.188A7.756,7.756,0,0,1,2.26,28.315c.282-.289.566-.577.832-.848l7.59,7.61c-.2.3-.447.657-.688,1.017a.672.672,0,0,0,.09,1Q15.041,42.05,20,47.006a.66.66,0,0,0,.97.1c.355-.234.707-.474,1.06-.711a.307.307,0,0,1,.062-.014l7.589,7.51a8.685,8.685,0,0,1-3.817,2.757,7.593,7.593,0,0,1-8.072-1.785C14.28,51.46,10.858,47.963,7.4,44.5Q4.919,42.026,2.44,39.548A7.892,7.892,0,0,1,.052,34.641,2.039,2.039,0,0,0,0,34.405V33.221" transform="translate(0 -25.18)" fill="#fff"/>
          <path id="Path_893" data-name="Path 893" d="M47.2,0c.12.113.243.224.36.341Q50.682,3.457,53.8,6.575c.362.362.369.44.074.875l-1.151,1.7L45.3,1.727,46.954,0H47.2" transform="translate(-41.531 0)" fill="#fff"/>
          <path id="Path_894" data-name="Path 894" d="M184.456,20.693c0,.893.006,1.754-.006,2.615a.68.68,0,0,1-.133.425c-.2.217-.412.081-.605-.063q-1.86-1.386-3.722-2.77l-1.774-1.32c-.4-.3-.4-.514-.017-.8q2.772-2.064,5.552-4.119a.554.554,0,0,1,.468-.1.615.615,0,0,1,.227.456c.022.818.01,1.638.01,2.508h.381c1.4.011,2.806-.034,4.2.045a5.707,5.707,0,0,1,.551,11.3,12.218,12.218,0,0,1-1.922.11c-.488.016-.976.006-1.464,0-.382,0-.492-.115-.493-.508q0-1.075,0-2.15c0-.382.118-.5.505-.5.748-.006,1.5.02,2.243-.014a2.406,2.406,0,0,0,2.255-1.588,2.446,2.446,0,0,0-.5-2.717,2.228,2.228,0,0,0-1.608-.793c-1.368-.035-2.737-.011-4.151-.011" transform="translate(-163.099 -13.327)" fill="#fff"/>
          <path id="Path_895" data-name="Path 895" d="M280.382,241.393l-7.5-7.425a2.067,2.067,0,0,1,.17-.146c.557-.38,1.119-.754,1.673-1.139a.453.453,0,0,1,.662.045q3.246,3.253,6.5,6.5c.2.2.258.4.04.622-.5.507-1.013,1.011-1.546,1.544" transform="translate(-250.16 -213.193)" fill="#fff"/>
        </g>
      </g>
    </g>
  </g>
</svg>
