<svg xmlns="http://www.w3.org/2000/svg" xmlns:xlink="http://www.w3.org/1999/xlink" width="60.873" height="62" viewBox="0 0 60.873 62">
  <defs>
    <clipPath id="clip-path">
      <rect id="Rectangle_155" data-name="Rectangle 155" width="32.263" height="26.58" fill="#fff"/>
    </clipPath>
  </defs>
  <g id="Group_1386" data-name="Group 1386" transform="translate(-363.127 -69)">
    <rect id="Rectangle_154" data-name="Rectangle 154" width="60.873" height="62" rx="9" transform="translate(363.127 69)" fill="#db9e30"/>
    <g id="Group_200" data-name="Group 200" transform="translate(377.434 85.921)" clip-path="url(#clip-path)">
      <path id="Path_669" data-name="Path 669" d="M0,100.029c.125.009.249.026.374.027q2.927,0,5.855,0H6.6c.1,1.2-.394,2.009-1.43,2.14a12.648,12.648,0,0,1-3.882-.044A1.5,1.5,0,0,1,.066,100.83c-.017-.079-.044-.156-.066-.234v-.567" transform="translate(0 -88.692)" fill="#fff"/>
      <path id="Path_670" data-name="Path 670" d="M30.539,76h6.912c0-.421,0-.837,0-1.253s.068-.55.493-.569c.742-.034,1.486-.009,2.23.009.291.007.421.2.42.485,0,.473-.014.946.008,1.418a.79.79,0,0,0,.171.441,88.521,88.521,0,0,1,6.365,8.525,2.057,2.057,0,0,1,.358,1.207c-.023,1.649-.008,3.3-.01,4.947,0,.769-.35,1.123-1.112,1.124H21.636A.988.988,0,0,1,20.5,91.2c0-1.639.014-3.277-.011-4.916a1.979,1.979,0,0,1,.367-1.2c.877-1.269,1.716-2.567,2.643-3.8,1.224-1.627,2.518-3.2,3.775-4.8a.664.664,0,0,0,.13-.365c.015-.472.013-.945,0-1.418-.006-.3.117-.5.426-.507q1.146-.019,2.292,0c.29.005.42.191.415.483-.008.438,0,.876,0,1.33m8.111,3.327a.913.913,0,1,0-.915.919.92.92,0,0,0,.915-.919m-.926,2.237a.907.907,0,0,0-.9.928.913.913,0,0,0,1.825-.025.91.91,0,0,0-.926-.9m-2.847-2.215a.909.909,0,0,0-.907-.929.912.912,0,1,0,0,1.825.9.9,0,0,0,.907-.9m0,6.262a.893.893,0,0,0-.891-.907.912.912,0,0,0-.931.906.929.929,0,0,0,.931.914.908.908,0,0,0,.891-.913m0-3.141a.9.9,0,0,0-.894-.905.913.913,0,0,0-.929.91.934.934,0,0,0,.9.913.913.913,0,0,0,.921-.918m-4.657-.906a.9.9,0,0,0-.925.907.909.909,0,1,0,1.817,0,.9.9,0,0,0-.892-.909m7.525,3.14a.905.905,0,0,0-.921.882.913.913,0,1,0,1.825.018.907.907,0,0,0-.9-.9m-6.633-5.37a.909.909,0,1,0-.924.911.913.913,0,0,0,.924-.911M30.2,84.7a.9.9,0,0,0-.9.9.908.908,0,1,0,1.815.014A.9.9,0,0,0,30.2,84.7" transform="translate(-18.167 -65.755)" fill="#fff"/>
      <path id="Path_671" data-name="Path 671" d="M32.421,10.583H25.86c-.1-.609-.178-1.212-.313-1.8A4.475,4.475,0,0,0,23.7,5.849a5.381,5.381,0,0,0-2.459-.806c-.876-.087-1.759-.15-2.639-.155-2.142-.013-4.285-.016-6.426.038a6.088,6.088,0,0,0-2.98.8A4.532,4.532,0,0,0,7.15,8.707C7,9.315,6.914,9.94,6.795,10.578H.242c.032-.529.044-1.049.1-1.565A9.251,9.251,0,0,1,1.768,4.825,8.913,8.913,0,0,1,6.012,1.5,19.608,19.608,0,0,1,11.388.244,50.42,50.42,0,0,1,19.13.071a24.114,24.114,0,0,1,6.926,1.18,9.028,9.028,0,0,1,5.259,4.2,9.888,9.888,0,0,1,1.1,4.1c.022.332,0,.667,0,1.031" transform="translate(-0.215 0.001)" fill="#fff"/>
      <path id="Path_672" data-name="Path 672" d="M226.051,100.436h6.6a1.593,1.593,0,0,1-1.412,1.993,24.414,24.414,0,0,1-3.766,0c-.9-.063-1.48-.677-1.423-1.991" transform="translate(-200.427 -89.053)" fill="#fff"/>
    </g>
  </g>
</svg>
