<svg id="Group_199" data-name="Group 199" xmlns="http://www.w3.org/2000/svg" xmlns:xlink="http://www.w3.org/1999/xlink" width="310" height="306.206" viewBox="0 0 310 306.206">
  <defs>
    <clipPath id="clip-path">
      <rect id="Rectangle_153" data-name="Rectangle 153" width="310" height="306.206" fill="none"/>
    </clipPath>
    <clipPath id="clip-path-3">
      <rect id="Rectangle_116" data-name="Rectangle 116" width="213.169" height="28.005" fill="none"/>
    </clipPath>
    <clipPath id="clip-path-4">
      <rect id="Rectangle_117" data-name="Rectangle 117" width="188.269" height="35.981" fill="none"/>
    </clipPath>
    <clipPath id="clip-path-5">
      <rect id="Rectangle_136" data-name="Rectangle 136" width="34.49" height="18.218" fill="none"/>
    </clipPath>
    <clipPath id="clip-path-6">
      <rect id="Rectangle_137" data-name="Rectangle 137" width="54.483" height="73.073" fill="none"/>
    </clipPath>
    <clipPath id="clip-path-7">
      <rect id="Rectangle_138" data-name="Rectangle 138" width="57.137" height="100.639" fill="none"/>
    </clipPath>
    <clipPath id="clip-path-8">
      <rect id="Rectangle_139" data-name="Rectangle 139" width="94.959" height="86.571" fill="none"/>
    </clipPath>
    <clipPath id="clip-path-9">
      <rect id="Rectangle_140" data-name="Rectangle 140" width="47.142" height="80.912" fill="none"/>
    </clipPath>
    <clipPath id="clip-path-10">
      <rect id="Rectangle_142" data-name="Rectangle 142" width="52.996" height="38.603" fill="none"/>
    </clipPath>
    <clipPath id="clip-path-11">
      <rect id="Rectangle_143" data-name="Rectangle 143" width="48.462" height="38.563" fill="none"/>
    </clipPath>
    <clipPath id="clip-path-12">
      <rect id="Rectangle_144" data-name="Rectangle 144" width="13.268" height="104.377" fill="none"/>
    </clipPath>
    <clipPath id="clip-path-13">
      <rect id="Rectangle_145" data-name="Rectangle 145" width="12.328" height="97.009" fill="none"/>
    </clipPath>
    <clipPath id="clip-path-14">
      <rect id="Rectangle_146" data-name="Rectangle 146" width="17.043" height="36.267" fill="none"/>
    </clipPath>
    <clipPath id="clip-path-15">
      <rect id="Rectangle_147" data-name="Rectangle 147" width="2.188" height="23.464" fill="none"/>
    </clipPath>
    <clipPath id="clip-path-16">
      <rect id="Rectangle_148" data-name="Rectangle 148" width="8.754" height="19.593" fill="none"/>
    </clipPath>
    <clipPath id="clip-path-17">
      <rect id="Rectangle_149" data-name="Rectangle 149" width="16.576" height="36.265" fill="none"/>
    </clipPath>
    <clipPath id="clip-path-18">
      <rect id="Rectangle_150" data-name="Rectangle 150" width="2.192" height="23.467" fill="none"/>
    </clipPath>
    <clipPath id="clip-path-19">
      <rect id="Rectangle_151" data-name="Rectangle 151" width="8.645" height="19.597" fill="none"/>
    </clipPath>
  </defs>
  <g id="Group_198" data-name="Group 198" clip-path="url(#clip-path)">
    <g id="Group_197" data-name="Group 197">
      <g id="Group_196" data-name="Group 196" clip-path="url(#clip-path)">
        <g id="Group_147" data-name="Group 147" transform="translate(0 246.509)" style="mix-blend-mode: multiply;isolation: isolate">
          <g id="Group_146" data-name="Group 146">
            <g id="Group_145" data-name="Group 145" clip-path="url(#clip-path-3)">
              <path id="Path_625" data-name="Path 625" d="M213.169,266.078c0,7.732-47.719,14-106.584,14S0,273.81,0,266.078s47.718-14,106.584-14,106.584,6.269,106.584,14" transform="translate(0 -252.075)" fill="#a3a3a3"/>
            </g>
          </g>
        </g>
        <g id="Group_150" data-name="Group 150" transform="translate(121.731 270.224)" style="mix-blend-mode: multiply;isolation: isolate">
          <g id="Group_149" data-name="Group 149">
            <g id="Group_148" data-name="Group 148" clip-path="url(#clip-path-4)">
              <path id="Path_626" data-name="Path 626" d="M312.749,294.318c0,9.935-42.145,17.99-94.135,17.99s-94.133-8.055-94.133-17.99,42.144-17.991,94.133-17.991,94.135,8.055,94.135,17.991" transform="translate(-124.48 -276.326)" fill="#a3a3a3"/>
            </g>
          </g>
        </g>
        <path id="Rectangle_118" data-name="Rectangle 118" d="M18.483,0H151.845a18.484,18.484,0,0,1,18.484,18.484V243.767a18.484,18.484,0,0,1-18.484,18.484H18.486A18.486,18.486,0,0,1,0,243.765V18.483A18.483,18.483,0,0,1,18.483,0Z" transform="translate(17.15 0)" fill="#1d1d1c"/>
        <rect id="Rectangle_119" data-name="Rectangle 119" width="145.607" height="214.426" transform="translate(29.511 18.333)" fill="#fff"/>
        <path id="Path_627" data-name="Path 627" d="M125.193,251.936a6.177,6.177,0,0,1-6.178,6.177h-27.1a6.177,6.177,0,0,1,0-12.354h27.1a6.179,6.179,0,0,1,6.178,6.177" transform="translate(-1.893 -5.427)" fill="#161615"/>
        <path id="Path_628" data-name="Path 628" d="M122.589,251.967a4.784,4.784,0,0,1-4.782,4.786H92.9a4.784,4.784,0,1,1,0-9.568h24.906a4.782,4.782,0,0,1,4.782,4.782" transform="translate(-1.946 -5.458)" fill="#2e2e2d"/>
        <path id="Path_629" data-name="Path 629" d="M115.821,8.469c0,1.98-1.6,2.776-3.586,2.776H96.5c-1.981,0-3.588-.8-3.588-2.776S94.516,5.69,96.5,5.69h15.738c1.982,0,3.586.8,3.586,2.779" transform="translate(-2.052 -0.126)" fill="#161615"/>
        <path id="Path_630" data-name="Path 630" d="M114.307,8.488c0,1.533-1.243,1.969-2.775,1.969H97.07c-1.532,0-2.778-.435-2.778-1.969S95.538,6.52,97.07,6.52h14.461c1.532,0,2.775.434,2.775,1.968" transform="translate(-2.082 -0.144)" fill="#2e2e2d"/>
        <path id="Path_631" data-name="Path 631" d="M159.337,110.137c0-.092,0-.183-.007-.277h-.463L105.12,78.309,47.884,109.861H47.39c0,.094,0,.185-.007.277h0v62.638a12.59,12.59,0,0,0,12.59,12.591h86.779a12.591,12.591,0,0,0,12.591-12.591V110.137Z" transform="translate(-1.046 -1.729)" fill="#c18620"/>
        <rect id="Rectangle_120" data-name="Rectangle 120" width="111.95" height="1.759" transform="translate(46.344 108.131)" fill="#db9e30"/>
        <rect id="Rectangle_121" data-name="Rectangle 121" width="75.006" height="93.553" transform="translate(64.338 76.655)" fill="#d2d1d1"/>
        <rect id="Rectangle_122" data-name="Rectangle 122" width="55.382" height="1.875" transform="translate(73.677 92.421)" fill="#fff"/>
        <rect id="Rectangle_123" data-name="Rectangle 123" width="55.382" height="1.874" transform="translate(73.677 95.519)" fill="#fff"/>
        <rect id="Rectangle_124" data-name="Rectangle 124" width="55.382" height="1.874" transform="translate(73.677 98.616)" fill="#fff"/>
        <rect id="Rectangle_125" data-name="Rectangle 125" width="55.382" height="1.874" transform="translate(73.677 111.702)" fill="#fff"/>
        <rect id="Rectangle_126" data-name="Rectangle 126" width="55.382" height="1.873" transform="translate(73.677 114.802)" fill="#fff"/>
        <rect id="Rectangle_127" data-name="Rectangle 127" width="55.382" height="1.876" transform="translate(73.677 117.897)" fill="#fff"/>
        <rect id="Rectangle_128" data-name="Rectangle 128" width="55.382" height="1.875" transform="translate(73.677 131.468)" fill="#fff"/>
        <rect id="Rectangle_129" data-name="Rectangle 129" width="55.382" height="1.874" transform="translate(73.677 134.567)" fill="#fff"/>
        <rect id="Rectangle_130" data-name="Rectangle 130" width="55.382" height="1.875" transform="translate(73.677 137.663)" fill="#fff"/>
        <rect id="Rectangle_131" data-name="Rectangle 131" width="55.382" height="1.874" transform="translate(73.677 151.24)" fill="#fff"/>
        <rect id="Rectangle_132" data-name="Rectangle 132" width="55.382" height="1.873" transform="translate(73.677 154.338)" fill="#fff"/>
        <rect id="Rectangle_133" data-name="Rectangle 133" width="55.382" height="1.874" transform="translate(73.677 157.434)" fill="#fff"/>
        <path id="Path_632" data-name="Path 632" d="M159.34,110.96V173.5a12.59,12.59,0,0,1-12.591,12.591H59.971A12.589,12.589,0,0,1,47.381,173.5V110.96l55.979,37.563Z" transform="translate(-1.046 -2.45)" fill="#db9e30"/>
        <path id="Path_633" data-name="Path 633" d="M103.36,148.523,47.381,110.96v2.774L103.36,151.3l55.98-37.565V110.96Z" transform="translate(-1.046 -2.45)" fill="#fff"/>
        <path id="Path_634" data-name="Path 634" d="M287.063,142.449l-.095-4.853a8.34,8.34,0,0,0-3.464-5.843s-9.7-5.972-10.49-29.165c0,0-1.31-32.225-38.843-31.534l-17.482.327" transform="translate(-4.785 -1.569)" fill="none" stroke="#202730" stroke-linecap="round" stroke-linejoin="round" stroke-width="2.876"/>
        <path id="Path_635" data-name="Path 635" d="M155.467,144.866l-.088-4.855a8.34,8.34,0,0,1,3.244-5.965s9.477-6.326,9.4-29.533c0,0,.116-32.253,37.648-32.951l17.485-.323" transform="translate(-3.431 -1.573)" fill="none" stroke="#202730" stroke-linecap="round" stroke-linejoin="round" stroke-width="2.876"/>
        <rect id="Rectangle_134" data-name="Rectangle 134" width="75.285" height="82.414" transform="translate(176.729 139.727) rotate(-1.062)" fill="#63430e"/>
        <path id="Path_636" data-name="Path 636" d="M263.9,217.219c-18.836-1.774-28.193-7.159-29.794-8.162l-33.471.621c-1.566,1.061-10.72,6.789-29.476,9.26,0,0-35.8,2-33.592,66.94,0,0,27.182,11.658,81.419,10.55,54.234-.9,80.968-13.563,80.968-13.563-.2-64.973-36.052-65.647-36.052-65.647" transform="translate(-3.036 -4.616)" fill="#f6b99d"/>
        <path id="Path_637" data-name="Path 637" d="M171.161,219.121s-35.8,2-33.591,66.941c0,0,27.181,11.658,81.419,10.55,54.234-.9,80.967-13.563,80.967-13.563-.2-64.972-36.052-65.647-36.052-65.647s-34.933-1.829-46.141,13.235c0,0-11.406-18.061-46.6-11.516" transform="translate(-3.036 -4.799)" fill="#fff"/>
        <rect id="Rectangle_135" data-name="Rectangle 135" width="34.182" height="24.859" transform="translate(196.914 187.01) rotate(-1.062)" fill="#f6b99d"/>
        <g id="Group_153" data-name="Group 153" transform="translate(196.915 186.376)" style="mix-blend-mode: multiply;isolation: isolate">
          <g id="Group_152" data-name="Group 152">
            <g id="Group_151" data-name="Group 151" clip-path="url(#clip-path-5)">
              <path id="Path_638" data-name="Path 638" d="M201.492,198.3v.006c.385.441.772.876,1.186,1.286a37.323,37.323,0,0,0,3.43,3.064l.109.088c.388.272.782.54,1.186.8.609.4,1.225.791,1.862,1.148.919.525,1.852,1.03,2.811,1.483.306.113,1.211.466,1.483.556.928.3,1.853.584,2.8.814.973.236,1.943.469,2.926.639a18.94,18.94,0,0,1,1.912.329,52.92,52.92,0,0,0,6.943.259c.991-.036,1.989-.074,2.978-.171.318-.03,1.794-.279,1.943-.283.944-.225,1.873-.5,2.792-.819l-.315-16.917-34.176.635.131,7.011c.1.146.126.2,0,.073" transform="translate(-201.361 -190.585)" fill="#d2d1d1"/>
            </g>
          </g>
        </g>
        <path id="Path_639" data-name="Path 639" d="M255.989,143.159c.544,29.436-16.421,53.624-37.9,54.021s-39.323-23.142-39.87-52.579,16.52-48.21,38-48.61,39.223,17.731,39.772,47.168" transform="translate(-3.935 -2.12)" fill="#f6b99d"/>
        <g id="Group_156" data-name="Group 156" transform="translate(189.885 107.448)" opacity="0.5" style="mix-blend-mode: soft-light;isolation: isolate">
          <g id="Group_155" data-name="Group 155">
            <g id="Group_154" data-name="Group 154" clip-path="url(#clip-path-6)">
              <path id="Path_640" data-name="Path 640" d="M196.286,120.521c.008-.067.022-.133.032-.2a27.771,27.771,0,0,1,21.254-10.439c16.778-.313,30.649,13.848,31.073,36.847.284,15.326-5.513,28.822-14.375,36.221,0,0-50.952-5.119-37.984-62.426" transform="translate(-194.173 -109.874)" fill="#fff"/>
            </g>
          </g>
        </g>
        <g id="Group_159" data-name="Group 159" transform="translate(174.272 94.427)" style="mix-blend-mode: multiply;isolation: isolate">
          <g id="Group_158" data-name="Group 158">
            <g id="Group_157" data-name="Group 157" clip-path="url(#clip-path-7)">
              <path id="Path_641" data-name="Path 641" d="M211.818,185.581c-13.4-8.1-20.885-22.143-23-37.361-1.988-14.294,1.363-30.212,10.243-41.708a39.77,39.77,0,0,1,11.484-9.952c-18.724,3.314-32.817,21.265-32.321,48.054.547,29.437,18.4,52.98,39.87,52.58a30.518,30.518,0,0,0,17.254-5.916,41.074,41.074,0,0,1-23.526-5.7" transform="translate(-178.207 -96.559)" fill="#e8e8e8"/>
            </g>
          </g>
        </g>
        <path id="Path_642" data-name="Path 642" d="M199.02,210.694c-3.594,2.042-12.513,6.244-27.859,8.265,0,0-35.8,2-33.591,66.941,0,0,27.181,11.658,81.418,10.55,54.234-.9,80.968-13.563,80.968-13.563-.2-64.972-36.052-65.647-36.052-65.647-15.412-1.451-24.48-5.32-28.147-7.228,0,0,19.9,42.214-16.867,81.218,0,0-36.91-36.65-19.868-80.536" transform="translate(-3.036 -4.637)" fill="#57a68f"/>
        <path id="Path_643" data-name="Path 643" d="M189.31,242.508c.017.083.032.165.053.247.147.664.3,1.324.46,1.982.1-.046.195-.089.292-.131-.277-.687-.547-1.391-.8-2.1" transform="translate(-4.18 -5.355)" fill="#00a4b6"/>
        <path id="Path_644" data-name="Path 644" d="M264.636,217.24c-15.412-1.451-24.48-5.32-28.147-7.229,0,0,19.895,42.214-16.867,81.218,0,0-36.91-36.649-19.868-80.535-3.594,2.042-12.514,6.243-27.859,8.265a29.681,29.681,0,0,0,7.14,29.163s5.372-3.022,8.311-2.243l-10.238,7.816s2.993,29.5,35.4,42.889l16.285-.3s27.624-14.088,31.808-50.089c0,0-2.641-2.883-10.694-5.23a25.165,25.165,0,0,1,10.578-1.034s10.447-5.736,4.149-22.689" transform="translate(-3.768 -4.637)" fill="#3e826f"/>
        <g id="Group_162" data-name="Group 162" transform="translate(167.928 205.375)" style="mix-blend-mode: multiply;isolation: isolate">
          <g id="Group_161" data-name="Group 161">
            <g id="Group_160" data-name="Group 160" clip-path="url(#clip-path-8)">
              <path id="Path_645" data-name="Path 645" d="M264.659,217.24c-15.412-1.451-24.48-5.32-28.147-7.229,0,0,19.895,42.214-16.867,81.218,0,0-.363-.358-.989-1.036l0,0c-4.6,1.515-9.547-1.006-13.34-3.427a64.746,64.746,0,0,1-12.381-9.943c-3.612-3.849-7.519-8.651-8.393-14.035-1.187-7.313,1.438-13.452,7.728-17.517a8.471,8.471,0,0,1,3.7-1.295,65.231,65.231,0,0,1,3.807-33.285c-3.594,2.042-12.514,6.243-27.859,8.265,0,0-.079.227-.2.633,4.128-.457,8.157-1.325,12.134.888,7.878,4.389,6.759,14.107,1.966,20.312a21.859,21.859,0,0,1-7.982,5.964c.389.457.793.912,1.22,1.366,0,0,5.372-3.022,8.311-2.243l-10.238,7.816s2.993,29.5,35.4,42.889l16.285-.3s27.624-14.088,31.808-50.089c0,0-2.641-2.883-10.694-5.23a25.165,25.165,0,0,1,10.578-1.034s10.447-5.736,4.149-22.689" transform="translate(-171.72 -210.012)" fill="none"/>
            </g>
          </g>
        </g>
        <g id="Group_165" data-name="Group 165" transform="translate(215.745 210.903)" style="mix-blend-mode: multiply;isolation: isolate">
          <g id="Group_164" data-name="Group 164">
            <g id="Group_163" data-name="Group 163" clip-path="url(#clip-path-9)">
              <path id="Path_646" data-name="Path 646" d="M265.739,217.365a106.109,106.109,0,0,1-11.51-1.7,21.451,21.451,0,0,1,1.511,6.383c.34,5.084-1.212,10.789-5.03,14.386a23.44,23.44,0,0,1-7.816,4.825c-.015.239-.029.482-.041.723,14.872,15.179-2.132,46.771-21.206,48.37-.306.337-.608.669-.922,1,0,0-.046-.046-.109-.114l.1,5.337,9.185-.171s27.624-14.088,31.808-50.089c0,0-2.641-2.883-10.694-5.23a25.166,25.166,0,0,1,10.578-1.034s10.447-5.736,4.149-22.689" transform="translate(-220.617 -215.665)" fill="#e8e8e8"/>
            </g>
          </g>
        </g>
        <rect id="Rectangle_141" data-name="Rectangle 141" width="1.101" height="59.929" transform="matrix(1, -0.018, 0.018, 1, 214.203, 225.848)" fill="#bababa"/>
        <path id="Path_647" data-name="Path 647" d="M200.188,210.709s-15.462,5.9-7.583,25.074c0,0,1.372-20.507,26.672,1.8,0,0,1.34-17.254-8.227-20.734,0,0-10.777-1.419-10.862-6.143" transform="translate(-4.204 -4.653)" fill="#d6d6d6"/>
        <path id="Path_648" data-name="Path 648" d="M237.931,210.006s14.105,5.059,6.635,22.514c0,0-8.057-17.812-24.644,5.051,0,0-2.762-18.9,7.376-21.021,0,0,10.718-1.821,10.632-6.543" transform="translate(-4.849 -4.637)" fill="#d6d6d6"/>
        <path id="Path_649" data-name="Path 649" d="M193.715,96.673s26.878,36.705,58.3,45.307l-2.382,57.881s1.025,10.807-11.5,16.467c0,0,22.477,5.557,26.619-10.5l-3.094-70.56s-6.83-73.412-67.941-38.592" transform="translate(-4.278 -1.928)" fill="#db9e30"/>
        <path id="Path_650" data-name="Path 650" d="M188.41,217.395l-1.371-74.062c-1.986-32.022,24.377-35.776,24.377-35.776L198.843,94.351s-44.123,9.5-28.682,108.908c0,0-.792,15.049,18.249,14.136" transform="translate(-3.685 -2.083)" fill="#db9e30"/>
        <g id="Group_168" data-name="Group 168" transform="translate(194.765 91.362)" style="mix-blend-mode: multiply;isolation: isolate">
          <g id="Group_167" data-name="Group 167">
            <g id="Group_166" data-name="Group 166" clip-path="url(#clip-path-10)">
              <path id="Path_651" data-name="Path 651" d="M199.163,100.49a24.593,24.593,0,0,1,2.717-1.808c.9-.513,2.008-1.146,3.339-1.742.66-.313,1.379-.607,2.136-.926.767-.292,1.576-.595,2.441-.859.858-.288,1.773-.524,2.722-.775.471-.133.969-.212,1.465-.315s1-.2,1.524-.272a31.844,31.844,0,0,1,6.638-.326l1.758.141,1.774.287a15.067,15.067,0,0,1,1.781.392l.894.234.446.12.433.155c.586.212,1.169.425,1.759.641s1.138.52,1.7.787l.848.414c.28.144.54.321.811.479l1.613.988a30.679,30.679,0,0,1,5.531,4.986c.4.463.8.918,1.191,1.385.343.49.692.975,1.035,1.46s.7.959,1.007,1.455c.292.5.579,1.005.866,1.5s.567.988.848,1.475q.351.761.7,1.5a30.66,30.66,0,0,1,1.267,2.936c.354.97.7,1.917,1.029,2.829.277.928.515,1.835.762,2.7.227.867.5,1.679.634,2.486.154.8.3,1.558.435,2.268s.285,1.37.36,1.993.142,1.2.2,1.708c.128,1.029.193,1.841.251,2.393s.074.844.074.844-.107-.277-.3-.8-.471-1.286-.8-2.259c-.161-.484-.346-1.021-.545-1.608q-.33-.865-.711-1.87c-.515-1.323-1.043-2.832-1.756-4.414-.348-.8-.694-1.628-1.079-2.476-.414-.831-.842-1.69-1.278-2.57-.41-.9-.947-1.75-1.45-2.642-.252-.444-.508-.893-.764-1.348-.29-.431-.584-.864-.876-1.307s-.588-.878-.885-1.323-.654-.844-.979-1.273-.668-.846-1-1.274c-.366-.4-.731-.8-1.1-1.2a30.431,30.431,0,0,0-4.909-4.292l-1.38-.863c-.235-.139-.456-.3-.7-.422l-.725-.359-.726-.363a6.361,6.361,0,0,0-.728-.347l-1.5-.6a28.318,28.318,0,0,0-6.143-1.468,34.323,34.323,0,0,0-6.024-.208,43.2,43.2,0,0,0-5.471.605,59.585,59.585,0,0,0-8.13,2.042c-.971.333-1.739.584-2.253.787s-.791.305-.791.305" transform="translate(-199.163 -93.425)" fill="#bababa"/>
            </g>
          </g>
        </g>
        <g id="Group_171" data-name="Group 171" transform="translate(193.45 97.2)" style="mix-blend-mode: multiply;isolation: isolate">
          <g id="Group_170" data-name="Group 170">
            <g id="Group_169" data-name="Group 169" clip-path="url(#clip-path-11)">
              <path id="Path_652" data-name="Path 652" d="M197.818,106.338a21.541,21.541,0,0,1,2.523-1.811,34.876,34.876,0,0,1,3.124-1.757,34.456,34.456,0,0,1,4.332-1.786,30.023,30.023,0,0,1,5.457-1.3,25.258,25.258,0,0,1,6.364-.154,22.546,22.546,0,0,1,6.706,1.667l.827.332c.268.131.529.273.793.41.53.278,1.073.544,1.582.849a27.909,27.909,0,0,1,2.927,2.094c.452.385.925.759,1.361,1.165l1.247,1.272.616.636c.2.218.37.455.556.685q.546.682,1.084,1.367a14.816,14.816,0,0,1,.993,1.413c.309.478.616.952.922,1.429l.231.355.195.368c.134.245.262.489.4.734.258.486.513.971.77,1.453a14.893,14.893,0,0,1,.678,1.456c.21.488.415.969.618,1.448s.418.945.58,1.425.322.947.479,1.416.305.923.457,1.375.307.895.4,1.349q.342,1.332.651,2.576c.1.414.2.817.3,1.213.07.4.145.791.215,1.168.13.765.255,1.485.369,2.162.262,1.351.349,2.553.449,3.533s.155,1.754.2,2.278.057.8.057.8-.1-.264-.275-.764-.427-1.227-.719-2.16-.645-2.063-1.127-3.332c-.227-.638-.47-1.314-.726-2.028-.122-.358-.25-.723-.382-1.1q-.221-.549-.457-1.127-.458-1.151-.948-2.391c-.325-.827-.737-1.643-1.119-2.5-.192-.426-.385-.863-.583-1.3s-.443-.855-.669-1.29-.455-.87-.685-1.311a13.249,13.249,0,0,0-.73-1.313c-.265-.426-.53-.86-.8-1.3l-.4-.656-.2-.332-.226-.311c-.3-.417-.6-.835-.9-1.256a13.609,13.609,0,0,0-.93-1.245c-.334-.4-.672-.793-1.008-1.192-.169-.2-.329-.4-.509-.593l-.547-.553-1.1-1.1c-.383-.348-.8-.658-1.191-1a23.87,23.87,0,0,0-2.486-1.823c-.439-.26-.894-.493-1.334-.75-.222-.122-.438-.253-.666-.369l-.7-.3c-.468-.191-.916-.429-1.392-.584s-.949-.321-1.42-.479-.962-.242-1.442-.365c-.238-.06-.474-.118-.714-.174l-.721-.116c-.484-.066-.961-.179-1.442-.206s-.96-.08-1.431-.122-.946-.018-1.414-.031a13.6,13.6,0,0,0-1.385.024,33.859,33.859,0,0,0-5.17.585c-1.606.277-3.061.672-4.355,1.028-1.285.375-2.408.741-3.319,1.074s-1.629.61-2.115.82l-.739.318" transform="translate(-197.818 -99.395)" fill="#bababa"/>
            </g>
          </g>
        </g>
        <g id="Group_174" data-name="Group 174" transform="translate(176.092 107.822)" style="mix-blend-mode: multiply;isolation: isolate">
          <g id="Group_173" data-name="Group 173">
            <g id="Group_172" data-name="Group 172" clip-path="url(#clip-path-12)">
              <path id="Path_653" data-name="Path 653" d="M193.336,110.257a7.349,7.349,0,0,0-1,.685,16.474,16.474,0,0,0-2.409,2.372,22.867,22.867,0,0,0-2.822,4.351,31.542,31.542,0,0,0-2.28,6.285,46.46,46.46,0,0,0-1.2,7.833,73.945,73.945,0,0,0,.016,8.89c.179,3.237.283,6.456.364,9.8s.158,6.706.241,10.083c.038,3.374.077,6.756.115,10.081s0,6.6.008,9.768-.066,6.23-.1,9.133-.118,5.652-.19,8.188c-.141,5.07-.348,9.3-.512,12.261s-.3,4.65-.3,4.65-.2-1.684-.476-4.637-.638-7.167-.964-12.231c-.166-2.533-.357-5.275-.495-8.174s-.337-5.961-.44-9.125-.272-6.44-.357-9.764-.169-6.7-.254-10.078c-.046-3.379-.091-6.758-.132-10.082-.07-3.309-.013-6.639-.057-9.73-.024-.809-.024-1.611-.01-2.413s.027-1.585.075-2.369c.088-1.56.252-3.088.455-4.568s.484-2.914.791-4.286a40.361,40.361,0,0,1,1.182-3.912,28.144,28.144,0,0,1,3.167-6.39,20.674,20.674,0,0,1,3.592-4.135,14.412,14.412,0,0,1,2.876-1.988,7.689,7.689,0,0,1,1.12-.495" transform="translate(-180.068 -110.257)" fill="#bababa"/>
            </g>
          </g>
        </g>
        <g id="Group_177" data-name="Group 177" transform="translate(168.591 111.656)" style="mix-blend-mode: multiply;isolation: isolate">
          <g id="Group_176" data-name="Group 176">
            <g id="Group_175" data-name="Group 175" clip-path="url(#clip-path-13)">
              <path id="Path_654" data-name="Path 654" d="M184.726,114.177a6.894,6.894,0,0,0-.928.637,15.524,15.524,0,0,0-2.242,2.206,21.512,21.512,0,0,0-2.62,4.043,29.448,29.448,0,0,0-2.118,5.843,42.81,42.81,0,0,0-1.109,7.277,67.931,67.931,0,0,0,.011,8.262c.17,3.009.266,6,.337,9.1s.151,6.23.227,9.372c.033,3.139.071,6.277.109,9.372s0,6.13,0,9.076-.057,5.791-.094,8.491-.109,5.252-.176,7.609c-.131,4.714-.321,8.642-.476,11.395-.067,1.374-.158,2.455-.2,3.193s-.079,1.129-.079,1.129-.041-.392-.118-1.126-.208-1.814-.324-3.183c-.256-2.745-.593-6.663-.9-11.368-.154-2.352-.334-4.9-.464-7.6s-.309-5.539-.4-8.482-.255-5.982-.334-9.071-.161-6.227-.238-9.369c-.043-3.14-.082-6.279-.121-9.372-.067-3.072-.011-6.166-.052-9.042a52.11,52.11,0,0,1,.485-8.689c.189-1.375.447-2.709.734-3.985a37.932,37.932,0,0,1,1.1-3.633,26.124,26.124,0,0,1,2.945-5.943,19.167,19.167,0,0,1,3.341-3.838,13.3,13.3,0,0,1,2.669-1.848,6.757,6.757,0,0,1,1.04-.461" transform="translate(-172.398 -114.177)" fill="#bababa"/>
            </g>
          </g>
        </g>
        <path id="Path_655" data-name="Path 655" d="M290.853,145.579a3.358,3.358,0,1,1-3.415-3.278,3.343,3.343,0,0,1,3.415,3.278" transform="translate(-6.274 -3.142)" fill="#b35f00"/>
        <path id="Path_656" data-name="Path 656" d="M260.082,136.209a8.58,8.58,0,0,1,17.158-.316l.36,19.2a8.582,8.582,0,0,1-17.16.318Z" transform="translate(-5.743 -2.816)" fill="#353e49"/>
        <g id="Group_180" data-name="Group 180" transform="translate(254.814 124.699)" style="mix-blend-mode: multiply;isolation: isolate">
          <g id="Group_179" data-name="Group 179">
            <g id="Group_178" data-name="Group 178" clip-path="url(#clip-path-14)">
              <path id="Path_657" data-name="Path 657" d="M270.439,136.476c3.794,4.514,4.4,9.83,3.446,15.478-.816,4.838-4.321,9.775-9.336,10.568a8.582,8.582,0,0,0,13.06-7.431l-.359-19.2a8.581,8.581,0,0,0-16.682-2.617c3.615-.512,7.41.268,9.871,3.2" transform="translate(-260.568 -127.515)" fill="#bababa"/>
            </g>
          </g>
        </g>
        <g id="Group_183" data-name="Group 183" transform="translate(257.378 132.432)" opacity="0.5" style="mix-blend-mode: soft-light;isolation: isolate">
          <g id="Group_182" data-name="Group 182">
            <g id="Group_181" data-name="Group 181" clip-path="url(#clip-path-15)">
              <path id="Path_658" data-name="Path 658" d="M263.19,136.328a.893.893,0,0,1,1.786-.033l.4,21.687a.894.894,0,0,1-1.787.035Z" transform="translate(-263.19 -135.422)" fill="#fff"/>
            </g>
          </g>
        </g>
        <path id="Path_659" data-name="Path 659" d="M276.378,132.547l.482,26.149a13.551,13.551,0,0,0-.482-26.149" transform="translate(-6.103 -2.927)" fill="#db9e30"/>
        <g id="Group_186" data-name="Group 186" transform="translate(270.398 136.176)" style="mix-blend-mode: multiply;isolation: isolate">
          <g id="Group_185" data-name="Group 185">
            <g id="Group_184" data-name="Group 184" clip-path="url(#clip-path-16)">
              <path id="Path_660" data-name="Path 660" d="M282.649,150.657c-4.42-2.721-5.612-6.659-6.144-11.406l.359,19.593a13.65,13.65,0,0,0,8.394-7.11,9.171,9.171,0,0,1-2.609-1.076" transform="translate(-276.504 -139.251)" fill="#d2d1d1"/>
            </g>
          </g>
        </g>
        <path id="Path_661" data-name="Path 661" d="M280.179,153.108s5.764,44.734-41.431,44.335" transform="translate(-5.272 -3.381)" fill="none" stroke="#202730" stroke-linecap="round" stroke-linejoin="round" stroke-width="3.281"/>
        <path id="Path_662" data-name="Path 662" d="M240.2,198.507a3.923,3.923,0,0,1-3.86,3.983l-5.277.1a3.911,3.911,0,1,1-.146-7.82l5.278-.1a3.925,3.925,0,0,1,4,3.837" transform="translate(-5.014 -4.299)" fill="#1a2027"/>
        <path id="Path_663" data-name="Path 663" d="M153.173,148.131a3.357,3.357,0,1,0,3.293-3.4,3.346,3.346,0,0,0-3.293,3.4" transform="translate(-3.382 -3.196)" fill="#b35f00"/>
        <path id="Path_664" data-name="Path 664" d="M183.346,137.632a8.579,8.579,0,0,0-17.156.316l.355,19.2a8.581,8.581,0,0,0,17.159-.318Z" transform="translate(-3.67 -2.854)" fill="#353e49"/>
        <g id="Group_189" data-name="Group 189" transform="translate(162.519 126.402)" style="mix-blend-mode: multiply;isolation: isolate">
          <g id="Group_188" data-name="Group 188">
            <g id="Group_187" data-name="Group 187" clip-path="url(#clip-path-17)">
              <path id="Path_665" data-name="Path 665" d="M173.015,138.279c-3.621,4.653-4.029,9.985-2.869,15.595.992,4.8,4.68,9.609,9.723,10.215a8.581,8.581,0,0,1-13.323-6.942l-.355-19.2a8.581,8.581,0,0,1,16.575-3.23c-3.633-.378-7.4.544-9.75,3.562" transform="translate(-166.189 -129.256)" fill="#bababa"/>
            </g>
          </g>
        </g>
        <g id="Group_192" data-name="Group 192" transform="translate(174.85 133.96)" opacity="0.5" style="mix-blend-mode: soft-light;isolation: isolate">
          <g id="Group_191" data-name="Group 191">
            <g id="Group_190" data-name="Group 190" clip-path="url(#clip-path-18)">
              <path id="Path_666" data-name="Path 666" d="M180.588,137.857a.895.895,0,0,0-1.79.035l.4,21.688a.895.895,0,0,0,1.789-.036Z" transform="translate(-178.798 -136.985)" fill="#fff"/>
            </g>
          </g>
        </g>
        <path id="Path_667" data-name="Path 667" d="M167.087,134.571l.482,26.149a13.551,13.551,0,0,1-.482-26.149" transform="translate(-3.474 -2.972)" fill="#db9e30"/>
        <g id="Group_195" data-name="Group 195" transform="translate(155.45 138.152)" style="mix-blend-mode: multiply;isolation: isolate">
          <g id="Group_194" data-name="Group 194">
            <g id="Group_193" data-name="Group 193" clip-path="url(#clip-path-19)">
              <path id="Path_668" data-name="Path 668" d="M161.52,152.9c4.322-2.885,5.365-6.859,5.726-11.628l.36,19.6a13.666,13.666,0,0,1-8.645-6.8,9.1,9.1,0,0,0,2.559-1.171" transform="translate(-158.96 -141.272)" fill="#d2d1d1"/>
            </g>
          </g>
        </g>
      </g>
    </g>
  </g>
</svg>
