<svg id="Group_1025" data-name="Group 1025" xmlns="http://www.w3.org/2000/svg" xmlns:xlink="http://www.w3.org/1999/xlink" width="10.154" height="10.152" viewBox="0 0 10.154 10.152">
  <defs>
    <clipPath id="clip-path">
      <rect id="Rectangle_592" data-name="Rectangle 592" width="10.154" height="10.152" fill="#57a68f"/>
    </clipPath>
  </defs>
  <g id="Group_1011" data-name="Group 1011" clip-path="url(#clip-path)">
    <path id="Path_1940" data-name="Path 1940" d="M0,5.373V4.779a.675.675,0,0,0,.017-.086,4.7,4.7,0,0,1,.58-2A4.98,4.98,0,0,1,4.864.009a4.706,4.706,0,0,1,2.8.705,4.973,4.973,0,0,1,2.481,4.148,4.725,4.725,0,0,1-.588,2.594,5,5,0,0,1-3.6,2.616c-.194.037-.391.054-.587.08H4.779a.538.538,0,0,0-.077-.016,4.772,4.772,0,0,1-2.009-.58A5.008,5.008,0,0,1,.08,5.959C.043,5.766.026,5.569,0,5.373M4.9,4.6H4.447c-.449,0-.9-.006-1.348,0a.507.507,0,0,0-.421.758.529.529,0,0,0,.505.269H6.1c.185,0,.37,0,.555,0A.515.515,0,1,0,6.648,4.6c-.581,0-1.163,0-1.744,0" transform="translate(0 0)" fill="#57a68f"/>
  </g>
</svg>
