<svg id="Group_1010" data-name="Group 1010" xmlns="http://www.w3.org/2000/svg" xmlns:xlink="http://www.w3.org/1999/xlink" width="9.703" height="9.701" viewBox="0 0 9.703 9.701">
  <defs>
    <clipPath id="clip-path">
      <rect id="Rectangle_591" data-name="Rectangle 591" width="9.703" height="9.701" fill="#db9e30"/>
    </clipPath>
  </defs>
  <g id="Group_1009" data-name="Group 1009" clip-path="url(#clip-path)">
    <path id="Path_1939" data-name="Path 1939" d="M0,4.851A4.852,4.852,0,1,1,4.8,9.7,4.858,4.858,0,0,1,0,4.851m5.291.44h.137c.534,0,1.067,0,1.6,0a.439.439,0,1,0,.024-.876c-.544,0-1.088,0-1.632,0H5.29V4.276c0-.534,0-1.067,0-1.6a.439.439,0,1,0-.877-.024c0,.544,0,1.088,0,1.632,0,.04,0,.08,0,.13H4.275c-.537,0-1.074,0-1.611,0a.438.438,0,1,0-.014.876c.544,0,1.088,0,1.632,0h.13c0,.056,0,.1,0,.137,0,.53,0,1.06,0,1.59a.609.609,0,0,0,.081.29.415.415,0,0,0,.48.169.423.423,0,0,0,.312-.4c0-.489,0-.978,0-1.467,0-.1,0-.2,0-.316" transform="translate(0.001 -0.001)" fill="#db9e30"/>
  </g>
</svg>
