<svg id="Group_999" data-name="Group 999" xmlns="http://www.w3.org/2000/svg" xmlns:xlink="http://www.w3.org/1999/xlink" width="20" height="16.516" viewBox="0 0 20 16.516">
  <defs>
    <clipPath id="clip-path">
      <rect id="Rectangle_586" data-name="Rectangle 586" width="20" height="16.516" fill="#57a68f"/>
    </clipPath>
  </defs>
  <g id="Group_998" data-name="Group 998" clip-path="url(#clip-path)">
    <path id="Path_1930" data-name="Path 1930" d="M28.254,81.756h4.295c0-.262,0-.52,0-.778s.043-.342.306-.354c.461-.021.924-.006,1.385.006.181,0,.262.123.261.3,0,.294-.009.588,0,.881a.49.49,0,0,0,.106.274,55.009,55.009,0,0,1,3.955,5.3,1.278,1.278,0,0,1,.223.75c-.015,1.025-.005,2.049-.006,3.074,0,.478-.218.7-.691.7H22.722a.614.614,0,0,1-.705-.707c0-1.018.009-2.037-.007-3.055a1.23,1.23,0,0,1,.228-.748c.545-.789,1.066-1.6,1.642-2.361.76-1.011,1.565-1.989,2.346-2.985a.412.412,0,0,0,.081-.227c.009-.293.008-.587,0-.881,0-.188.072-.312.265-.315q.712-.012,1.424,0c.18,0,.261.118.258.3,0,.272,0,.545,0,.826m5.04,2.067a.567.567,0,1,0-.568.571.572.572,0,0,0,.568-.571m-.575,1.39a.563.563,0,0,0-.559.577.567.567,0,0,0,1.134-.016.565.565,0,0,0-.575-.561m-1.769-1.376a.565.565,0,0,0-.564-.577.567.567,0,1,0,0,1.134.562.562,0,0,0,.563-.557m0,3.891a.555.555,0,0,0-.554-.563.567.567,0,0,0-.579.563.577.577,0,0,0,.578.568.564.564,0,0,0,.554-.568m0-1.952a.559.559,0,0,0-.556-.563.568.568,0,0,0-.577.566.58.58,0,0,0,.561.567.568.568,0,0,0,.572-.57m-2.893-.563a.56.56,0,0,0-.575.564.565.565,0,1,0,1.129,0,.559.559,0,0,0-.554-.565m4.676,1.951a.562.562,0,0,0-.572.548.567.567,0,1,0,1.134.011.564.564,0,0,0-.562-.56M28.61,83.827a.565.565,0,1,0-.574.566.568.568,0,0,0,.574-.566m-.57,3.337a.556.556,0,0,0-.558.559.564.564,0,1,0,1.128.009.556.556,0,0,0-.569-.567" transform="translate(-20.583 -75.39)" fill="#57a68f"/>
    <path id="Path_1931" data-name="Path 1931" d="M20,6.576H15.919c-.064-.379-.11-.753-.194-1.119a2.781,2.781,0,0,0-1.146-1.822,3.344,3.344,0,0,0-1.528-.5c-.545-.054-1.093-.093-1.64-.1-1.331-.008-2.662-.01-3.993.024a3.783,3.783,0,0,0-1.852.5A2.816,2.816,0,0,0,4.292,5.411c-.1.378-.147.766-.221,1.162H0c.02-.328.027-.652.062-.972A5.75,5.75,0,0,1,.948,3,5.539,5.539,0,0,1,3.586.93,12.183,12.183,0,0,1,6.926.152a31.327,31.327,0,0,1,4.81-.107,14.985,14.985,0,0,1,4.3.733,5.61,5.61,0,0,1,3.268,2.61,6.144,6.144,0,0,1,.685,2.548c.014.206,0,.414,0,.641" transform="translate(0 0)" fill="#57a68f"/>
  </g>
</svg>
