<svg id="Group_384" data-name="Group 384" xmlns="http://www.w3.org/2000/svg" xmlns:xlink="http://www.w3.org/1999/xlink" width="20.074" height="16.538" viewBox="0 0 20.074 16.538">
  <defs>
    <clipPath id="clip-path">
      <rect id="Rectangle_257" data-name="Rectangle 257" width="20.074" height="16.538" fill="#57a68f"/>
    </clipPath>
  </defs>
  <g id="Group_367" data-name="Group 367" clip-path="url(#clip-path)">
    <path id="Path_1252" data-name="Path 1252" d="M0,78c.078.006.155.017.233.017H4.1c.063.745-.245,1.25-.89,1.331A7.874,7.874,0,0,1,.8,79.322.936.936,0,0,1,.041,78.5c-.01-.049-.027-.1-.041-.146V78" transform="translate(0 -70.946)" fill="#57a68f"/>
    <path id="Path_1253" data-name="Path 1253" d="M22.231,58.973h4.3c0-.262,0-.521,0-.779s.043-.342.307-.354c.461-.021.925-.006,1.387.006.181,0,.262.124.261.3,0,.294-.009.589,0,.882a.491.491,0,0,0,.106.275,55.075,55.075,0,0,1,3.96,5.3,1.28,1.28,0,0,1,.223.751c-.015,1.026-.005,2.052-.006,3.078,0,.478-.218.7-.692.7H16.691a.615.615,0,0,1-.706-.708c0-1.02.009-2.039-.007-3.059a1.231,1.231,0,0,1,.228-.749c.546-.79,1.068-1.6,1.644-2.364.761-1.012,1.567-1.992,2.349-2.989a.413.413,0,0,0,.081-.227c.009-.294.008-.588,0-.882,0-.188.073-.312.265-.315q.713-.012,1.426,0c.181,0,.261.119.258.3,0,.273,0,.545,0,.827m5.047,2.07a.568.568,0,1,0-.569.571.572.572,0,0,0,.569-.571M26.7,62.434a.564.564,0,0,0-.559.578A.568.568,0,0,0,27.277,63a.566.566,0,0,0-.576-.562M24.93,61.056a.565.565,0,0,0-.565-.578.568.568,0,1,0,0,1.135.563.563,0,0,0,.564-.557m0,3.9a.556.556,0,0,0-.554-.564.567.567,0,0,0-.579.564.578.578,0,0,0,.579.569.565.565,0,0,0,.555-.568m0-1.955a.559.559,0,0,0-.556-.563A.568.568,0,0,0,23.8,63a.581.581,0,0,0,.562.568A.568.568,0,0,0,24.93,63m-2.9-.563a.561.561,0,0,0-.576.564.565.565,0,1,0,1.131,0,.56.56,0,0,0-.555-.565m4.682,1.953a.563.563,0,0,0-.573.549.568.568,0,1,0,1.135.011.564.564,0,0,0-.562-.56m-4.127-3.341a.566.566,0,1,0-.575.567.568.568,0,0,0,.575-.567m-.571,3.342a.557.557,0,0,0-.559.56.565.565,0,1,0,1.129.009.557.557,0,0,0-.57-.568" transform="translate(-14.533 -52.599)" fill="#57a68f"/>
    <path id="Path_1254" data-name="Path 1254" d="M20.211,6.585H16.129c-.065-.379-.111-.754-.195-1.121A2.784,2.784,0,0,0,14.787,3.64a3.349,3.349,0,0,0-1.53-.5c-.545-.054-1.094-.093-1.642-.1-1.333-.008-2.666-.01-4,.024a3.789,3.789,0,0,0-1.854.5A2.821,2.821,0,0,0,4.487,5.418c-.1.378-.147.767-.221,1.164H.189c.02-.329.027-.653.062-.974A5.757,5.757,0,0,1,1.138,3,5.547,5.547,0,0,1,3.779.931,12.2,12.2,0,0,1,7.124.152,31.381,31.381,0,0,1,11.941.044a15.005,15.005,0,0,1,4.31.734,5.618,5.618,0,0,1,3.272,2.613,6.152,6.152,0,0,1,.686,2.552c.014.207,0,.415,0,.641" transform="translate(-0.172 0)" fill="#57a68f"/>
    <path id="Path_1255" data-name="Path 1255" d="M176.27,78.318h4.107a.991.991,0,0,1-.878,1.24,15.2,15.2,0,0,1-2.343,0c-.563-.039-.921-.421-.885-1.239" transform="translate(-160.326 -71.235)" fill="#57a68f"/>
  </g>
</svg>
