<svg xmlns="http://www.w3.org/2000/svg" xmlns:xlink="http://www.w3.org/1999/xlink" width="52.942" height="53.923" viewBox="0 0 52.942 53.923">
  <defs>
    <clipPath id="clip-path">
      <rect id="Rectangle_199" data-name="Rectangle 199" width="20.835" height="25.533" fill="#fff"/>
    </clipPath>
  </defs>
  <g id="Group_1389" data-name="Group 1389" transform="translate(-1084 -7480.539)">
    <rect id="Rectangle_196" data-name="Rectangle 196" width="52.942" height="53.923" rx="9" transform="translate(1084 7480.539)" fill="#db9e30"/>
    <g id="Group_302" data-name="Group 302" transform="translate(1100.055 7494.585)">
      <g id="Group_301" data-name="Group 301" clip-path="url(#clip-path)">
        <path id="Path_916" data-name="Path 916" d="M10.423,0a10.458,10.458,0,0,1,10.2,8.35A10.157,10.157,0,0,1,16.4,18.985a15.335,15.335,0,0,0-4.1,4.5c-.28.475-.56.95-.85,1.419A1.156,1.156,0,0,1,9.389,24.9a24.258,24.258,0,0,0-2.274-3.336A23.378,23.378,0,0,0,3.9,18.58a10.045,10.045,0,0,1-3.86-7.233A10.378,10.378,0,0,1,8.537.207C9.157.089,9.794.067,10.423,0M5.788,10.47a4.629,4.629,0,1,0,4.673-4.638A4.638,4.638,0,0,0,5.788,10.47" transform="translate(0 0)" fill="#fff"/>
      </g>
    </g>
  </g>
</svg>
