<svg id="Group_1198" data-name="Group 1198" xmlns="http://www.w3.org/2000/svg" xmlns:xlink="http://www.w3.org/1999/xlink" width="64.579" height="73.486" viewBox="0 0 64.579 73.486">
  <defs>
    <clipPath id="clip-path">
      <rect id="Rectangle_601" data-name="Rectangle 601" width="64.579" height="73.486" fill="#db9e30"/>
    </clipPath>
  </defs>
  <g id="Group_1197" data-name="Group 1197" clip-path="url(#clip-path)">
    <path id="Path_1950" data-name="Path 1950" d="M213.542,58.473c0,.251.01.454,0,.655a1.365,1.365,0,0,1-1.313,1.354,1.347,1.347,0,0,1-1.364-1.366,14.846,14.846,0,0,0-.9-5.134,14.629,14.629,0,0,0-8.685-8.808c-.811-.32-1.2-.811-1.143-1.461a1.372,1.372,0,0,1,2.006-1.085,17.517,17.517,0,0,1,11.4,15.846" transform="translate(-164.159 -34.86)" fill="#db9e30"/>
    <path id="Path_1951" data-name="Path 1951" d="M172,39.789a1.341,1.341,0,0,1,.083-2.681A1.341,1.341,0,1,1,172,39.789" transform="translate(-140.026 -30.438)" fill="#db9e30"/>
    <path id="Path_1952" data-name="Path 1952" d="M33.711,0c1.707.321,3.448.52,5.115.985A22.936,22.936,0,0,1,50.762,9a22.92,22.92,0,0,1,4.6,9.611,23.161,23.161,0,0,1-3,17.694c-2.422,3.9-4.939,7.734-7.412,11.6-.114.177-.212.364-.366.631.757.14,1.455.258,2.148.4A42.275,42.275,0,0,1,58.53,52.8a12.027,12.027,0,0,1,5.1,4.481,6.294,6.294,0,0,1-.442,7.262,13.577,13.577,0,0,1-5.139,4.036,43.925,43.925,0,0,1-13.057,3.894,80.832,80.832,0,0,1-21.518.546,51.806,51.806,0,0,1-15.8-3.862,15.754,15.754,0,0,1-5.9-4.1A6.694,6.694,0,0,1,2.3,55.465,19.7,19.7,0,0,1,9.072,51.39a52.206,52.206,0,0,1,10.3-2.735c.181-.031.357-.084.612-.146-.177-.281-.312-.5-.45-.715-2.46-3.845-4.969-7.659-7.37-11.54a22.618,22.618,0,0,1-3.2-16.295c1.505-8.455,6.3-14.447,14.071-18.033A21,21,0,0,1,30.289.111,4.363,4.363,0,0,0,30.841,0ZM32.278,59.731c.182-.268.331-.475.467-.689Q40.5,46.9,48.256,34.753c4.084-6.363,4.6-13,1.236-19.741A18.3,18.3,0,0,0,34.2,4.459c-7.317-.721-13.22,2.088-17.62,7.965a19.45,19.45,0,0,0-.76,21.607q8,12.54,16.018,25.069c.124.194.262.38.435.631m-.029,9.289c1.624,0,3.253.073,4.873-.013a56.845,56.845,0,0,0,15.326-2.732,18.231,18.231,0,0,0,6.485-3.413c1.713-1.526,1.743-2.919.093-4.5a14.843,14.843,0,0,0-4.7-2.83A46.022,46.022,0,0,0,42.4,52.614a.935.935,0,0,0-.691.408c-1,1.514-1.967,3.052-2.942,4.583-1.5,2.357-3.009,4.711-4.5,7.074a2.236,2.236,0,0,1-2.392,1.2A2.4,2.4,0,0,1,30.239,64.6q-3.651-5.746-7.307-11.489c-.254-.4-.473-.616-1.016-.5-1,.221-2.03.3-3.039.489a34.073,34.073,0,0,0-10.91,3.547A13.879,13.879,0,0,0,5,58.979a2.141,2.141,0,0,0,0,3.209,9.054,9.054,0,0,0,1.584,1.438,24.19,24.19,0,0,0,7.445,3.252A62.212,62.212,0,0,0,32.249,69.02" transform="translate(0 0.001)" fill="#db9e30"/>
    <path id="Path_1953" data-name="Path 1953" d="M130.477,94.191A10.761,10.761,0,1,1,141.229,83.4a10.8,10.8,0,0,1-10.752,10.788m-.04-17.213a6.453,6.453,0,1,0,6.483,6.4,6.51,6.51,0,0,0-6.483-6.4" transform="translate(-98.192 -59.609)" fill="#db9e30"/>
  </g>
</svg>