<svg id="Group_497" data-name="Group 497" xmlns="http://www.w3.org/2000/svg" xmlns:xlink="http://www.w3.org/1999/xlink" width="49.943" height="49.931" viewBox="0 0 49.943 49.931">
  <defs>
    <clipPath id="clip-path">
      <rect id="Rectangle_310" data-name="Rectangle 310" width="49.943" height="49.931" fill="none"/>
    </clipPath>
  </defs>
  <g id="Group_496" data-name="Group 496" clip-path="url(#clip-path)">
    <path id="Path_1338" data-name="Path 1338" d="M159.18,146.106a12.7,12.7,0,0,0-.884,2.14q-3.308,8.594-6.589,17.2c-.156.41-.325.484-.739.367-2.242-.635-4.493-1.24-6.741-1.852-.187-.051-.379-.081-.568-.121a2.429,2.429,0,0,1-1.257-.319c-.195-.557-.6-.239-.936-.225a8.645,8.645,0,0,1-2.4-.717c-.069-.276.17-.368.319-.492q2.591-2.143,5.189-4.277,4.905-4.047,9.812-8.092c1.264-1.044,2.522-2.1,3.839-3.145-6.2,3.573-12.329,7.191-18.485,10.761q-3.12,1.809-6.229,3.638a.837.837,0,0,1-.306.144c-.258-.29-.637-.286-.969-.374-2.17-.572-4.344-1.129-6.632-1.721,1.01-.4,1.926-.753,2.837-1.119.959-.385,1.942-.711,2.872-1.169.1-.174.282-.207.446-.27q7.506-2.921,15-5.877c1.835-.683,3.643-1.439,5.476-2.128a.9.9,0,0,1,.514-.107q2.509-.966,5.019-1.93c.467-.178.94-.338,1.411-.507Z" transform="translate(-109.236 -126.894)" fill="#57a68f"/>
    <path id="Path_1339" data-name="Path 1339" d="M81.428,312.826c-.655-.606-.645-1,.046-1.575q5.207-4.33,10.413-8.659a.832.832,0,0,1,.973-.215.771.771,0,0,1,.081,1.358c-1.077.914-2.166,1.814-3.253,2.717q-3.653,3.035-7.309,6.068l-.367.306Z" transform="translate(-70.396 -262.896)" fill="#db9e30"/>
    <path id="Path_1340" data-name="Path 1340" d="M.028,3.606A6.289,6.289,0,0,1,.115,1.721,2.448,2.448,0,0,1,2.456,0H41.062a2.437,2.437,0,0,1,2.444,2.437c0,.39-.01.779-.015,1.169a4.315,4.315,0,0,1-1.034.8c-3.687,2.523-7.356,5.073-11.039,7.6q-1.406.965-2.808,1.938c-1.176.807-2.339,1.634-3.529,2.42a5.933,5.933,0,0,1-6.642,0c-1.189-.788-2.346-1.623-3.529-2.419Q9.6,10.275,4.274,6.62,2.325,5.283.382,3.935a1.4,1.4,0,0,1-.355-.329" transform="translate(0 0)" fill="#f8c261"/>
    <path id="Path_1341" data-name="Path 1341" d="M21.832,106.164c1.234.833,2.442,1.707,3.707,2.491a5.567,5.567,0,0,0,6.236,0c1.267-.781,2.474-1.657,3.707-2.491.217-.051.33.111.442.238,1.224,1.4,2.484,2.774,3.721,4.166q1.4,1.58,2.821,3.146c.621.683,1.223,1.383,1.853,2.058.086.091.192.185.136.338-1.956.777-3.91,1.559-5.869,2.33q-4.455,1.753-8.916,3.492c-.226.088-.462.15-.693.223-.21-.008-.421-.022-.632-.022H9.677a2.5,2.5,0,0,1-1.7-.471c-.121-.164,0-.277.094-.382q1.247-1.4,2.5-2.8c1.315-1.48,2.642-2.95,3.962-4.425.952-1.065,1.911-2.123,2.861-3.189,1.274-1.429,2.568-2.842,3.832-4.28.164-.186.288-.446.6-.422" transform="translate(-6.898 -92.32)" fill="#c18620"/>
    <path id="Path_1342" data-name="Path 1342" d="M15.008,37.908c-.831.749-1.5,1.647-2.276,2.45-.683.709-1.3,1.481-1.954,2.218q-2.031,2.283-4.072,4.557c-.973,1.083-1.959,2.154-2.934,3.234q-1.267,1.4-2.521,2.821a.76.76,0,0,0-.093.217A2.183,2.183,0,0,1,.092,51.5Q.077,39.681.087,27.863c0-.065.01-.129.015-.194a29.023,29.023,0,0,1,2.583,1.709c1.363.9,2.692,1.85,4.034,2.781l8.289,5.749" transform="translate(-0.074 -24.063)" fill="#db9e30"/>
    <path id="Path_1343" data-name="Path 1343" d="M228.292,47.853q-.968-1.088-1.936-2.175c-1.336-1.5-2.651-3.014-4.015-4.485-1.012-1.091-1.941-2.258-3.021-3.285q2.311-1.6,4.622-3.206,4.87-3.364,9.745-6.72a1.456,1.456,0,0,1,.54-.313c.005,1.232.014,2.463.015,3.7q.006,7.076.007,14.152-2.951,1.239-5.957,2.337" transform="translate(-190.736 -24.062)" fill="#db9e30"/>
    <path id="Path_1344" data-name="Path 1344" d="M183.93,164.406c.043-.189.219-.224.355-.3q11.82-6.9,23.643-13.8a5.843,5.843,0,0,1,1.379-.609l-19.5,16.093a3.312,3.312,0,0,1-.084,1.009c-.384,2.366-.808,4.726-1.175,7.1-.04.26.011.6-.362.7l-4.256-10.194" transform="translate(-159.958 -130.187)" fill="#447e6d"/>
    <path id="Path_1345" data-name="Path 1345" d="M216.585,281.986c.271-.211.191-.54.237-.808.445-2.6.863-5.195,1.288-7.793.013-.08.015-.162.1-.208a12.629,12.629,0,0,0,2.435.677c.3.081.656-.021.885.281l1.252.382q-2.957,3.7-5.917,7.392c-.061.076-.107.339-.277.077" transform="translate(-188.357 -237.573)" fill="#4fc2a1"/>
    <path id="Path_1346" data-name="Path 1346" d="M155.375,340.3a.8.8,0,0,1-.3.641c-.838.765-1.673,1.534-2.52,2.288a.781.781,0,1,1-1.045-1.14c.831-.772,1.672-1.534,2.508-2.3a.794.794,0,0,1,.9-.177.735.735,0,0,1,.455.689" transform="translate(-131.463 -295.285)" fill="#57a68f"/>
    <path id="Path_1347" data-name="Path 1347" d="M248.595,277.435l-.885-.281a.754.754,0,0,0,.274-.054c.429-.287.561-.057.611.335" transform="translate(-215.425 -240.873)" fill="#7ecffb"/>
  </g>
</svg>
