<svg id="Group_1200" data-name="Group 1200" xmlns="http://www.w3.org/2000/svg" xmlns:xlink="http://www.w3.org/1999/xlink" width="85.829" height="85.814" viewBox="0 0 85.829 85.814">
  <defs>
    <clipPath id="clip-path">
      <rect id="Rectangle_604" data-name="Rectangle 604" width="85.829" height="85.814" fill="#db9e30"/>
    </clipPath>
  </defs>
  <g id="Group_1199" data-name="Group 1199" clip-path="url(#clip-path)">
    <path id="Path_1954" data-name="Path 1954" d="M80.793,0c.316.1.632.2.948.3a5.692,5.692,0,0,1,4.066,5.375q.038,14.5-.006,29a5.712,5.712,0,0,1-5.991,5.6c-5.531.022-11.062.006-16.593.007-2.766,0-5.531-.024-8.3.024a2.125,2.125,0,0,0-1.292.539c-1.266,1.181-2.475,2.423-3.687,3.66-.619.631-1.268,1.133-2.209.756-.984-.394-1.089-1.241-1.073-2.152s0-1.825,0-2.779H41.789c0,1.518.011,2.99-.005,4.462a9.089,9.089,0,0,1-.124,2,4.845,4.845,0,0,1-3.8,3.806c-.488.118-.649.293-.622.77.033.585,0,1.173.008,1.76a1.588,1.588,0,0,1-.984,1.608,1.646,1.646,0,0,1-1.924-.387c-.972-.964-1.966-1.908-2.9-2.911a2.058,2.058,0,0,0-1.673-.707c-7.821.025-15.643.016-23.465.016-3.723,0-4.9-.774-6.3-4.136V21.459c.951-3.315,3.275-4.25,6.154-4.224,9.378.086,18.757.032,28.136.032h1.064v-.986c0-3.518-.019-7.035.011-10.553A5.752,5.752,0,0,1,39.845.171c.187-.044.368-.114.551-.171H53.974c.09.06.176.124.269.179a1.671,1.671,0,0,1-.787,3.184c-.251.009-.5,0-.754,0-3.77,0-7.541-.008-11.311,0a2.416,2.416,0,0,0-2.669,2.4c-.032,3.8-.02,7.6,0,11.4a.877.877,0,0,0,.351.648A5.308,5.308,0,0,1,41.8,22.9c-.05,4.329-.015,8.659-.015,12.988v.978c.294.026.458.053.623.053,1.9,0,3.8-.012,5.7.009a1.7,1.7,0,0,1,1.907,1.842c.012.225.04.449.079.876.612-.633,1.11-1.084,1.533-1.6a3.191,3.191,0,0,1,2.721-1.147c8.378.037,16.756.021,25.134.019,2.108,0,2.987-.889,2.987-3.009q0-13.659,0-27.318c0-2.4-.823-3.231-3.2-3.232-3.491,0-6.982.007-10.473-.005A1.665,1.665,0,0,1,66.98,1.544,1.945,1.945,0,0,1,68.222,0ZM33.743,49.19c.617-1.6.914-1.789,2.488-1.8,1.629-.013,2.2-.557,2.2-2.137q.006-11.268,0-22.536c0-1.54-.58-2.094-2.146-2.095q-15.37,0-30.741,0c-1.645,0-2.195.558-2.195,2.224q0,11.1,0,22.2c0,1.817.524,2.342,2.341,2.343,7.874,0,15.747.018,23.621-.013,1.711-.007,3.405-.144,4.429,1.815" fill="#db9e30"/>
    <path id="Path_1955" data-name="Path 1955" d="M267.475,0c.4.463.965.866,1.158,1.4a1.519,1.519,0,0,1-1.1,1.89,1.678,1.678,0,0,1-1.98-.855A1.675,1.675,0,0,1,266.147.3c.158-.108.326-.2.49-.3Z" transform="translate(-205.958)" fill="#db9e30"/>
    <path id="Path_1956" data-name="Path 1956" d="M201.172,248.615c-.357-.087-.657-.149-.95-.234a5.012,5.012,0,0,1-3.592-4.989c-.019-4.552-.006-9.1-.006-13.657,0-3.072-.008-6.145,0-9.217a5.036,5.036,0,0,1,5.382-5.407q15.5-.017,31,0c3.334,0,5.407,2.119,5.408,5.478q0,11.144,0,22.288c0,3.7-2,5.71-5.67,5.711q-12.105,0-24.21-.013a1.794,1.794,0,0,0-1.456.607c-.876.939-1.815,1.818-2.713,2.736a1.835,1.835,0,0,1-2.143.7,1.78,1.78,0,0,1-1.054-1.983c.025-.64,0-1.282,0-2.019m3.4-1.694a4.233,4.233,0,0,0,.489-.451,3.385,3.385,0,0,1,3-1.26c8.265.047,16.531.025,24.8.024,1.643,0,2.2-.564,2.2-2.224q0-11.228,0-22.455c0-1.467-.612-2.091-2.089-2.092q-15.456-.008-30.911,0c-1.5,0-2.079.591-2.08,2.09q-.007,11.311,0,22.622c0,1.49.59,2.1,2.1,2.044,1.262-.045,2.217.258,2.493,1.7" transform="translate(-152.591 -166.936)" fill="#db9e30"/>
    <path id="Path_1957" data-name="Path 1957" d="M218.121,36.854c.06-.588.152-1.176.176-1.766a5.07,5.07,0,0,1,7.245-4.589,4.992,4.992,0,0,1,2.909,4.553c.02.39.024.781.039,1.171,0,.022.032.043.129.165.522,0,1.128-.008,1.734,0a5.065,5.065,0,0,1,5.313,5.332q.019,4.9,0,9.807a5.012,5.012,0,0,1-5.313,5.3c-2.347.007-4.694-.022-7.04.009a5.754,5.754,0,0,1-4.947-2.321,1.753,1.753,0,0,0-.286-.244c-.073.084-.136.123-.135.16.077,1.935-.757,2.48-2.536,2.416-2.037-.073-4.078-.009-6.117-.02a1.684,1.684,0,0,1-1.917-1.9q-.012-8.634,0-17.268a1.671,1.671,0,0,1,1.861-1.879c2.262-.027,4.526,0,6.788-.011a1.8,1.8,0,0,1,1.811,1.121l.285-.038m-.2,14.009a3.386,3.386,0,0,0,.523.035,2.188,2.188,0,0,1,2.521,1.444,1.976,1.976,0,0,0,1.918,1.129c2.568.007,5.137.017,7.706,0A1.587,1.587,0,0,0,232.3,51.8q.044-5.194,0-10.388a1.563,1.563,0,0,0-1.5-1.624c-.74-.071-1.493-.015-2.276-.015-.025.236-.052.423-.064.611s0,.392-.018.586a1.681,1.681,0,0,1-1.728,1.586,1.615,1.615,0,0,1-1.6-1.694c-.026-1.87,0-3.742-.015-5.613a1.733,1.733,0,0,0-1.137-1.776,1.452,1.452,0,0,0-1.807.457,2.841,2.841,0,0,0-.481,1.539,5.484,5.484,0,0,1-3.3,5.281.835.835,0,0,0-.432.577c-.027,3.152-.019,6.3-.019,9.536m-7.143,2.571h3.737V39.173h-3.737Z" transform="translate(-160.933 -23.27)" fill="#db9e30"/>
    <path id="Path_1958" data-name="Path 1958" d="M55.886,119.311c.794,0,1.46-.019,2.126,0a1.679,1.679,0,0,1,1.83,1.657c.012,1-.7,1.662-1.87,1.686-.866.017-1.735-.039-2.6.031a1.056,1.056,0,0,0-.741.545c-.338.823-.553,1.7-.855,2.535a1.665,1.665,0,0,1-2.106,1.158,1.7,1.7,0,0,1-1.078-2.16c.09-.351.219-.691.328-1.037.1-.312.194-.625.329-1.061-1.557,0-3.024-.015-4.49.022-.161,0-.387.279-.458.474-.3.812-.533,1.644-.811,2.463A1.688,1.688,0,1,1,42.3,124.6c.181-.606.372-1.209.6-1.943-.768,0-1.428.017-2.087,0a1.671,1.671,0,1,1-.056-3.334c.892-.038,1.789.017,2.68-.032a.9.9,0,0,0,.685-.4c.477-1.335.889-2.694,1.363-4.171-.749,0-1.4.011-2.061,0a1.744,1.744,0,0,1-1.9-1.688,1.718,1.718,0,0,1,1.91-1.66c.838-.008,1.677-.029,2.514.009a.691.691,0,0,0,.829-.592c.219-.806.5-1.6.767-2.39a1.717,1.717,0,0,1,2.165-1.31,1.7,1.7,0,0,1,1.029,2.307c-.182.611-.378,1.217-.612,1.969,1.584,0,3.073.015,4.559-.024.144,0,.335-.321.409-.526.293-.813.538-1.643.82-2.46a1.681,1.681,0,1,1,3.188,1.007c-.186.638-.4,1.269-.627,2.009.754,0,1.414-.009,2.074,0a1.677,1.677,0,1,1,.012,3.344c-.893.022-1.789-.024-2.68.027a.864.864,0,0,0-.633.446c-.47,1.309-.881,2.64-1.363,4.123m-2.047-4.589c-1.567,0-2.99-.008-4.411.011-.162,0-.425.113-.466.233-.481,1.408-.929,2.828-1.416,4.342,1.561,0,2.982.014,4.4-.017a.711.711,0,0,0,.525-.382c.464-1.338.886-2.692,1.367-4.185" transform="translate(-30.272 -83.041)" fill="#db9e30"/>
    <path id="Path_1959" data-name="Path 1959" d="M254.695,253.118a6.13,6.13,0,0,1,4.148-1.555,5.79,5.79,0,0,1,5.437,3.542,5.564,5.564,0,0,1-.927,6.405c-1.952,2.146-4.042,4.172-6.143,6.176a3.646,3.646,0,0,1-5.095-.041c-2.058-1.968-4.1-3.966-6.03-6.054a5.942,5.942,0,0,1,.056-8.081,6.044,6.044,0,0,1,7.994-.808c.179.128.354.262.561.416m-6.952,4.524a6.684,6.684,0,0,0,.868,1.732c1.822,1.923,3.711,3.783,5.612,5.628a.916.916,0,0,0,.89.048c1.941-1.884,3.874-3.779,5.733-5.743a2.587,2.587,0,0,0-.171-3.631,2.673,2.673,0,0,0-3.644-.1c-.4.346-.746.753-1.142,1.1a1.664,1.664,0,0,1-2.4-.006c-.393-.355-.734-.769-1.14-1.107a2.56,2.56,0,0,0-2.89-.4,3.035,3.035,0,0,0-1.711,2.473" transform="translate(-189.77 -195.226)" fill="#db9e30"/>
  </g>
</svg>
