<svg xmlns="http://www.w3.org/2000/svg" xmlns:xlink="http://www.w3.org/1999/xlink" width="72.135" height="72.135" viewBox="0 0 72.135 72.135">
  <defs>
    <clipPath id="clip-path">
      <rect id="Rectangle_290" data-name="Rectangle 290" width="40.991" height="40.984" fill="#57a68f"/>
    </clipPath>
    <clipPath id="clip-path-2">
      <rect id="Rectangle_303" data-name="Rectangle 303" width="37.853" height="37.857" fill="#fff"/>
    </clipPath>
  </defs>
  <g id="Group_483" data-name="Group 483">
    <rect id="Rectangle_289" data-name="Rectangle 289" width="72.135" height="72.135" fill="#57a68f"/>
  </g>
  <g id="Group_486" data-name="Group 486" transform="translate(17 19.803)">
    <g id="Group_485" data-name="Group 485" clip-path="url(#clip-path-2)">
      <path id="Path_1283" data-name="Path 1283" d="M29.574,37.858H25.656a.908.908,0,0,0-.131-.061,2.368,2.368,0,0,1-1.865-2.459c0-.2,0-.408,0-.613H14.2a2.942,2.942,0,0,1,0,.465,6.647,6.647,0,0,1-.273,1.355A2.376,2.376,0,0,1,12.2,37.858H8.283a2.364,2.364,0,0,1-1.721-1.369,7.115,7.115,0,0,1-.25-1.585c-.02-.173-.033-.281-.232-.346A3.92,3.92,0,0,1,3.164,30.52q0-5.563,0-11.126v-.465c-.264,0-.483,0-.7,0A2.378,2.378,0,0,1,.005,16.482q-.011-.758,0-1.515a3.916,3.916,0,0,1,2.815-3.744.413.413,0,0,0,.349-.487c-.011-2.181-.008-4.362,0-6.542a5.154,5.154,0,0,1,.059-.92A3.931,3.931,0,0,1,7.24,0Q18.881,0,30.523,0a3.94,3.94,0,0,1,4.17,4.171c0,2.181.006,4.362-.006,6.542,0,.291.066.432.366.512a3.8,3.8,0,0,1,1.877,1.246,4.551,4.551,0,0,1,.924,2.021v2.44a.532.532,0,0,0-.053.1,2.377,2.377,0,0,1-2.549,1.9h-.558v.5q0,5.582,0,11.165a3.909,3.909,0,0,1-2.88,3.954c-.2.061-.25.152-.27.356a6.624,6.624,0,0,1-.247,1.585,2.364,2.364,0,0,1-1.721,1.37M18.967,9.465q-5.025,0-10.05,0a2.4,2.4,0,0,0-2.609,2.593q-.007,3.714,0,7.428a2.408,2.408,0,0,0,2.6,2.6q10.013,0,20.026,0a3.318,3.318,0,0,0,.84-.094,2.372,2.372,0,0,0,1.769-2.463q.009-3.751,0-7.5a3.173,3.173,0,0,0-.1-.8,2.353,2.353,0,0,0-2.431-1.758q-5.025,0-10.05,0m-.042-6.3q-3.16,0-6.321,0c-.85,0-1.7-.022-2.549.024A2.18,2.18,0,0,0,8.092,4.593a2.242,2.242,0,0,0,.3,2.369,2.466,2.466,0,0,0,2.11.932q8.427,0,16.855,0c.062,0,.123,0,.185,0a2.367,2.367,0,1,0-.117-4.729q-4.251-.006-8.5,0m-8.673,26.8A2.36,2.36,0,1,0,7.9,27.621a2.369,2.369,0,0,0,2.353,2.34M29.957,27.6a2.36,2.36,0,1,0-2.337,2.356A2.371,2.371,0,0,0,29.957,27.6" transform="translate(0 -0.001)" fill="#fff"/>
    </g>
  </g>
</svg>
