<svg xmlns="http://www.w3.org/2000/svg" xmlns:xlink="http://www.w3.org/1999/xlink" width="72.135" height="72.135" viewBox="0 0 72.135 72.135">
  <defs>
    <clipPath id="clip-path">
      <rect id="Rectangle_290" data-name="Rectangle 290" width="40.991" height="40.984" fill="#57a68f"/>
    </clipPath>
    <clipPath id="clip-path-2">
      <rect id="Rectangle_302" data-name="Rectangle 302" width="26.268" height="40.761" fill="#fff"/>
    </clipPath>
  </defs>
  <g id="Group_479" data-name="Group 479">
    <rect id="Rectangle_289" data-name="Rectangle 289" width="72.135" height="72.135" fill="#57a68f"/>
  </g>
  <g id="Group_482" data-name="Group 482" transform="translate(23 15.687)">
    <g id="Group_481" data-name="Group 481" transform="translate(0)" clip-path="url(#clip-path-2)">
      <path id="Path_1275" data-name="Path 1275" d="M0,70.909q0-7.431,0-14.862a2.117,2.117,0,0,1,2.378-2.4H23.933a2.1,2.1,0,0,1,2.335,2.314q0,14.97,0,29.941a2.1,2.1,0,0,1-2.334,2.314H2.334A2.106,2.106,0,0,1,0,85.858q0-7.474,0-14.949m13.1,3.13a6.912,6.912,0,1,0-6.882-6.963A6.914,6.914,0,0,0,13.1,74.039m.029,6.225H11.06q-1.706,0-3.413,0c-.339,0-.633.151-.677.481a1.017,1.017,0,0,0,.216.72.93.93,0,0,0,.633.173c3.082.01,6.163.007,9.245.007.518,0,1.037.01,1.555,0a.694.694,0,0,0,.728-.774c-.051-.38-.339-.6-.814-.6q-2.7-.005-5.4,0m0-2.074c-.878,0-1.757,0-2.635,0-.511,0-.817.268-.818.689s.308.689.817.691q2.635.006,5.27,0c.507,0,.818-.272.818-.69s-.31-.687-.818-.69c-.878,0-1.757,0-2.635,0" transform="translate(0.001 -47.454)" fill="#fff"/>
      <path id="Path_1276" data-name="Path 1276" d="M56.762,4.793H40.739l-.015-.056q1.6-.561,3.192-1.122L53.806.161a2.1,2.1,0,0,1,2.956,2.1c0,.832,0,1.664,0,2.529" transform="translate(-36.024 0)" fill="#fff"/>
      <path id="Path_1277" data-name="Path 1277" d="M101.795,127.462a11.048,11.048,0,0,1,.9-4.219,2.974,2.974,0,0,1,.486-.573,2.958,2.958,0,0,1,.487.569,11.171,11.171,0,0,1,.9,4.223Z" transform="translate(-90.046 -108.512)" fill="#fff"/>
      <path id="Path_1278" data-name="Path 1278" d="M101.6,176.622h2.853c-.151.953-.272,1.886-.456,2.806a6.209,6.209,0,0,1-.467,1.339,3.507,3.507,0,0,1-.513.659c-.178-.213-.436-.4-.52-.643a21.925,21.925,0,0,1-.681-2.353,17.3,17.3,0,0,1-.215-1.808" transform="translate(-89.873 -156.237)" fill="#fff"/>
      <path id="Path_1279" data-name="Path 1279" d="M132.585,130.932l-.819-4.352c1.438.193,3.338,2.594,3.363,4.352Z" transform="translate(-116.558 -111.971)" fill="#fff"/>
      <path id="Path_1280" data-name="Path 1280" d="M132.57,176.562h2.509c.176,1.525-1.792,4.059-3.331,4.369l.822-4.369" transform="translate(-116.542 -156.184)" fill="#fff"/>
      <path id="Path_1281" data-name="Path 1281" d="M69.406,130.879H66.9c-.178-1.526,1.791-4.063,3.329-4.368l-.821,4.368" transform="translate(-59.166 -111.91)" fill="#fff"/>
      <path id="Path_1282" data-name="Path 1282" d="M66.669,176.564h2.548l.817,4.366c-1.5-.288-3.321-2.589-3.364-4.366" transform="translate(-58.974 -156.186)" fill="#fff"/>
    </g>
  </g>
</svg>
