<svg xmlns="http://www.w3.org/2000/svg" xmlns:xlink="http://www.w3.org/1999/xlink" width="53.993" height="54" viewBox="0 0 53.993 54">
  <defs>
    <clipPath id="clip-path">
      <rect id="Rectangle_64" data-name="Rectangle 64" width="53.993" height="54" fill="none"/>
    </clipPath>
  </defs>
  <g id="Group_23" data-name="Group 23" clip-path="url(#clip-path)">
    <path id="Path_260" data-name="Path 260" d="M53.993,6.827V47.14a2.471,2.471,0,0,0-.118.4,7.231,7.231,0,0,1-5.721,6.242c-.34.072-.679.147-1.018.22H6.83a2.445,2.445,0,0,0-.4-.118,7.259,7.259,0,0,1-6.418-7.2Q-.017,26.98.014,7.273a7.23,7.23,0,0,1,5.445-7A8.2,8.2,0,0,1,7.488.012Q26.979-.011,46.47,0a7.319,7.319,0,0,1,7.343,5.956c.061.289.12.579.179.868M27,9.974c-1.094.137-2.2.21-3.28.42A16.795,16.795,0,0,0,11.8,34.065a1.467,1.467,0,0,1,.092.848c-.519,2.613-1.069,5.219-1.6,7.829-.194.954.168,1.3,1.108,1.073,2.54-.6,5.078-1.214,7.623-1.794a1.592,1.592,0,0,1,.938.1A16.827,16.827,0,1,0,27,9.974" transform="translate(0 0)" fill="#25d266"/>
    <path id="Path_261" data-name="Path 261" d="M89.054,70.762a16.838,16.838,0,1,1-7.032,32.145,1.593,1.593,0,0,0-.938-.1C78.539,103.389,76,104,73.461,104.6c-.939.222-1.3-.119-1.108-1.073.531-2.61,1.081-5.217,1.6-7.829a1.467,1.467,0,0,0-.092-.848A16.795,16.795,0,0,1,85.774,71.182c1.08-.21,2.186-.283,3.28-.42M76.926,99.877a3.989,3.989,0,0,0,.458-.048c1.194-.279,2.4-.524,3.577-.859A2.567,2.567,0,0,1,83,99.19a12.781,12.781,0,0,0,8.988,1.155,13.054,13.054,0,1,0-14.551-6.756,3.237,3.237,0,0,1,.291,2.44c-.325,1.247-.532,2.525-.8,3.848" transform="translate(-62.056 -60.788)" fill="#fff"/>
    <path id="Path_262" data-name="Path 262" d="M99.771,123c.269-1.323.477-2.6.8-3.848a3.239,3.239,0,0,0-.291-2.44,13.054,13.054,0,1,1,14.551,6.756,12.782,12.782,0,0,1-8.988-1.155,2.566,2.566,0,0,0-2.038-.22c-1.179.335-2.383.581-3.577.859a4,4,0,0,1-.458.048m16.493-4.051a4.23,4.23,0,0,0,3.791-1.783,8.835,8.835,0,0,0,.533-.719,1.309,1.309,0,0,0-.772-2.17,19.613,19.613,0,0,1-2.07-.592,2.212,2.212,0,0,0-2.916.736,1.055,1.055,0,0,1-1.55.272,16.813,16.813,0,0,1-5.214-4.6,1.109,1.109,0,0,1,.041-1.543,3.957,3.957,0,0,0,.616-.847,1.921,1.921,0,0,0,.151-1.187c-.4-1.084-.891-2.136-1.4-3.177a1.181,1.181,0,0,0-1.866-.418,9.482,9.482,0,0,0-1.227,1.224,3.956,3.956,0,0,0-.983,2.809,7.665,7.665,0,0,0,1.142,3.786,19.461,19.461,0,0,0,7.829,7.239,8.278,8.278,0,0,0,3.893.973" transform="translate(-84.901 -83.915)" fill="#25d266"/>
    <path id="Path_263" data-name="Path 263" d="M144.1,149.077a8.278,8.278,0,0,1-3.893-.973,19.462,19.462,0,0,1-7.829-7.239,7.665,7.665,0,0,1-1.142-3.786,3.956,3.956,0,0,1,.983-2.809,9.482,9.482,0,0,1,1.227-1.224,1.181,1.181,0,0,1,1.866.418c.506,1.041,1,2.093,1.4,3.177a1.921,1.921,0,0,1-.151,1.187,3.957,3.957,0,0,1-.616.847,1.109,1.109,0,0,0-.041,1.543,16.813,16.813,0,0,0,5.214,4.6,1.055,1.055,0,0,0,1.55-.272,2.212,2.212,0,0,1,2.916-.736,19.628,19.628,0,0,0,2.07.592,1.309,1.309,0,0,1,.772,2.17,8.84,8.84,0,0,1-.533.719,4.23,4.23,0,0,1-3.791,1.783" transform="translate(-112.735 -114.04)" fill="#fff"/>
  </g>
</svg>
