<svg id="Group_75" data-name="Group 75" xmlns="http://www.w3.org/2000/svg" xmlns:xlink="http://www.w3.org/1999/xlink" width="113.02" height="117.65" viewBox="0 0 113.02 117.65">
  <defs>
    <clipPath id="clip-path">
      <rect id="Rectangle_87" data-name="Rectangle 87" width="113.02" height="117.65" fill="#db9e30"/>
    </clipPath>
  </defs>
  <g id="Group_74" data-name="Group 74" clip-path="url(#clip-path)">
    <path id="Path_516" data-name="Path 516" d="M56.284,0c2.451.374,4.918.664,7.349,1.14A50.744,50.744,0,0,1,81.366,8.369c1.472.943,1.879,2.28,1.085,3.469s-2.072,1.343-3.53.409A46.98,46.98,0,0,0,58.137,4.888a47.07,47.07,0,0,0-34.317,9.477C13.411,22.256,7.008,32.75,5.178,45.686,2.891,61.862,7.694,75.874,19.3,87.4a46.552,46.552,0,0,0,26.364,13.12,47.5,47.5,0,0,0,24.687-2.756c.206-.079.4-.2.639-.321l-1.235-4.275c-1.919.611-3.772,1.3-5.676,1.791a43.2,43.2,0,0,1-33.028-4.312,2.438,2.438,0,0,1-1.542-2.561c.24-1.708,1.918-2.339,3.625-1.566A72.665,72.665,0,0,0,42.084,90.3a37.789,37.789,0,0,0,26.864-1.934,3.766,3.766,0,0,0,1.1-1.048,17.477,17.477,0,0,1,1.776-2.065,1.747,1.747,0,0,0,.712-1.54q-.028-11.6,0-23.2a6.921,6.921,0,0,1,7.108-7.217,6.85,6.85,0,0,1,6.767,6.492c.111,2.752.04,5.511.049,8.267,0,.415,0,.829,0,1.248a1.925,1.925,0,0,0,2.416-1.4C98.5,45.036,84.219,18.719,59.833,14.434A39.016,39.016,0,0,0,14.573,45.1a38.286,38.286,0,0,0,4.168,26.747c.184.335.39.66.549,1.007a2.289,2.289,0,0,1-.957,3.065,2.17,2.17,0,0,1-3-.832,50.87,50.87,0,0,1-2.613-5.1,43.624,43.624,0,1,1,83.1-24.534,42.458,42.458,0,0,1-2.548,23.634c-.4.994-.561,1.733.411,2.444a5.324,5.324,0,0,1,.877,1.139c.672-.161,1.383-.284,2.056-.517a1.282,1.282,0,0,0,.662-.664A48.193,48.193,0,0,0,93.38,26.689c-.912-1.426-.691-2.755.51-3.507,1.184-.741,2.478-.344,3.381,1.084a52.838,52.838,0,0,1,4.638,48.027c-.324.812-.409,1.371.377,1.945a4.575,4.575,0,0,1,.886,1.05,24.522,24.522,0,0,1,4.717-.046,6.418,6.418,0,0,1,5.116,6.371c.033,5.474,0,10.948,0,16.422a10.991,10.991,0,0,1-2.93,7.643,6.762,6.762,0,0,0-1.887,5.6c.431,4.085-2.646,6.446-6.3,6.369-7.309-.155-14.623-.043-21.934-.047-3.8,0-5.983-2.182-5.991-5.971a23.85,23.85,0,0,0-1.662-9.406,104.477,104.477,0,0,1-10.235,2.564c-21.434,3.2-38.9-3.8-52-21.05A48.388,48.388,0,0,1,.125,50.453C1.654,28.155,13.005,12.559,33.5,3.686A46.076,46.076,0,0,1,48.634.189,4.432,4.432,0,0,0,49.394,0ZM90.978,113.008c3.751,0,7.5-.016,11.254.011.942.007,1.536-.28,1.377-1.307a10.372,10.372,0,0,1,3.208-9.325,6.3,6.3,0,0,0,1.6-4.655c-.005-5.244.008-10.488,0-15.732a2.093,2.093,0,0,0-1.958-2.37c-1.244-.087-2.035.615-2.3,2.038-.293,1.583-1.17,2.372-2.5,2.252-1.282-.115-2.035-1.029-2.084-2.562-.03-.918.037-1.843-.06-2.753a1.99,1.99,0,0,0-3.057-1.555,3.583,3.583,0,0,0-1.115,1.96,2.424,2.424,0,0,1-2.486,2.07,2.256,2.256,0,0,1-2.116-2.292c-.033-.8-.006-1.607-.011-2.411-.011-1.621-.793-2.59-2.1-2.611s-2.145.96-2.169,2.553c-.022,1.492.027,2.988-.047,4.477a2.187,2.187,0,0,1-2.162,2.112,2.254,2.254,0,0,1-2.318-1.957,8.6,8.6,0,0,1-.068-1.373q-.006-9.187,0-18.373c0-2.239-.8-3.334-2.4-3.314-1.573.02-2.341,1.084-2.341,3.258q0,12.115.01,24.23A2.926,2.926,0,0,1,75.539,88.3c-1.61.86-1.854,1.435-1.391,3.273.542,2.147,1.222,4.26,1.777,6.4,1.152,4.449,3.14,8.727,2.655,13.513-.139,1.372.108,1.515,1.488,1.516q5.455.007,10.909,0" transform="translate(0)" fill="#db9e30"/>
    <path id="Path_517" data-name="Path 517" d="M131.947,120.772c1.456-1.482,2.7-2.781,3.976-4.039a8.037,8.037,0,1,1,11.334,11.388c-1.258,1.275-2.564,2.5-4,3.9,1.51,1.464,2.955,2.765,4.285,4.175a7.994,7.994,0,0,1-4.022,13.37,7.732,7.732,0,0,1-7.482-2.172c-1.331-1.306-2.616-2.658-4.1-4.171-1.483,1.556-2.779,3.068-4.232,4.41a7.98,7.98,0,0,1-13.234-4.032,7.653,7.653,0,0,1,2.016-7.414c1.322-1.378,2.729-2.675,4.24-4.147-1.442-1.423-2.822-2.726-4.136-4.094a7.768,7.768,0,0,1-1.917-8.261,7.992,7.992,0,0,1,13-3.33c1.456,1.345,2.764,2.849,4.272,4.419m-9.174-1.947c-1.975.075-3.054.711-3.623,2.032a3.291,3.291,0,0,0,.674,3.821c1.754,1.815,3.565,3.575,5.341,5.369,1.369,1.383,1.36,2.549-.026,3.948-1.669,1.685-3.362,3.346-5.024,5.037-1.606,1.633-1.686,3.769-.227,5.191,1.408,1.371,3.518,1.245,5.11-.328,1.687-1.667,3.352-3.356,5.037-5.025,1.4-1.383,2.555-1.386,3.944-.01,1.685,1.669,3.32,3.391,5.053,5.006a5.066,5.066,0,0,0,2.135,1.212,3.2,3.2,0,0,0,3.582-1.662,3.4,3.4,0,0,0-.53-4.037c-1.658-1.747-3.387-3.428-5.088-5.134-1.75-1.754-1.743-2.731.038-4.513,1.6-1.6,3.2-3.183,4.782-4.792a3.461,3.461,0,1,0-4.89-4.858c-1.715,1.692-3.4,3.412-5.117,5.106-1.341,1.326-2.529,1.327-3.865.005-1.74-1.722-3.417-3.511-5.22-5.163a9.143,9.143,0,0,0-2.085-1.205" transform="translate(-79.168 -79.18)" fill="#db9e30"/>
    <path id="Path_518" data-name="Path 518" d="M71.77,264.5a2.223,2.223,0,0,1-2.225-2.28,2.3,2.3,0,0,1,2.25-2.288,2.361,2.361,0,0,1,2.314,2.368,2.292,2.292,0,0,1-2.338,2.2" transform="translate(-48.205 -180.174)" fill="#db9e30"/>
    <path id="Path_519" data-name="Path 519" d="M283.538,52.832a2.23,2.23,0,0,1-2.278-2.226,2.252,2.252,0,0,1,2.2-2.32,2.282,2.282,0,0,1,2.35,2.294,2.255,2.255,0,0,1-2.267,2.251" transform="translate(-194.954 -33.469)" fill="#db9e30"/>
  </g>
</svg>
