<svg id="Group_86" data-name="Group 86" xmlns="http://www.w3.org/2000/svg" xmlns:xlink="http://www.w3.org/1999/xlink" width="129.924" height="112.134" viewBox="0 0 129.924 112.134">
  <defs>
    <clipPath id="clip-path">
      <rect id="Rectangle_88" data-name="Rectangle 88" width="129.924" height="112.134" fill="#db9e30"/>
    </clipPath>
  </defs>
  <g id="Group_85" data-name="Group 85" clip-path="url(#clip-path)">
    <path id="Path_520" data-name="Path 520" d="M129.924,108.572c-.934,2.65-2.85,3.57-5.593,3.561-17.082-.057-34.164-.028-51.247-.029-3.906,0-5.512-1.623-5.513-5.569,0-5.455.038-10.909-.013-16.363a11.377,11.377,0,0,1,4.807-9.951,1.464,1.464,0,0,0,.562-1.006c.026-5.581.007-11.161-.005-16.742a3.285,3.285,0,0,0-.21-.569,7.063,7.063,0,0,0-1.629,1.132c-1.128,1.422-2.128,2.945-3.211,4.4-1.67,2.249-4.131,2.243-5.809-.014-1.059-1.425-2.037-2.91-3.135-4.3a10.247,10.247,0,0,0-1.793-1.387C57.058,62.481,57,62.8,57,63.125c-.006,5.243-.027,10.486.03,15.729a2.23,2.23,0,0,0,.785,1.526,10.923,10.923,0,0,1,4.545,8.932c.061,6,.039,12.008.009,18.012-.015,2.962-1.893,4.774-4.9,4.777q-16.363.017-32.727,0c-1.591,0-2.474-.689-2.489-1.894-.015-1.234.831-1.907,2.44-1.908q16.046-.005,32.093,0c1.766,0,1.782-.016,1.784-1.756,0-2.4,0-4.807,0-7.315H3.837c0,2.743-.038,5.519.058,8.29.009.275.826.737,1.276.746,3,.067,6,.035,9.005.035.338,0,.678-.013,1.015.007a1.885,1.885,0,1,1,.063,3.769c-3.72.045-7.444.1-11.16-.028a4.266,4.266,0,0,1-4.059-4.4c-.03-6.258-.069-12.517.018-18.773a10.206,10.206,0,0,1,4.386-8.33,2.128,2.128,0,0,0,.952-1.988c-.03-7.611-.021-15.222-.016-22.832,0-4.369,2.46-6.851,6.827-6.859q12.431-.021,24.862,0h1.6c-.392-.679-.688-1.164-.957-1.663q-9-16.739.895-32.968A7.2,7.2,0,0,1,39.494,13a1.768,1.768,0,0,1,2.412-.305,1.787,1.787,0,0,1,.686,2.339,6.514,6.514,0,0,1-.739,1.178,27.753,27.753,0,0,0,16.373,42.12A6.132,6.132,0,0,1,62.1,60.946c.859,1.3,1.812,2.541,2.866,4.006.952-1.317,1.885-2.493,2.69-3.75a6.606,6.606,0,0,1,4.247-2.911A27.669,27.669,0,0,0,68.839,4.1,27.3,27.3,0,0,0,48.784,9.009c-.138.1-.27.2-.411.3a1.943,1.943,0,0,1-2.813-.281,1.836,1.836,0,0,1,.559-2.749,44.551,44.551,0,0,1,5.072-3.1C69.745-5.994,92.475,5.62,95.957,26a31.28,31.28,0,0,1-4,21.7c-.184.315-.347.641-.624,1.157,2.44,0,4.706,0,6.971,0,.972,0,1.947-.028,2.917.023a1.806,1.806,0,0,1,1.9,1.8,1.827,1.827,0,0,1-1.885,1.956c-1.434.069-2.874.026-4.312.028-2.579,0-5.159-.034-7.737.03a2.417,2.417,0,0,0-1.524.638,33.438,33.438,0,0,1-10.019,7.008c-.355.163-.837.591-.839.9-.05,5.659-.037,11.319-.037,17.063h8.485c0-3.5-.012-6.912,0-10.329a5.232,5.232,0,0,1,5.552-5.572q7.928-.022,15.856,0a5.229,5.229,0,0,1,5.593,5.531c.041,3.418.009,6.836.009,10.355h8.5V77.033q0-10.592,0-21.183c0-2.422-.751-3.169-3.192-3.177-2.326-.007-4.651.013-6.977-.008-1.5-.013-2.334-.719-2.332-1.912s.8-1.872,2.34-1.882c2.537-.017,5.075-.04,7.611.007a6.127,6.127,0,0,1,6.348,6.438q.035,11.67-.008,23.34a1.989,1.989,0,0,0,.929,1.873,10.628,10.628,0,0,1,4.146,6.187,8.442,8.442,0,0,0,.293.8ZM58.568,95.26c0-1.954.012-3.765-.007-5.575a10.794,10.794,0,0,0-.151-1.638,6.953,6.953,0,0,0-6.8-5.866q-20.421-.041-40.841,0a6.6,6.6,0,0,0-6.636,5.377,53.531,53.531,0,0,0-.074,7.7Zm67.526-.005c0-2.3.111-4.461-.025-6.606a6.961,6.961,0,0,0-6.913-6.467q-20.421-.044-40.842,0a6.869,6.869,0,0,0-6.426,4.545c-.974,2.779-.353,5.655-.525,8.529Zm-73-16.917a6.192,6.192,0,0,0,.082-.683c0-5.369-.011-10.738.022-16.107,0-.756-.373-1-.961-1.259A32.415,32.415,0,0,1,42.4,53.465a2.892,2.892,0,0,0-1.846-.761c-9.428-.047-18.856-.037-28.283-.03-2.332,0-3.094.785-3.095,3.143q-.005,10.654,0,21.307v1.183h8.5c0-3.418-.013-6.747,0-10.076.018-3.722,2.119-5.82,5.813-5.824,4.947-.005,9.9.144,14.837-.047,3.9-.152,6.628,2.32,6.4,6.342-.182,3.184-.037,6.387-.037,9.637ZM71.377,99.182c0,2.566,0,4.97,0,7.374,0,1.729.017,1.743,1.8,1.743q24.986,0,49.973,0c3.431,0,2.939.4,2.968-2.952.018-2.054,0-4.109,0-6.161ZM31.087,78.361c2.578,0,5.156.008,7.735,0,1.592-.007,2.058-.462,2.064-2.012q.015-4.058,0-8.115c-.006-1.582-.443-2.014-2.045-2.016q-7.672-.01-15.343,0c-1.532,0-2,.437-2.007,1.933q-.031,4.121,0,8.242c.011,1.5.487,1.959,1.988,1.968,2.536.015,5.072,0,7.608,0M98.726,66.211c-2.536,0-5.072-.006-7.608,0-1.617,0-2.052.425-2.058,2q-.015,4.058,0,8.115c.005,1.564.463,2.024,2.048,2.027q7.672.014,15.343,0c1.515,0,1.993-.463,2-1.953q.031-4.121,0-8.242c-.011-1.506-.472-1.941-1.994-1.948-2.578-.01-5.156,0-7.735,0" transform="translate(0 0.001)" fill="#db9e30"/>
    <path id="Path_521" data-name="Path 521" d="M147.123,71.192A22.866,22.866,0,1,1,169.972,48.4a22.836,22.836,0,0,1-22.849,22.794m.05-3.806a19.06,19.06,0,1,0-19.1-18.958,19.017,19.017,0,0,0,19.1,18.958" transform="translate(-82.146 -16.83)" fill="#db9e30"/>
    <path id="Path_522" data-name="Path 522" d="M195.915,100.245a5.644,5.644,0,0,1,5.3-5.943c2.928-.016,5.376,2.653,5.4,5.883.02,3.2-2.425,5.931-5.337,5.957-2.929.026-5.348-2.633-5.364-5.9m3.813.022c.019,1.091.692,2.019,1.482,2.046.819.027,1.589-.983,1.594-2.09s-.756-2.119-1.577-2.106-1.519,1-1.5,2.15" transform="translate(-129.51 -62.339)" fill="#db9e30"/>
    <path id="Path_523" data-name="Path 523" d="M166.6,62.711c-.013,3.287-2.381,5.883-5.357,5.871a5.924,5.924,0,1,1,5.357-5.871m-3.814-.032c0-1.126-.644-2.032-1.462-2.069-.852-.039-1.613.943-1.611,2.08s.762,2.108,1.622,2.063c.827-.043,1.454-.94,1.451-2.074" transform="translate(-103.058 -37.543)" fill="#db9e30"/>
    <path id="Path_524" data-name="Path 524" d="M177.487,81.723c-1.955-.018-2.735-1.408-2.092-2.964,1.658-4.011,3.351-8.009,5.029-12.012.814-1.944,1.615-3.893,2.441-5.832.6-1.409,1.529-1.911,2.634-1.467,1.16.467,1.475,1.5.855,2.985-2.468,5.911-4.924,11.827-7.46,17.709a5.932,5.932,0,0,1-1.407,1.58" transform="translate(-115.8 -39.195)" fill="#db9e30"/>
  </g>
</svg>
