<svg id="Group_88" data-name="Group 88" xmlns="http://www.w3.org/2000/svg" xmlns:xlink="http://www.w3.org/1999/xlink" width="112" height="111.963" viewBox="0 0 112 111.963">
  <defs>
    <clipPath id="clip-path">
      <rect id="Rectangle_89" data-name="Rectangle 89" width="112" height="111.963" fill="#57a68f"/>
    </clipPath>
  </defs>
  <g id="Group_87" data-name="Group 87" clip-path="url(#clip-path)">
    <path id="Path_525" data-name="Path 525" d="M100.311,111.963a2.969,2.969,0,0,1-1.555-2.973c.053-6.6.015-13.191.026-19.787A19.867,19.867,0,0,1,115.948,69.29c5-.763,9.994-1.6,14.99-2.4.176-.028.347-.085.644-.159,0-1.159.041-2.314-.032-3.462-.016-.25-.4-.555-.688-.7A21.455,21.455,0,0,1,119.079,47.8a27.431,27.431,0,0,1-.59-5.408c-.095-2.793-.025-5.591-.025-8.493h-7.836c-1.02,0-2.042.024-3.061-.01A2.073,2.073,0,0,1,105.4,32.1c-.236-3.092-.138-6.138,1.946-8.725A9.416,9.416,0,0,1,114.6,19.7c1.272-.049,2.548-.008,3.923-.008A21.871,21.871,0,0,1,128.6,3.446a21.238,21.238,0,0,1,13.2-3.4,22.084,22.084,0,0,1,20.367,19.636c1.063,0,2.145,0,3.227,0a9.531,9.531,0,0,1,9.927,9.9c0,.583.006,1.166,0,1.749-.022,1.728-.828,2.553-2.545,2.56-3.134.012-6.269,0-9.4,0H162.2c0,2.934-.009,5.766,0,8.6a21.95,21.95,0,0,1-1.771,8.931A21.551,21.551,0,0,1,150,62.455a1.327,1.327,0,0,0-.934,1.465c.074.9.017,1.816.017,2.84,2.145.347,4.256.68,6.363,1.032,3.841.643,7.731,1.084,11.509,1.989a19.647,19.647,0,0,1,14.922,18.984c.045,6.741-.018,13.483.035,20.224a2.977,2.977,0,0,1-1.554,2.974Zm9.484-82.438h19.314c.51,0,1.021-.016,1.53.006a2.18,2.18,0,1,1-.016,4.357c-1.639.034-3.28.01-4.919.01h-2.867c0,2.286-.055,4.431.016,6.573a37.616,37.616,0,0,0,.45,6.188,17.418,17.418,0,0,0,34.282-1.4c.394-3.676.164-7.418.212-11.13,0-.056-.077-.113-.164-.233-2.356,0-4.757.007-7.158,0a1.889,1.889,0,0,1-2.028-1.344,2.675,2.675,0,0,1,.282-2.1,3.247,3.247,0,0,1,2.176-.889c6.267-.067,12.535-.039,18.8-.039h1.219c0-.363.023-.615,0-.861a5.174,5.174,0,0,0-5.449-4.6q-25.144-.008-50.287,0c-.255,0-.511,0-.765.018a5.072,5.072,0,0,0-4.629,5.448m6.482,77.987h15.309c0-3.971-.006-7.864,0-11.758,0-1.791.811-2.581,2.615-2.6.959-.007,1.918,0,2.972,0a4.042,4.042,0,0,0-.226-.445q-7.271-9.7-14.572-19.382A1.642,1.642,0,0,0,121.1,72.9c-1.3.127-2.587.4-3.883.587-8.608,1.212-14.056,7.461-14.06,16.147q0,8.359,0,16.718v1.151H111.9c0-.479,0-.876,0-1.274q0-5.354,0-10.708a2.183,2.183,0,0,1,1.345-2.176,1.781,1.781,0,0,1,2.21.369,3.6,3.6,0,0,1,.783,2.034c.073,3.892.035,7.786.035,11.758m27.158-14.354c1.243,0,2.261-.007,3.279,0,1.782.015,2.581.819,2.585,2.627.008,3.533,0,7.065,0,10.6v1.205h15.09c0-4,0-7.825,0-11.648,0-1.761.827-2.793,2.21-2.777s2.161,1.03,2.162,2.827q0,5.19,0,10.38V107.5h8.714c.015-.23.032-.374.032-.518,0-6.155.066-12.311-.03-18.464A15.16,15.16,0,0,0,166.4,74.157c-2.161-.605-4.43-.822-6.637-1.276a1.508,1.508,0,0,0-1.731.7q-6.945,9.332-13.946,18.622c-.19.253-.36.521-.656.955m14.142-73.524c-.493-7.077-7.4-15.831-18.379-15.224-8.218.454-16.866,8.689-16.023,15.224Zm-17.24,70.292L153.8,71.962l-6.883-1.106a2.273,2.273,0,0,1-2.21-2.589c-.01-1.3,0-2.608,0-3.731H135.96c0,1.128.006,2.4,0,3.668a2.3,2.3,0,0,1-2.259,2.659c-2.22.359-4.438.724-6.826,1.115l13.463,17.949m-4.3,17.576h8.829V97.578h-8.829Z" transform="translate(-69.912 0)" fill="#57a68f"/>
    <path id="Path_526" data-name="Path 526" d="M0,179.11a2.828,2.828,0,0,1,2.975-1.548c1.152.084,2.314.017,3.586.017V102.408c0-.291,0-.583,0-.874.012-1.67.855-2.685,2.213-2.667s2.157,1.025,2.159,2.722c0,3.316.033,6.633-.02,9.949a1.394,1.394,0,0,0,1.052,1.579q14.713,5.825,29.393,11.735c.237.095.474.186.712.278a2.229,2.229,0,0,1,.032,4.3q-3.9,1.556-7.8,3.116-11.2,4.478-22.4,8.953c-.553.221-.991.375-.989,1.173q.049,17.165.025,34.33c0,.142.022.284.047.578q1.789,0,3.567,0c1.7,0,2.541.482,2.863,1.625.289,1.023-.152,1.86-1.45,2.748H0Zm35.672-51.826-24.666-9.865v19.736l24.666-9.871" transform="translate(0 -69.989)" fill="#57a68f"/>
    <path id="Path_527" data-name="Path 527" d="M222.029,158.15a8.793,8.793,0,0,1-7.211-3.888c-.922-1.332-.79-2.585.31-3.364s2.3-.481,3.257.833c2,2.74,5.371,2.717,7.4-.075a2.269,2.269,0,0,1,2.3-1.139,1.877,1.877,0,0,1,1.724,1.589,3.333,3.333,0,0,1-.443,2.032,8.627,8.627,0,0,1-7.33,4.013" transform="translate(-151.64 -106.52)" fill="#57a68f"/>
    <path id="Path_528" data-name="Path 528" d="M236.581,101.112a2.179,2.179,0,1,1-2.187,2.115,2.2,2.2,0,0,1,2.187-2.115" transform="translate(-165.931 -71.579)" fill="#57a68f"/>
  </g>
</svg>
