<svg id="Group_90" data-name="Group 90" xmlns="http://www.w3.org/2000/svg" xmlns:xlink="http://www.w3.org/1999/xlink" width="125.278" height="117.65" viewBox="0 0 125.278 117.65">
  <defs>
    <clipPath id="clip-path">
      <rect id="Rectangle_90" data-name="Rectangle 90" width="125.278" height="117.65" fill="#57a68f"/>
    </clipPath>
  </defs>
  <g id="Group_89" data-name="Group 89" clip-path="url(#clip-path)">
    <path id="Path_529" data-name="Path 529" d="M62.748,228.972a2.437,2.437,0,1,0,2.325,2.511,2.513,2.513,0,0,0-2.325-2.511M80.2,239.93a20.017,20.017,0,0,0-6.681-7.632,2.353,2.353,0,0,0-1.373-.476,2.269,2.269,0,0,0-2.318,1.43,2.236,2.236,0,0,0,.719,2.85,19.03,19.03,0,0,1,5.491,6.286,2.29,2.29,0,0,0,3.254.942,2.456,2.456,0,0,0,.907-3.4m0,0a20.017,20.017,0,0,0-6.681-7.632,2.353,2.353,0,0,0-1.373-.476,2.269,2.269,0,0,0-2.318,1.43,2.236,2.236,0,0,0,.719,2.85,19.03,19.03,0,0,1,5.491,6.286,2.29,2.29,0,0,0,3.254.942,2.456,2.456,0,0,0,.907-3.4M62.748,228.972a2.437,2.437,0,1,0,2.325,2.511,2.513,2.513,0,0,0-2.325-2.511M125.042,243.3a18.832,18.832,0,0,0-2.335-7.137c-3.931-6.869-9.771-10.936-17.68-11.892a8.535,8.535,0,0,0-.986-.221.77.77,0,0,0,.488-.216,7.059,7.059,0,0,0,.853-.056A14.706,14.706,0,1,0,88.11,212.163c1.062,6,6.58,11.2,12.393,11.684.064.049.169.074.194.132.108.245-.135.135-.2.162-.2.078-.441,0-.647.113a.371.371,0,0,0-.042.025,22.693,22.693,0,0,0-12.9,5.749c-.726.652-1.1.638-1.653-.125a20.918,20.918,0,0,0-3.375-3.517,28.49,28.49,0,0,0-16.265-7.024,8.756,8.756,0,0,0-.993-.221.722.722,0,0,0,.508-.206c8.792-.726,16.483-8.861,17.04-18.019a19.58,19.58,0,1,0-26.257,17.023,33.429,33.429,0,0,0,4.618,1.158,2.072,2.072,0,0,1-.4.2A28.741,28.741,0,0,0,39.979,229.97c-.608.738-.92.665-1.575.076a22.771,22.771,0,0,0-12.927-5.768.458.458,0,0,0-.047-.027c-.235-.123-.51-.029-.748-.13-.071-.029-.233-.01-.2-.093s.2-.113.289-.181C32.865,223.174,39,214.4,37.1,206.206a14.68,14.68,0,1,0-28.525,6.919C10,218.76,15.4,223.508,20.749,223.832a.781.781,0,0,0,.491.216,8.424,8.424,0,0,0-.986.221c-8.373.488-16.881,7.483-19.323,15.752C-.075,243.42,0,246.873,0,250.339c0,2.242.88,3.127,3.11,3.127q59.515,0,119.03.015a2.942,2.942,0,0,0,3.134-1.974v-7.843c-.194-.047-.216-.2-.235-.365m-32.3-33.96a9.781,9.781,0,1,1,9.805,9.805,9.889,9.889,0,0,1-9.805-9.805m-44.78-9.817A14.678,14.678,0,1,1,62.65,214.245,14.734,14.734,0,0,1,47.962,199.52m-34.985,9.744a9.781,9.781,0,1,1,9.732,9.879,9.89,9.89,0,0,1-9.732-9.879m23.25,26.558A28.7,28.7,0,0,0,33.338,247.6c-.027.8-.265.993-1.042.986-4.4-.037-8.8-.017-13.2-.017s-8.8-.007-13.2.007c-.625,0-.976.012-1.02-.856a17.605,17.605,0,0,1,14.19-18.34,18.245,18.245,0,0,1,16.935,5.077.994.994,0,0,1,.235,1.369m49.779,12.765c-7.828-.039-15.659-.022-23.488-.022-7.747,0-15.5-.02-23.245.022-.927,0-1.126-.213-1.086-1.135a24.481,24.481,0,0,1,48.91,0c.037.92-.167,1.138-1.091,1.133m33.354,0c-4.4-.051-8.8-.022-13.2-.022s-8.8-.015-13.207.015c-.684,0-.979-.088-1.006-.9a28.41,28.41,0,0,0-2.86-11.782,1.067,1.067,0,0,1,.226-1.479c5.035-4.76,10.96-6.578,17.653-4.846a17.189,17.189,0,0,1,12.986,12.947,21.476,21.476,0,0,1,.459,4.981c.025.834-.164,1.091-1.047,1.082M73.515,232.3a2.353,2.353,0,0,0-1.373-.476,2.269,2.269,0,0,0-2.318,1.43,2.236,2.236,0,0,0,.719,2.85,19.03,19.03,0,0,1,5.491,6.286,2.29,2.29,0,0,0,3.254.942,2.456,2.456,0,0,0,.907-3.4,20.017,20.017,0,0,0-6.681-7.632m-10.767-3.326a2.437,2.437,0,1,0,2.325,2.511,2.513,2.513,0,0,0-2.325-2.511m0,0a2.437,2.437,0,1,0,2.325,2.511,2.513,2.513,0,0,0-2.325-2.511M80.2,239.93a20.017,20.017,0,0,0-6.681-7.632,2.353,2.353,0,0,0-1.373-.476,2.269,2.269,0,0,0-2.318,1.43,2.236,2.236,0,0,0,.719,2.85,19.03,19.03,0,0,1,5.491,6.286,2.29,2.29,0,0,0,3.254.942,2.456,2.456,0,0,0,.907-3.4m0,0a20.017,20.017,0,0,0-6.681-7.632,2.353,2.353,0,0,0-1.373-.476,2.269,2.269,0,0,0-2.318,1.43,2.236,2.236,0,0,0,.719,2.85,19.03,19.03,0,0,1,5.491,6.286,2.29,2.29,0,0,0,3.254.942,2.456,2.456,0,0,0,.907-3.4M62.748,228.972a2.437,2.437,0,1,0,2.325,2.511,2.513,2.513,0,0,0-2.325-2.511" transform="translate(0 -135.83)" fill="#57a68f"/>
    <path id="Path_530" data-name="Path 530" d="M213.382,17.085a2.619,2.619,0,0,0,.927-2.842,2.675,2.675,0,0,0-2.531-1.771c-2.985-.4-5.962-.866-8.949-1.261a1.757,1.757,0,0,1-1.518-1.16c-1.292-2.762-2.671-5.486-3.993-8.236a2.536,2.536,0,0,0-4.866.012c-1.317,2.754-2.71,5.469-4,8.236a1.745,1.745,0,0,1-1.516,1.148c-2.987.4-5.965.861-8.949,1.258a2.684,2.684,0,0,0-2.533,1.778,2.661,2.661,0,0,0,.944,2.842c2.239,2.143,4.432,4.336,6.668,6.484a1.416,1.416,0,0,1,.491,1.479c-.608,3.286-1.133,6.587-1.66,9.734a2.469,2.469,0,0,0,3.8,2.4c2.823-1.442,5.626-2.928,8.415-4.437a1.409,1.409,0,0,1,1.543,0c2.788,1.511,5.6,2.972,8.412,4.444a2.509,2.509,0,0,0,2.874-.108,2.6,2.6,0,0,0,.878-2.744c-.549-2.965-1.013-5.947-1.57-8.912a2.056,2.056,0,0,1,.719-2.126c2.175-2.031,4.272-4.147,6.411-6.22m-10.941,3.774a3.8,3.8,0,0,0-1.219,4.049c.407,1.82.635,3.681.981,5.746-1.643-.858-3.166-1.516-4.537-2.411a4.537,4.537,0,0,0-5.516-.029c-1.381.91-2.923,1.577-4.576,2.45.378-2.278.687-4.392,1.091-6.487a3.069,3.069,0,0,0-1-2.96c-1.462-1.469-2.852-3-4.3-4.54,1.974-.3,4.069-.66,6.175-.925a2.97,2.97,0,0,0,2.487-1.879c.9-1.913,1.844-3.8,2.842-5.847.947,1.92,1.906,3.7,2.708,5.548a3.442,3.442,0,0,0,3.029,2.264c1.977.226,3.941.552,5.8.819-1.339,1.432-2.563,2.918-3.973,4.2" transform="translate(-132.335 0)" fill="#57a68f"/>
    <path id="Path_531" data-name="Path 531" d="M54.628,100.5a2.7,2.7,0,0,0-2.541-1.768c-1.817-.221-3.625-.527-5.44-.758a1.833,1.833,0,0,1-1.641-1.167c-.792-1.781-1.69-3.517-2.551-5.268a2.484,2.484,0,0,0-4.645.012c-.853,1.756-1.79,3.473-2.568,5.261A1.8,1.8,0,0,1,33.6,97.973c-1.857.24-3.706.525-5.56.775a2.523,2.523,0,0,0-1.545,4.515c1.27,1.207,2.45,2.519,3.787,3.647a2.473,2.473,0,0,1,.876,2.757c-.417,1.908-.679,3.85-.956,5.474-.059,2.313,1.746,3.47,3.615,2.565s3.7-1.879,5.5-2.889a1.489,1.489,0,0,1,1.658.022c1.739.966,3.522,1.854,5.278,2.791a2.476,2.476,0,0,0,2.865-.088,2.585,2.585,0,0,0,.912-2.742c-.348-1.964-.643-3.941-1.047-5.9a1.393,1.393,0,0,1,.5-1.481c1.425-1.342,2.806-2.73,4.216-4.086a2.594,2.594,0,0,0,.93-2.838m-10.7,6.014c-.459,1.491.444,2.931.351,4.731-2.779-2.479-5.518-2.492-8.424-.147,1.369-3.507.454-6.1-2.727-7.976,1.717-.64,3.416-.216,4.692-1.189,1.236-.947,1.393-2.632,2.477-4.052.8,3.63,2.995,5.3,6.73,4.905-1,1.528-2.624,2.183-3.1,3.728" transform="translate(-19.261 -67.883)" fill="#57a68f"/>
    <path id="Path_532" data-name="Path 532" d="M393.851,100.539a2.668,2.668,0,0,0-2.511-1.8c-1.857-.231-3.706-.542-5.562-.773a1.731,1.731,0,0,1-1.54-1.118c-.8-1.778-1.692-3.517-2.553-5.268a2.5,2.5,0,0,0-4.7.042c-.812,1.687-1.709,3.331-2.453,5.045a1.988,1.988,0,0,1-1.8,1.327c-1.859.216-3.708.508-5.562.768a2.518,2.518,0,0,0-2.31,1.707,2.561,2.561,0,0,0,.809,2.766c1.356,1.3,2.641,2.673,4.049,3.907a2.1,2.1,0,0,1,.7,2.244c-.388,2-.714,4.01-1,5.675-.086,2.357,1.709,3.559,3.568,2.671,1.756-.844,3.485-1.756,5.172-2.732a2.047,2.047,0,0,1,2.32-.025c1.616.937,3.3,1.758,4.944,2.641a2.5,2.5,0,0,0,2.869-.044,2.633,2.633,0,0,0,.934-2.845c-.331-1.844-.562-3.711-.979-5.533a1.812,1.812,0,0,1,.672-2c1.356-1.231,2.632-2.556,3.958-3.821a2.635,2.635,0,0,0,.976-2.833m-10.237,10.587c-2.9-2.354-5.643-2.381-8.557.012,1.324-3.485.517-6.144-2.661-8.172,3.779.231,5.962-1.491,6.943-5.069.961,3.61,3.156,5.283,6.923,5.047-3.093,2.045-4,4.674-2.649,8.182" transform="translate(-275.278 -67.883)" fill="#57a68f"/>
    <path id="Path_533" data-name="Path 533" d="M260.1,339.168a8.711,8.711,0,0,1-2.415-.043,2.568,2.568,0,0,1,1.929-.385c.025.3.336.272.487.428" transform="translate(-194.489 -255.636)" fill="#57a68f"/>
    <path id="Path_534" data-name="Path 534" d="M83.083,358.671a3.13,3.13,0,0,1,1.785.186,3.711,3.711,0,0,1-2.281.251c.124-.193.476-.127.5-.438" transform="translate(-62.332 -270.671)" fill="#57a68f"/>
    <path id="Path_535" data-name="Path 535" d="M421.227,359.122a5.338,5.338,0,0,1-2.28-.138,2.327,2.327,0,0,1,1.784-.3c.021.31.372.245.5.438" transform="translate(-316.2 -270.684)" fill="#57a68f"/>
    <path id="Path_536" data-name="Path 536" d="M97.7,359.141a4.165,4.165,0,0,1-2.01-.163A1.39,1.39,0,0,1,97,358.711l.7.431" transform="translate(-72.219 -270.694)" fill="#57a68f"/>
    <path id="Path_537" data-name="Path 537" d="M407.649,358.7a1.482,1.482,0,0,1,1.242.183,2.82,2.82,0,0,1-1.941.248l.7-.431" transform="translate(-307.145 -270.688)" fill="#57a68f"/>
    <path id="Path_538" data-name="Path 538" d="M250.361,382.284a2.434,2.434,0,1,1-2.325-2.511,2.522,2.522,0,0,1,2.325,2.511" transform="translate(-185.287 -286.631)" fill="#57a68f"/>
    <path id="Path_539" data-name="Path 539" d="M293.459,402.9a2.29,2.29,0,0,1-3.254-.942,19.031,19.031,0,0,0-5.491-6.286,2.236,2.236,0,0,1-.719-2.85,2.269,2.269,0,0,1,2.318-1.43,2.353,2.353,0,0,1,1.373.476,20.017,20.017,0,0,1,6.681,7.632,2.456,2.456,0,0,1-.907,3.4" transform="translate(-214.171 -295.406)" fill="#57a68f"/>
    <path id="Path_540" data-name="Path 540" d="M293.459,402.9a2.29,2.29,0,0,1-3.254-.942,19.031,19.031,0,0,0-5.491-6.286,2.236,2.236,0,0,1-.719-2.85,2.269,2.269,0,0,1,2.318-1.43,2.353,2.353,0,0,1,1.373.476,20.017,20.017,0,0,1,6.681,7.632,2.456,2.456,0,0,1-.907,3.4" transform="translate(-214.171 -295.406)" fill="#57a68f"/>
    <path id="Path_541" data-name="Path 541" d="M250.361,382.284a2.434,2.434,0,1,1-2.325-2.511,2.522,2.522,0,0,1,2.325,2.511" transform="translate(-185.287 -286.631)" fill="#57a68f"/>
  </g>
</svg>
