<svg id="Group_500" data-name="Group 500" xmlns="http://www.w3.org/2000/svg" xmlns:xlink="http://www.w3.org/1999/xlink" width="45" height="44.956" viewBox="0 0 45 44.956">
  <defs>
    <clipPath id="clip-path">
      <rect id="Rectangle_313" data-name="Rectangle 313" width="45" height="44.956" fill="none"/>
    </clipPath>
  </defs>
  <g id="Group_499" data-name="Group 499" clip-path="url(#clip-path)">
    <path id="Path_1349" data-name="Path 1349" d="M21.772,0h1.4a3.561,3.561,0,0,0,.871.044,3.048,3.048,0,0,0,.8-.044h.176a1.176,1.176,0,0,0,.7,0h.615a.327.327,0,0,0,.351,0h.351a9.641,9.641,0,0,0,1.654.072C29.949.1,31.208.1,32.459.189a33.175,33.175,0,0,1,5.86.665,7.827,7.827,0,0,1,3.464,1.973,8.2,8.2,0,0,1,2.51,4.662c.168.948.225,1.912.309,2.87.128,1.467.242,2.936.3,4.409.024.628.026,1.256.037,1.883.06,3.3.085,6.608.043,9.911-.163.138-.2-.02-.237-.115a1.137,1.137,0,0,1-.048-.563,1.4,1.4,0,0,0-.545-1.3c-.46-.4-.874-.861-1.308-1.3q-4.015-4.015-8.031-8.028c-.372-.372-.689-.795-1.086-1.143a1.991,1.991,0,0,0-.422-.31c-.49-.439-.89-.966-1.371-1.416a13.632,13.632,0,0,0-7.449-3.618,13.231,13.231,0,0,0-8.44,1.463,13.5,13.5,0,0,0-6.9,8.808,12.685,12.685,0,0,0-.427,3.205,12.916,12.916,0,0,0,1.144,5.536,2.779,2.779,0,0,1,.2,1.866c-.435,1.968-.833,3.944-1.225,5.921a.753.753,0,0,0,.206.8c.078.22.284.325.436.478q3.731,3.735,7.464,7.467a.912.912,0,0,1,.294.427.15.15,0,0,1-.121.2c-1.734-.047-3.469-.056-5.2-.216-1.1-.1-2.205-.221-3.31-.286A8.43,8.43,0,0,1,.64,37.372c-.164-.99-.208-2-.306-3C.106,32.031.11,29.682.043,27.336A.239.239,0,0,0,0,27.215v-.527a.327.327,0,0,0,0-.351v-.615c.093-.176.021-.365.044-.547V24.3A5.065,5.065,0,0,0,0,23.265v-1.4c.093-.178.021-.37.044-.553A3.345,3.345,0,0,0,0,20.455v-.263a.921.921,0,0,0,0-.615v-.615c.083-.1.028-.225.044-.337-.013-.093.032-.195-.044-.278v-.527a9.19,9.19,0,0,0,.073-1.609C.1,14.958.1,13.7.19,12.449A31.236,31.236,0,0,1,.759,7.061,8.138,8.138,0,0,1,7.573.646C8.542.455,9.543.433,10.53.337c2.356-.23,4.721-.229,7.083-.294A.24.24,0,0,0,17.734,0h.351c.11.084.237.027.355.044h.493c.1-.013.2.033.293-.044h.527a2.577,2.577,0,0,0,.733.044A7.815,7.815,0,0,0,21.772,0" fill="#29a61a"/>
    <path id="Path_1350" data-name="Path 1350" d="M153.424,0A3.965,3.965,0,0,1,152.1.083q-.079-.047.006-.083Z" transform="translate(-131.652)" fill="#3bae2e"/>
    <path id="Path_1351" data-name="Path 1351" d="M0,173.319c.178.34.051.705.084,1.057q-.046.082-.084,0Z" transform="translate(0 -150.054)" fill="#38ad2a"/>
    <path id="Path_1352" data-name="Path 1352" d="M173.548.084c-.294-.03-.6.088-.882-.084h.878c.057.026.058.053,0,.084" transform="translate(-149.489)" fill="#37ac29"/>
    <path id="Path_1353" data-name="Path 1353" d="M0,152.39c.176.278.051.585.086.876q-.041.088-.086,0Z" transform="translate(0 -131.935)" fill="#3eaf31"/>
    <path id="Path_1354" data-name="Path 1354" d="M179.21.084c0-.028,0-.056,0-.084H180c-.246.175-.525.05-.786.084" transform="translate(-155.151)" fill="#4bb43e"/>
    <path id="Path_1355" data-name="Path 1355" d="M147.86,0a.8.8,0,0,1-.006.083c-.232-.031-.482.092-.7-.083Z" transform="translate(-127.405)" fill="#5bbb50"/>
    <path id="Path_1356" data-name="Path 1356" d="M187.1,0a.671.671,0,0,1-.7,0Z" transform="translate(-161.38)" fill="#77c66e"/>
    <path id="Path_1357" data-name="Path 1357" d="M0,145.85a.515.515,0,0,1,0,.614Z" transform="translate(0 -126.273)" fill="#66bf5b"/>
    <path id="Path_1358" data-name="Path 1358" d="M0,158.92l.086,0c-.014.179.052.37-.086.528Z" transform="translate(0 -137.586)" fill="#32aa24"/>
    <path id="Path_1359" data-name="Path 1359" d="M.074,187.435c-.014.175.091.368-.074.522v-.527q.043-.089.074.005" transform="translate(0 -162.234)" fill="#7bc871"/>
    <path id="Path_1360" data-name="Path 1360" d="M0,181.168l.084,0-.006.441c-.029.047-.055.043-.078-.005Z" transform="translate(0 -156.85)" fill="#4eb641"/>
    <path id="Path_1361" data-name="Path 1361" d="M0,184.438l.079.005q0,.219,0,.439L0,184.877Z" transform="translate(0 -159.681)" fill="#65bf5a"/>
    <path id="Path_1362" data-name="Path 1362" d="M135.08.072c-.119-.01-.262.092-.349-.072h.351c.06.026.059.05,0,.072" transform="translate(-116.646)" fill="#c9e8c5"/>
    <path id="Path_1363" data-name="Path 1363" d="M138.735.072l-.35,0c-.036-.018-.047-.035-.035-.051A.049.049,0,0,1,138.387,0h.351q.089.04,0,.072" transform="translate(-119.775 0)" fill="#a0d799"/>
    <path id="Path_1364" data-name="Path 1364" d="M196.562,0c-.117.146-.234.128-.351,0Z" transform="translate(-169.874)" fill="#bce3b7"/>
    <path id="Path_1365" data-name="Path 1365" d="M.074,138.406c0,.124.064.26-.074.354v-.351q.034-.075.074,0" transform="translate(0 -119.797)" fill="#a0d799"/>
    <path id="Path_1366" data-name="Path 1366" d="M0,196.211c.128.117.147.234,0,.351Z" transform="translate(0 -169.874)" fill="#bbe3b6"/>
    <path id="Path_1367" data-name="Path 1367" d="M141.249.072c0-.024,0-.048,0-.072h.263c-.063.119-.169.081-.266.072" transform="translate(-122.289)" fill="#8dd085"/>
    <path id="Path_1368" data-name="Path 1368" d="M.074,136.954a.677.677,0,0,0-.074,0v-.263c.139.054.073.167.074.261" transform="translate(0 -118.345)" fill="#b8e1b3"/>
    <path id="Path_1369" data-name="Path 1369" d="M137.508,0c0,.025,0,.05,0,.075l-.176,0c0-.024,0-.048,0-.072Z" transform="translate(-118.896)" fill="#b4e0af"/>
    <path id="Path_1370" data-name="Path 1370" d="M102.619,115.008c-.009,1.8-.131,3.593-.254,5.387-.118,1.705-.273,3.406-.456,5.106a8.217,8.217,0,0,1-6.43,6.956,37.9,37.9,0,0,1-3.916.427c-2.316.191-4.637.327-6.961.395-2.911.084-5.821.1-8.732-.006-.307-.011-.613-.027-.919-.04q-1.912-1.924-3.824-3.847-2.039-2.045-4.082-4.085c-.123-.123-.232-.26-.347-.391.115-.182.315-.2.5-.248,2.056-.506,4.121-.969,6.176-1.477a2,2,0,0,1,1.314.14A13.607,13.607,0,0,0,86.3,123.07a12.612,12.612,0,0,0,3.6-2.545,13.773,13.773,0,0,0,1.451-17.839c-.121-.172-.3-.34-.185-.591a1.1,1.1,0,0,1,.438.353q5.273,5.269,10.55,10.533a1.318,1.318,0,0,1,.461,1.152,7.387,7.387,0,0,0,.008.875" transform="translate(-57.745 -88.391)" fill="#1e7f16"/>
    <path id="Path_1371" data-name="Path 1371" d="M88.451,68.168a14.975,14.975,0,0,1,2.53,5.1A13.929,13.929,0,0,1,71.6,89.436a.883.883,0,0,0-.626-.059c-2.17.523-4.343,1.031-6.516,1.539-.155.036-.316.044-.474.066-.386-.2-.411-.518-.332-.9.455-2.173.9-4.347,1.357-6.519a1.178,1.178,0,0,0-.1-.8,13.9,13.9,0,0,1,10.57-19.7,13.57,13.57,0,0,1,12.7,4.812c.086.1.176.192.265.288" transform="translate(-55.035 -54.464)" fill="#fefefe"/>
    <path id="Path_1372" data-name="Path 1372" d="M86.887,106.576c.208-1.028.341-2,.61-2.935a3.584,3.584,0,0,0-.322-2.734,10.9,10.9,0,1,1,11.65,6.13,11.056,11.056,0,0,1-7.08-1.212,1.425,1.425,0,0,0-1.117-.141c-1.212.321-2.439.585-3.741.891" transform="translate(-74.553 -73.926)" fill="#1e7f16"/>
    <path id="Path_1373" data-name="Path 1373" d="M125.765,129.888a7.494,7.494,0,0,1-3.472-.957,16.279,16.279,0,0,1-6.211-5.858,6.048,6.048,0,0,1-.942-3.46,4.048,4.048,0,0,1,1.98-3.1.906.906,0,0,1,1.313.391c.431.893.823,1.806,1.212,2.718a.933.933,0,0,1-.155.952c-.183.247-.379.483-.56.731a.984.984,0,0,0-.044,1.186,7.262,7.262,0,0,0,1.093,1.311,15.209,15.209,0,0,0,3.1,2.5c.761.436,1.082.383,1.7-.241l.4-.4a1.023,1.023,0,0,1,1.083-.283c.841.243,1.687.471,2.526.722a1.018,1.018,0,0,1,.6,1.675,4.138,4.138,0,0,1-2.409,1.983,4.687,4.687,0,0,1-1.219.133" transform="translate(-99.68 -100.746)" fill="#fefefe"/>
  </g>
</svg>
