<svg id="Group_1206" data-name="Group 1206" xmlns="http://www.w3.org/2000/svg" xmlns:xlink="http://www.w3.org/1999/xlink" width="59.294" height="41.54" viewBox="0 0 59.294 41.54">
  <defs>
    <clipPath id="clip-path">
      <rect id="Rectangle_607" data-name="Rectangle 607" width="59.294" height="41.54" fill="#ed0000"/>
    </clipPath>
  </defs>
  <g id="Group_1205" data-name="Group 1205" clip-path="url(#clip-path)">
    <path id="Path_2206" data-name="Path 2206" d="M59.294,31.077c-.11.5-.212,1.008-.331,1.509A11.535,11.535,0,0,1,47.936,41.5c-6.462.07-12.926.024-19.389.026-5.556,0-11.113.015-16.669,0A11.594,11.594,0,0,1,.434,32.91a12.132,12.132,0,0,1-.406-3.024Q-.027,20.771.015,11.655A11.569,11.569,0,0,1,11.417.043C18.67-.036,25.925.019,33.179.017c4.746,0,9.492-.014,14.238,0a11.627,11.627,0,0,1,11.461,8.6c.167.607.278,1.229.415,1.844ZM29.624,38.053q8.8,0,17.594,0a9.806,9.806,0,0,0,1.615-.087,8.17,8.17,0,0,0,6.985-8.3q.006-8.855,0-17.71a8.168,8.168,0,0,0-8.4-8.465c-2.257-.011-4.514,0-6.771,0q-14.353,0-28.706,0a8.162,8.162,0,0,0-8.456,8.468q0,8.855.008,17.71a9.047,9.047,0,0,0,.183,1.893,8.131,8.131,0,0,0,8.182,6.484c5.923.015,11.845,0,17.768,0" transform="translate(0 0)" fill="#ed0000"/>
    <path id="Path_2207" data-name="Path 2207" d="M143.18,72.147c0-3.066,0-6.133,0-9.2a1.792,1.792,0,0,1,2.935-1.588q5.6,3.534,11.206,7.047c1.224.769,2.451,1.531,3.668,2.312a1.745,1.745,0,0,1-.025,3.17q-7.463,4.582-14.935,9.149a1.791,1.791,0,0,1-1.962.129,1.844,1.844,0,0,1-.888-1.762q.01-4.629,0-9.257m13.764.13-10.259-6.449V78.557l10.259-6.28" transform="translate(-121.029 -51.511)" fill="#ed0000"/>
  </g>
</svg>
