<svg id="Group_363" data-name="Group 363" xmlns="http://www.w3.org/2000/svg" xmlns:xlink="http://www.w3.org/1999/xlink" width="64.75" height="48.863" viewBox="0 0 64.75 48.863">
  <defs>
    <clipPath id="clip-path">
      <rect id="Rectangle_252" data-name="Rectangle 252" width="64.75" height="48.863" fill="#fff"/>
    </clipPath>
  </defs>
  <g id="Group_362" data-name="Group 362" clip-path="url(#clip-path)">
    <path id="Path_1250" data-name="Path 1250" d="M64.75,30.34c-.083,1.3-.169,2.6-.249,3.9a30.773,30.773,0,0,1-.766,5.873c-1.1,4.262-3.618,7.089-8.06,7.852a39.59,39.59,0,0,1-5.346.427c-5.829.2-11.662.518-17.491.468-7.2-.061-14.4-.411-21.59-.711a11.827,11.827,0,0,1-6.111-1.779,9.909,9.909,0,0,1-4.1-6.221,44.224,44.224,0,0,1-.916-9.6A145.188,145.188,0,0,1,.541,11.483a13.316,13.316,0,0,1,2.53-7.1A8.991,8.991,0,0,1,9.377.79C12.747.462,16.137.233,19.522.167c6.8-.131,13.6-.213,20.4-.141,4.819.051,9.638.334,14.45.619A9.8,9.8,0,0,1,62,4.654,10.815,10.815,0,0,1,63.956,9.73c.322,2.416.455,4.857.668,7.287.046.522.085,1.044.127,1.566ZM33.8,3.6c-5.96.144-10.487.222-15.013.373-2.756.092-5.514.227-8.26.473a5.872,5.872,0,0,0-5.46,4.172A21.16,21.16,0,0,0,4.1,14.382a165.124,165.124,0,0,0,.018,20.083,37.815,37.815,0,0,0,.736,5.108,5.5,5.5,0,0,0,1.556,2.975,6.494,6.494,0,0,0,4,1.676c2.22.215,4.446.4,6.674.491,10.189.407,20.38.5,30.57.021,2.438-.116,4.884-.225,7.306-.511a5.375,5.375,0,0,0,4.637-3.671A20.857,20.857,0,0,0,60.7,34.182a168.33,168.33,0,0,0,.107-17.244,31.314,31.314,0,0,0-.848-7.7,6.261,6.261,0,0,0-2.077-3.444,7.879,7.879,0,0,0-4.622-1.453C46.3,4.051,39.335,3.805,33.8,3.6" transform="translate(0 0)" fill="#fff"/>
    <path id="Path_1251" data-name="Path 1251" d="M152.7,94.726c0-2.444,0-4.887,0-7.331s2.013-3.66,4.154-2.493c4.581,2.5,9.151,5.016,13.733,7.511a2.682,2.682,0,0,1-.042,4.962c-4.563,2.441-9.117,4.9-13.679,7.344-2.158,1.156-4.159-.035-4.166-2.472-.007-2.507,0-5.014,0-7.521m14.476.148-10.638-5.823v11.542l10.638-5.719" transform="translate(-128.533 -71.087)" fill="#fff"/>
  </g>
</svg>
